<svg width="24" height="24" viewBox="0 0 24 24" fill="none" xmlns="http://www.w3.org/2000/svg">
<g clip-path="url(#clip0_875_547)">
<path d="M22.9624 12.2184C22.9624 18.4442 17.9154 23.4911 11.6896 23.4911C5.4639 23.4911 0.416931 18.4442 0.416931 12.2184C0.416931 5.99265 5.4639 0.945671 11.6896 0.945671C17.9154 0.945671 22.9624 5.99265 22.9624 12.2184Z" fill="white" stroke="#CED3E6" stroke-width="0.727273"/>
<path d="M18.3807 10.4727C18.3807 14.0972 15.6188 17.0766 12.0847 17.4211C12.1657 16.4276 11.8576 15.4414 11.2254 14.6708C10.5931 13.9001 9.68619 13.4052 8.69593 13.2906V4.04011L8.6936 4.0346C9.55004 3.67473 10.4698 3.48994 11.3988 3.49113C15.2548 3.49113 18.3807 6.61694 18.3807 10.4727Z" fill="#DEDEDE"/>
<path d="M4.44206 17.542C4.37475 16.9569 4.44312 16.3641 4.64188 15.8097C4.84064 15.2553 5.16444 14.7541 5.58817 14.345C6.83993 16.2191 8.97523 17.4545 11.3989 17.4545C11.6304 17.4545 11.859 17.4433 12.0848 17.4211C11.939 19.2116 10.546 20.7086 8.69326 20.9204C6.58657 21.1615 4.68311 19.6487 4.44206 17.542Z" fill="#1E4480"/>
<path d="M8.69592 4.04014V13.2906C9.68617 13.4053 10.5931 13.9001 11.2254 14.6708C11.8576 15.4415 12.1657 16.4276 12.0847 17.4211C11.859 17.4431 11.6305 17.4543 11.3988 17.4545C8.97519 17.4545 6.83989 16.2191 5.58813 14.3451C6.19534 13.7565 6.98052 13.3858 7.82086 13.291H7.82341V4.48238L7.82013 4.47686C8.10035 4.30912 8.39214 4.16133 8.69323 4.03462L8.69592 4.04014Z" fill="#152E51"/>
<path d="M4.41725 10.4727C4.41725 7.92495 5.782 5.6957 7.82017 4.47683L7.82344 4.48234V13.2903H7.8209C6.98047 13.3852 6.19527 13.7562 5.58817 14.345C4.82245 13.199 4.41488 11.8511 4.41725 10.4727Z" fill="#DEDEDE"/>
</g>
<defs>
<clipPath id="clip0_875_547">
<rect width="24" height="24" fill="white"/>
</clipPath>
</defs>
</svg>
