<svg xmlns="http://www.w3.org/2000/svg" width="42" height="42" fill="none" viewBox="0 0 42 42">
    <mask id="a" width="35" height="36" x="4" y="3" maskUnits="userSpaceOnUse" style="mask-type:alpha">
        <path fill="#D9D9D9" fill-rule="evenodd"
              d="M22.913 34.733A8.904 8.904 0 0 1 35.42 23.269a16 16 0 1 0-12.507 11.464ZM23.096 31a7.904 7.904 0 1 1 15.808 0 7.904 7.904 0 0 1-15.808 0Z"
              clip-rule="evenodd"/>
    </mask>
    <g mask="url(#a)">
        <path fill="#F7931A" d="M35.525 22.87a16 16 0 1 1-31.05-7.74 16 16 0 0 1 31.05 7.74Z"/>
        <path fill="#fff"
              d="M26.96 16.638c.313-1.996-1.275-3.07-3.447-3.786l.704-2.704-1.72-.41-.686 2.633c-.452-.108-.917-.21-1.379-.31l.692-2.651-1.72-.41-.704 2.704a59.234 59.234 0 0 1-1.098-.247v-.009l-2.373-.566-.458 1.758s1.277.28 1.25.297a.922.922 0 0 1 .604.321c.15.18.22.408.197.637l-.802 3.081c.06.014.12.033.179.055l-.182-.043-1.125 4.317a.61.61 0 0 1-.31.35.65.65 0 0 1-.478.038c.017.024-1.25-.298-1.25-.298L12 23.279l2.238.535c.417.1.825.204 1.227.302l-.711 2.736 1.718.41.705-2.706c.469.122.925.233 1.372.34l-.702 2.694 1.72.41.711-2.73c2.934.53 5.139.317 6.068-2.223.748-2.044-.038-3.223-1.58-3.992a2.761 2.761 0 0 0 1.526-.85c.397-.436.632-.988.67-1.568l-.001.001Zm-3.93 5.275c-.53 2.044-4.128.938-5.294.662l.945-3.624c1.166.279 4.905.83 4.35 2.962Zm.533-5.304c-.485 1.86-3.479.914-4.45.683l.858-3.287c.969.233 4.098.664 3.593 2.604h-.001Z"/>
        <path fill="#F7931A" d="M38.763 32.935a8 8 0 1 1-15.524-3.87 8 8 0 0 1 15.524 3.87Z"/>
        <path fill="#fff"
              d="M34.48 29.82c.156-1-.637-1.536-1.723-1.894l.352-1.352-.86-.205-.344 1.317a37.041 37.041 0 0 0-.689-.156l.346-1.325-.86-.205-.352 1.352c-.188-.04-.371-.081-.55-.123v-.005l-1.185-.283-.23.879s.639.14.625.149a.46.46 0 0 1 .302.16c.075.09.11.204.1.318l-.402 1.541c.03.007.06.016.09.028l-.091-.022-.563 2.158a.305.305 0 0 1-.155.176.324.324 0 0 1-.239.018c.009.012-.625-.149-.625-.149L27 33.14l1.12.267c.207.05.411.102.612.151l-.355 1.368.859.205.352-1.353c.235.061.463.117.687.17l-.351 1.347.86.205.355-1.365c1.467.265 2.57.158 3.034-1.111.374-1.023-.019-1.612-.79-1.997a1.38 1.38 0 0 0 .763-.424c.198-.219.316-.495.335-.784Zm-1.964 2.636c-.266 1.023-2.065.47-2.648.331l.473-1.812c.582.14 2.452.415 2.175 1.481Zm.266-2.652c-.243.93-1.74.458-2.225.342l.428-1.643c.485.116 2.05.331 1.797 1.301Z"/>
    </g>
</svg>