<svg width="257" height="256" viewBox="0 0 257 256" fill="none" xmlns="http://www.w3.org/2000/svg">
<g clip-path="url(#clip0_234_201)">
<path d="M138.398 182.812V203.089H118.754V181.861C97.2098 178.693 81.3682 166.02 80.1009 148.594H101.962C104.18 158.733 116.22 165.069 131.428 165.069C145.685 165.069 155.824 159.05 155.824 150.812C155.824 125.782 81.3682 151.129 81.3682 102.97C81.3682 86.4952 96.893 75.4061 118.754 73.5051V52.5942H138.398V73.8219C159.626 76.9902 173.883 89.0298 175.467 105.188H153.606C151.705 96.9506 140.616 90.2971 126.992 90.2971C112.101 90.2971 102.596 96.0001 102.596 103.287C102.596 126.733 177.051 102.337 177.051 151.129C177.051 167.604 162.794 180.911 138.398 182.812ZM128.576 256C57.9227 256 0.576172 198.654 0.576172 128C0.576172 57.3467 57.9227 0.00012207 128.576 0.00012207C199.23 0.00012207 256.576 57.3467 256.576 128C256.576 198.654 199.23 256 128.576 256ZM128.576 13.9407C65.5267 13.9407 14.5168 64.9506 14.5168 128C14.5168 191.05 65.8435 242.06 128.576 242.06C191.309 242.06 242.636 190.733 242.636 128C242.636 64.9506 191.626 13.9407 128.576 13.9407Z" fill="white"/>
</g>
<defs>
<clipPath id="clip0_234_201">
<rect width="256" height="256" fill="white" transform="translate(0.576172)"/>
</clipPath>
</defs>
</svg>
