<svg width="265" height="265" viewBox="0 0 265 265" fill="none" xmlns="http://www.w3.org/2000/svg">
<g clip-path="url(#clip0_521_3993)">
<mask id="mask0_521_3993" style="mask-type:alpha" maskUnits="userSpaceOnUse" x="0" y="0" width="265" height="265">
<path d="M132.5 265C205.678 265 265 205.678 265 132.5C265 59.3223 205.678 0 132.5 0C59.3223 0 0 59.3223 0 132.5C0 205.678 59.3223 265 132.5 265Z" fill="#D9D9D9"/>
</mask>
<g mask="url(#mask0_521_3993)">
<path d="M283.256 -18.2549H-18.2549V283.256H283.256V-18.2549Z" fill="#00A3FF"/>
<path d="M253.016 132.501C253.016 65.9428 199.059 11.9866 132.501 11.9866C65.9428 11.9866 11.9866 65.9428 11.9866 132.501C11.9866 199.059 65.9428 253.016 132.501 253.016C199.059 253.016 253.016 199.059 253.016 132.501Z" fill="#00A3FF" stroke="#B6FF3E" stroke-width="8.855"/>
</g>
<path d="M90.8637 166.136C72.331 152.736 62.6119 144.061 48.113 121.394C41.8921 111.276 36.659 99.2816 38.5847 86.9574C39.0598 83.6302 40.3415 80.3342 41.9984 77.3996C42.6549 76.3902 43.5927 74.951 44.3867 74.06C47.9005 69.7297 52.8209 66.7328 57.9978 64.7764C73.622 59.3744 90.9281 61.742 106.44 65.5988C140.183 74.6332 171.838 93.0447 196.897 117.232C211.058 131.288 231.234 156.51 223.268 177.588C214.165 199.096 182.654 196.28 163.966 191.894L164.729 188.429C179.641 191.32 200.06 193.377 212.627 183.619C226.238 172.267 217.11 152.803 208.601 141.008C187.056 111.718 150.53 89.5743 116.15 78.49C99.9501 73.5491 80.3369 69.5739 63.9374 74.5086C54.7029 77.5429 49.2259 83.6801 50.2513 93.755C52.2145 108.684 64.0374 122.696 74.5411 133.089C86.3265 144.535 80.951 145.489 95.4124 153.601L90.8574 166.154L90.8637 166.136Z" fill="white"/>
<path d="M96.5968 91.609L94.5284 92.8739C71.2004 107.138 61.3176 135.659 70.768 161.444C76.3275 176.613 87.5532 188.218 101.209 194.72C101.209 194.72 101.209 194.72 96.5968 91.609Z" fill="white"/>
<path opacity="0.6" d="M128.466 137.45L96.5928 91.6074C101.205 194.719 101.205 194.719 101.205 194.719C109.734 176.8 119.508 156.268 128.466 137.45Z" fill="white"/>
<path opacity="0.6" d="M184.193 133.308L184.515 135.711C188.152 162.811 172.247 188.465 146.275 197.388C130.996 202.637 114.91 201.242 101.253 194.743C101.253 194.743 101.253 194.743 184.193 133.308Z" fill="white"/>
<path opacity="0.2" d="M128.51 137.472L184.189 133.305C101.25 194.74 101.249 194.74 101.249 194.74C109.779 176.822 119.553 156.289 128.51 137.472Z" fill="white"/>
<path opacity="0.2" d="M155.112 81.6064L134.583 124.733L182.549 121.133L155.112 81.6064Z" fill="white"/>
<path opacity="0.6" d="M155.119 81.6082L107.113 85.2222L134.59 124.735L155.119 81.6082Z" fill="white"/>
<path d="M172.383 45.3387L107.105 85.2359L155.14 81.5614L172.383 45.3387Z" fill="white"/>
<path opacity="0.6" d="M155.137 81.5514L182.574 121.153L172.394 45.3008L155.137 81.5514Z" fill="white"/>
</g>
<defs>
<clipPath id="clip0_521_3993">
<rect width="265" height="265" fill="white"/>
</clipPath>
</defs>
</svg>
