<svg width="32" height="32" viewBox="0 0 32 32" fill="none" xmlns="http://www.w3.org/2000/svg">
<path d="M16 32C24.8667 32 32 24.8667 32 16C32 7.13328 24.8667 0 16 0C7.13328 0 0 7.13328 0 16C0 24.8667 7.13328 32 16 32Z" fill="#2775CA"/>
<path d="M20.4 18.5333C20.4 16.2 19 15.4 16.2 15.0667C14.2 14.8 13.8 14.2667 13.8 13.3333C13.8 12.3998 14.4667 11.8 15.8 11.8C17 11.8 17.6667 12.2 18 13.2C18.0667 13.4 18.2667 13.5333 18.4667 13.5333H19.5333C19.8 13.5333 20 13.3333 20 13.0667V13C19.7333 11.5333 18.5333 10.4 17 10.2667V8.66671C17 8.39999 16.8 8.19999 16.4667 8.13327H15.4667C15.2 8.13327 15 8.33327 14.9333 8.66671V10.2C12.9333 10.4667 11.6667 11.8 11.6667 13.4667C11.6667 15.6667 13 16.5333 15.8 16.8667C17.6667 17.2 18.2667 17.6 18.2667 18.6667C18.2667 19.7335 17.3333 20.4667 16.0667 20.4667C14.3333 20.4667 13.7333 19.7333 13.5333 18.7333C13.4667 18.4667 13.2667 18.3333 13.0667 18.3333H11.9333C11.6667 18.3333 11.4667 18.5333 11.4667 18.8V18.8667C11.7333 20.5333 12.8 21.7333 15 22.0667V23.6667C15 23.9333 15.2 24.1333 15.5333 24.2H16.5333C16.8 24.2 17 24 17.0667 23.6667V22.0667C19.0667 21.7333 20.4 20.3333 20.4 18.5333V18.5333Z" fill="white"/>
<path d="M12.6 25.5334C7.40001 23.6668 4.73328 17.8668 6.66673 12.7333C7.66673 9.9333 9.86673 7.80001 12.6 6.80001C12.8667 6.66673 13 6.46672 13 6.13328V5.2C13 4.93328 12.8667 4.73328 12.6 4.66672C12.5333 4.66672 12.4 4.66672 12.3333 4.73328C6.00001 6.73329 2.53328 13.4668 4.53328 19.8001C5.73329 23.5334 8.60001 26.4001 12.3333 27.6001C12.6 27.7334 12.8667 27.6001 12.9333 27.3334C13 27.2668 13 27.2001 13 27.0668V26.1334C13 25.9334 12.8 25.6668 12.6 25.5334ZM19.6668 4.73328C19.4 4.6 19.1333 4.73328 19.0668 5C19 5.06672 19 5.13328 19 5.26672V6.2C19 6.46672 19.2 6.73329 19.4 6.86673C24.6 8.73329 27.2668 14.5333 25.3333 19.6668C24.3333 22.4668 22.1333 24.6001 19.4 25.6001C19.1333 25.7334 19 25.9334 19 26.2668V27.2001C19 27.4668 19.1333 27.6668 19.4 27.7334C19.4668 27.7334 19.6 27.7334 19.6668 27.6668C26 25.6668 29.4668 18.9333 27.4668 12.6C26.2668 8.80001 23.3333 5.93328 19.6668 4.73328V4.73328Z" fill="white"/>
<path d="M32 24C32 28.4183 28.4183 32 24 32C19.5817 32 16 28.4183 16 24C16 19.5817 19.5817 16 24 16C28.4183 16 32 19.5817 32 24Z" fill="#18181B"/>
<path fill-rule="evenodd" clip-rule="evenodd" d="M25.2328 22.8302V25.2017H22.8564V22.8302H25.2328ZM25.2328 22.8302V18.087H22.7342C21.8316 18.087 21.0904 18.2327 20.5107 18.524C19.9237 18.8154 19.4907 19.2287 19.2119 19.764C18.9257 20.2926 18.7826 20.9227 18.7826 21.6545C18.7826 22.3795 18.9257 23.0097 19.2119 23.545C19.4907 24.0735 19.9237 24.4835 20.5107 24.7749C21.0904 25.0594 21.8316 25.2017 22.7342 25.2017H22.8564V29.9449H25.355C26.2576 29.9449 26.9987 29.8026 27.5784 29.518C28.1655 29.2267 28.5984 28.8167 28.8773 28.2882C29.1635 27.7529 29.3065 27.1227 29.3065 26.3977C29.3065 25.6659 29.1635 25.0357 28.8773 24.5072C28.5984 23.9719 28.1655 23.5586 27.5784 23.2672C26.9987 22.9758 26.2576 22.8302 25.355 22.8302H25.2328Z" fill="white"/>
</svg>
