<svg width="80" height="80" viewBox="0 0 80 80" fill="none" xmlns="http://www.w3.org/2000/svg">
<rect width="80" height="80" rx="40" fill="white"/>
<circle cx="40" cy="40" r="37.6471" stroke="#B6DFDF" stroke-width="4.70588"/>
<mask id="mask0_5633_31721" style="mask-type:alpha" maskUnits="userSpaceOnUse" x="28" y="20" width="27" height="40">
<path d="M42.2039 47.4973C41.8459 47.7173 41.3912 47.7346 41.0177 47.5423L28.9022 41.3042C28.3338 41.0115 28.1266 40.3326 28.4408 39.7924L39.6069 20.5977C40.033 19.8651 41.1224 19.8243 41.6017 20.5228L54.1567 38.8235C54.5099 39.3384 54.3541 40.0305 53.8095 40.3652L42.2039 47.4973Z" fill="#D9D9D9"/>
<path d="M43.0076 59.4649C42.5666 60.1051 41.596 60.1416 41.1086 59.5365L31.2838 47.3384C30.5199 46.3899 31.6612 45.1155 32.7659 45.6834L41.1094 49.9725C41.4824 50.1643 41.9362 50.1471 42.2938 49.9279L50.2943 45.0226C51.3536 44.3731 52.5866 45.5581 51.8956 46.5614L43.0076 59.4649Z" fill="#D9D9D9"/>
</mask>
<g mask="url(#mask0_5633_31721)">
<g filter="url(#filter0_di_5633_31721)">
<path d="M81.1424 102.228C58.7845 104.492 28.2663 83.9912 25.6472 60.8737C23.0282 37.7561 31.9404 12.6444 54.2983 10.3803C76.6561 8.11615 111.324 19.0798 113.943 42.1974C116.562 65.3149 103.5 99.9635 81.1424 102.228Z" fill="url(#paint0_linear_5633_31721)"/>
<mask id="mask1_5633_31721" style="mask-type:alpha" maskUnits="userSpaceOnUse" x="25" y="10" width="90" height="93">
<path d="M81.1424 102.228C58.7845 104.492 28.2663 83.9912 25.6472 60.8737C23.0282 37.7561 31.9404 12.6444 54.2983 10.3803C76.6561 8.11615 111.324 19.0798 113.943 42.1974C116.562 65.3149 103.5 99.9635 81.1424 102.228Z" fill="url(#paint1_linear_5633_31721)"/>
</mask>
<g mask="url(#mask1_5633_31721)">
<path d="M23.724 99.8072L38.7323 91.3989C44.2106 88.3297 44.6761 80.6612 39.6121 76.9001L24.2286 65.4746C21.1448 63.1843 21.427 58.515 24.7626 56.6444L38.5905 48.89C44.0721 45.816 44.5295 38.1387 39.4545 34.3835L24.8083 23.5465C23.3102 22.438 22.4242 20.6941 22.4186 18.8437L22.4173 18.3992C22.413 16.9668 20.8542 16.0653 19.6053 16.7703L4.51841 25.2858C-0.962683 28.3795 -1.38988 36.0734 3.71237 39.8077L19.0846 51.0583C22.1906 53.3316 21.9331 58.0144 18.598 59.9011L4.61758 67.8101C-0.854944 70.906 -1.28058 78.59 3.81389 82.3241L18.5049 93.0922C20.0155 94.1995 20.9105 95.9511 20.9161 97.8108L20.9171 98.1753C20.9214 99.6051 22.4751 100.507 23.724 99.8072ZM56.6492 86.4823L71.6575 78.074C77.1359 75.0048 77.6013 67.3363 72.5373 63.5752L57.1538 52.1497C54.07 49.8594 54.3522 45.1901 57.6878 43.3195L71.5157 35.5651C76.9973 32.4911 77.4547 24.8138 72.3797 21.0587L57.7335 10.2216C56.2354 9.1131 55.3494 7.36917 55.3438 5.51884L55.3425 5.07434C55.3382 3.64195 53.7794 2.74046 52.5305 3.44539L37.4436 11.9609C31.9625 15.0546 31.5353 22.7485 36.6376 26.4828L52.0098 37.7335C55.1158 40.0067 54.8583 44.6895 51.5232 46.5762L37.5428 54.4852C32.0703 57.5811 31.6446 65.2651 36.7391 68.9992L51.4301 79.7673C52.9408 80.8746 53.8357 82.6262 53.8413 84.4859L53.8424 84.8504C53.8466 86.2802 55.4003 87.182 56.6492 86.4823Z" fill="#075A5A" stroke="url(#paint2_linear_5633_31721)" stroke-width="0.169594"/>
<path fill-rule="evenodd" clip-rule="evenodd" d="M0.997371 54.8083C2.90909 55.5975 4.27994 57.3103 4.62206 59.3374C6.67655 57.6011 9.58156 57.2522 12.0076 58.4504C14.4348 59.6487 15.9169 62.1647 15.7777 64.8471C17.4356 63.2141 19.8912 62.6711 22.1011 63.4487C24.3109 64.2263 25.8851 66.1872 26.1552 68.498C28.5578 66.7616 31.7331 66.4804 34.4222 67.766C37.1114 69.0526 38.8806 71.6974 39.0279 74.654C40.1972 73.7063 41.7485 73.3592 43.2206 73.7159C44.6917 74.0725 45.9152 75.0912 46.5257 76.4697C47.8882 74.3385 50.4391 73.2734 52.934 73.7926C55.4288 74.3118 57.349 76.3077 57.7589 78.8077C59.8837 76.5514 63.1031 75.6655 66.1079 76.5101C69.1128 77.3557 71.4009 79.7912 72.0429 82.8264C74.5306 80.6784 78.047 80.1504 81.0791 81.4698C84.1112 82.7893 86.1181 85.7196 86.2361 89.0013C87.4053 86.0851 90.4385 84.3564 93.5712 84.8215C96.7038 85.2865 99.118 87.8245 99.408 90.957C100.228 89.1867 102.085 88.1292 104.043 88.3157C106 88.5022 107.633 89.8935 108.119 91.7878C109.018 90.5339 110.495 89.8181 112.047 89.8828C113.599 89.9476 115.019 90.7851 115.821 92.1104C116.364 91.1869 117.381 90.6434 118.459 90.6997C119.536 90.7561 120.496 91.4026 120.949 92.3771C121.762 90.9835 123.33 90.203 124.945 90.3866C126.56 90.5702 127.919 91.6842 128.409 93.2255L88.2639 93.1258C33.2802 84.9175 2.27192 73.5058 -4.75982 58.8909L-4.76912 55.4577C-3.09445 54.2635 -0.912302 54.017 0.999427 54.8063L0.997371 54.8083Z" fill="#2BB386"/>
<path fill-rule="evenodd" clip-rule="evenodd" d="M-0.726597 58.5145C0.597502 59.0752 1.54927 60.2615 1.8045 61.667C3.81921 60.5851 6.27665 60.6996 8.19278 61.9646C10.1089 63.2297 11.1715 65.4382 10.9564 67.7075C12.7103 66.2379 15.1906 65.9746 17.2309 67.0408C19.2711 68.107 20.4656 70.2899 20.2525 72.5644C22.2977 70.0674 25.7008 69.1118 28.7748 70.1702C31.8488 71.2296 33.9417 74.0786 34.0149 77.3054C35.1136 76.374 36.6005 76.0288 38.0061 76.3812C39.4117 76.7325 40.5635 77.7377 41.097 79.0778C42.5409 77.4474 44.8186 76.8151 46.9149 77.4644C49.0112 78.1127 50.535 79.9208 50.8079 82.0829C52.1732 80.2159 54.475 79.2648 56.7793 79.6163C59.0826 79.9678 61.0038 81.5642 61.7619 83.7565C63.9818 81.3311 67.4057 80.3848 70.5822 81.3186C73.7587 82.2524 76.1285 84.9028 76.6879 88.1443C77.5647 87.3258 78.7552 86.9252 79.9556 87.0448C81.1559 87.1644 82.2485 87.7916 82.9545 88.7668C84.5137 86.7434 87.1105 85.7981 89.6263 86.3391C92.142 86.88 94.1275 88.81 94.7264 91.297C95.8338 89.7081 97.7181 88.8364 99.6615 89.0147C101.605 89.1929 103.307 90.3924 104.121 92.1575C105.17 91.293 106.54 90.9114 107.894 91.1068C109.247 91.3011 110.457 92.0545 111.227 93.1805L84.5039 93.1142C38.2897 90.582 8.54295 81.1491 -4.73753 64.8176L-4.7536 58.8885C-3.56407 58.0946 -2.04863 57.9539 -0.724528 58.5145L-0.726597 58.5145Z" fill="#1F9970"/>
<path fill-rule="evenodd" clip-rule="evenodd" d="M23.5674 67.4806C23.3106 67.0516 23.0102 66.6132 22.6817 66.1427C21.6355 64.6424 20.8468 63.0415 22.8433 59.4544C24.0002 57.3763 25.1659 55.4366 22.547 52.8867C28.9841 57.7789 21.1657 59.9478 24.8881 65.278C26.1022 67.0162 27.7465 68.8194 27.1976 72.1428C26.7959 74.5789 25.2058 76.7023 22.886 77.9042C21.3053 76.5656 20.5149 75.8958 20.5149 75.8958C23.9613 74.4314 25.4564 70.6325 23.5684 67.4806L23.5674 67.4806Z" fill="#0A4F38"/>
<path fill-rule="evenodd" clip-rule="evenodd" d="M43.0132 46.5981C43.3404 46.5494 43.5863 46.8277 43.5624 47.2178C43.5386 47.6079 43.2549 47.9643 42.9277 48.012C42.6006 48.0608 42.3546 47.7825 42.3785 47.3924C42.4024 47.0023 42.6861 46.6458 43.0132 46.5981Z" fill="#2B9C76"/>
<path fill-rule="evenodd" clip-rule="evenodd" d="M43.9347 45.8697C44.1269 45.8413 44.2717 46.0047 44.2578 46.2338C44.2439 46.463 44.0772 46.6721 43.885 46.7005C43.6929 46.7289 43.5481 46.5655 43.562 46.3364C43.5759 46.1073 43.7426 45.8981 43.9347 45.8697Z" fill="#2B9C76"/>
<path fill-rule="evenodd" clip-rule="evenodd" d="M42.3019 48.1744C42.4941 48.146 42.6389 48.3094 42.625 48.5385C42.6111 48.7676 42.4444 48.9768 42.2522 49.0052C42.0601 49.0336 41.9152 48.8702 41.9292 48.6411C41.9431 48.4119 42.1098 48.2028 42.3019 48.1744Z" fill="#2B9C76"/>
<path fill-rule="evenodd" clip-rule="evenodd" d="M43.13 48.19C43.3222 48.1616 43.467 48.325 43.4531 48.5542C43.4392 48.7833 43.2725 48.9924 43.0803 49.0208C42.8882 49.0492 42.7434 48.8858 42.7573 48.6567C42.7712 48.4276 42.9379 48.2184 43.13 48.19Z" fill="#2B9C76"/>
<path fill-rule="evenodd" clip-rule="evenodd" d="M44.0405 47.2871C44.1932 47.2648 44.3078 47.3941 44.2969 47.5757C44.2859 47.7574 44.1534 47.9232 44.0007 47.9466C43.8481 47.9689 43.7334 47.8396 43.7444 47.658C43.7553 47.4763 43.8878 47.3105 44.0405 47.2871Z" fill="#2B9C76"/>
<path fill-rule="evenodd" clip-rule="evenodd" d="M41.7049 49.4995C41.8534 49.4596 41.9825 49.5745 41.9924 49.7573C42.0022 49.939 41.8905 50.1193 41.742 50.1592C41.5936 50.1991 41.4644 50.0842 41.4546 49.9015C41.4447 49.7198 41.5565 49.5394 41.7049 49.4995Z" fill="#2B9C76"/>
<path fill-rule="evenodd" clip-rule="evenodd" d="M34.5112 57.0973C33.7836 56.4686 32.7329 56.6383 31.3589 57.6064C31.8227 58.0914 32.0546 58.3339 32.0546 58.3339C31.5476 58.3394 31.2939 58.3411 31.2939 58.3411C31.2607 58.5707 31.3215 58.8042 31.4625 58.9895C31.6035 59.1749 31.8133 59.2974 32.045 59.3284C32.045 59.3284 32.1379 59.1799 32.3235 58.8818C32.5137 59.5956 32.7802 59.805 33.1263 59.5107C34.3354 58.6756 34.9322 58.0116 34.9163 57.5168C35.1757 57.2697 35.0406 57.1296 34.5121 57.0961L34.5112 57.0973Z" fill="#1C966D"/>
<path fill-rule="evenodd" clip-rule="evenodd" d="M29.0991 43.2695C28.6184 42.6541 27.7519 42.6262 26.5015 43.1825C26.7946 43.6416 26.9418 43.8711 26.9418 43.8711C26.5364 43.7958 26.3326 43.7581 26.3326 43.7581C26.2697 43.9355 26.2807 44.1316 26.3642 44.3011C26.4478 44.4706 26.5957 44.601 26.7756 44.6624C26.7756 44.6624 26.873 44.5584 27.0688 44.3503C27.1068 44.9491 27.2871 45.157 27.6097 44.9762C28.7066 44.4999 29.2882 44.0637 29.3547 43.6675C29.6005 43.5112 29.5149 43.3779 29.098 43.2685L29.0991 43.2695Z" fill="#1C966D"/>
<path fill-rule="evenodd" clip-rule="evenodd" d="M35.3812 35.538C35.2438 35.0468 34.7249 34.8159 33.8256 34.8423C33.8883 35.1925 33.9199 35.3671 33.9199 35.3671C33.6921 35.2212 33.5784 35.1477 33.5784 35.1477C33.4955 35.2397 33.4536 35.3607 33.4612 35.4843C33.4688 35.6078 33.5261 35.7227 33.6204 35.805C33.6204 35.805 33.706 35.7665 33.8761 35.6892C33.7491 36.0607 33.8069 36.2316 34.0473 36.2021C34.8333 36.186 35.2954 36.0658 35.4358 35.8425C35.6241 35.8084 35.6061 35.7073 35.3802 35.5376L35.3812 35.538Z" fill="#1C966D"/>
<path d="M34.8316 50.7953C34.831 50.592 34.9968 50.4283 35.2004 50.4288C35.4041 50.4293 35.5708 50.5938 35.5713 50.7972C35.5719 51.0005 35.4061 51.1642 35.2024 51.1637C34.9988 51.1632 34.8321 50.9976 34.8316 50.7953Z" fill="white"/>
<path d="M35.5584 49.8246C35.9501 49.8256 36.3048 49.9844 36.5621 50.24C36.8194 50.4956 36.9793 50.848 36.9804 51.2371C36.9814 51.6262 36.8234 51.9778 36.5675 52.2311C36.3116 52.4844 35.9577 52.6425 35.566 52.6415C35.1743 52.6406 34.8196 52.4817 34.5623 52.2261C34.305 51.9706 34.1451 51.6182 34.144 51.2301C34.143 50.8419 34.301 50.4893 34.5569 50.235C34.8128 49.9807 35.1667 49.8236 35.5584 49.8246ZM34.7094 52.0799C34.9293 52.2983 35.232 52.4332 35.5655 52.434C35.899 52.4349 36.2009 52.3014 36.4196 52.0842C36.6382 51.8669 36.7724 51.5669 36.7715 51.2356C36.7706 50.9042 36.6348 50.6035 36.415 50.3852C36.1951 50.1668 35.8924 50.0319 35.5589 50.031C35.2254 50.0302 34.9235 50.1637 34.7048 50.3809C34.4862 50.5982 34.352 50.8982 34.3529 51.2295C34.3538 51.5609 34.4896 51.8616 34.7094 52.0799Z" fill="white"/>
<path d="M34.8588 51.1441C34.9627 51.1443 35.0471 51.2282 35.0474 51.3314C35.0477 51.4346 34.9637 51.518 34.8598 51.5178C34.7559 51.5175 34.6715 51.4337 34.6712 51.3305C34.6709 51.2272 34.7549 51.1438 34.8588 51.1441Z" fill="white"/>
<path d="M39.7391 49.1987C39.7388 49.0841 39.832 48.9914 39.9474 48.9917C40.0627 48.992 40.1565 49.0851 40.1568 49.1997C40.1571 49.3143 40.0639 49.407 39.9485 49.4067C39.8332 49.4064 39.7394 49.3133 39.7391 49.1987Z" fill="white"/>
<path d="M39.7378 49.3982C39.7959 49.3983 39.8439 49.4459 39.844 49.5037C39.8442 49.5616 39.7965 49.6089 39.7383 49.6088C39.6801 49.6086 39.6322 49.561 39.632 49.5032C39.6319 49.4454 39.6796 49.398 39.7378 49.3982Z" fill="white"/>
<path d="M40.1396 48.6543C40.3598 48.6548 40.5596 48.7441 40.7044 48.8879C40.8492 49.0318 40.9391 49.2302 40.9396 49.449C40.9402 49.6678 40.8514 49.8658 40.7074 50.0089C40.5634 50.152 40.3641 50.2403 40.1439 50.2398C39.9236 50.2392 39.7239 50.1499 39.5791 50.0061C39.4343 49.8623 39.3444 49.6639 39.3438 49.445C39.3432 49.2262 39.432 49.0282 39.5761 48.8851C39.7201 48.742 39.9193 48.6537 40.1396 48.6543ZM39.661 49.9248C39.7849 50.0479 39.9555 50.1237 40.1436 50.1241C40.3316 50.1246 40.5018 50.0497 40.6251 49.9272C40.7484 49.8046 40.8238 49.6355 40.8233 49.4487C40.8228 49.2619 40.7465 49.0924 40.6225 48.9693C40.4985 48.8461 40.3279 48.7703 40.1399 48.7699C39.9518 48.7694 39.7817 48.8443 39.6584 48.9669C39.5351 49.0894 39.4597 49.2585 39.4602 49.4453C39.4607 49.6322 39.537 49.8016 39.661 49.9248Z" fill="white"/>
<path d="M30.6141 53.8237C30.6138 53.7091 30.707 53.6164 30.8224 53.6167C30.9377 53.617 31.0315 53.7101 31.0318 53.8247C31.0321 53.9393 30.9389 54.032 30.8235 54.0317C30.7082 54.0314 30.6144 53.9383 30.6141 53.8237Z" fill="white"/>
<path d="M31.0146 53.2793C31.2348 53.2798 31.4346 53.3691 31.5794 53.5129C31.7242 53.6568 31.8141 53.8552 31.8146 54.074C31.8152 54.2928 31.7264 54.4908 31.5824 54.6339C31.4384 54.777 31.2391 54.8653 31.0189 54.8648C30.7986 54.8642 30.5989 54.7749 30.4541 54.6311C30.3093 54.4873 30.2194 54.2889 30.2188 54.07C30.2182 53.8512 30.307 53.6532 30.4511 53.5101C30.5951 53.367 30.7943 53.2787 31.0146 53.2793ZM30.536 54.5498C30.6599 54.6729 30.8305 54.7487 31.0186 54.7491C31.2066 54.7496 31.3768 54.6747 31.5001 54.5522C31.6234 54.4296 31.6988 54.2605 31.6983 54.0737C31.6978 53.8869 31.6215 53.7174 31.4975 53.5943C31.3735 53.4711 31.2029 53.3953 31.0149 53.3949C30.8268 53.3944 30.6567 53.4693 30.5334 53.5919C30.4101 53.7144 30.3347 53.8835 30.3352 54.0703C30.3357 54.2572 30.412 54.4266 30.536 54.5498Z" fill="white"/>
<path d="M30.6128 54.0232C30.6709 54.0233 30.7189 54.0709 30.719 54.1287C30.7192 54.1866 30.6715 54.2339 30.6133 54.2338C30.5551 54.2336 30.5072 54.186 30.507 54.1282C30.5069 54.0704 30.5546 54.023 30.6128 54.0232Z" fill="white"/>
<path d="M27.8819 54.2411C28.0008 54.2414 28.1086 54.2896 28.1867 54.3672C28.2648 54.4448 28.3133 54.5519 28.3137 54.67C28.314 54.7881 28.2661 54.8949 28.1883 54.9721C28.1106 55.0494 28.0031 55.097 27.8842 55.0967C27.7654 55.0964 27.6576 55.0482 27.5795 54.9706C27.5013 54.893 27.4528 54.7859 27.4525 54.6678C27.4522 54.5498 27.5001 54.4429 27.5778 54.3657C27.6555 54.2885 27.7631 54.2408 27.8819 54.2411ZM27.6236 54.9267C27.6905 54.9932 27.7826 55.0341 27.8841 55.0343C27.9855 55.0346 28.0774 54.9941 28.1439 54.928C28.2105 54.8619 28.2511 54.7706 28.2509 54.6698C28.2506 54.569 28.2094 54.4775 28.1425 54.4111C28.0756 54.3446 27.9836 54.3038 27.8821 54.3035C27.7806 54.3033 27.6888 54.3437 27.6222 54.4098C27.5557 54.4759 27.515 54.5672 27.5153 54.668C27.5156 54.7688 27.5567 54.8603 27.6236 54.9267Z" fill="white"/>
<path d="M27.5242 58.2245C27.7548 58.2251 27.9638 58.3185 28.1154 58.469C28.2669 58.6196 28.361 58.8273 28.3616 59.0563C28.3622 59.2853 28.2693 59.4925 28.1185 59.6423C27.9678 59.7921 27.7593 59.8845 27.5287 59.8839C27.2982 59.8834 27.0892 59.7899 26.9376 59.6394C26.786 59.4888 26.692 59.2812 26.6913 59.0521C26.6907 58.8231 26.7837 58.6159 26.9344 58.4661C27.0852 58.3163 27.2937 58.2239 27.5242 58.2245ZM27.0233 59.5543C27.153 59.6831 27.3316 59.7625 27.5284 59.7629C27.7252 59.7634 27.9033 59.685 28.0324 59.5568C28.1615 59.4285 28.2404 59.2515 28.2398 59.056C28.2393 58.8604 28.1594 58.6831 28.0297 58.5542C27.8999 58.4253 27.7214 58.346 27.5246 58.3455C27.3277 58.345 27.1496 58.4234 27.0205 58.5517C26.8915 58.6799 26.8126 58.8569 26.8131 59.0524C26.8137 59.248 26.8935 59.4254 27.0233 59.5543Z" fill="white"/>
<path d="M40.1673 45.5741C40.2041 45.5741 40.2345 45.6043 40.2346 45.6408C40.2347 45.6774 40.2045 45.7074 40.1677 45.7073C40.1309 45.7072 40.1005 45.6771 40.1004 45.6405C40.1003 45.6039 40.1305 45.574 40.1673 45.5741Z" fill="white"/>
<path d="M40.1735 45.4471C40.1733 45.3746 40.2323 45.3159 40.3053 45.3161C40.3783 45.3163 40.4377 45.3752 40.4379 45.4477C40.4381 45.5203 40.379 45.5789 40.306 45.5788C40.233 45.5786 40.1737 45.5196 40.1735 45.4471Z" fill="white"/>
<path d="M40.4325 45.1042C40.5719 45.1046 40.6983 45.1611 40.7899 45.2521C40.8816 45.3431 40.9385 45.4687 40.9389 45.6072C40.9392 45.7457 40.883 45.871 40.7919 45.9616C40.7007 46.0522 40.5746 46.1081 40.4352 46.1077C40.2958 46.1074 40.1694 46.0509 40.0777 45.9599C39.986 45.8688 39.9292 45.7432 39.9288 45.6047C39.9284 45.4662 39.9846 45.3409 40.0758 45.2503C40.1669 45.1597 40.293 45.1039 40.4325 45.1042ZM40.1295 45.9084C40.208 45.9863 40.316 46.0343 40.435 46.0346C40.554 46.0349 40.6617 45.9874 40.7398 45.9099C40.8178 45.8323 40.8655 45.7253 40.8652 45.6071C40.8649 45.4888 40.8166 45.3815 40.7381 45.3036C40.6597 45.2256 40.5517 45.1777 40.4327 45.1774C40.3136 45.1771 40.2059 45.2245 40.1279 45.3021C40.0498 45.3796 40.0021 45.4867 40.0024 45.6049C40.0028 45.7232 40.051 45.8304 40.1295 45.9084Z" fill="white"/>
<path d="M42.8302 42.902C42.902 42.9022 42.9611 42.9609 42.9613 43.0322C42.9615 43.1035 42.9027 43.1619 42.8309 43.1618C42.7592 43.1616 42.7 43.1029 42.6999 43.0316C42.6997 42.9603 42.7585 42.9018 42.8302 42.902Z" fill="white"/>
<path d="M42.8136 42.657C42.8133 42.5157 42.9283 42.4014 43.0705 42.4017C43.2128 42.4021 43.3284 42.5169 43.3288 42.6583C43.3292 42.7996 43.2142 42.9139 43.0719 42.9135C42.9297 42.9132 42.814 42.7983 42.8136 42.657Z" fill="white"/>
<path d="M43.3284 41.9858C43.6001 41.9865 43.8464 42.0966 44.025 42.274C44.2036 42.4514 44.3144 42.6961 44.3151 42.966C44.3159 43.2358 44.2063 43.48 44.0287 43.6565C43.8511 43.833 43.6054 43.9419 43.3337 43.9412C43.0621 43.9405 42.8158 43.8304 42.6372 43.653C42.4586 43.4756 42.3478 43.2309 42.347 42.9611C42.3463 42.6912 42.4558 42.447 42.6335 42.2705C42.8111 42.094 43.0568 41.9852 43.3284 41.9858ZM42.7382 43.5527C42.891 43.7046 43.1014 43.798 43.3334 43.7986C43.5653 43.7992 43.7752 43.7068 43.9272 43.5557C44.0793 43.4046 44.1723 43.196 44.1716 42.9656C44.171 42.7352 44.0769 42.5262 43.924 42.3743C43.7711 42.2224 43.5607 42.129 43.3288 42.1284C43.0969 42.1278 42.887 42.2202 42.735 42.3714C42.5829 42.5225 42.4899 42.731 42.4905 42.9614C42.4912 43.1918 42.5853 43.4008 42.7382 43.5527Z" fill="white"/>
<path d="M44.0238 39.1834C44.0579 39.1835 44.086 39.2114 44.0861 39.2453C44.0862 39.2792 44.0583 39.307 44.0242 39.3069C43.99 39.3068 43.962 39.2789 43.9619 39.245C43.9618 39.2111 43.9897 39.1834 44.0238 39.1834Z" fill="white"/>
<path d="M44.0132 39.0586C44.013 38.9914 44.0677 38.937 44.1354 38.9372C44.203 38.9374 44.258 38.992 44.2581 39.0592C44.2583 39.1263 44.2036 39.1807 44.136 39.1805C44.0684 39.1804 44.0134 39.1257 44.0132 39.0586Z" fill="white"/>
<path d="M44.2588 38.741C44.3879 38.7413 44.505 38.7937 44.5899 38.878C44.6748 38.9623 44.7275 39.0787 44.7278 39.207C44.7282 39.3353 44.6761 39.4513 44.5917 39.5352C44.5072 39.6191 44.3904 39.6709 44.2613 39.6706C44.1321 39.6703 44.015 39.6179 43.9301 39.5336C43.8452 39.4493 43.7925 39.3329 43.7922 39.2046C43.7918 39.0763 43.8439 38.9603 43.9284 38.8764C44.0128 38.7925 44.1296 38.7407 44.2588 38.741ZM43.9781 39.4859C44.0508 39.5581 44.1508 39.6025 44.2611 39.6028C44.3713 39.6031 44.4711 39.5591 44.5434 39.4873C44.6157 39.4155 44.6599 39.3163 44.6596 39.2068C44.6593 39.0973 44.6146 38.9979 44.5419 38.9257C44.4692 38.8535 44.3692 38.8091 44.2589 38.8088C44.1487 38.8085 44.0489 38.8525 43.9766 38.9243C43.9043 38.9961 43.8601 39.0953 43.8604 39.2048C43.8607 39.3143 43.9055 39.4137 43.9781 39.4859Z" fill="white"/>
<path d="M41.2727 36.5466C41.3417 36.5467 41.3986 36.6032 41.3988 36.6718C41.399 36.7404 41.3424 36.7966 41.2733 36.7965C41.2043 36.7963 41.1474 36.7398 41.1472 36.6712C41.147 36.6026 41.2036 36.5464 41.2727 36.5466Z" fill="white"/>
<path d="M41.2628 36.3114C41.2624 36.1754 41.3731 36.0655 41.51 36.0658C41.6468 36.0661 41.7581 36.1767 41.7585 36.3126C41.7588 36.4486 41.6482 36.5586 41.5113 36.5583C41.3744 36.5579 41.2632 36.4474 41.2628 36.3114Z" fill="white"/>
<path d="M41.7485 35.6617C42.0098 35.6624 42.2468 35.7683 42.4187 35.939C42.5905 36.1096 42.6972 36.3451 42.6979 36.6047C42.6986 36.8644 42.5932 37.0993 42.4223 37.2692C42.2514 37.439 42.0149 37.5437 41.7536 37.5431C41.4922 37.5424 41.2552 37.4365 41.0834 37.2658C40.9116 37.0952 40.8049 36.8597 40.8042 36.6C40.8035 36.3404 40.9089 36.1055 41.0798 35.9356C41.2507 35.7658 41.4871 35.6611 41.7485 35.6617ZM41.1805 37.1693C41.3276 37.3154 41.5301 37.4053 41.7532 37.4059C41.9764 37.4065 42.1783 37.3175 42.3246 37.1722C42.4709 37.0268 42.5604 36.8261 42.5598 36.6044C42.5592 36.3827 42.4686 36.1816 42.3215 36.0355C42.1744 35.8894 41.972 35.7995 41.7489 35.7989C41.5257 35.7983 41.3238 35.8873 41.1774 36.0326C41.0311 36.178 40.9417 36.3787 40.9423 36.6004C40.9429 36.8221 41.0334 37.0232 41.1805 37.1693Z" fill="white"/>
<path d="M39.2404 34.6991C39.2714 34.6992 39.2969 34.7245 39.297 34.7554C39.2971 34.7862 39.2717 34.8115 39.2407 34.8114C39.2096 34.8113 39.1841 34.7859 39.184 34.7551C39.1839 34.7243 39.2093 34.699 39.2404 34.6991Z" fill="white"/>
<path d="M39.2306 34.5867C39.2304 34.5256 39.2802 34.4761 39.3417 34.4763C39.4032 34.4764 39.4533 34.5261 39.4534 34.5873C39.4536 34.6484 39.4038 34.6978 39.3423 34.6977C39.2808 34.6975 39.2308 34.6478 39.2306 34.5867Z" fill="white"/>
<path d="M39.4494 34.2958C39.5669 34.2961 39.6734 34.3437 39.7506 34.4205C39.8279 34.4972 39.8758 34.603 39.8761 34.7198C39.8765 34.8365 39.8291 34.9421 39.7523 35.0184C39.6754 35.0948 39.5691 35.1419 39.4517 35.1416C39.3342 35.1413 39.2276 35.0937 39.1504 35.0169C39.0731 34.9402 39.0252 34.8344 39.0249 34.7176C39.0245 34.6009 39.0719 34.4953 39.1488 34.419C39.2256 34.3426 39.3319 34.2955 39.4494 34.2958ZM39.194 34.9735C39.2602 35.0392 39.3512 35.0797 39.4515 35.0799C39.5518 35.0802 39.6426 35.0402 39.7084 34.9748C39.7741 34.9095 39.8143 34.8193 39.8141 34.7196C39.8138 34.6199 39.7731 34.5295 39.707 34.4638C39.6408 34.3982 39.5498 34.3577 39.4495 34.3575C39.3492 34.3572 39.2584 34.3972 39.1927 34.4626C39.1269 34.5279 39.0867 34.6181 39.0869 34.7178C39.0872 34.8175 39.1279 34.9079 39.194 34.9735Z" fill="white"/>
<path d="M36.9044 32.1482C36.9654 32.1483 37.0158 32.1983 37.0159 32.259C37.0161 32.3197 36.966 32.3694 36.905 32.3692C36.8439 32.3691 36.7936 32.3191 36.7934 32.2584C36.7932 32.1977 36.8433 32.148 36.9044 32.1482Z" fill="white"/>
<path d="M36.8902 31.9355C36.8899 31.8152 36.9878 31.7179 37.1089 31.7182C37.2299 31.7185 37.3284 31.8163 37.3287 31.9366C37.329 32.0569 37.2311 32.1542 37.11 32.1539C36.989 32.1536 36.8905 32.0558 36.8902 31.9355Z" fill="white"/>
<path d="M37.3186 31.3651C37.5498 31.3657 37.7595 31.4594 37.9115 31.6104C38.0635 31.7614 38.1579 31.9697 38.1585 32.1994C38.1591 32.4291 38.0659 32.6369 37.9147 32.7871C37.7635 32.9374 37.5544 33.0301 37.3231 33.0295C37.0919 33.0289 36.8823 32.9352 36.7303 32.7842C36.5783 32.6332 36.4839 32.4249 36.4833 32.1952C36.4826 31.9655 36.5759 31.7577 36.7271 31.6074C36.8783 31.4572 37.0874 31.3645 37.3186 31.3651ZM36.8162 32.6988C36.9463 32.8281 37.1254 32.9076 37.3228 32.9081C37.5202 32.9086 37.6989 32.83 37.8283 32.7013C37.9578 32.5727 38.0369 32.3952 38.0364 32.1991C38.0358 32.0029 37.9557 31.825 37.8256 31.6958C37.6955 31.5665 37.5164 31.487 37.319 31.4865C37.1216 31.486 36.9429 31.5646 36.8135 31.6933C36.684 31.8219 36.6049 31.9994 36.6054 32.1955C36.606 32.3916 36.686 32.5695 36.8162 32.6988Z" fill="white"/>
<path d="M33.6356 30.203C33.6641 30.2031 33.6876 30.2264 33.6876 30.2547C33.6877 30.283 33.6644 30.3062 33.6359 30.3061C33.6074 30.3061 33.5839 30.2827 33.5838 30.2544C33.5838 30.2261 33.6071 30.2029 33.6356 30.203Z" fill="white"/>
<path d="M33.6238 30.1051C33.6236 30.0489 33.6693 30.0035 33.7258 30.0037C33.7823 30.0038 33.8282 30.0494 33.8284 30.1056C33.8286 30.1617 33.7829 30.2071 33.7264 30.207C33.6699 30.2068 33.6239 30.1612 33.6238 30.1051Z" fill="white"/>
<path d="M33.8279 29.835C33.9358 29.8352 34.0336 29.879 34.1045 29.9494C34.1755 30.0199 34.2195 30.1171 34.2198 30.2243C34.2201 30.3315 34.1766 30.4285 34.106 30.4986C34.0355 30.5687 33.9379 30.6119 33.83 30.6117C33.7221 30.6114 33.6242 30.5677 33.5533 30.4972C33.4824 30.4267 33.4383 30.3295 33.438 30.2223C33.4377 30.1151 33.4813 30.0182 33.5518 29.9481C33.6224 29.8779 33.72 29.8347 33.8279 29.835ZM33.5934 30.4574C33.6541 30.5177 33.7377 30.5548 33.8298 30.555C33.9219 30.5553 34.0053 30.5186 34.0657 30.4585C34.1261 30.3985 34.163 30.3157 34.1628 30.2241C34.1626 30.1326 34.1252 30.0496 34.0644 29.9893C34.0037 29.929 33.9201 29.8918 33.828 29.8916C33.7359 29.8914 33.6525 29.9281 33.5921 29.9881C33.5317 30.0481 33.4948 30.131 33.495 30.2225C33.4953 30.314 33.5327 30.397 33.5934 30.4574Z" fill="white"/>
<path d="M31.9481 28.2069C31.9766 28.207 32.0001 28.2303 32.0001 28.2586C32.0002 28.2869 31.9769 28.3101 31.9484 28.31C31.9199 28.31 31.8964 28.2867 31.8963 28.2583C31.8963 28.23 31.9196 28.2068 31.9481 28.2069Z" fill="white"/>
<path d="M31.9363 28.1051C31.9361 28.0489 31.9818 28.0035 32.0383 28.0037C32.0948 28.0038 32.1407 28.0494 32.1409 28.1056C32.1411 28.1617 32.0954 28.2071 32.0389 28.207C31.9824 28.2068 31.9364 28.1612 31.9363 28.1051Z" fill="white"/>
<path d="M32.1404 27.8389C32.2483 27.8391 32.3461 27.8829 32.417 27.9533C32.488 28.0238 32.532 28.121 32.5323 28.2282C32.5326 28.3354 32.4891 28.4324 32.4185 28.5025C32.348 28.5726 32.2504 28.6158 32.1425 28.6156C32.0346 28.6153 31.9367 28.5716 31.8658 28.5011C31.7949 28.4306 31.7508 28.3335 31.7505 28.2263C31.7502 28.1191 31.7938 28.0221 31.8643 27.952C31.9349 27.8819 32.0325 27.8386 32.1404 27.8389ZM31.9059 28.4613C31.9666 28.5216 32.0502 28.5587 32.1423 28.5589C32.2344 28.5592 32.3178 28.5225 32.3782 28.4624C32.4386 28.4024 32.4755 28.3196 32.4753 28.2281C32.4751 28.1365 32.4377 28.0535 32.3769 27.9932C32.3162 27.9329 32.2326 27.8957 32.1405 27.8955C32.0484 27.8953 31.965 27.932 31.9046 27.992C31.8442 28.052 31.8073 28.1349 31.8075 28.2264C31.8078 28.3179 31.8452 28.4009 31.9059 28.4613Z" fill="white"/>
<path d="M28.6131 26.2847C28.7054 26.285 28.7815 26.3605 28.7817 26.4522C28.782 26.5439 28.7063 26.6191 28.614 26.6188C28.5217 26.6186 28.4457 26.5431 28.4454 26.4514C28.4452 26.3597 28.5208 26.2845 28.6131 26.2847Z" fill="white"/>
<path d="M28.5884 25.9642C28.5879 25.7824 28.7358 25.6354 28.9187 25.6359C29.1017 25.6364 29.2504 25.7841 29.2509 25.9658C29.2514 26.1476 29.1035 26.2946 28.9205 26.2941C28.7376 26.2937 28.5888 26.1459 28.5884 25.9642Z" fill="white"/>
<path d="M29.2343 25.1023C29.5837 25.1032 29.9005 25.2448 30.1302 25.473C30.3599 25.7011 30.5025 26.0159 30.5034 26.363C30.5043 26.7101 30.3635 27.0242 30.135 27.2512C29.9065 27.4782 29.5905 27.6182 29.2411 27.6174C28.8917 27.6165 28.5749 27.4749 28.3452 27.2467C28.1155 27.0186 27.9729 26.7038 27.9719 26.3567C27.971 26.0096 28.1119 25.6956 28.3403 25.4685C28.5688 25.2415 28.8849 25.1015 29.2343 25.1023ZM28.475 27.1177C28.6717 27.313 28.9423 27.4333 29.2406 27.434C29.5389 27.4347 29.8089 27.3159 30.0044 27.1215C30.2 26.9271 30.3196 26.6589 30.3188 26.3625C30.318 26.0662 30.197 25.7973 30.0003 25.602C29.8037 25.4067 29.5331 25.2865 29.2348 25.2857C28.9365 25.285 28.6665 25.4038 28.4709 25.5982C28.2753 25.7926 28.1557 26.0608 28.1565 26.3572C28.1573 26.6535 28.2784 26.9224 28.475 27.1177Z" fill="white"/>
<g style="mix-blend-mode:hue">
<path d="M-352.119 1567.91C-710.369 1604.19 -1199.38 1275.7 -1241.34 905.276C-1283.31 534.852 -1140.51 132.476 -782.255 96.1968C-424.004 59.9174 131.501 235.593 173.467 606.017C215.433 976.44 6.13175 1531.63 -352.119 1567.91Z" fill="#075A5A"/>
</g>
<g style="mix-blend-mode:saturation">
<path d="M-352.119 1567.91C-710.369 1604.19 -1199.38 1275.7 -1241.34 905.276C-1283.31 534.852 -1140.51 132.476 -782.255 96.1968C-424.004 59.9174 131.501 235.593 173.467 606.017C215.433 976.44 6.13175 1531.63 -352.119 1567.91Z" fill="#075A5A"/>
</g>
</g>
</g>
</g>
<defs>
<filter id="filter0_di_5633_31721" x="-10.4166" y="-17.6144" width="160.31" height="163.548" filterUnits="userSpaceOnUse" color-interpolation-filters="sRGB">
<feFlood flood-opacity="0" result="BackgroundImageFix"/>
<feColorMatrix in="SourceAlpha" type="matrix" values="0 0 0 0 0 0 0 0 0 0 0 0 0 0 0 0 0 0 127 0" result="hardAlpha"/>
<feOffset dy="7.91549"/>
<feGaussianBlur stdDeviation="17.8098"/>
<feComposite in2="hardAlpha" operator="out"/>
<feColorMatrix type="matrix" values="0 0 0 0 0.566667 0 0 0 0 0.566667 0 0 0 0 0.566667 0 0 0 0.25 0"/>
<feBlend mode="normal" in2="BackgroundImageFix" result="effect1_dropShadow_5633_31721"/>
<feBlend mode="normal" in="SourceGraphic" in2="effect1_dropShadow_5633_31721" result="shape"/>
<feColorMatrix in="SourceAlpha" type="matrix" values="0 0 0 0 0 0 0 0 0 0 0 0 0 0 0 0 0 0 127 0" result="hardAlpha"/>
<feOffset dy="5.65392"/>
<feGaussianBlur stdDeviation="3.39235"/>
<feComposite in2="hardAlpha" operator="arithmetic" k2="-1" k3="1"/>
<feColorMatrix type="matrix" values="0 0 0 0 1 0 0 0 0 1 0 0 0 0 1 0 0 0 0.25 0"/>
<feBlend mode="normal" in2="shape" result="effect2_innerShadow_5633_31721"/>
</filter>
<linearGradient id="paint0_linear_5633_31721" x1="107.421" y1="51.8973" x2="25.6794" y2="61.1579" gradientUnits="userSpaceOnUse">
<stop stop-color="#075A5A"/>
<stop offset="1" stop-color="#136969"/>
</linearGradient>
<linearGradient id="paint1_linear_5633_31721" x1="107.421" y1="51.8973" x2="25.6794" y2="61.1579" gradientUnits="userSpaceOnUse">
<stop stop-color="#075A5A"/>
<stop offset="1" stop-color="#136969"/>
</linearGradient>
<linearGradient id="paint2_linear_5633_31721" x1="34.404" y1="22.1402" x2="17.8591" y2="63.6594" gradientUnits="userSpaceOnUse">
<stop stop-color="white"/>
<stop offset="1" stop-color="white" stop-opacity="0"/>
</linearGradient>
</defs>
</svg>
