<svg width="40" height="43" viewBox="0 0 40 43" fill="none" xmlns="http://www.w3.org/2000/svg">
<path d="M20 40.5405C30.7471 40.5405 39.4594 31.8282 39.4594 21.0811C39.4594 10.3339 30.7471 1.62161 20 1.62161C9.25282 1.62161 0.540527 10.3339 0.540527 21.0811C0.540527 31.8282 9.25282 40.5405 20 40.5405Z" fill="#1D1B1D" stroke="white" stroke-width="1.08108"/>
<path d="M20.4143 7.33109L20.2322 7.95058V25.9252L20.4143 26.107L28.7449 21.1752L20.4143 7.33109Z" fill="#6B6B6B"/>
<path d="M20.4143 7.33109L12.0834 21.1752L20.4143 26.107V17.3827V7.33109Z" fill="#A2A2A2"/>
<path d="M20.4142 27.6869L20.3115 27.8122V34.2151L20.4142 34.5151L28.7499 22.7576L20.4142 27.6869Z" fill="#4F4E4E"/>
<path d="M20.4143 34.5151V27.6869L12.0834 22.7576L20.4143 34.5151Z" fill="#A2A2A2"/>
<path d="M20.4143 26.1071L28.7449 21.1754L20.4143 17.3828V26.1071Z" fill="#797979"/>
<path d="M12.0834 21.1754L20.4143 26.1071V17.3828L12.0834 21.1754Z" fill="#D4D4D4"/>
<g style="mix-blend-mode:overlay">
<path d="M19.9977 7.48892L19.8156 8.10841V26.083L19.9977 26.2649L28.3283 21.3331L19.9977 7.48892Z" fill="#ACE730"/>
<path d="M19.9977 7.48892L11.6667 21.3331L19.9977 26.2649V17.5405V7.48892Z" fill="#ACE730"/>
<path d="M19.9976 27.8448L19.8949 27.9701V34.373L19.9976 34.673L28.3333 22.9155L19.9976 27.8448Z" fill="#ACE730"/>
<path d="M19.9977 34.673V27.8448L11.6667 22.9155L19.9977 34.673Z" fill="#ACE730"/>
<path d="M19.9977 26.265L28.3284 21.3332L19.9977 17.5406V26.265Z" fill="#ACE730"/>
<path d="M11.6667 21.3332L19.9977 26.265V17.5406L11.6667 21.3332Z" fill="#ACE730"/>
</g>
</svg>
