<svg width="38" height="40" viewBox="0 0 38 40" fill="none" xmlns="http://www.w3.org/2000/svg">
<g clip-path="url(#clip0_3185_11960)">
<path d="M19.0263 37.8637C28.9674 37.8637 37.0263 29.8048 37.0263 19.8637C37.0263 9.92255 28.9674 1.86368 19.0263 1.86368C9.08518 1.86368 1.02631 9.92255 1.02631 19.8637C1.02631 29.8048 9.08518 37.8637 19.0263 37.8637Z" fill="#1D1B1D" stroke="white"/>
<path d="M19.4095 7.14493L19.241 7.71796V24.3445L19.4095 24.5127L27.1153 19.9508L19.4095 7.14493Z" fill="#6B6B6B"/>
<path d="M19.4095 7.14493L11.7034 19.9508L19.4095 24.5127V16.4427V7.14493Z" fill="#A2A2A2"/>
<path d="M19.4095 25.9741L19.3145 26.09V32.0127L19.4095 32.2902L27.12 21.4145L19.4095 25.9741Z" fill="#4F4E4E"/>
<path d="M19.4095 32.2902V25.9741L11.7034 21.4145L19.4095 32.2902Z" fill="#A2A2A2"/>
<path d="M19.4095 24.5128L27.1153 19.9509L19.4095 16.4428V24.5128Z" fill="#797979"/>
<path d="M11.7034 19.9509L19.4095 24.5128V16.4428L11.7034 19.9509Z" fill="#D4D4D4"/>
<g style="mix-blend-mode:overlay">
<path d="M19.0241 7.29092L18.8556 7.86395V24.4905L19.0241 24.6587L26.7299 20.0968L19.0241 7.29092Z" fill="#ACE730"/>
<path d="M19.0241 7.29092L11.318 20.0968L19.0241 24.6587V16.5887V7.29092Z" fill="#ACE730"/>
<path d="M19.0241 26.1201L18.9291 26.236V32.1587L19.0241 32.4362L26.7346 21.5605L19.0241 26.1201Z" fill="#ACE730"/>
<path d="M19.0241 32.4362V26.1201L11.318 21.5605L19.0241 32.4362Z" fill="#ACE730"/>
<path d="M19.024 24.6588L26.7299 20.0969L19.024 16.5888V24.6588Z" fill="#ACE730"/>
<path d="M11.318 20.0969L19.0241 24.6588V16.5888L11.318 20.0969Z" fill="#ACE730"/>
</g>
<path d="M29.5263 37.8637C33.6684 37.8637 37.0263 34.5058 37.0263 30.3637C37.0263 26.2215 33.6684 22.8637 29.5263 22.8637C25.3842 22.8637 22.0263 26.2215 22.0263 30.3637C22.0263 34.5058 25.3842 37.8637 29.5263 37.8637Z" fill="black" stroke="white"/>
<path d="M32.784 34.1546C31.909 34.907 30.7707 35.3617 29.5264 35.3617C28.2822 35.3617 27.1498 34.9095 26.2761 34.1602L29.5331 30.9035L32.784 34.1546Z" fill="#ABDEAE"/>
<path d="M29.5262 25.3659C26.7661 25.3659 24.5284 27.6036 24.5284 30.3641C24.5284 31.345 24.8109 32.26 25.2993 33.0316C25.4331 33.2436 25.5826 33.4447 25.7463 33.6336L26.2829 33.097L29.5328 29.8475L33.3122 33.6267C33.4754 33.4374 33.6245 33.236 33.7582 33.0238C34.2434 32.2536 34.5242 31.3416 34.5242 30.3639C34.5245 27.6036 32.2867 25.3659 29.5262 25.3659ZM33.231 32.2202L33.1853 32.3116L29.5328 28.659L25.872 32.3197L25.826 32.2288C25.5366 31.6546 25.3836 31.0098 25.3836 30.3641C25.3836 28.0797 27.2419 26.2211 29.5264 26.2211C31.8109 26.2211 33.6695 28.0797 33.6695 30.3641C33.6695 31.0064 33.5178 31.6482 33.231 32.2202Z" fill="#ABDEAE"/>
</g>
<defs>
<clipPath id="clip0_3185_11960">
<rect width="37" height="39" fill="white" transform="translate(0.526306 0.363678)"/>
</clipPath>
</defs>
</svg>
