<svg width="24" height="24" viewBox="0 0 24 24" fill="none" xmlns="http://www.w3.org/2000/svg">
<g clip-path="url(#clip0_1090_1109)">
<path d="M23.625 12C23.625 18.4203 18.4203 23.625 12 23.625C5.57969 23.625 0.375 18.4203 0.375 12C0.375 5.57969 5.57969 0.375 12 0.375C18.4203 0.375 23.625 5.57969 23.625 12Z" fill="white" stroke="white" stroke-width="0.75"/>
<path d="M20.625 12C20.625 7.23654 16.7635 3.375 12 3.375C7.23654 3.375 3.375 7.23654 3.375 12C3.375 16.7635 7.23654 20.625 12 20.625C16.7635 20.625 20.625 16.7635 20.625 12Z" stroke="#0051FF" stroke-width="0.75"/>
<path d="M11.9677 6V10.3981L15.685 12.0591L11.9677 6Z" fill="#6697FF"/>
<path d="M11.9677 6L8.25 12.0591L11.9677 10.3981V6Z" fill="#0052FF"/>
<path d="M11.9677 14.9092V17.8975L15.6875 12.7513L11.9677 14.9092Z" fill="#6697FF"/>
<path d="M11.9677 17.8975V14.9086L8.25 12.7513L11.9677 17.8975Z" fill="#0052FF"/>
<path d="M11.9677 14.2174L15.685 12.0589L11.9677 10.3989V14.2174Z" fill="#CCDCFF"/>
<path d="M8.25 12.0589L11.9677 14.2174V10.3989L8.25 12.0589Z" fill="#6697FF"/>
<g clip-path="url(#clip1_1090_1109)">
<path d="M8.90997 4.5C8.90997 2.06442 6.93554 0.0900002 4.49997 0.0900002C2.06439 0.0900002 0.0899658 2.06442 0.0899658 4.5C0.0899658 6.93558 2.06439 8.91 4.49997 8.91C6.93554 8.91 8.90997 6.93558 8.90997 4.5Z" fill="white"/>
<mask id="mask0_1090_1109" style="mask-type:luminance" maskUnits="userSpaceOnUse" x="1" y="2" width="7" height="5">
<path d="M7.19999 2.16H1.79999V6.84H7.19999V2.16Z" fill="white"/>
</mask>
<g mask="url(#mask0_1090_1109)">
<path d="M6.76429 5.19767C6.78204 5.21176 6.79368 5.22391 6.81117 5.23831C6.82172 5.24705 6.82181 5.24705 6.83216 5.23754C6.8394 5.23088 6.8464 5.22391 6.85383 5.2174C6.88364 5.19081 6.9238 5.1921 6.9516 5.22103C6.96266 5.23264 6.9731 5.24491 6.98282 5.25774C7.00688 5.28927 7.00447 5.33049 6.97733 5.35918C6.9697 5.36723 6.96162 5.3748 6.95342 5.38217C6.94653 5.38825 6.9463 5.39419 6.95118 5.40185C6.96119 5.41764 6.97094 5.43358 6.98034 5.44975C6.9923 5.4702 7.00293 5.49154 7.01303 5.51303C7.02262 5.53353 7.02262 5.53337 7.04253 5.52679C7.05217 5.5233 7.06199 5.52039 7.07197 5.51805C7.10439 5.51151 7.13514 5.52802 7.14898 5.55984C7.15737 5.57946 7.16364 5.60003 7.1677 5.62111C7.17366 5.65117 7.15621 5.68455 7.12833 5.69938C7.11753 5.70504 7.10567 5.70753 7.09436 5.71178C7.08071 5.71695 7.07952 5.71798 7.08176 5.73205C7.08899 5.77633 7.09405 5.82084 7.09436 5.86583C7.09447 5.87568 7.09799 5.88126 7.10774 5.88211C7.11611 5.88283 7.12442 5.88448 7.13273 5.88536C7.16595 5.889 7.18855 5.90644 7.19837 5.94076C7.19922 5.9437 7.20139 6.00562 7.19848 6.02239C7.1921 6.05944 7.16472 6.08584 7.12871 6.08732C7.12093 6.08772 7.11313 6.08718 7.10547 6.08575C7.09127 6.08304 7.08187 6.08932 7.07842 6.10377C7.06996 6.13928 7.05859 6.17376 7.0464 6.20797C7.04281 6.21786 7.04486 6.22655 7.05271 6.23348C7.05677 6.23712 7.07251 6.25497 7.07507 6.26091C7.08091 6.27456 7.05564 6.25333 7.0498 6.2498C7.03646 6.24172 6.87286 6.14656 6.81194 6.11243C6.81627 6.07852 6.83202 6.03511 6.83835 6.00168C6.87065 5.83127 6.83724 5.67585 6.74375 5.53394C6.66601 5.41591 6.55953 5.34041 6.42875 5.30298C6.31365 5.26999 6.19958 5.2767 6.08768 5.31976C5.9951 5.35535 5.89373 5.41373 5.83811 5.50568C5.83172 5.51319 5.8287 5.51231 5.81865 5.50759C5.78383 5.48932 5.64742 5.39577 5.59195 5.36175C5.56739 5.33578 5.5511 5.29325 5.56956 5.26188C5.58275 5.23949 5.60046 5.22134 5.61945 5.20501C5.64614 5.1821 5.68481 5.18276 5.71317 5.20429C5.74833 5.231 5.74829 5.23088 5.78244 5.20218C5.80027 5.18721 5.8193 5.17391 5.83802 5.16019C5.85547 5.14748 5.85674 5.14234 5.84858 5.12238C5.82631 5.0679 5.84058 5.02654 5.89081 4.9996C5.90408 4.99217 5.91798 4.98597 5.93228 4.98109C5.97062 4.96881 6.00593 4.98321 6.02678 5.01917C6.04851 5.05673 6.04839 5.05665 6.08932 5.04673C6.11094 5.04148 6.13286 5.03776 6.15473 5.03359C6.17654 5.02937 6.17986 5.02573 6.1811 5.00301C6.18159 4.99163 6.18323 4.98033 6.18596 4.96935C6.19174 4.94735 6.20218 4.92804 6.22383 4.91939C6.26507 4.90283 6.30673 4.89965 6.34721 4.92142C6.37109 4.93425 6.38223 4.95632 6.38254 4.98492C6.383 5.02776 6.38326 5.02814 6.42299 5.03493C6.44914 5.03936 6.4747 5.04604 6.50039 5.05239C6.51988 5.05727 6.5249 5.05534 6.53253 5.03557C6.55171 4.98551 6.59952 4.95995 6.65588 4.98911C6.67185 4.99738 6.68864 5.00343 6.7026 5.01677C6.73076 5.04365 6.73272 5.08335 6.72115 5.11231C6.7195 5.11637 6.71752 5.12028 6.71593 5.12437C6.70821 5.14448 6.70739 5.15625 6.70739 5.15625C6.70739 5.15625 6.74684 5.18379 6.76429 5.19767Z" fill="#5F5F5F"/>
<path d="M6.80308 6.09598C6.81943 6.11249 7.03831 6.23857 7.05719 6.25049C7.0628 6.25125 7.06712 6.25517 7.0722 6.25734C7.07611 6.26102 7.07954 6.26479 7.08309 6.26888C7.10042 6.29444 7.10011 6.32141 7.0901 6.34963C7.08372 6.36462 7.07611 6.37897 7.06724 6.39247C7.04664 6.42515 7.00861 6.43541 6.97519 6.41767C6.96501 6.41227 6.95515 6.4063 6.94549 6.39982C6.93849 6.39522 6.93364 6.39645 6.92874 6.40331C6.90193 6.44061 6.87215 6.47545 6.83973 6.50739C6.8332 6.51383 6.83244 6.51942 6.83792 6.5269C6.84427 6.53528 6.85014 6.5441 6.85584 6.55298C6.87892 6.58907 6.87269 6.63068 6.84004 6.65742C6.82867 6.66669 6.81707 6.67573 6.80501 6.68401C6.77256 6.70618 6.73453 6.69995 6.70982 6.66853C6.70297 6.65976 6.69658 6.65056 6.69063 6.64105C6.68538 6.63274 6.68011 6.63087 6.6713 6.63616C6.63421 6.65838 6.59502 6.67592 6.55502 6.69147C6.54049 6.69715 6.54064 6.69738 6.54347 6.71338C6.54447 6.71894 6.54529 6.72461 6.54628 6.73017C6.55561 6.7771 6.54498 6.80253 6.50598 6.8266C6.49593 6.83249 6.48436 6.83157 6.47358 6.83455C6.45473 6.83931 6.43572 6.83892 6.41652 6.83794C6.41025 6.83468 6.40399 6.83115 6.39788 6.82758C6.37942 6.81141 6.37119 6.79008 6.3664 6.76565C6.35994 6.73251 6.36388 6.73791 6.33492 6.73932C6.29654 6.7412 6.2581 6.74105 6.21973 6.73879C6.20484 6.73791 6.20484 6.73786 6.20139 6.75239C6.19982 6.75917 6.19798 6.76587 6.19702 6.77273C6.1908 6.81613 6.15765 6.84869 6.10474 6.83809C6.09182 6.83549 6.07902 6.83195 6.06637 6.82801C6.03021 6.81683 6.00928 6.78013 6.01656 6.74108C6.01833 6.7312 6.02054 6.72132 6.02239 6.7114C6.02487 6.69792 6.02471 6.69718 6.01183 6.69212C5.98712 6.68232 5.96248 6.67232 5.93869 6.66025C5.92465 6.65313 5.91074 6.64565 5.89688 6.63811C5.88246 6.63029 5.88258 6.63017 5.87248 6.64442C5.86706 6.65202 5.86204 6.65987 5.85643 6.66719C5.83175 6.69975 5.79287 6.70657 5.76 6.68381C5.74751 6.67512 5.73529 6.66584 5.72352 6.65604C5.69356 6.63099 5.6871 6.58983 5.70771 6.55586C5.71382 6.54575 5.72062 6.5361 5.72751 6.52656C5.73231 6.51993 5.73262 6.51459 5.72647 6.50851C5.69359 6.47609 5.66347 6.44078 5.63635 6.40288C5.6312 6.39568 5.62614 6.39573 5.61948 6.40013C5.61136 6.4055 5.60294 6.41039 5.59449 6.4153C5.55663 6.43701 5.51722 6.4263 5.49499 6.3873C5.48705 6.37331 5.4773 6.36048 5.47185 6.34481C5.45832 6.30596 5.46972 6.26999 5.50356 6.24834C5.51076 6.24374 5.51814 6.23949 5.52519 6.23489C5.53768 6.22686 5.53802 6.22663 5.53249 6.21252C5.52105 6.18333 5.51122 6.15345 5.50302 6.12308C5.49939 6.10977 5.49598 6.09626 5.49301 6.08273C5.49085 6.07284 5.48592 6.06901 5.4763 6.07116C5.46861 6.07266 5.46087 6.07373 5.4531 6.07438C5.40729 6.07947 5.37337 6.05059 5.36858 6.00251C5.36727 5.98922 5.36588 5.97608 5.36498 5.96286C5.36378 5.9437 5.36954 5.92478 5.38119 5.91002C5.39283 5.89525 5.40939 5.88574 5.42749 5.88345C5.43758 5.88214 5.44776 5.88131 5.45781 5.87965C5.47096 5.87739 5.47139 5.87708 5.47159 5.86263C5.47216 5.83107 5.47448 5.79955 5.47843 5.7682C5.4801 5.75445 5.48446 5.74105 5.4835 5.72695C5.48252 5.71729 5.47862 5.71132 5.47128 5.70829C5.46624 5.70675 5.46504 5.7061 5.45755 5.70412C5.44272 5.70032 5.42927 5.69358 5.41855 5.68213" fill="#414141"/>
<path d="M5.48395 5.73557C5.48566 5.72587 5.48171 5.71136 5.47227 5.70856C5.46419 5.70619 5.45128 5.7011 5.44322 5.69853C5.41128 5.68837 5.3912 5.66182 5.38772 5.62612C5.38366 5.61095 5.39634 5.56179 5.40212 5.54585C5.41503 5.51077 5.44666 5.49032 5.48228 5.49598C5.48999 5.49717 5.49757 5.49923 5.50483 5.50211C5.5183 5.50763 5.52866 5.50329 5.53461 5.48981C5.54928 5.45664 5.5712 5.42377 5.58533 5.39035C5.59902 5.35807 5.58932 5.36075 5.59411 5.36186C5.6058 5.37247 5.77621 5.45978 5.82993 5.5054C5.79496 5.54528 5.71718 5.72584 5.71398 5.78625" fill="#414141"/>
<path d="M5.83209 5.50254C5.94089 5.37865 6.01875 5.32546 6.12616 5.29333C6.19149 5.27359 6.25972 5.26643 6.32749 5.27214C6.44151 5.28184 6.54447 5.32378 6.63517 5.39791C6.71511 5.46331 6.77336 5.54616 6.81308 5.6439C6.83738 5.70366 6.85022 5.76614 6.85621 5.83089C6.8648 5.92364 6.84597 6.02722 6.81576 6.11365C6.80964 6.11936 6.69837 6.0391 6.68645 6.02347C6.68374 6.01505 6.68711 6.00731 6.68915 5.99948C6.7001 5.95727 6.70719 5.91436 6.70591 5.87051C6.69991 5.65961 6.56353 5.48563 6.37491 5.44315C6.2357 5.41178 6.0881 5.44346 5.95295 5.58812C5.94955 5.59011 5.94852 5.58578 5.92558 5.56912C5.88706 5.54444 5.86811 5.52896 5.84176 5.51216C5.82668 5.50288 5.82745 5.5079 5.83209 5.50254Z" fill="#414141"/>
<path d="M6.81795 6.10757C6.8143 6.11366 6.81106 6.11994 6.80816 6.12645C6.77498 6.21069 6.72183 6.27985 6.65708 6.33843C6.57238 6.41511 6.47413 6.46292 6.36258 6.47829C6.33524 6.48208 6.30786 6.48622 6.28024 6.48529C6.20037 6.48262 6.12317 6.46714 6.04945 6.43332C6.00265 6.4117 5.95886 6.38354 5.91926 6.34957C5.8576 6.29704 5.80751 6.23391 5.77074 6.1591C5.73693 6.09018 5.71748 6.01727 5.70923 5.94046C5.70205 5.87434 5.70769 5.80944 5.72083 5.74469C5.73585 5.67087 5.76389 5.60283 5.80303 5.53977C5.80861 5.53082 5.82481 5.51043 5.83006 5.50534C5.85853 5.52088 5.93616 5.5749 5.94861 5.58663C5.95647 5.59743 5.94195 5.61164 5.93747 5.61858C5.91361 5.65531 5.89396 5.69413 5.88131 5.73677C5.83726 5.88525 5.85745 6.02348 5.94621 6.14771C6.02025 6.25137 6.12092 6.30819 6.24404 6.32121C6.41945 6.3398 6.59945 6.23486 6.67352 6.04972C6.67761 6.03948 6.67657 6.02336 6.69324 6.02256C6.70396 6.0355 6.80537 6.10029 6.81795 6.10757Z" fill="#5F5F5F"/>
<path d="M6.69321 6.02256C6.67923 6.06029 6.66362 6.09706 6.64172 6.13066C6.57238 6.23697 6.47773 6.30295 6.35721 6.32569C6.23514 6.34868 6.12339 6.31998 6.02403 6.24265C5.93666 6.17456 5.88088 6.08297 5.85938 5.97083C5.83393 5.83829 5.86066 5.7163 5.93514 5.60609C5.93794 5.60195 5.94056 5.59781 5.94334 5.59367C5.94617 5.59011 5.98319 5.54705 6.0012 5.53116C6.08107 5.46066 6.17243 5.42453 6.27686 5.42247C6.47254 5.41853 6.64902 5.55808 6.69993 5.76082C6.72032 5.84195 6.71978 5.92333 6.69761 6.00425C6.69595 6.01025 6.69463 6.01645 6.69321 6.02256Z" fill="#EDAE50"/>
<path d="M6.39828 5.87782C6.40157 5.94719 6.34112 6.00091 6.28377 6.00017C6.21828 5.99937 6.16456 5.94527 6.16518 5.87663C6.16572 5.80955 6.2155 5.75408 6.28457 5.75388C6.34212 5.75374 6.40146 5.80798 6.39828 5.87782Z" fill="#414141"/>
<path d="M6.40487 5.64711C6.4182 5.64569 6.42932 5.65068 6.43854 5.66108C6.44671 5.6703 6.45546 5.67897 6.46345 5.68841C6.48197 5.71021 6.47067 5.75015 6.44671 5.75799C6.43625 5.76144 6.42665 5.76164 6.41742 5.75526C6.3977 5.74164 6.38088 5.72436 6.36592 5.70541C6.35008 5.6853 6.35813 5.65951 6.38173 5.65076C6.38914 5.64791 6.397 5.64665 6.40487 5.64711Z" fill="#FCD38C"/>
<path d="M3.26397 6.83092C3.23154 6.81292 3.21228 6.78499 3.20651 6.7466C3.20453 6.73354 3.20111 6.72074 3.19855 6.70772C3.19675 6.6986 3.1924 6.69554 3.18337 6.6963C3.12596 6.7014 3.06827 6.70206 3.01078 6.69823C3.00299 6.69772 2.99519 6.69726 2.98746 6.6963C2.98008 6.69543 2.97624 6.69864 2.97473 6.70611C2.972 6.71971 2.96832 6.73311 2.96619 6.74683C2.95961 6.78913 2.93762 6.8182 2.90019 6.83457C2.87624 6.84142 2.8523 6.839 2.82837 6.83434C2.8062 6.83 2.78344 6.82797 2.76335 6.81572C2.75562 6.80974 2.74734 6.80457 2.74065 6.79713C2.71677 6.77055 2.70689 6.73951 2.71306 6.70332C2.71538 6.68964 2.71846 6.67615 2.72108 6.66252C2.7255 6.63922 2.72546 6.6391 2.70486 6.63145C2.65795 6.61386 2.61219 6.59306 2.56788 6.56915C2.55721 6.56344 2.5464 6.55778 2.5362 6.55126C2.52841 6.54621 2.52324 6.54727 2.51819 6.55506C2.51041 6.56701 2.50179 6.57838 2.49408 6.59046C2.46122 6.64187 2.39675 6.65692 2.34607 6.61574C2.3328 6.60494 2.31878 6.59514 2.30546 6.5844C2.25843 6.54655 2.24985 6.48622 2.28412 6.43507C2.29309 6.42166 2.30227 6.40836 2.31164 6.39522C2.31609 6.38902 2.31601 6.38396 2.31038 6.37887C2.30763 6.37642 2.30518 6.37362 2.30258 6.37102C2.25867 6.32703 2.21813 6.2795 2.18129 6.2288C2.17085 6.2144 2.17075 6.21448 2.1554 6.2238C2.145 6.23008 2.13465 6.23643 2.12425 6.24276C2.06958 6.2757 2.01525 6.26122 1.98146 6.2048C1.97683 6.19758 1.97508 6.19495 1.97023 6.18629C1.96426 6.17407 1.95706 6.16264 1.95164 6.15004C1.9286 6.09626 1.94466 6.04121 1.99291 6.01082C2.00422 6.0037 2.01572 5.99685 2.02715 5.98976C2.04236 5.98029 2.04253 5.98017 2.03598 5.96366C2.01495 5.91056 1.99761 5.85597 1.98408 5.80027C1.98183 5.79108 1.97938 5.78196 1.97758 5.7727C1.97578 5.76342 1.97066 5.76039 1.96207 5.76154C1.94601 5.76368 1.92993 5.76619 1.91378 5.76714C1.87233 5.76967 1.84034 5.75231 1.81869 5.71484C1.80969 5.69941 1.8063 5.68213 1.80478 5.66427C1.80367 5.65099 1.80118 5.63907 1.80033 5.62477C1.79683 5.57092 1.8261 5.50326 1.89044 5.49843C1.90419 5.4974 1.91787 5.49522 1.9316 5.4936C1.94745 5.49174 1.94801 5.49157 1.94837 5.47568C1.9494 5.42893 1.95302 5.38228 1.95919 5.33595C1.96171 5.31718 1.96459 5.2985 1.96773 5.27984C1.97074 5.26202 1.97076 5.26165 1.9539 5.25582C1.94129 5.25148 1.92867 5.24743 1.91625 5.24298C1.8623 5.2238 1.83443 5.16967 1.84957 5.11208C1.85516 5.09078 1.86202 5.06982 1.8694 5.04913C1.8883 4.99577 1.94006 4.96888 1.99195 4.985C2.00749 4.98983 2.02305 4.99466 2.03816 5.00074C2.04781 5.00454 2.05212 5.00137 2.05617 4.9924C2.06575 4.97129 2.07615 4.95061 2.08623 4.92981C2.08983 4.92264 2.09314 4.9169 2.09641 4.9103C2.10723 4.88942 2.1187 4.86885 2.13246 4.84981C2.14483 4.83843 4.22815 6.12913 4.22231 6.14399C4.21829 6.15162 4.21508 6.15893 4.21125 6.16629C4.2039 6.18004 4.19693 6.19403 4.18913 6.20746C4.15941 6.25842 4.10529 6.2739 4.0548 6.24613C4.04154 6.23885 4.02879 6.23042 4.01577 6.2226C4.0022 6.21448 4.00206 6.2144 3.99284 6.22694C3.97227 6.25494 3.95077 6.2821 3.92832 6.30841C3.90823 6.33189 3.88697 6.35416 3.86534 6.37608C3.85539 6.38616 3.85542 6.38645 3.86308 6.39787C3.8717 6.41078 3.88083 6.42335 3.88939 6.43629C3.92259 6.4866 3.91369 6.54716 3.86756 6.58417C3.85279 6.59605 3.83777 6.60757 3.8225 6.61876C3.77459 6.65373 3.71766 6.64421 3.68221 6.59525C3.6732 6.58268 3.66464 6.56966 3.65564 6.55701C3.64749 6.54564 3.64718 6.54544 3.63525 6.5523C3.58631 6.58054 3.53553 6.60502 3.48326 6.62554C3.47595 6.62842 3.46857 6.6311 3.46129 6.63402C3.44811 6.6393 3.44787 6.6395 3.45049 6.6549C3.45281 6.66858 3.45476 6.68244 3.45849 6.69569C3.4724 6.74534 3.44334 6.80529 3.37885 6.82637C3.35096 6.83552 3.29057 6.84214 3.26397 6.83092Z" fill="#414141"/>
<path d="M4.21826 6.14767C4.17452 6.12093 3.78509 5.86817 3.75781 5.85231C3.74301 5.84441 3.74783 5.84346 3.75681 5.82572C3.78865 5.75403 3.81009 5.67769 3.82038 5.59931C3.82781 5.54219 3.82742 5.48483 3.82295 5.4273C3.81876 5.37312 3.80909 5.31953 3.79412 5.26751C3.77502 5.20118 3.74742 5.13917 3.71331 5.07986C3.67527 5.01371 3.6268 4.95723 3.57326 4.90517C3.53209 4.86514 3.48557 4.83261 3.43643 4.80438C3.36261 4.76162 3.2823 4.73281 3.19907 4.71918C3.14681 4.71063 3.09405 4.70641 3.04129 4.71006C2.92904 4.71783 2.82276 4.74894 2.7239 4.80618C2.64591 4.85252 2.57612 4.91268 2.51759 4.98405C2.50267 5.00228 2.48143 5.03853 2.4668 5.05691C2.4584 5.06744 2.31866 4.97195 2.12855 4.85346C2.13557 4.84046 2.14232 4.82981 2.14982 4.81847C2.15448 4.81139 2.15411 4.80599 2.14802 4.80039C2.13635 4.78947 2.12473 4.77851 2.11328 4.76737C2.07689 4.73178 2.06838 4.68458 2.09117 4.63823C2.09637 4.62762 2.10578 4.60267 2.12013 4.58455C2.12707 4.57578 2.13471 4.56778 2.14221 4.55961C2.17891 4.51962 2.25024 4.51893 2.28853 4.55579C2.33489 4.60034 2.3288 4.59 2.36783 4.55842C2.4012 4.53153 2.43495 4.50529 2.47025 4.48115C2.48923 4.46821 2.49046 4.46192 2.48085 4.44021C2.47015 4.41597 2.46051 4.39161 2.46258 4.36394C2.46515 4.32975 2.47832 4.30051 2.50483 4.28153C2.54268 4.25445 2.58287 4.23216 2.63115 4.23354C2.67103 4.23471 2.69897 4.25561 2.71922 4.28983C2.72644 4.30213 2.73205 4.31557 2.73788 4.32874C2.74329 4.34109 2.75205 4.34512 2.76432 4.34172C2.81603 4.32746 2.86841 4.31665 2.92112 4.30766C2.94028 4.30441 2.94414 4.29848 2.94488 4.27844C2.94522 4.27147 2.94522 4.2645 2.94488 4.25754C2.94079 4.19382 2.98764 4.14033 3.04303 4.13663C3.07356 4.13459 3.10415 4.13215 3.13445 4.13853C3.17903 4.14802 3.2229 4.19104 3.21848 4.25008C3.21787 4.25825 3.21831 4.26651 3.21848 4.27477C3.21887 4.29902 3.22321 4.30498 3.24597 4.30842C3.29529 4.31568 3.34413 4.32619 3.39221 4.33985C3.41767 4.34718 3.42162 4.34453 3.4322 4.31946C3.44052 4.29983 3.44885 4.28016 3.46352 4.2644C3.49319 4.23265 3.53011 4.22753 3.56858 4.23648C3.59903 4.24358 3.62765 4.25815 3.65388 4.27615C3.69661 4.3055 3.71219 4.35823 3.69479 4.40953C3.69117 4.42021 3.68682 4.43065 3.68227 4.44098C3.67326 4.46124 3.67479 4.46863 3.69271 4.48058C3.73035 4.50545 3.76658 4.53253 3.80125 4.56179C3.83922 4.59409 3.83244 4.59895 3.87435 4.55904C3.91104 4.52402 3.9677 4.51985 4.00117 4.54382C4.03509 4.56807 4.06459 4.59866 4.08418 4.63688C4.10161 4.67094 4.09927 4.73354 4.06456 4.76503C4.05414 4.77453 4.04491 4.78542 4.03524 4.79579C4.02686 4.80484 4.02571 4.81467 4.03236 4.82495C4.06338 4.87311 4.09115 4.92348 4.11545 4.97569C4.12142 4.98854 4.13167 4.99179 4.14428 4.98757C4.15913 4.98255 4.17429 4.97852 4.18964 4.97563C4.23072 4.96803 4.27595 4.98703 4.29702 5.025C4.31748 5.06178 4.33009 5.10215 4.33137 5.14533C4.33276 5.19281 4.31029 5.22563 4.27187 5.24751C4.25911 5.25459 4.24566 5.26019 4.23176 5.26425C4.21707 5.26865 4.21077 5.27808 4.21375 5.29387C4.22411 5.35044 4.22756 5.40779 4.23096 5.46518C4.23185 5.4804 4.2388 5.48877 4.25331 5.4892C4.26415 5.48954 4.27478 5.49165 4.28545 5.49314C4.34057 5.50074 4.37823 5.5459 4.37843 5.60463C4.37855 5.616 4.37801 5.62734 4.37693 5.63868C4.37511 5.6565 4.36904 5.68209 4.36428 5.6988C4.35051 5.7474 4.30389 5.77404 4.2559 5.77082C4.24035 5.76979 4.22489 5.76717 4.20933 5.76553C4.19506 5.76408 4.19432 5.76427 4.19081 5.77916C4.18014 5.82395 4.16849 5.86843 4.15322 5.91176C4.14613 5.9319 4.13882 5.95195 4.13078 5.97171C4.12718 5.98045 4.12869 5.98585 4.13638 5.9904C4.15155 5.99945 4.16683 6.00825 4.18145 6.01825C4.22047 6.04484 4.23656 6.0932 4.22237 6.13936C4.22121 6.14222 4.21985 6.14502 4.21826 6.14767Z" fill="#666059"/>
<path d="M2.62977 5.14974C2.64778 5.12698 2.66488 5.10331 2.68462 5.08196C2.77771 4.98118 2.89019 4.92202 3.023 4.90628C3.14046 4.89234 3.25189 4.91387 3.35482 4.97489C3.51327 5.06882 3.60779 5.21199 3.6376 5.40071C3.65491 5.51031 3.64179 5.61735 3.60047 5.72009C3.59815 5.72589 3.59648 5.73197 3.59452 5.73795C3.59902 5.74783 3.59465 5.75634 3.59072 5.76491C3.57067 5.80859 3.54431 5.84775 3.51379 5.8836C3.42605 5.98669 3.31864 6.05504 3.18831 6.07867C3.01529 6.11005 2.85918 6.06787 2.72348 5.95003C2.61342 5.85441 2.5471 5.73063 2.52573 5.58221C2.50912 5.46672 2.52294 5.35415 2.56837 5.24666C2.57938 5.22061 2.59275 5.19598 2.60622 5.17127C2.61172 5.16096 2.61888 5.15331 2.62977 5.14974Z" fill="#EDAE50"/>
<path d="M2.73035 5.49012C2.72738 5.27723 2.90024 5.115 3.0836 5.114C3.26343 5.11303 3.44289 5.26391 3.4432 5.492C3.44351 5.70373 3.28037 5.86468 3.08996 5.86674C2.88252 5.869 2.72654 5.68867 2.73035 5.49012Z" fill="#45423D"/>
<path d="M3.43704 5.14293C3.44002 5.1744 3.40261 5.19904 3.37661 5.18089C3.35897 5.16854 3.34231 5.15599 3.32834 5.13956C3.30821 5.11596 3.31279 5.09143 3.33946 5.076C3.35921 5.06457 3.37762 5.06376 3.39587 5.08014C3.4087 5.09166 3.42113 5.10325 3.43035 5.11825C3.43501 5.12555 3.43737 5.13419 3.43704 5.14293Z" fill="#FCD38C"/>
<path d="M2.80197 5.49265C2.79755 5.33887 2.91586 5.18885 3.08756 5.18955C3.24796 5.19019 3.37317 5.32573 3.37155 5.49522C3.36998 5.66233 3.23849 5.79334 3.08218 5.79131C2.92013 5.78921 2.79758 5.64551 2.80197 5.49265Z" fill="#EDAE50"/>
<path d="M3.08591 5.61317C3.02203 5.61317 2.96877 5.55721 2.96924 5.48978C2.96965 5.42331 3.01853 5.36769 3.08667 5.36695C3.1488 5.36631 3.20306 5.42039 3.20272 5.49081C3.20241 5.55942 3.15122 5.61326 3.08591 5.61317Z" fill="#414141"/>
<path d="M3.22085 5.28659C3.22758 5.28659 3.23414 5.28736 3.23985 5.2913C3.26467 5.30865 3.27796 5.3328 3.27708 5.36449C3.2766 5.38081 3.25441 5.39792 3.23929 5.39431C3.2137 5.3882 3.19285 5.37485 3.17862 5.35083C3.16629 5.33007 3.16873 5.31269 3.18719 5.29798C3.19717 5.29012 3.20858 5.2869 3.22085 5.28659Z" fill="#FCD38C"/>
<path d="M2.6298 5.14969C2.61119 5.18073 2.59319 5.21199 2.57881 5.24555C2.55464 5.30213 2.53896 5.36235 2.53229 5.42403C2.52345 5.50175 2.52955 5.58061 2.55024 5.65585C2.57094 5.73109 2.60579 5.80111 2.65274 5.86187C2.7241 5.95416 2.81404 6.01776 2.92179 6.05322C2.98423 6.07376 3.04854 6.08324 3.11367 6.07867C3.28407 6.06684 3.42301 5.9904 3.52921 5.84892C3.5515 5.81908 3.57072 5.78686 3.58658 5.75277C3.58895 5.74772 3.59188 5.74292 3.59457 5.73798C3.60937 5.74529 3.72462 5.82372 3.74428 5.83821C3.75208 5.8439 3.74855 5.85149 3.74483 5.85846C3.72459 5.89654 3.7032 5.93385 3.67745 5.96818C3.62116 6.04319 3.55551 6.10718 3.47784 6.15731C3.40247 6.20604 3.31966 6.24064 3.23309 6.2596C3.16612 6.27448 3.09827 6.27669 3.03064 6.27225C2.94067 6.26643 2.85445 6.2424 2.77237 6.2023C2.71615 6.17513 2.66346 6.14051 2.61558 6.09924C2.52141 6.01749 2.44836 5.91873 2.4011 5.79947C2.37091 5.72289 2.35201 5.64189 2.3451 5.5593C2.33429 5.43614 2.35283 5.31761 2.39398 5.20236C2.40907 5.16015 2.42897 5.12058 2.45024 5.08165C2.45232 5.07787 2.45467 5.07407 2.45708 5.07051C2.47001 5.05116 2.47246 5.05054 2.49167 5.06208C2.52393 5.08147 2.58598 5.12204 2.61757 5.14234C2.6218 5.14452 2.62589 5.14697 2.6298 5.14969Z" fill="#666059"/>
<path d="M3.63156 5.61548C3.64786 5.53908 3.64938 5.45998 3.63605 5.38294C3.62271 5.3059 3.59478 5.23246 3.55393 5.16702C3.48566 5.07427 3.3999 4.99612 3.30471 4.94789C3.2453 4.92093 3.18164 4.9059 3.11699 4.9036C2.94633 4.8972 2.80003 4.95675 2.68083 5.08623C2.6621 5.10695 2.64449 5.12879 2.62813 5.15162C2.6141 5.14282 2.48501 5.07338 2.46685 5.05687C2.45965 5.05033 2.51594 4.98314 2.54485 4.95175C2.60808 4.88311 2.67954 4.82641 2.76165 4.78488C2.8385 4.74312 2.92635 4.71926 3.01498 4.70933C3.08294 4.70159 3.15158 4.70352 3.21905 4.71504C3.30799 4.73044 3.39 4.76691 3.46776 4.81564C3.52109 4.84871 3.5702 4.88877 3.61386 4.93493C3.69967 5.02634 3.76281 5.13239 3.79841 5.25608C3.82107 5.33551 3.83205 5.41813 3.83097 5.50105C3.82979 5.62474 3.80032 5.73837 3.75751 5.82989C3.74904 5.84806 3.75673 5.8476 3.73213 5.82989C3.70191 5.80713 3.62649 5.75956 3.59466 5.73803C3.59268 5.73642 3.61867 5.67642 3.63156 5.61548Z" fill="#45423D"/>
<path d="M2.83914 2.39163C2.82602 2.34766 2.81595 2.30281 2.80489 2.25825C2.80198 2.24652 2.80525 2.24336 2.81713 2.24033C3.47435 2.07195 4.27353 2.2006 4.68401 2.33159C4.74907 2.35619 4.81238 2.38476 4.87095 2.42385C4.89636 2.44084 4.92045 2.45954 4.93945 2.48461C4.9447 2.49148 4.94946 2.49878 4.95363 2.50645C4.96358 2.52508 4.96579 2.54386 4.95647 2.56423C4.93485 2.61149 4.91133 2.6577 4.88592 2.70283C4.86948 2.73222 4.85262 2.76134 4.83595 2.79059C4.82809 2.8048 4.81931 2.81838 4.8096 2.83126C4.80113 2.83959 4.79159 2.83558 4.78245 2.83342C4.74223 2.82393 4.70165 2.8165 4.66169 2.80614C4.65876 2.80537 4.65573 2.80666 4.65276 2.80678C4.61091 2.79249 4.56675 2.79087 4.52424 2.7802C4.51867 2.7788 4.51383 2.78235 4.50849 2.7814C4.43869 2.7671 4.3679 2.75988 4.29762 2.7497C4.27291 2.74612 4.24738 2.74801 4.22344 2.7387C4.21428 2.72851 4.21261 2.71517 4.20951 2.70233C4.19179 2.6265 4.16879 2.5529 4.12663 2.48754C4.1202 2.47761 4.11323 2.46813 4.10592 2.4589C4.08397 2.43117 4.05779 2.41467 4.02223 2.40975C3.92948 2.3969 3.8366 2.38579 3.74345 2.37748C3.58843 2.36355 3.43326 2.36118 3.27798 2.3635C3.20135 2.36462 3.12479 2.36998 3.0483 2.37694C2.98496 2.38263 2.92178 2.38939 2.85878 2.39819C2.85097 2.39898 2.84423 2.39849 2.83914 2.39163Z" fill="#EDAE50"/>
<path d="M5.0184 3.71561C4.97477 3.71528 4.9311 3.71433 4.88747 3.71499C4.87355 3.71517 4.87045 3.70664 4.86743 3.69611C4.85559 3.69231 4.85594 3.68092 4.85412 3.67143C4.84002 3.59835 4.82675 3.52506 4.81138 3.45224C4.7736 3.2732 4.73117 3.09545 4.67957 2.92021C4.67069 2.89002 4.66113 2.86005 4.65242 2.82978C4.64979 2.82059 4.64472 2.81054 4.65327 2.80131C4.65645 2.79751 4.66065 2.79751 4.66479 2.79828C4.71338 2.80779 4.76188 2.81728 4.80961 2.83099C4.84093 2.92387 4.86728 3.01837 4.89161 3.11351C4.92463 3.24282 4.95299 3.37332 4.9794 3.50427C4.98927 3.55319 5.01828 3.7144 5.0184 3.71561Z" fill="#45423D"/>
<path d="M2.83927 2.39165C2.89667 2.38132 2.95462 2.37532 3.01253 2.36985C3.05429 2.36591 3.09626 2.36337 3.13812 2.36036C3.25445 2.35185 3.37088 2.35201 3.48725 2.35409C3.5718 2.3556 3.65627 2.36031 3.74068 2.36738C3.79689 2.37209 3.85301 2.37751 3.90901 2.38425C3.95606 2.38994 4.00272 2.39816 4.04979 2.40462C4.065 2.40668 4.07646 2.41454 4.08732 2.42501C4.1248 2.46108 4.15126 2.50521 4.17202 2.55337C4.19678 2.61059 4.21375 2.67043 4.22501 2.73212C4.22239 2.74078 4.2157 2.7409 4.20892 2.74047C4.17903 2.73857 4.14905 2.73635 4.11927 2.73342C4.09299 2.73086 4.06661 2.72962 4.04036 2.72807C3.99854 2.72563 3.95664 2.72085 3.91459 2.7233C3.89837 2.72427 3.88239 2.71997 3.8662 2.71969C3.84429 2.71936 3.83748 2.72435 3.82988 2.74574C3.78507 2.87195 3.74817 3.00077 3.71576 3.13105C3.66565 3.33233 3.62744 3.53623 3.5953 3.74142C3.5867 3.79627 3.57968 3.85136 3.572 3.90636C3.57043 3.91756 3.56928 3.92903 3.56253 3.93865C3.55724 3.94423 3.55052 3.9446 3.54407 3.94284C3.51394 3.93464 3.48401 3.92549 3.45395 3.91706C3.4516 3.91649 3.44942 3.91535 3.44759 3.91369C3.44576 3.91202 3.44435 3.90993 3.44346 3.90757C3.43862 3.89383 3.44166 3.87989 3.44361 3.86637C3.47424 3.6444 3.51175 3.42383 3.56109 3.20561C3.59597 3.05126 3.63574 2.89849 3.68666 2.74908C3.69438 2.7265 3.69005 2.71992 3.66753 2.71966C3.57824 2.71861 3.4891 2.72188 3.39986 2.72638C3.355 2.72866 3.31018 2.73059 3.26544 2.73455C3.26247 2.73455 3.25946 2.73466 3.25644 2.73468C3.20974 2.735 3.20866 2.73608 3.19394 2.78185C3.10824 3.04802 3.04833 3.32087 3.00206 3.59735C2.98821 3.68004 2.97607 3.763 2.96375 3.84593C2.96264 3.85352 2.96183 3.861 2.9573 3.86737C2.95298 3.87472 2.94583 3.8757 2.93866 3.87686C2.90143 3.88255 2.86398 3.88653 2.82692 3.89345C2.81857 3.89504 2.80833 3.8969 2.80664 3.88275C2.81286 3.83904 2.81908 3.79534 2.82531 3.75163C2.84146 3.63793 2.85976 3.52463 2.88018 3.41174C2.90697 3.26383 2.9376 3.11708 2.97545 2.9721C2.99346 2.90332 3.01209 2.83469 3.03475 2.7674C3.04267 2.74382 3.04264 2.74382 3.0255 2.72754C2.98415 2.68811 2.94295 2.64851 2.90139 2.60932C2.89374 2.60226 2.88841 2.59285 2.88609 2.58243C2.87201 2.52496 2.85725 2.46767 2.84272 2.41032C2.84022 2.40446 2.83901 2.39808 2.83927 2.39165Z" fill="#45423D"/>
<path d="M2.8393 2.39153C2.84148 2.39755 2.84397 2.40349 2.84271 2.41022C2.83912 2.40454 2.83459 2.39896 2.8393 2.39153Z" fill="#A9A9A9"/>
<path d="M3.79328 4.04189C3.72423 4.00281 3.65182 3.97201 3.57777 3.94534C3.57103 3.9429 3.56395 3.9411 3.55881 3.93528C3.56643 3.87962 3.57347 3.82387 3.58177 3.76833C3.60099 3.63975 3.62344 3.5118 3.64912 3.38451C3.68823 3.19155 3.73501 3.00081 3.79652 2.81432C3.80637 2.78447 3.81657 2.75475 3.82681 2.72507C3.83198 2.71005 3.83221 2.71 3.84748 2.71046C3.93265 2.71299 4.01781 2.71643 4.10287 2.72204C4.14356 2.72473 4.18413 2.72867 4.22477 2.73206C4.29193 2.73887 4.35884 2.74757 4.42564 2.75754C4.45403 2.76179 4.48242 2.7657 4.51061 2.77123C4.52681 2.77806 4.53688 2.79111 4.54666 2.8061C4.58387 2.8632 4.61349 2.92485 4.63817 2.98839C4.66397 3.05485 4.68757 3.12263 4.70349 3.19286C4.70976 3.22051 4.71869 3.24745 4.72513 3.275C4.74623 3.36567 4.7696 3.45574 4.78665 3.54746C4.79539 3.59449 4.80469 3.64148 4.81617 3.68796C4.81927 3.70033 4.82432 3.71432 4.8092 3.72322C4.80758 3.72512 4.80627 3.72749 4.80426 3.72862C4.77752 3.74353 4.75947 3.76778 4.7419 3.79252C4.71254 3.83382 4.6835 3.87535 4.65434 3.9168C4.64614 3.9206 4.63933 3.91744 4.63264 3.91237C4.59752 3.88587 4.56205 3.85982 4.52627 3.83425C4.50809 3.82119 4.5067 3.81466 4.51889 3.79542C4.53622 3.76807 4.55481 3.74168 4.57268 3.71473C4.57957 3.70437 4.58692 3.69429 4.59253 3.68308C4.60263 3.66277 4.59891 3.6425 4.5834 3.63037C4.56785 3.61825 4.54848 3.6207 4.53359 3.63831C4.51479 3.66053 4.49998 3.68599 4.48393 3.71046C4.43295 3.78784 4.3819 3.86516 4.33071 3.94243C4.32592 3.94968 4.32101 3.95694 4.31777 3.96522C4.31026 3.98401 4.31548 4.00338 4.33065 4.01381C4.34631 4.02459 4.36437 4.02246 4.37764 4.00644C4.3962 3.98404 4.41094 3.95851 4.42711 3.93428C4.43739 3.91873 4.44768 3.90317 4.45832 3.88787C4.46571 3.87725 4.47391 3.87566 4.48458 3.88288C4.52346 3.90923 4.56059 3.93822 4.59852 3.96597C4.60487 3.97062 4.61114 3.97614 4.61091 3.98566C4.59903 4.00603 4.5872 4.02645 4.57523 4.04675C4.56925 4.05694 4.56283 4.06686 4.55691 4.07713C4.53223 4.1196 4.53146 4.16352 4.55273 4.20711C4.61001 4.32452 4.66951 4.44065 4.73668 4.55222C4.74504 4.56613 4.75401 4.57953 4.7624 4.59332C4.78608 4.63217 4.82143 4.64777 4.86304 4.64911C4.90316 4.65033 4.94319 4.64569 4.98315 4.64202C4.98221 4.81778 4.93448 4.97857 4.8451 5.12655C4.83257 5.14725 4.81904 5.1561 4.79462 5.15537C4.72992 5.1533 4.66514 5.15499 4.60039 5.15517C4.58731 5.15325 4.58777 5.14108 4.58595 5.13192C4.57829 5.09423 4.5682 5.05725 4.55753 5.0204C4.51657 4.8782 4.4572 4.74261 4.38108 4.61754C4.35649 4.57707 4.32901 4.53888 4.30325 4.49938C4.27931 4.46644 4.25348 4.4351 4.22684 4.40468C4.17933 4.3505 4.13006 4.29816 4.07613 4.25088C3.99814 4.18291 3.91459 4.12233 3.82647 4.06983C3.81426 4.06211 3.79963 4.0573 3.79328 4.04189Z" fill="#B9E1E1"/>
<path d="M4.8055 3.72767C4.81049 3.71627 4.81006 3.70056 4.80748 3.68982C4.7847 3.59631 4.62394 2.94436 4.53306 2.80089C4.52203 2.78349 4.51945 2.77889 4.51077 2.77127C4.55348 2.77477 4.59532 2.78426 4.63764 2.79048C4.6409 2.79089 4.64399 2.79207 4.64674 2.79398C4.64944 2.79586 4.65168 2.79841 4.6533 2.80141C4.71008 2.98306 4.75878 3.16709 4.79943 3.35347C4.82433 3.46705 4.84991 3.58909 4.87022 3.7037L4.87053 3.70445C4.87462 3.71244 4.87567 3.71023 4.85187 3.71337C4.83715 3.71537 4.8173 3.72229 4.8055 3.72767Z" fill="#DCF9FB"/>
<path d="M3.44757 3.90527C3.4106 3.89767 3.37367 3.88938 3.33662 3.8827C3.29241 3.87481 3.24783 3.86936 3.20308 3.86639C3.16073 3.86347 3.11874 3.86259 3.07631 3.86249C3.05247 3.86249 3.02832 3.86495 3.00433 3.86308C2.99451 3.85515 2.99628 3.84438 2.9977 3.83358C3.01804 3.67897 3.0417 3.52504 3.07255 3.37219C3.09418 3.26452 3.11853 3.15763 3.14849 3.05228C3.17711 2.95164 3.21046 2.85277 3.26214 2.76215C3.26991 2.74852 3.27114 2.73725 3.26291 2.72447C3.2686 2.72205 3.27465 2.72208 3.28063 2.72178C3.41662 2.71529 3.55261 2.70825 3.6888 2.70956C3.69468 2.70956 3.70078 2.7081 3.70651 2.71118C3.70878 2.71799 3.70497 2.72355 3.703 2.72923C3.64295 2.90201 3.59757 3.07943 3.5585 3.25866C3.52535 3.41071 3.49784 3.56391 3.47411 3.71787C3.46455 3.78027 3.45644 3.84282 3.44757 3.90527Z" fill="#B9E1E1"/>
<path d="M3.2747 2.72216C3.29904 2.71917 3.29674 2.72057 3.28214 2.74685C3.24272 2.81779 3.20952 2.89072 3.18417 2.96768C3.16946 3.01227 3.15521 3.05729 3.1442 3.1033C3.13217 3.15351 3.11798 3.20312 3.10684 3.25359C3.09553 3.30466 3.08599 3.35612 3.07555 3.40739C3.06483 3.45988 3.05392 3.51233 3.04577 3.56533C3.03315 3.64761 3.02098 3.72993 3.00923 3.81232C3.00684 3.82909 3.00381 3.84597 3.0043 3.86313C2.99823 3.86601 2.95664 3.87053 2.95346 3.86313C2.95619 3.82275 2.96339 3.78298 2.96932 3.74307C2.98398 3.6445 3.00047 3.54623 3.01877 3.4483C3.06146 3.22197 3.11407 2.9983 3.18458 2.77971C3.18903 2.76597 3.1943 2.75248 3.19824 2.73859C3.20055 2.73044 3.20515 2.72743 3.21251 2.7272C3.2294 2.7263 3.2717 2.72203 3.2747 2.72216Z" fill="#DCF9FB"/>
<path d="M5.52314 5.50625C5.48117 5.50283 5.43445 5.46809 5.40107 5.55788C5.36788 5.64688 5.41666 5.68116 5.40931 5.67819C5.40568 5.67768 5.40203 5.67756 5.39837 5.67784C5.37091 5.67819 5.34252 5.67339 5.31509 5.67336C5.30539 5.66865 5.30766 5.66028 5.30928 5.65217C5.32309 5.58218 5.34425 5.51406 5.37236 5.44901C5.40958 5.36369 5.4551 5.28382 5.51216 5.2113C5.59149 5.11055 5.68439 5.02711 5.79245 4.96229C5.90489 4.89478 6.0256 4.85307 6.15352 4.83487C6.21529 4.8261 6.2776 4.82284 6.34006 4.82744C6.36372 4.82919 6.38226 4.81901 6.39498 4.79843C6.4002 4.79005 6.40592 4.78368 6.41483 4.78035C6.42512 4.78023 6.43448 4.78483 6.4443 4.78714C6.46591 4.79227 6.46816 4.79142 6.47763 4.77081C6.49295 4.73752 6.50885 4.70453 6.52865 4.67377C6.5335 4.67048 6.53755 4.666 6.54048 4.66074C6.56612 4.61938 6.59893 4.58516 6.63749 4.55708C6.63858 4.55654 6.63981 4.55631 6.64097 4.55648C6.65493 4.55648 6.65858 4.5677 6.66193 4.57865C6.67671 4.62681 6.6933 4.67411 6.71384 4.71998C6.74784 4.79591 6.78982 4.86617 6.84372 4.92816C6.85174 4.93742 6.8619 4.94567 6.85718 4.96072C6.82914 5.01263 6.80106 5.06453 6.77298 5.11641C6.76884 5.12403 6.76432 5.13143 6.75995 5.13894C6.75213 5.152 6.74331 5.16437 6.73361 5.17594C6.73109 5.17399 6.72842 5.1723 6.7256 5.17085C6.72398 5.17005 6.72093 5.16717 6.71934 5.16625C6.68995 5.14943 6.69412 5.14831 6.70878 5.1169C6.71795 5.0971 6.72274 5.07702 6.71693 5.05468C6.71462 5.04545 6.71055 5.03683 6.70495 5.02937C6.69934 5.02189 6.69234 5.01572 6.68437 5.01125C6.66557 5.00049 6.64604 4.99032 6.62458 4.98561C6.59445 4.97903 6.56297 4.99374 6.54845 5.02243C6.54366 5.03194 6.5403 5.04213 6.53585 5.05177C6.52947 5.06591 6.52579 5.06787 6.51186 5.0637C6.4749 5.05259 6.43757 5.04351 6.39928 5.03902C6.39568 5.03856 6.39228 5.03711 6.38871 5.03676C6.3785 5.0355 6.37418 5.02917 6.37429 5.0188C6.37429 5.00868 6.37364 4.99852 6.37429 4.98841C6.37665 4.95013 6.35351 4.92428 6.31995 4.91731C6.29573 4.91225 6.27074 4.9126 6.24669 4.91831C6.21591 4.92559 6.19768 4.94539 6.19339 4.97907C6.19166 4.99152 6.19065 5.00412 6.19033 5.01672C6.19019 5.03316 6.18911 5.03454 6.17336 5.0378C6.15394 5.04182 6.13437 5.04485 6.11491 5.04871C6.09488 5.05277 6.07507 5.05779 6.05547 5.06381C6.0427 5.06771 6.03972 5.06614 6.03439 5.05362C6.02951 5.04208 6.02491 5.03043 6.0186 5.01963C6.00197 4.99113 5.97188 4.97799 5.9411 4.98635C5.91898 4.99243 5.89793 5.0022 5.87879 5.01534C5.85085 5.03434 5.84064 5.07021 5.85249 5.10399C5.85601 5.11403 5.86115 5.12341 5.86529 5.13326C5.87047 5.14563 5.87 5.14859 5.85972 5.15522C5.82331 5.1787 5.78964 5.20609 5.75614 5.23378C5.74636 5.24191 5.74364 5.24198 5.73451 5.23309C5.72636 5.2247 5.71769 5.21686 5.70864 5.20961C5.68288 5.18999 5.64768 5.18976 5.62346 5.2113C5.60661 5.22632 5.59064 5.24267 5.5786 5.26275C5.56038 5.29313 5.5646 5.32922 5.58943 5.35389C5.59946 5.36389 5.60049 5.36466 5.61682 5.37641C5.59175 5.4028 5.54274 5.47418 5.52839 5.50226" fill="#414141"/>
<path d="M5.18766 5.66979C5.08683 5.66968 4.986 5.66956 4.88517 5.66945C4.72488 5.66945 4.56465 5.66945 4.40437 5.66945C4.36739 5.66945 4.36677 5.66822 4.37192 5.63003C4.3755 5.60218 4.37617 5.57441 4.36132 5.54908C4.34535 5.52176 4.32275 5.50426 4.29243 5.49935C4.27762 5.49683 4.26269 5.49521 4.24772 5.49457C4.22969 5.49403 4.2264 5.48932 4.22574 5.47015C4.22358 5.40825 4.21879 5.34672 4.2075 5.28574C4.203 5.2616 4.20424 5.25957 4.22722 5.25291C4.24579 5.24749 4.26389 5.2408 4.28043 5.2303C4.32167 5.20418 4.33374 5.15954 4.32388 5.11369C4.31934 5.09278 4.3125 5.07239 4.30584 5.05208C4.28856 4.9994 4.24276 4.97201 4.19086 4.98224C4.17307 4.98577 4.15602 4.99175 4.13887 4.99746C4.1248 5.0022 4.12301 5.00171 4.11648 4.9873C4.08922 4.92673 4.05705 4.86872 4.02033 4.81396C4.01343 4.80376 4.01379 4.80054 4.02429 4.79222C4.03872 4.78069 4.05039 4.76611 4.06376 4.75346C4.09593 4.72307 4.09536 4.65914 4.07611 4.6286C4.05798 4.59987 4.03501 4.57544 4.01001 4.55399C3.97855 4.52686 3.92341 4.52589 3.88844 4.55899C3.8764 4.57042 3.86275 4.57992 3.8521 4.5929C3.84571 4.60072 3.83981 4.60087 3.83226 4.59416C3.81444 4.57822 3.79644 4.56248 3.77795 4.54742C3.74896 4.52383 3.71847 4.5026 3.68754 4.48187C3.66074 4.4639 3.66198 4.46793 3.67561 4.4382C3.68129 4.42635 3.6863 4.41416 3.69057 4.40166C3.70617 4.35304 3.69203 4.29976 3.6423 4.27317C3.62086 4.26178 3.59931 4.25003 3.57619 4.2434C3.54376 4.23409 3.51209 4.23581 3.48357 4.25812C3.472 4.2673 3.46272 4.27929 3.45654 4.29307C3.44886 4.30951 3.44212 4.32643 3.43477 4.34303C3.42921 4.35554 3.42798 4.35633 3.41542 4.35216C3.36723 4.33622 3.31795 4.32532 3.26811 4.31698C3.25628 4.31508 3.2444 4.31318 3.23254 4.3114C3.21535 4.30878 3.21403 4.30737 3.21372 4.28837C3.21349 4.27256 3.21354 4.25676 3.21372 4.2409C3.21413 4.197 3.1921 4.16875 3.15645 4.15043C3.1462 4.14498 3.13498 4.14185 3.12352 4.14125C3.09659 4.14028 3.0696 4.13848 3.04272 4.14314C2.99145 4.15219 2.95961 4.1899 2.95802 4.2445C2.95761 4.25841 2.95802 4.27232 2.95786 4.28628C2.95759 4.3076 2.95678 4.30824 2.93729 4.31151C2.87741 4.32149 2.81772 4.33241 2.75955 4.35095C2.74567 4.35535 2.74402 4.3544 2.73767 4.33997C2.73163 4.3262 2.72574 4.31236 2.71965 4.2986C2.69568 4.2439 2.64009 4.22622 2.58887 4.24589C2.56968 4.25321 2.55096 4.26181 2.53279 4.27162C2.50301 4.28785 2.48336 4.31292 2.47693 4.34861C2.47362 4.36736 2.47529 4.38668 2.48176 4.40449C2.48735 4.42056 2.49477 4.43573 2.50175 4.45112C2.50768 4.46418 2.50701 4.46716 2.49568 4.47441C2.44787 4.50498 2.40319 4.54014 2.3596 4.57693C2.35401 4.58167 2.34879 4.58701 2.34339 4.59187C2.33406 4.6001 2.33119 4.6001 2.32175 4.59152C2.31131 4.58202 2.30056 4.57287 2.29079 4.56264C2.25397 4.52406 2.18503 4.52429 2.1493 4.56528C2.13876 4.57735 2.12871 4.58995 2.11789 4.60175C2.10482 4.61597 2.10395 4.61546 2.09053 4.60244C2.07915 4.59138 2.05229 4.5665 2.05038 4.56502C2.03249 4.54397 2.03323 4.54382 2.05134 4.52229C2.20534 4.33916 2.40056 4.19976 2.61906 4.1169C2.72919 4.07512 2.84254 4.04789 2.959 4.03732C3.03013 4.03109 3.10161 4.03038 3.17284 4.03519C3.26931 4.04128 3.36492 4.05797 3.45809 4.08497C3.53454 4.107 3.6089 4.13639 3.68023 4.1728C3.72896 4.197 3.77623 4.22436 3.82177 4.2547C3.88558 4.29726 3.94596 4.34524 4.00235 4.39816C4.0563 4.44919 4.10694 4.50398 4.15396 4.56214C4.16034 4.5705 4.16629 4.57919 4.17183 4.58819C4.21581 4.64048 4.25112 4.6993 4.28411 4.7594C4.3504 4.87984 4.4 5.00963 4.43135 5.14483C4.44235 5.19214 4.44961 5.24015 4.45773 5.28803C4.46478 5.32979 4.49386 5.34409 4.52957 5.32385C4.57432 5.29853 4.60275 5.23823 4.59625 5.18487C4.59481 5.1733 4.58723 5.16019 4.59903 5.14931C4.60839 5.14376 4.61868 5.14422 4.62889 5.14417C4.68293 5.14403 4.73691 5.14345 4.79091 5.14445C4.8132 5.14488 4.82812 5.13609 4.84007 5.11663C4.88471 5.04373 4.91874 4.96421 4.94098 4.88069C4.95854 4.81548 4.97116 4.74932 4.97541 4.68151C4.97595 4.67457 4.97584 4.66757 4.9751 4.66063C4.97417 4.6524 4.9761 4.64562 4.98333 4.64129C4.99505 4.64106 5.02071 4.63952 5.02185 4.6394C5.06669 4.63661 5.06669 4.63666 5.06677 4.68411C5.06677 4.72021 5.06657 4.75626 5.06688 4.79222C5.06715 4.82521 5.07551 4.83536 5.10611 4.84349C5.17935 4.86314 5.25349 4.86949 5.32905 4.86535C5.36397 4.86344 5.39808 4.85686 5.43274 4.85395C5.43989 4.8531 5.4469 4.85118 5.45354 4.84827C5.47458 4.83978 5.48077 4.83119 5.48108 4.8071C5.48162 4.76223 5.48093 4.71733 5.48147 4.67243C5.48159 4.66266 5.47969 4.65191 5.48794 4.64397C5.50155 4.63294 5.51454 4.64137 5.52669 4.64672C5.55675 4.66002 5.57933 4.68362 5.60009 4.70918C5.63855 4.75645 5.66705 4.81047 5.69412 4.86544C5.69647 4.86984 5.69749 4.87494 5.69698 4.88C5.69605 4.89229 5.68759 4.89842 5.67897 4.90432C5.60814 4.95252 5.54459 5.00975 5.4861 5.07361C5.41908 5.14682 5.36346 5.22866 5.31635 5.3171C5.26163 5.41982 5.22445 5.52931 5.20249 5.64474C5.20059 5.65442 5.20244 5.66814 5.18766 5.66979Z" fill="#45423D"/>
<path d="M5.18761 5.66979C5.19215 5.64822 5.19652 5.62662 5.20131 5.60524C5.24049 5.42933 5.31576 5.27234 5.42445 5.13288C5.49663 5.03971 5.58221 4.95904 5.67813 4.8938C5.68363 4.89 5.6897 4.88697 5.69314 4.88049C5.69744 4.87292 6.02453 4.65114 6.39036 4.72239C6.41209 4.73906 6.41467 4.77108 6.40284 4.80013C6.39127 4.82847 6.36974 4.83736 6.33523 4.83652C6.3034 4.83567 6.27161 4.83387 6.23993 4.8357C6.1866 4.83855 6.13361 4.84564 6.08132 4.85693C5.93808 4.88858 5.80767 4.94987 5.69063 5.04239C5.5539 5.15046 5.45071 5.28716 5.37989 5.4509C5.35115 5.51774 5.32954 5.58778 5.31537 5.65965C5.31448 5.66393 5.30277 5.73338 5.29913 5.76408C5.29588 5.79254 5.28292 5.81242 5.25682 5.82181C5.21848 5.8356 5.17752 5.80613 5.17672 5.76346C5.17624 5.74197 5.18066 5.72086 5.18372 5.69967C5.18495 5.69124 5.18627 5.67117 5.18761 5.66979Z" fill="#A19D98"/>
<path d="M4.87551 5.52188C4.81013 5.52188 4.74472 5.52208 4.67935 5.52176C4.64872 5.5216 4.62651 5.50586 4.61386 5.47698C4.60121 5.44805 4.60512 5.42002 4.62347 5.39491C4.63805 5.37508 4.65889 5.36746 4.68202 5.36669C4.69761 5.36618 4.71324 5.36649 4.7289 5.36649C4.83929 5.36657 4.94967 5.36665 5.06006 5.36672C5.08098 5.36672 5.10048 5.37052 5.11707 5.38549C5.13997 5.40619 5.14928 5.43973 5.13974 5.46963C5.13509 5.48475 5.12601 5.49797 5.11382 5.5074C5.1016 5.51679 5.0869 5.52191 5.07178 5.52199C5.00637 5.52234 4.94092 5.52188 4.87551 5.52188Z" fill="#FCBE4F"/>
<path d="M2.80664 3.88256C2.81073 3.88599 2.81541 3.88609 2.82022 3.88508C2.86114 3.87665 2.90251 3.87179 2.94393 3.86727C2.94754 3.86685 2.94573 3.86691 2.95595 3.86588C3.10139 3.85449 3.29527 3.86289 3.44773 3.9053C3.48134 3.9151 3.5152 3.9224 3.54886 3.93212C3.55229 3.93233 3.71699 3.99578 3.78098 4.032C3.7867 4.03632 3.78948 4.03862 3.79359 4.04192C3.79621 4.073 3.78705 4.09636 3.76982 4.11757C3.74583 4.14712 3.71411 4.16831 3.67865 4.18175C3.63303 4.16085 3.58762 4.13946 3.54051 4.12233C3.45714 4.09199 3.37125 4.07 3.28396 4.05662C3.20792 4.04521 3.13113 4.04032 3.05432 4.042C2.96371 4.04359 2.8735 4.05501 2.7851 4.07607C2.51075 4.14099 2.26197 4.29323 2.07253 4.51215C2.06648 4.51917 2.06029 4.52606 2.05422 4.53303C2.0416 4.54762 2.03609 4.55708 2.02679 4.56865C2.01135 4.58796 1.99631 4.60766 1.98127 4.62731C1.94612 4.67316 1.88435 4.67562 1.84588 4.62754C1.81983 4.59498 1.82424 4.5459 1.84545 4.51498C1.86856 4.48189 1.89327 4.45005 1.91946 4.41961C1.94625 4.38804 1.97234 4.35581 2.00169 4.32681C2.04285 4.28621 2.08382 4.24529 2.12856 4.20908C2.28138 4.08543 2.44886 3.99114 2.63346 3.9316C2.68224 3.91582 2.73177 3.9028 2.78188 3.89257C2.7907 3.89082 2.79998 3.89015 2.80664 3.88256Z" fill="#EDAE50"/>
<path d="M4.30839 4.49383C4.3531 4.54958 4.38949 4.61129 4.42462 4.67385C4.46596 4.7474 4.5003 4.82456 4.52943 4.90436C4.55612 4.97761 4.57921 5.05201 4.59456 5.12891C4.59639 5.13756 4.59855 5.14599 4.60056 5.15468C4.60459 5.17828 4.60919 5.20164 4.60428 5.22594C4.59426 5.27582 4.57067 5.31485 4.52564 5.33658C4.4879 5.35481 4.45517 5.33578 4.44899 5.29248C4.43277 5.17855 4.40628 5.06733 4.36591 4.96003C4.3181 4.83307 4.25552 4.71507 4.17588 4.60704C4.17225 4.6021 4.16888 4.59686 4.16539 4.59175C4.17401 4.56161 4.19185 4.53725 4.20903 4.51219C4.21869 4.49812 4.23358 4.50043 4.24605 4.49629C4.26616 4.48963 4.28727 4.48418 4.30839 4.49383Z" fill="#EDAE50"/>
<path d="M4.29808 4.49127C4.19949 4.48287 4.16851 4.58531 4.16534 4.59176C4.12276 4.53712 4.07784 4.48479 4.02893 4.43625C3.92955 4.3373 3.81679 4.25445 3.69433 4.19042C3.68893 4.18762 3.68371 4.18471 3.67841 4.18173C3.68299 4.17604 3.72357 4.16766 3.75739 4.11908C3.78601 4.07797 3.79276 4.0501 3.79333 4.0419C3.82561 4.05468 3.85379 4.07545 3.88307 4.09388C3.93368 4.12547 3.98233 4.16043 4.02872 4.19852C4.07064 4.23323 4.11132 4.26938 4.15005 4.30822C4.1766 4.33481 4.20147 4.36298 4.22657 4.39084C4.25576 4.42328 4.2852 4.45589 4.30829 4.49387" fill="#FCD38C"/>
<path d="M6.8557 4.96033C6.8451 4.94172 6.82901 4.92808 6.81605 4.91142C6.74639 4.82188 6.69647 4.72109 6.66127 4.6118C6.65724 4.59923 6.65358 4.58655 6.6495 4.57398C6.6478 4.56865 6.64652 4.56256 6.63934 4.56276C6.55054 4.48264 6.44332 4.43797 6.33835 4.38904C6.17977 4.31521 6.01415 4.26448 5.84664 4.21976C5.71524 4.18469 5.58215 4.15869 5.44862 4.13464C5.43648 4.13244 5.42349 4.13138 5.4151 4.11943C5.41289 4.11078 5.41289 4.10193 5.41289 4.09311C5.41271 3.98848 5.41274 3.88386 5.41305 3.77923C5.41305 3.76785 5.40973 3.75474 5.4214 3.74631C5.44771 3.75313 5.47489 3.75313 5.50163 3.75705C5.55206 3.76441 5.60284 3.76989 5.65324 3.77793C5.71849 3.78822 5.78393 3.79737 5.84868 3.81105C5.89336 3.82054 5.93829 3.82852 5.9829 3.83855C6.03518 3.8503 6.08744 3.8622 6.13904 3.87604C6.2251 3.89907 6.31112 3.92245 6.39497 3.95352C6.42835 3.96588 6.46145 3.97923 6.49526 3.99021C6.52969 4.00137 6.55669 4.02366 6.58236 4.04876C6.63826 4.10335 6.694 4.15809 6.74791 4.21483C6.78395 4.2528 6.82016 4.29052 6.85454 4.33023C6.86943 4.34743 6.88591 4.36317 6.90142 4.37991C6.92819 4.40887 6.9531 4.43965 6.98056 4.46801C7.00256 4.49081 7.01559 4.51951 7.01723 4.55233C7.0195 4.5985 7.01808 4.64428 7.00697 4.68967C6.98648 4.77319 6.94873 4.8469 6.89751 4.91351C6.88466 4.93011 6.87141 4.94642 6.8557 4.96033Z" fill="#EDAE50"/>
<path d="M4.61098 3.98527L4.48689 3.89458C4.48485 3.89329 4.48287 3.89182 4.48105 3.89018C4.47356 3.88259 4.46902 3.88607 4.46431 3.89398C4.45727 3.90571 4.44937 3.91689 4.44179 3.92827C4.42384 3.95513 4.40628 3.98229 4.38784 4.00875C4.37415 4.0284 4.35678 4.03446 4.33759 4.02814C4.3089 4.01865 4.29594 3.98609 4.31018 3.95789C4.31462 3.94901 4.32054 3.94091 4.32604 3.93263C4.38915 3.83733 4.45232 3.74202 4.51551 3.64674C4.51946 3.64042 4.52384 3.63438 4.52859 3.62871C4.54506 3.61002 4.57005 3.60709 4.58897 3.62111C4.59813 3.62789 4.60463 3.638 4.60723 3.6495C4.60978 3.66101 4.6082 3.67312 4.60281 3.68347C4.5972 3.69459 4.59002 3.70483 4.58316 3.71517C4.56356 3.74467 4.54376 3.77403 4.52407 3.80345C4.51622 3.81519 4.51602 3.81543 4.52728 3.82368C4.56954 3.85475 4.61194 3.88573 4.65432 3.91661L4.61098 3.98527Z" fill="#45423E"/>
<path d="M5.12274 3.72283C5.12855 3.72715 5.12816 3.73371 5.12816 3.73993C5.1283 3.85081 5.1283 3.96165 5.12816 4.0725C5.1283 4.0763 5.1277 4.08006 5.12634 4.08358C5.11891 4.09307 5.10831 4.09269 5.09829 4.09273C5.06116 4.09292 5.02407 4.09083 4.98699 4.09008C4.88336 4.08772 4.77974 4.08914 4.67596 4.08936C4.66878 4.08936 4.66155 4.08977 4.65485 4.09315C4.65091 4.09505 4.64731 4.09778 4.64788 4.103C4.64844 4.10822 4.65261 4.10983 4.65678 4.11099C4.65968 4.11177 4.66266 4.11215 4.66569 4.11207C4.71654 4.11092 4.7674 4.11313 4.81838 4.10978C4.8673 4.10654 4.91648 4.10752 4.96563 4.11063C5.00801 4.11331 5.05058 4.11443 5.09304 4.11605C5.10387 4.11644 5.11466 4.11567 5.12429 4.12244C5.12909 4.14786 5.13663 4.17299 5.13148 4.19943C5.13136 4.20186 5.13074 4.20421 5.12958 4.20631C5.12166 4.21626 5.10932 4.21647 5.09903 4.22099C5.07954 4.22953 5.06984 4.24347 5.07044 4.26613C5.07324 4.36968 5.0655 4.47312 5.06686 4.57662C5.067 4.58861 5.06723 4.60057 5.06851 4.61255C5.07123 4.63842 5.06445 4.64691 5.03966 4.64957C5.03312 4.65025 5.0265 4.65045 5.01986 4.65065C5.00832 4.65079 4.9968 4.65087 4.98532 4.64991C4.95162 4.65547 4.91752 4.65585 4.88355 4.6583C4.82058 4.66274 4.77437 4.63577 4.74156 4.57855C4.69604 4.49917 4.65009 4.42005 4.60845 4.33828C4.58976 4.30159 4.5724 4.26422 4.5527 4.22804C4.52106 4.1699 4.52075 4.11307 4.55769 4.05743C4.57382 4.03318 4.58559 4.00587 4.60485 3.98389C4.61552 3.95745 4.63281 3.93542 4.64836 3.91219C4.68401 3.8568 4.72165 3.80291 4.76218 3.75133C4.77455 3.73559 4.79177 3.72589 4.80762 3.7146C4.82867 3.70859 4.90499 3.707 4.92433 3.70633C4.94629 3.70556 4.96833 3.70604 4.99031 3.70633C5.00078 3.70641 5.10255 3.71222 5.12274 3.72283Z" fill="#EDAE50"/>
<path d="M6.41568 4.78885C6.40887 4.78488 6.40465 4.77935 6.40511 4.77063C6.4065 4.74403 6.39019 4.73093 6.37019 4.72116C6.34361 4.71093 6.14094 4.69085 5.93947 4.7646C5.86861 4.78877 5.80026 4.81893 5.73598 4.85884C5.72415 4.86621 5.71103 4.87121 5.69993 4.88003C5.69838 4.88126 5.6954 4.88046 5.6931 4.88061C5.67727 4.85681 5.66683 4.82988 5.65259 4.80514C5.63055 4.76686 5.60722 4.7297 5.5774 4.69745C5.554 4.67208 5.52746 4.65266 5.49393 4.64554C5.48474 4.64631 5.48333 4.63918 5.48222 4.63229C5.4812 4.62412 5.48086 4.61589 5.48117 4.60769C5.48117 4.55026 5.4802 4.4928 5.4814 4.43538C5.48253 4.38104 5.4766 4.32699 5.47734 4.2727C5.47762 4.25205 5.46832 4.23802 5.45031 4.23C5.44311 4.2268 5.43615 4.22311 5.42943 4.21899C5.42427 4.2158 5.41871 4.21251 5.42095 4.20439L5.42164 4.16334C5.42759 4.15462 5.43573 4.15584 5.44438 4.15722C5.5441 4.17303 5.64315 4.19255 5.74151 4.2158C5.85976 4.24398 5.97733 4.27491 6.09243 4.31521C6.18472 4.34749 6.27605 4.38258 6.36446 4.42553C6.40639 4.44591 6.44916 4.46464 6.48745 4.49221C6.50188 4.50261 6.51345 4.51643 6.52443 4.5308C6.55055 4.56497 6.54392 4.60467 6.54148 4.64355C6.54076 4.65569 6.53527 4.66699 6.5343 4.67922C6.5117 4.71538 6.49244 4.75369 6.47675 4.79368C6.47354 4.80199 6.46924 4.8051 6.46022 4.80188C6.44572 4.79671 6.4306 4.79314 6.41568 4.78885Z" fill="#EDAE50"/>
<path d="M6.5346 4.67925C6.52957 4.66911 6.53039 4.65811 6.53224 4.64769C6.53618 4.62569 6.53479 4.60364 6.53479 4.58156C6.53479 4.55993 6.52342 4.54314 6.51102 4.52774C6.49539 4.50847 6.47624 4.49272 6.45473 4.48143C6.35409 4.42755 6.24989 4.38269 6.14326 4.34375C6.0662 4.31557 5.98848 4.28986 5.90949 4.26856C5.80962 4.24164 5.70941 4.2168 5.60799 4.19641C5.5497 4.18471 5.49099 4.17594 5.43267 4.16453C5.42915 4.16385 5.42547 4.16372 5.42195 4.16331C5.42195 4.14938 5.42195 4.1355 5.42195 4.12164C5.45777 4.12524 5.49303 4.13274 5.5284 4.13945C5.57438 4.14815 5.62029 4.1574 5.66613 4.1672C5.71421 4.17759 5.76236 4.18767 5.80993 4.20098C5.84636 4.21115 5.88323 4.21981 5.91978 4.22984C6.00916 4.25437 6.09746 4.28257 6.18468 4.31439C6.25555 4.34025 6.32408 4.3723 6.39297 4.4033C6.45852 4.4329 6.52211 4.46718 6.58326 4.50583C6.60121 4.51714 6.61769 4.531 6.63463 4.54402C6.64062 4.54862 6.64603 4.55417 6.63954 4.56276C6.61668 4.5841 6.59308 4.60455 6.57282 4.62888C6.55932 4.64508 6.54741 4.66245 6.5346 4.67925Z" fill="#FCD38C"/>
<path d="M5.12246 4.08373L5.12258 4.12537C5.0026 4.11498 4.77889 4.11498 4.66598 4.12169C4.65739 4.12125 4.64885 4.12032 4.64034 4.11889C4.63404 4.1174 4.62434 4.10885 4.62448 4.10348C4.62479 4.09364 4.63016 4.0889 4.63713 4.08525C4.64584 4.08065 4.65744 4.0798 4.66722 4.0798C4.77526 4.0798 4.88332 4.0781 4.99131 4.08083C5.03496 4.08193 5.07875 4.08262 5.12246 4.08373Z" fill="#FCD38C"/>
<path d="M6.97441 4.58877C6.975 4.6296 6.96722 4.66719 6.95611 4.70412C6.93651 4.76945 6.9046 4.82772 6.86395 4.88091C6.8557 4.89173 6.85528 4.89176 6.8467 4.88108C6.80717 4.83215 6.77557 4.77791 6.74846 4.72052C6.72812 4.67742 6.71144 4.63274 6.6965 4.58735C6.6919 4.57326 6.69244 4.57076 6.70583 4.56353C6.7526 4.53824 6.80161 4.52028 6.85389 4.51242C6.87771 4.50882 6.90174 4.50889 6.92556 4.50579C6.92797 4.5056 6.93036 4.50552 6.93276 4.50563C6.95542 4.50611 6.95898 4.50913 6.96748 4.53088C6.97503 4.55024 6.97488 4.57035 6.97441 4.58877Z" fill="#FEFEFE"/>
<path d="M5.41918 3.75566C5.41918 3.87635 5.42049 4.1411 5.42332 4.21536C5.41662 4.22433 5.40792 4.22105 5.4001 4.2187C5.31559 4.19271 5.23054 4.19656 5.14522 4.213C5.13802 4.21438 5.13101 4.21626 5.12494 4.21004L5.12448 4.21065C5.12054 4.20495 5.12448 3.61512 5.12398 3.57737C5.12375 3.56116 5.12633 3.54645 5.13399 3.53221C5.1434 3.5147 5.1516 3.4965 5.16034 3.47857C5.16153 3.47728 5.16317 3.47646 5.1649 3.4763C5.26326 3.52056 5.34453 3.57191 5.41859 3.65171C5.41751 3.68056 5.41859 3.71916 5.41918 3.75566Z" fill="#414141"/>
<path d="M5.1653 3.46941H5.16382L5.1624 3.46911C5.16948 3.45124 5.16989 3.43252 5.16983 3.41351C5.1696 3.35669 5.17048 3.29986 5.16998 3.24306C5.16978 3.22235 5.1757 3.20557 5.18801 3.18937C5.24854 3.10944 5.31437 3.03408 5.38491 2.96383C5.42975 2.91918 5.47735 2.8777 5.52965 2.84268C5.53958 2.84518 5.53533 2.85201 5.53308 2.85724C5.50103 2.93175 5.50554 3.00988 5.51564 3.08743C5.52006 3.12161 5.52906 3.15683 5.55603 3.18193C5.55796 3.18352 5.55923 3.18579 5.55966 3.18833C5.56005 3.19086 5.55954 3.19347 5.55824 3.19563C5.49731 3.22546 5.44947 3.27178 5.40908 3.32739C5.40312 3.3356 5.39872 3.34427 5.4002 3.35509C5.39753 3.42279 5.3981 3.49042 5.40034 3.6018C5.40023 3.603 5.40008 3.60419 5.39989 3.60537C5.39087 3.6118 5.38499 3.60454 5.37941 3.59956C5.35536 3.57799 5.33201 3.55561 5.30606 3.53637C5.2777 3.51531 5.24865 3.49565 5.2172 3.48001C5.20066 3.47181 5.18382 3.46626 5.1653 3.46941Z" fill="#A19D98"/>
<path d="M5.56901 2.83435C5.58115 2.84076 5.58738 2.85145 5.59044 2.86518C5.59828 2.90008 5.60347 2.93559 5.60596 2.97138C5.61016 3.03255 5.60177 3.09175 5.58722 3.15048C5.58421 3.1627 5.58072 3.17476 5.57303 3.18486C5.56538 3.18623 5.56302 3.18039 5.55993 3.17478C5.52411 3.10999 5.51761 3.0393 5.52206 2.96649C5.52263 2.9565 5.52419 2.94652 5.52481 2.93646C5.52681 2.89777 5.54263 2.86132 5.56901 2.83435Z" fill="#A19D98"/>
<path d="M5.45861 4.2227C5.47729 4.23134 5.48646 4.24403 5.48719 4.26757C5.49099 4.38624 5.48998 4.50491 5.49025 4.62355C5.49025 4.63114 5.49102 4.66279 5.49094 4.67159C5.49068 4.72081 5.48986 4.77005 5.49052 4.81927C5.49076 4.83659 5.48395 4.84647 5.46972 4.85272C5.35105 4.88694 5.19695 4.8852 5.08889 4.84892C5.06452 4.84115 5.05806 4.83158 5.05788 4.80507C5.0576 4.77036 5.05788 4.73566 5.05788 4.7009C5.05788 4.68642 5.05811 4.6719 5.05788 4.65734C5.0576 4.64282 5.06146 4.41779 5.06146 4.41087C5.06146 4.35784 5.06185 4.30478 5.06131 4.25175C5.06115 4.23508 5.06699 4.22506 5.08177 4.21809C5.25339 4.16096 5.34347 4.17759 5.45861 4.2227Z" fill="#A19D98"/>
<path d="M5.09337 4.53517V4.27921C5.09337 4.27479 5.09326 4.27037 5.09337 4.26592C5.09377 4.24835 5.09521 4.24599 5.11124 4.23981C5.17159 4.21542 5.34804 4.19235 5.44221 4.25782C5.45707 4.26605 5.45948 4.27446 5.46008 4.29438C5.46252 4.33922 5.45832 4.67225 5.45846 4.80051C5.45846 4.80308 5.45846 4.80556 5.45846 4.8081C5.458 4.82641 5.45684 4.82729 5.4392 4.83112C5.32935 4.85518 5.22013 4.852 5.11137 4.82353C5.09524 4.81932 5.09439 4.8189 5.09439 4.80054C5.09422 4.74174 5.09422 4.68297 5.09439 4.6242C5.09439 4.59447 5.09439 4.56479 5.09439 4.53506L5.09337 4.53517Z" fill="#45423D"/>
<path d="M5.16133 3.47299C5.16343 3.45676 5.17282 3.45506 5.19097 3.45954C5.21273 3.46638 5.23358 3.47618 5.25295 3.48873C5.29609 3.51585 5.33739 3.54569 5.37363 3.58271C5.38172 3.59099 5.39111 3.59791 5.3999 3.60537C5.40114 3.61082 5.40392 3.61575 5.4079 3.61948C5.41935 3.63031 5.42089 3.64284 5.41858 3.65867C5.39955 3.65582 5.38887 3.64386 5.37681 3.62984C5.34408 3.59187 5.30584 3.56112 5.26529 3.53314C5.24032 3.5159 5.20206 3.49706 5.17432 3.48541C5.16482 3.48142 5.1602 3.48166 5.16133 3.47299Z" fill="#DCF9FB"/>
<path d="M5.56906 2.83435C5.57548 2.83803 5.57959 2.83971 5.56311 2.8551C5.54223 2.8748 5.52842 2.92449 5.52981 3.00599C5.53117 3.06002 5.53185 3.10811 5.57309 3.18486C5.5696 3.19055 5.56504 3.19474 5.55835 3.19561C5.48849 3.12328 5.49526 2.90072 5.52976 2.84266C5.54404 2.82707 5.55239 2.8253 5.56906 2.83435Z" fill="#DCF9FB"/>
</g>
<path d="M8.90997 4.5C8.90997 2.06442 6.93554 0.0900002 4.49997 0.0900002C2.06439 0.0900002 0.0899658 2.06442 0.0899658 4.5C0.0899658 6.93558 2.06439 8.91 4.49997 8.91C6.93554 8.91 8.90997 6.93558 8.90997 4.5Z" stroke="#CED3E6" stroke-width="0.18"/>
</g>
</g>
<defs>
<clipPath id="clip0_1090_1109">
<rect width="24" height="24" fill="white"/>
</clipPath>
<clipPath id="clip1_1090_1109">
<rect width="9" height="9" fill="white"/>
</clipPath>
</defs>
</svg>
