<svg width="24" height="24" viewBox="0 0 24 24" fill="none" xmlns="http://www.w3.org/2000/svg">
<g clip-path="url(#clip0_875_1378)">
<path d="M12 24C18.6274 24 24 18.6274 24 12C24 5.37258 18.6274 0 12 0C5.37258 0 0 5.37258 0 12C0 18.6274 5.37258 24 12 24Z" fill="#50AF95"/>
<g clip-path="url(#clip1_875_1378)">
<path fill-rule="evenodd" clip-rule="evenodd" d="M6.08476 4.08511L2.68117 11.7166C2.66822 11.7449 2.66411 11.777 2.66946 11.8081C2.6748 11.8391 2.68931 11.8675 2.71087 11.8891L11.9031 21.2917C11.9292 21.3184 11.964 21.3333 12.0002 21.3333C12.0364 21.3333 12.0712 21.3184 12.0973 21.2917L21.2895 11.8897C21.3111 11.8681 21.3256 11.8397 21.3309 11.8086C21.3363 11.7776 21.3322 11.7455 21.3192 11.7171L17.9157 4.0857C17.9047 4.06007 17.887 4.03836 17.8648 4.02316C17.8425 4.00796 17.8167 3.99992 17.7903 3.99999H6.21124C6.18471 3.99964 6.15866 4.00749 6.13621 4.02259C6.11377 4.0377 6.0959 4.05941 6.08476 4.08511Z" fill="#50AF95"/>
<path fill-rule="evenodd" clip-rule="evenodd" d="M13.181 12.5002C13.115 12.5055 12.7741 12.5272 12.0135 12.5272C11.4086 12.5272 10.9791 12.5079 10.8284 12.5002C8.49059 12.3905 6.74562 11.9561 6.74562 11.436C6.74562 10.9158 8.49059 10.482 10.8284 10.3705V12.0676C10.9813 12.0793 11.419 12.1069 12.024 12.1069C12.7499 12.1069 13.1134 12.0746 13.1788 12.0682V10.3717C15.5117 10.4826 17.2528 10.917 17.2528 11.436C17.2528 11.9549 15.5122 12.3893 13.1788 12.4997L13.181 12.5002ZM13.181 10.1961V8.67748H16.4367V6.36164H7.57274V8.67748H10.8278V10.1956C8.18207 10.3253 6.19238 10.8847 6.19238 11.5551C6.19238 12.2255 8.18207 12.7844 10.8278 12.9147V17.7812H13.1805V12.9129C15.8202 12.7832 17.8066 12.2243 17.8066 11.5545C17.8066 10.8847 15.8219 10.3259 13.1805 10.1956L13.181 10.1961Z" fill="white"/>
</g>
<g clip-path="url(#clip2_875_1378)">
<path d="M8.90997 4.5C8.90997 2.06442 6.93554 0.0900002 4.49997 0.0900002C2.06439 0.0900002 0.0899658 2.06442 0.0899658 4.5C0.0899658 6.93558 2.06439 8.91 4.49997 8.91C6.93554 8.91 8.90997 6.93558 8.90997 4.5Z" fill="white"/>
<mask id="mask0_875_1378" style="mask-type:luminance" maskUnits="userSpaceOnUse" x="1" y="2" width="7" height="5">
<path d="M7.19999 2.16H1.79999V6.84H7.19999V2.16Z" fill="white"/>
</mask>
<g mask="url(#mask0_875_1378)">
<path d="M6.76432 5.19767C6.78207 5.21176 6.79371 5.22391 6.8112 5.23831C6.82175 5.24705 6.82184 5.24705 6.83219 5.23754C6.83943 5.23088 6.84643 5.22391 6.85386 5.2174C6.88367 5.19081 6.92383 5.1921 6.95163 5.22103C6.96269 5.23264 6.97313 5.24491 6.98285 5.25774C7.00691 5.28927 7.0045 5.33049 6.97736 5.35918C6.96973 5.36723 6.96165 5.3748 6.95345 5.38217C6.94656 5.38825 6.94633 5.39419 6.95121 5.40185C6.96122 5.41764 6.97097 5.43358 6.98037 5.44975C6.99233 5.4702 7.00297 5.49154 7.01306 5.51303C7.02265 5.53353 7.02265 5.53337 7.04257 5.52679C7.0522 5.5233 7.06202 5.52039 7.072 5.51805C7.10442 5.51151 7.13517 5.52802 7.14901 5.55984C7.15741 5.57946 7.16367 5.60003 7.16773 5.62111C7.17369 5.65117 7.15624 5.68455 7.12836 5.69938C7.11756 5.70504 7.1057 5.70753 7.09439 5.71178C7.08074 5.71695 7.07955 5.71798 7.08179 5.73205C7.08902 5.77633 7.09408 5.82084 7.09439 5.86583C7.0945 5.87568 7.09802 5.88126 7.10777 5.88211C7.11614 5.88283 7.12445 5.88448 7.13276 5.88536C7.16598 5.889 7.18858 5.90644 7.1984 5.94076C7.19925 5.9437 7.20142 6.00562 7.19851 6.02239C7.19213 6.05944 7.16475 6.08584 7.12874 6.08732C7.12096 6.08772 7.11316 6.08718 7.1055 6.08575C7.0913 6.08304 7.0819 6.08932 7.07845 6.10377C7.06999 6.13928 7.05862 6.17376 7.04643 6.20797C7.04284 6.21786 7.04489 6.22655 7.05274 6.23348C7.0568 6.23712 7.07254 6.25497 7.0751 6.26091C7.08094 6.27456 7.05567 6.25333 7.04983 6.2498C7.03649 6.24172 6.87289 6.14656 6.81197 6.11243C6.81631 6.07852 6.83205 6.03511 6.83838 6.00168C6.87068 5.83127 6.83727 5.67585 6.74378 5.53394C6.66604 5.41591 6.55956 5.34041 6.42878 5.30298C6.31368 5.26999 6.19961 5.2767 6.08771 5.31976C5.99513 5.35535 5.89376 5.41373 5.83814 5.50568C5.83175 5.51319 5.82873 5.51231 5.81868 5.50759C5.78386 5.48932 5.64745 5.39577 5.59198 5.36175C5.56742 5.33578 5.55113 5.29325 5.56959 5.26188C5.58278 5.23949 5.60049 5.22134 5.61949 5.20501C5.64617 5.1821 5.68484 5.18276 5.7132 5.20429C5.74837 5.231 5.74832 5.23088 5.78247 5.20218C5.8003 5.18721 5.81933 5.17391 5.83805 5.16019C5.8555 5.14748 5.85677 5.14234 5.84861 5.12238C5.82634 5.0679 5.84061 5.02654 5.89084 4.9996C5.90411 4.99217 5.91801 4.98597 5.93231 4.98109C5.97065 4.96881 6.00596 4.98321 6.02681 5.01917C6.04854 5.05673 6.04843 5.05665 6.08935 5.04673C6.11097 5.04148 6.13289 5.03776 6.15476 5.03359C6.17657 5.02937 6.17989 5.02573 6.18113 5.00301C6.18163 4.99163 6.18326 4.98033 6.18599 4.96935C6.19177 4.94735 6.20221 4.92804 6.22386 4.91939C6.2651 4.90283 6.30676 4.89965 6.34724 4.92142C6.37112 4.93425 6.38226 4.95632 6.38257 4.98492C6.38303 5.02776 6.38329 5.02814 6.42302 5.03493C6.44917 5.03936 6.47473 5.04604 6.50042 5.05239C6.51991 5.05727 6.52493 5.05534 6.53256 5.03557C6.55174 4.98551 6.59955 4.95995 6.65591 4.98911C6.67188 4.99738 6.68867 5.00343 6.70263 5.01677C6.73079 5.04365 6.73275 5.08335 6.72118 5.11231C6.71953 5.11637 6.71755 5.12028 6.71596 5.12437C6.70824 5.14448 6.70742 5.15625 6.70742 5.15625C6.70742 5.15625 6.74687 5.18379 6.76432 5.19767Z" fill="#5F5F5F"/>
<path d="M6.80306 6.09598C6.81941 6.11249 7.03829 6.23857 7.05717 6.25049C7.06279 6.25125 7.06711 6.25517 7.07218 6.25734C7.07609 6.26102 7.07953 6.26479 7.08308 6.26888C7.10041 6.29444 7.1001 6.32141 7.09008 6.34963C7.0837 6.36462 7.07609 6.37897 7.06722 6.39247C7.04662 6.42515 7.00859 6.43541 6.97518 6.41767C6.965 6.41227 6.95513 6.4063 6.94548 6.39982C6.93847 6.39522 6.93363 6.39645 6.92872 6.40331C6.90192 6.44061 6.87213 6.47545 6.83972 6.50739C6.83319 6.51383 6.83242 6.51942 6.8379 6.5269C6.84425 6.53528 6.85013 6.5441 6.85582 6.55298C6.87891 6.58907 6.87267 6.63068 6.84003 6.65742C6.82866 6.66669 6.81705 6.67573 6.80499 6.68401C6.77255 6.70618 6.73452 6.69995 6.70981 6.66853C6.70295 6.65976 6.69657 6.65056 6.69061 6.64105C6.68536 6.63274 6.68009 6.63087 6.67129 6.63616C6.63419 6.65838 6.595 6.67592 6.55501 6.69147C6.54048 6.69715 6.54062 6.69738 6.54345 6.71338C6.54445 6.71894 6.54527 6.72461 6.54627 6.73017C6.5556 6.7771 6.54496 6.80253 6.50597 6.8266C6.49592 6.83249 6.48435 6.83157 6.47357 6.83455C6.45471 6.83931 6.4357 6.83892 6.41651 6.83794C6.41024 6.83468 6.40397 6.83115 6.39787 6.82758C6.37941 6.81141 6.37118 6.79008 6.36638 6.76565C6.35992 6.73251 6.36386 6.73791 6.3349 6.73932C6.29653 6.7412 6.25809 6.74105 6.21972 6.73879C6.20483 6.73791 6.20483 6.73786 6.20137 6.75239C6.1998 6.75917 6.19797 6.76587 6.197 6.77273C6.19079 6.81613 6.15763 6.84869 6.10473 6.83809C6.0918 6.83549 6.07901 6.83195 6.06636 6.82801C6.03019 6.81683 6.00926 6.78013 6.01655 6.74108C6.01831 6.7312 6.02052 6.72132 6.02237 6.7114C6.02486 6.69792 6.02469 6.69718 6.01182 6.69212C5.98711 6.68232 5.96246 6.67232 5.93867 6.66025C5.92463 6.65313 5.91072 6.64565 5.89686 6.63811C5.88245 6.63029 5.88256 6.63017 5.87246 6.64442C5.86705 6.65202 5.86202 6.65987 5.85641 6.66719C5.83173 6.69975 5.79285 6.70657 5.75998 6.68381C5.74749 6.67512 5.73527 6.66584 5.72351 6.65604C5.69354 6.63099 5.68708 6.58983 5.7077 6.55586C5.7138 6.54575 5.72061 6.5361 5.7275 6.52656C5.73229 6.51993 5.7326 6.51459 5.72645 6.50851C5.69358 6.47609 5.66345 6.44078 5.63634 6.40288C5.63118 6.39568 5.62613 6.39573 5.61947 6.40013C5.61135 6.4055 5.60292 6.41039 5.59448 6.4153C5.55661 6.43701 5.51721 6.4263 5.49497 6.3873C5.48703 6.37331 5.47728 6.36048 5.47183 6.34481C5.4583 6.30596 5.46971 6.26999 5.50355 6.24834C5.51075 6.24374 5.51813 6.23949 5.52518 6.23489C5.53766 6.22686 5.53801 6.22663 5.53248 6.21252C5.52104 6.18333 5.5112 6.15345 5.50301 6.12308C5.49937 6.10977 5.49597 6.09626 5.49299 6.08273C5.49083 6.07284 5.48591 6.06901 5.47628 6.07116C5.46859 6.07266 5.46085 6.07373 5.45308 6.07438C5.40728 6.07947 5.37336 6.05059 5.36856 6.00251C5.36725 5.98922 5.36586 5.97608 5.36496 5.96286C5.36377 5.9437 5.36953 5.92478 5.38118 5.91002C5.39281 5.89525 5.40937 5.88574 5.42747 5.88345C5.43757 5.88214 5.44775 5.88131 5.45779 5.87965C5.47095 5.87739 5.47137 5.87708 5.47157 5.86263C5.47214 5.83107 5.47447 5.79955 5.47841 5.7682C5.48008 5.75445 5.48445 5.74105 5.48348 5.72695C5.4825 5.71729 5.47861 5.71132 5.47126 5.70829C5.46622 5.70675 5.46503 5.7061 5.45753 5.70412C5.44271 5.70032 5.42925 5.69358 5.41854 5.68213" fill="#414141"/>
<path d="M5.48398 5.73557C5.48569 5.72587 5.48174 5.71136 5.4723 5.70856C5.46422 5.70619 5.45131 5.7011 5.44325 5.69853C5.41131 5.68837 5.39123 5.66182 5.38775 5.62612C5.38369 5.61095 5.39637 5.56179 5.40215 5.54585C5.41506 5.51077 5.44669 5.49032 5.48231 5.49598C5.49002 5.49717 5.4976 5.49923 5.50486 5.50211C5.51833 5.50763 5.52869 5.50329 5.53465 5.48981C5.54931 5.45664 5.57123 5.42377 5.58536 5.39035C5.59905 5.35807 5.58935 5.36075 5.59414 5.36186C5.60583 5.37247 5.77624 5.45978 5.82996 5.5054C5.79499 5.54528 5.71721 5.72584 5.71401 5.78625" fill="#414141"/>
<path d="M5.83206 5.50254C5.94086 5.37865 6.01872 5.32546 6.12613 5.29333C6.19146 5.27359 6.25969 5.26643 6.32746 5.27214C6.44148 5.28184 6.54444 5.32378 6.63514 5.39791C6.71508 5.46331 6.77333 5.54616 6.81305 5.6439C6.83735 5.70366 6.85019 5.76614 6.85618 5.83089C6.86477 5.92364 6.84594 6.02722 6.81573 6.11365C6.80961 6.11936 6.69834 6.0391 6.68642 6.02347C6.68371 6.01505 6.68708 6.00731 6.68912 5.99948C6.70007 5.95727 6.70716 5.91436 6.70588 5.87051C6.69987 5.65961 6.5635 5.48563 6.37488 5.44315C6.23567 5.41178 6.08807 5.44346 5.95292 5.58812C5.94952 5.59011 5.94849 5.58578 5.92555 5.56912C5.88703 5.54444 5.86808 5.52896 5.84173 5.51216C5.82665 5.50288 5.82741 5.5079 5.83206 5.50254Z" fill="#414141"/>
<path d="M6.81792 6.10757C6.81427 6.11366 6.81103 6.11994 6.80813 6.12645C6.77495 6.21069 6.7218 6.27985 6.65705 6.33843C6.57235 6.41511 6.4741 6.46292 6.36255 6.47829C6.33521 6.48208 6.30783 6.48622 6.28021 6.48529C6.20034 6.48262 6.12314 6.46714 6.04942 6.43332C6.00262 6.4117 5.95883 6.38354 5.91923 6.34957C5.85757 6.29704 5.80748 6.23391 5.77071 6.1591C5.7369 6.09018 5.71745 6.01727 5.7092 5.94046C5.70202 5.87434 5.70766 5.80944 5.7208 5.74469C5.73582 5.67087 5.76385 5.60283 5.803 5.53977C5.80858 5.53082 5.82478 5.51043 5.83003 5.50534C5.8585 5.52088 5.93613 5.5749 5.94858 5.58663C5.95644 5.59743 5.94192 5.61164 5.93744 5.61858C5.91358 5.65531 5.89393 5.69413 5.88128 5.73677C5.83723 5.88525 5.85742 6.02348 5.94618 6.14771C6.02022 6.25137 6.12089 6.30819 6.24401 6.32121C6.41941 6.3398 6.59942 6.23486 6.67349 6.04972C6.67758 6.03948 6.67654 6.02336 6.69321 6.02256C6.70393 6.0355 6.80534 6.10029 6.81792 6.10757Z" fill="#5F5F5F"/>
<path d="M6.69317 6.02256C6.6792 6.06029 6.66359 6.09706 6.64169 6.13066C6.57235 6.23697 6.4777 6.30295 6.35718 6.32569C6.23511 6.34868 6.12336 6.31998 6.024 6.24265C5.93663 6.17456 5.88085 6.08297 5.85935 5.97083C5.8339 5.83829 5.86063 5.7163 5.93511 5.60609C5.93791 5.60195 5.94053 5.59781 5.94331 5.59367C5.94614 5.59011 5.98316 5.54705 6.00117 5.53116C6.08104 5.46066 6.1724 5.42453 6.27683 5.42247C6.47251 5.41853 6.64899 5.55808 6.6999 5.76082C6.72029 5.84195 6.71975 5.92333 6.69758 6.00425C6.69592 6.01025 6.6946 6.01645 6.69317 6.02256Z" fill="#EDAE50"/>
<path d="M6.39827 5.87782C6.40156 5.94719 6.34111 6.00091 6.28375 6.00017C6.21827 5.99937 6.16454 5.94527 6.16517 5.87663C6.16571 5.80955 6.21549 5.75408 6.28456 5.75388C6.34211 5.75374 6.40144 5.80798 6.39827 5.87782Z" fill="#414141"/>
<path d="M6.40488 5.64711C6.41822 5.64569 6.42933 5.65068 6.43856 5.66108C6.44673 5.6703 6.45548 5.67897 6.46347 5.68841C6.48199 5.71021 6.47068 5.75015 6.44673 5.75799C6.43627 5.76144 6.42666 5.76164 6.41743 5.75526C6.39772 5.74164 6.38089 5.72436 6.36594 5.70541C6.3501 5.6853 6.35815 5.65951 6.38174 5.65076C6.38916 5.64791 6.39701 5.64665 6.40488 5.64711Z" fill="#FCD38C"/>
<path d="M3.26397 6.83092C3.23154 6.81292 3.21228 6.78499 3.20651 6.7466C3.20453 6.73354 3.20111 6.72074 3.19855 6.70772C3.19675 6.6986 3.1924 6.69554 3.18337 6.6963C3.12596 6.7014 3.06827 6.70206 3.01078 6.69823C3.00299 6.69772 2.99519 6.69726 2.98746 6.6963C2.98008 6.69543 2.97624 6.69864 2.97473 6.70611C2.972 6.71971 2.96832 6.73311 2.96619 6.74683C2.95961 6.78913 2.93762 6.8182 2.90019 6.83457C2.87624 6.84142 2.8523 6.839 2.82837 6.83434C2.8062 6.83 2.78344 6.82797 2.76335 6.81572C2.75562 6.80974 2.74734 6.80457 2.74065 6.79713C2.71677 6.77055 2.70689 6.73951 2.71306 6.70332C2.71538 6.68964 2.71846 6.67615 2.72108 6.66252C2.7255 6.63922 2.72546 6.6391 2.70486 6.63145C2.65795 6.61386 2.61219 6.59306 2.56788 6.56915C2.55721 6.56344 2.5464 6.55778 2.5362 6.55126C2.52841 6.54621 2.52324 6.54727 2.51819 6.55506C2.51041 6.56701 2.50179 6.57838 2.49408 6.59046C2.46122 6.64187 2.39675 6.65692 2.34607 6.61574C2.3328 6.60494 2.31878 6.59514 2.30546 6.5844C2.25843 6.54655 2.24985 6.48622 2.28412 6.43507C2.29309 6.42166 2.30227 6.40836 2.31164 6.39522C2.31609 6.38902 2.31601 6.38396 2.31038 6.37887C2.30763 6.37642 2.30518 6.37362 2.30258 6.37102C2.25867 6.32703 2.21813 6.2795 2.18129 6.2288C2.17085 6.2144 2.17075 6.21448 2.1554 6.2238C2.145 6.23008 2.13465 6.23643 2.12425 6.24276C2.06958 6.2757 2.01525 6.26122 1.98146 6.2048C1.97683 6.19758 1.97508 6.19495 1.97023 6.18629C1.96426 6.17407 1.95706 6.16264 1.95164 6.15004C1.9286 6.09626 1.94466 6.04121 1.99291 6.01082C2.00422 6.0037 2.01572 5.99685 2.02715 5.98976C2.04236 5.98029 2.04253 5.98017 2.03598 5.96366C2.01495 5.91056 1.99761 5.85597 1.98408 5.80027C1.98183 5.79108 1.97938 5.78196 1.97758 5.7727C1.97578 5.76342 1.97066 5.76039 1.96207 5.76154C1.94601 5.76368 1.92993 5.76619 1.91378 5.76714C1.87233 5.76967 1.84034 5.75231 1.81869 5.71484C1.80969 5.69941 1.8063 5.68213 1.80478 5.66427C1.80367 5.65099 1.80118 5.63907 1.80033 5.62477C1.79683 5.57092 1.8261 5.50326 1.89044 5.49843C1.90419 5.4974 1.91787 5.49522 1.9316 5.4936C1.94745 5.49174 1.94801 5.49157 1.94837 5.47568C1.9494 5.42893 1.95302 5.38228 1.95919 5.33595C1.96171 5.31718 1.96459 5.2985 1.96773 5.27984C1.97074 5.26202 1.97076 5.26165 1.9539 5.25582C1.94129 5.25148 1.92867 5.24743 1.91625 5.24298C1.8623 5.2238 1.83443 5.16967 1.84957 5.11208C1.85516 5.09078 1.86202 5.06982 1.8694 5.04913C1.8883 4.99577 1.94006 4.96888 1.99195 4.985C2.00749 4.98983 2.02305 4.99466 2.03816 5.00074C2.04781 5.00454 2.05212 5.00137 2.05617 4.9924C2.06575 4.97129 2.07615 4.95061 2.08623 4.92981C2.08983 4.92264 2.09314 4.9169 2.09641 4.9103C2.10723 4.88942 2.1187 4.86885 2.13246 4.84981C2.14483 4.83843 4.22815 6.12913 4.22231 6.14399C4.21829 6.15162 4.21508 6.15893 4.21125 6.16629C4.2039 6.18004 4.19693 6.19403 4.18913 6.20746C4.15941 6.25842 4.10529 6.2739 4.0548 6.24613C4.04154 6.23885 4.02879 6.23042 4.01577 6.2226C4.0022 6.21448 4.00206 6.2144 3.99284 6.22694C3.97227 6.25494 3.95077 6.2821 3.92832 6.30841C3.90823 6.33189 3.88697 6.35416 3.86534 6.37608C3.85539 6.38616 3.85542 6.38645 3.86308 6.39787C3.8717 6.41078 3.88083 6.42335 3.88939 6.43629C3.92259 6.4866 3.91369 6.54716 3.86756 6.58417C3.85279 6.59605 3.83777 6.60757 3.8225 6.61876C3.77459 6.65373 3.71766 6.64421 3.68221 6.59525C3.6732 6.58268 3.66464 6.56966 3.65564 6.55701C3.64749 6.54564 3.64718 6.54544 3.63525 6.5523C3.58631 6.58054 3.53553 6.60502 3.48326 6.62554C3.47595 6.62842 3.46857 6.6311 3.46129 6.63402C3.44811 6.6393 3.44787 6.6395 3.45049 6.6549C3.45281 6.66858 3.45476 6.68244 3.45849 6.69569C3.4724 6.74534 3.44334 6.80529 3.37885 6.82637C3.35096 6.83552 3.29057 6.84214 3.26397 6.83092Z" fill="#414141"/>
<path d="M4.21826 6.14767C4.17452 6.12093 3.78509 5.86817 3.75781 5.85231C3.74301 5.84441 3.74783 5.84346 3.75681 5.82572C3.78865 5.75403 3.81009 5.67769 3.82038 5.59931C3.82781 5.54219 3.82742 5.48483 3.82295 5.4273C3.81876 5.37312 3.80909 5.31953 3.79412 5.26751C3.77502 5.20118 3.74742 5.13917 3.71331 5.07986C3.67527 5.01371 3.6268 4.95723 3.57326 4.90517C3.53209 4.86514 3.48557 4.83261 3.43643 4.80438C3.36261 4.76162 3.2823 4.73281 3.19907 4.71918C3.14681 4.71063 3.09405 4.70641 3.04129 4.71006C2.92904 4.71783 2.82276 4.74894 2.7239 4.80618C2.64591 4.85252 2.57612 4.91268 2.51759 4.98405C2.50267 5.00228 2.48143 5.03853 2.4668 5.05691C2.4584 5.06744 2.31866 4.97195 2.12855 4.85346C2.13557 4.84046 2.14232 4.82981 2.14982 4.81847C2.15448 4.81139 2.15411 4.80599 2.14802 4.80039C2.13635 4.78947 2.12473 4.77851 2.11328 4.76737C2.07689 4.73178 2.06838 4.68458 2.09117 4.63823C2.09637 4.62762 2.10578 4.60267 2.12013 4.58455C2.12707 4.57578 2.13471 4.56778 2.14221 4.55961C2.17891 4.51962 2.25024 4.51893 2.28853 4.55579C2.33489 4.60034 2.3288 4.59 2.36783 4.55842C2.4012 4.53153 2.43495 4.50529 2.47025 4.48115C2.48923 4.46821 2.49046 4.46192 2.48085 4.44021C2.47015 4.41597 2.46051 4.39161 2.46258 4.36394C2.46515 4.32975 2.47832 4.30051 2.50483 4.28153C2.54268 4.25445 2.58287 4.23216 2.63115 4.23354C2.67103 4.23471 2.69897 4.25561 2.71922 4.28983C2.72644 4.30213 2.73205 4.31557 2.73788 4.32874C2.74329 4.34109 2.75205 4.34512 2.76432 4.34172C2.81603 4.32746 2.86841 4.31665 2.92112 4.30766C2.94028 4.30441 2.94414 4.29848 2.94488 4.27844C2.94522 4.27147 2.94522 4.2645 2.94488 4.25754C2.94079 4.19382 2.98764 4.14033 3.04303 4.13663C3.07356 4.13459 3.10415 4.13215 3.13445 4.13853C3.17903 4.14802 3.2229 4.19104 3.21848 4.25008C3.21787 4.25825 3.21831 4.26651 3.21848 4.27477C3.21887 4.29902 3.22321 4.30498 3.24597 4.30842C3.29529 4.31568 3.34413 4.32619 3.39221 4.33985C3.41767 4.34718 3.42162 4.34453 3.4322 4.31946C3.44052 4.29983 3.44885 4.28016 3.46352 4.2644C3.49319 4.23265 3.53011 4.22753 3.56858 4.23648C3.59903 4.24358 3.62765 4.25815 3.65388 4.27615C3.69661 4.3055 3.71219 4.35823 3.69479 4.40953C3.69117 4.42021 3.68682 4.43065 3.68227 4.44098C3.67326 4.46124 3.67479 4.46863 3.69271 4.48058C3.73035 4.50545 3.76658 4.53253 3.80125 4.56179C3.83922 4.59409 3.83244 4.59895 3.87435 4.55904C3.91104 4.52402 3.9677 4.51985 4.00117 4.54382C4.03509 4.56807 4.06459 4.59866 4.08418 4.63688C4.10161 4.67094 4.09927 4.73354 4.06456 4.76503C4.05414 4.77453 4.04491 4.78542 4.03524 4.79579C4.02686 4.80484 4.02571 4.81467 4.03236 4.82495C4.06338 4.87311 4.09115 4.92348 4.11545 4.97569C4.12142 4.98854 4.13167 4.99179 4.14428 4.98757C4.15913 4.98255 4.17429 4.97852 4.18964 4.97563C4.23072 4.96803 4.27595 4.98703 4.29702 5.025C4.31748 5.06178 4.33009 5.10215 4.33137 5.14533C4.33276 5.19281 4.31029 5.22563 4.27187 5.24751C4.25911 5.25459 4.24566 5.26019 4.23176 5.26425C4.21707 5.26865 4.21077 5.27808 4.21375 5.29387C4.22411 5.35044 4.22756 5.40779 4.23096 5.46518C4.23185 5.4804 4.2388 5.48877 4.25331 5.4892C4.26415 5.48954 4.27478 5.49165 4.28545 5.49314C4.34057 5.50074 4.37823 5.5459 4.37843 5.60463C4.37855 5.616 4.37801 5.62734 4.37693 5.63868C4.37511 5.6565 4.36904 5.68209 4.36428 5.6988C4.35051 5.7474 4.30389 5.77404 4.2559 5.77082C4.24035 5.76979 4.22489 5.76717 4.20933 5.76553C4.19506 5.76408 4.19432 5.76427 4.19081 5.77916C4.18014 5.82395 4.16849 5.86843 4.15322 5.91176C4.14613 5.9319 4.13882 5.95195 4.13078 5.97171C4.12718 5.98045 4.12869 5.98585 4.13638 5.9904C4.15155 5.99945 4.16683 6.00825 4.18145 6.01825C4.22047 6.04484 4.23656 6.0932 4.22237 6.13936C4.22121 6.14222 4.21985 6.14502 4.21826 6.14767Z" fill="#666059"/>
<path d="M2.62974 5.14974C2.64775 5.12698 2.66485 5.10331 2.68459 5.08196C2.77768 4.98118 2.89016 4.92202 3.02297 4.90628C3.14043 4.89234 3.25186 4.91387 3.35479 4.97489C3.51324 5.06882 3.60776 5.21199 3.63757 5.40071C3.65488 5.51031 3.64176 5.61735 3.60044 5.72009C3.59812 5.72589 3.59645 5.73197 3.59449 5.73795C3.59899 5.74783 3.59462 5.75634 3.59069 5.76491C3.57064 5.80859 3.54428 5.84775 3.51376 5.8836C3.42602 5.98669 3.31861 6.05504 3.18828 6.07867C3.01526 6.11005 2.85915 6.06787 2.72345 5.95003C2.61339 5.85441 2.54707 5.73063 2.5257 5.58221C2.50909 5.46672 2.52291 5.35415 2.56834 5.24666C2.57935 5.22061 2.59272 5.19598 2.60619 5.17127C2.61169 5.16096 2.61885 5.15331 2.62974 5.14974Z" fill="#EDAE50"/>
<path d="M2.73035 5.49012C2.72738 5.27723 2.90024 5.115 3.0836 5.114C3.26343 5.11303 3.44289 5.26391 3.4432 5.492C3.44351 5.70373 3.28037 5.86468 3.08996 5.86674C2.88252 5.869 2.72654 5.68867 2.73035 5.49012Z" fill="#45423D"/>
<path d="M3.43704 5.14293C3.44002 5.1744 3.40261 5.19904 3.37661 5.18089C3.35897 5.16854 3.34231 5.15599 3.32834 5.13956C3.30821 5.11596 3.31279 5.09143 3.33946 5.076C3.35921 5.06457 3.37762 5.06376 3.39587 5.08014C3.4087 5.09166 3.42113 5.10325 3.43035 5.11825C3.43501 5.12555 3.43737 5.13419 3.43704 5.14293Z" fill="#FCD38C"/>
<path d="M2.802 5.49265C2.79758 5.33887 2.91589 5.18885 3.08759 5.18955C3.24799 5.19019 3.3732 5.32573 3.37158 5.49522C3.37001 5.66233 3.23852 5.79334 3.08221 5.79131C2.92016 5.78921 2.79761 5.64551 2.802 5.49265Z" fill="#EDAE50"/>
<path d="M3.08591 5.61317C3.02203 5.61317 2.96877 5.55721 2.96924 5.48978C2.96965 5.42331 3.01853 5.36769 3.08667 5.36695C3.1488 5.36631 3.20306 5.42039 3.20272 5.49081C3.20241 5.55942 3.15122 5.61326 3.08591 5.61317Z" fill="#414141"/>
<path d="M3.22088 5.28659C3.22761 5.28659 3.23417 5.28736 3.23988 5.2913C3.2647 5.30865 3.27799 5.3328 3.27711 5.36449C3.27663 5.38081 3.25444 5.39792 3.23932 5.39431C3.21373 5.3882 3.19288 5.37485 3.17865 5.35083C3.16632 5.33007 3.16876 5.31269 3.18722 5.29798C3.1972 5.29012 3.20861 5.2869 3.22088 5.28659Z" fill="#FCD38C"/>
<path d="M2.62977 5.14969C2.61116 5.18073 2.59316 5.21199 2.57878 5.24555C2.55461 5.30213 2.53893 5.36235 2.53226 5.42403C2.52342 5.50175 2.52952 5.58061 2.55021 5.65585C2.57091 5.73109 2.60576 5.80111 2.65271 5.86187C2.72407 5.95416 2.81401 6.01776 2.92176 6.05322C2.9842 6.07376 3.04851 6.08324 3.11364 6.07867C3.28404 6.06684 3.42298 5.9904 3.52918 5.84892C3.55147 5.81908 3.57069 5.78686 3.58655 5.75277C3.58892 5.74772 3.59185 5.74292 3.59454 5.73798C3.60934 5.74529 3.72459 5.82372 3.74425 5.83821C3.75205 5.8439 3.74852 5.85149 3.7448 5.85846C3.72456 5.89654 3.70317 5.93385 3.67742 5.96818C3.62113 6.04319 3.55548 6.10718 3.47781 6.15731C3.40244 6.20604 3.31963 6.24064 3.23306 6.2596C3.16609 6.27448 3.09824 6.27669 3.03061 6.27225C2.94064 6.26643 2.85442 6.2424 2.77234 6.2023C2.71612 6.17513 2.66343 6.14051 2.61555 6.09924C2.52138 6.01749 2.44833 5.91873 2.40107 5.79947C2.37088 5.72289 2.35198 5.64189 2.34507 5.5593C2.33426 5.43614 2.3528 5.31761 2.39395 5.20236C2.40904 5.16015 2.42894 5.12058 2.45021 5.08165C2.45229 5.07787 2.45464 5.07407 2.45705 5.07051C2.46998 5.05116 2.47243 5.05054 2.49164 5.06208C2.5239 5.08147 2.58595 5.12204 2.61754 5.14234C2.62177 5.14452 2.62586 5.14697 2.62977 5.14969Z" fill="#666059"/>
<path d="M3.63153 5.61548C3.64783 5.53908 3.64935 5.45998 3.63601 5.38294C3.62268 5.3059 3.59475 5.23246 3.5539 5.16702C3.48563 5.07427 3.39987 4.99612 3.30468 4.94789C3.24527 4.92093 3.18161 4.9059 3.11696 4.9036C2.9463 4.8972 2.8 4.95675 2.6808 5.08623C2.66207 5.10695 2.64446 5.12879 2.6281 5.15162C2.61407 5.14282 2.48498 5.07338 2.46682 5.05687C2.45962 5.05033 2.51591 4.98314 2.54482 4.95175C2.60805 4.88311 2.67951 4.82641 2.76162 4.78488C2.83847 4.74312 2.92632 4.71926 3.01495 4.70933C3.08291 4.70159 3.15155 4.70352 3.21902 4.71504C3.30796 4.73044 3.38997 4.76691 3.46773 4.81564C3.52106 4.84871 3.57017 4.88877 3.61383 4.93493C3.69964 5.02634 3.76278 5.13239 3.79837 5.25608C3.82104 5.33551 3.83202 5.41813 3.83094 5.50105C3.82976 5.62474 3.80029 5.73837 3.75748 5.82989C3.74901 5.84806 3.7567 5.8476 3.7321 5.82989C3.70188 5.80713 3.62646 5.75956 3.59463 5.73803C3.59265 5.73642 3.61864 5.67642 3.63153 5.61548Z" fill="#45423D"/>
<path d="M2.83914 2.39163C2.82602 2.34766 2.81595 2.30281 2.80489 2.25825C2.80198 2.24652 2.80525 2.24336 2.81713 2.24033C3.47435 2.07195 4.27353 2.2006 4.68401 2.33159C4.74907 2.35619 4.81238 2.38476 4.87095 2.42385C4.89636 2.44084 4.92045 2.45954 4.93945 2.48461C4.9447 2.49148 4.94946 2.49878 4.95363 2.50646C4.96358 2.52508 4.96579 2.54386 4.95647 2.56423C4.93485 2.61149 4.91133 2.6577 4.88592 2.70283C4.86948 2.73222 4.85262 2.76134 4.83595 2.79059C4.82809 2.8048 4.81931 2.81838 4.8096 2.83126C4.80113 2.83959 4.79159 2.83558 4.78245 2.83342C4.74223 2.82393 4.70165 2.8165 4.66169 2.80614C4.65876 2.80537 4.65573 2.80666 4.65276 2.80678C4.61091 2.79249 4.56675 2.79087 4.52424 2.7802C4.51867 2.7788 4.51383 2.78235 4.50849 2.7814C4.43869 2.7671 4.3679 2.75988 4.29762 2.7497C4.27291 2.74612 4.24738 2.74801 4.22344 2.7387C4.21428 2.72851 4.21261 2.71517 4.20951 2.70233C4.19179 2.6265 4.16879 2.5529 4.12663 2.48754C4.1202 2.47761 4.11323 2.46813 4.10592 2.4589C4.08397 2.43117 4.05779 2.41467 4.02223 2.40975C3.92948 2.3969 3.8366 2.38579 3.74345 2.37748C3.58843 2.36355 3.43326 2.36118 3.27798 2.3635C3.20135 2.36462 3.12479 2.36998 3.0483 2.37694C2.98496 2.38263 2.92178 2.38939 2.85878 2.39819C2.85097 2.39898 2.84423 2.39849 2.83914 2.39163Z" fill="#EDAE50"/>
<path d="M5.01838 3.71561C4.97476 3.71528 4.93108 3.71433 4.88746 3.71499C4.87353 3.71517 4.87044 3.70664 4.86741 3.69611C4.85558 3.69231 4.85592 3.68092 4.85411 3.67143C4.84 3.59835 4.82673 3.52506 4.81136 3.45224C4.77358 3.2732 4.73115 3.09545 4.67956 2.92021C4.67067 2.89002 4.66111 2.86005 4.65241 2.82978C4.64977 2.82059 4.6447 2.81054 4.65326 2.80131C4.65643 2.79751 4.66064 2.79751 4.66478 2.79828C4.71336 2.80779 4.76186 2.81728 4.8096 2.83099C4.84092 2.92387 4.86726 3.01837 4.8916 3.11351C4.92462 3.24282 4.95298 3.37332 4.97939 3.50427C4.98925 3.55319 5.01827 3.7144 5.01838 3.71561Z" fill="#45423D"/>
<path d="M2.83927 2.39165C2.89667 2.38132 2.95462 2.37532 3.01253 2.36985C3.05429 2.36591 3.09626 2.36337 3.13812 2.36036C3.25445 2.35185 3.37088 2.35201 3.48725 2.35409C3.5718 2.3556 3.65627 2.36031 3.74068 2.36738C3.79689 2.37209 3.85301 2.37751 3.90901 2.38425C3.95606 2.38994 4.00272 2.39816 4.04979 2.40462C4.065 2.40668 4.07646 2.41454 4.08732 2.42501C4.1248 2.46108 4.15126 2.50521 4.17202 2.55337C4.19678 2.61059 4.21375 2.67043 4.22501 2.73212C4.22239 2.74078 4.2157 2.7409 4.20892 2.74047C4.17903 2.73857 4.14905 2.73635 4.11927 2.73342C4.09299 2.73086 4.06661 2.72962 4.04036 2.72807C3.99854 2.72563 3.95664 2.72085 3.91459 2.7233C3.89837 2.72427 3.88239 2.71997 3.8662 2.71969C3.84429 2.71936 3.83748 2.72435 3.82988 2.74574C3.78507 2.87195 3.74817 3.00077 3.71576 3.13105C3.66565 3.33233 3.62744 3.53623 3.5953 3.74142C3.5867 3.79627 3.57968 3.85136 3.572 3.90636C3.57043 3.91756 3.56928 3.92903 3.56253 3.93865C3.55724 3.94423 3.55052 3.9446 3.54407 3.94284C3.51394 3.93464 3.48401 3.92549 3.45395 3.91706C3.4516 3.91649 3.44942 3.91535 3.44759 3.91369C3.44576 3.91202 3.44435 3.90993 3.44346 3.90757C3.43862 3.89383 3.44166 3.87989 3.44361 3.86637C3.47424 3.6444 3.51175 3.42383 3.56109 3.20561C3.59597 3.05126 3.63574 2.89849 3.68666 2.74908C3.69438 2.7265 3.69005 2.71992 3.66753 2.71966C3.57824 2.71861 3.4891 2.72188 3.39986 2.72638C3.355 2.72866 3.31018 2.73059 3.26544 2.73455C3.26247 2.73455 3.25946 2.73466 3.25644 2.73468C3.20974 2.735 3.20866 2.73608 3.19394 2.78185C3.10824 3.04802 3.04833 3.32087 3.00206 3.59735C2.98821 3.68004 2.97607 3.763 2.96375 3.84593C2.96264 3.85352 2.96183 3.861 2.9573 3.86737C2.95298 3.87472 2.94583 3.8757 2.93866 3.87686C2.90144 3.88255 2.86398 3.88653 2.82692 3.89345C2.81857 3.89504 2.80833 3.8969 2.80664 3.88275C2.81286 3.83904 2.81908 3.79534 2.82531 3.75163C2.84146 3.63793 2.85976 3.52463 2.88018 3.41174C2.90697 3.26383 2.9376 3.11708 2.97545 2.9721C2.99346 2.90332 3.01209 2.83469 3.03475 2.7674C3.04267 2.74382 3.04264 2.74382 3.0255 2.72754C2.98415 2.68811 2.94295 2.64851 2.90139 2.60932C2.89374 2.60226 2.88841 2.59285 2.88609 2.58243C2.87201 2.52496 2.85725 2.46767 2.84272 2.41032C2.84022 2.40446 2.83901 2.39808 2.83927 2.39165Z" fill="#45423D"/>
<path d="M2.8393 2.39153C2.84148 2.39755 2.84397 2.40349 2.84271 2.41022C2.83912 2.40454 2.83459 2.39896 2.8393 2.39153Z" fill="#A9A9A9"/>
<path d="M3.79331 4.04189C3.72426 4.00281 3.65185 3.97201 3.5778 3.94534C3.57106 3.9429 3.56398 3.9411 3.55884 3.93528C3.56646 3.87962 3.5735 3.82387 3.5818 3.76833C3.60102 3.63975 3.62347 3.5118 3.64915 3.38451C3.68826 3.19155 3.73504 3.00081 3.79655 2.81432C3.8064 2.78447 3.8166 2.75475 3.82684 2.72507C3.83201 2.71005 3.83224 2.71 3.84751 2.71046C3.93268 2.71299 4.01784 2.71643 4.1029 2.72204C4.14359 2.72473 4.18416 2.72867 4.22481 2.73206C4.29196 2.73887 4.35887 2.74757 4.42567 2.75754C4.45406 2.76179 4.48245 2.7657 4.51065 2.77123C4.52685 2.77806 4.53691 2.79111 4.54669 2.8061C4.58391 2.8632 4.61352 2.92485 4.6382 2.98839C4.66401 3.05485 4.6876 3.12263 4.70352 3.19286C4.70979 3.22051 4.71872 3.24745 4.72516 3.275C4.74627 3.36567 4.76963 3.45574 4.78668 3.54746C4.79542 3.59449 4.80472 3.64148 4.8162 3.68796C4.8193 3.70033 4.82435 3.71432 4.80923 3.72322C4.80761 3.72512 4.8063 3.72749 4.80429 3.72862C4.77755 3.74353 4.7595 3.76778 4.74193 3.79252C4.71257 3.83382 4.68353 3.87535 4.65437 3.9168C4.64617 3.9206 4.63936 3.91744 4.63267 3.91237C4.59755 3.88587 4.56208 3.85982 4.52631 3.83425C4.50813 3.82119 4.50673 3.81466 4.51893 3.79542C4.53625 3.76807 4.55484 3.74168 4.57271 3.71473C4.5796 3.70437 4.58695 3.69429 4.59256 3.68308C4.60266 3.66277 4.59894 3.6425 4.58343 3.63037C4.56789 3.61825 4.54851 3.6207 4.53362 3.63831C4.51482 3.66053 4.50001 3.68599 4.48396 3.71046C4.43298 3.78784 4.38193 3.86516 4.33074 3.94243C4.32595 3.94968 4.32104 3.95694 4.3178 3.96522C4.31029 3.98401 4.31551 4.00338 4.33068 4.01381C4.34634 4.02459 4.3644 4.02246 4.37767 4.00644C4.39623 3.98404 4.41097 3.95851 4.42714 3.93428C4.43742 3.91873 4.44771 3.90317 4.45835 3.88787C4.46574 3.87725 4.47394 3.87566 4.48461 3.88288C4.52349 3.90923 4.56062 3.93822 4.59855 3.96597C4.6049 3.97062 4.61117 3.97614 4.61094 3.98566C4.59906 4.00603 4.58723 4.02645 4.57527 4.04675C4.56928 4.05694 4.56286 4.06686 4.55694 4.07713C4.53226 4.1196 4.53149 4.16352 4.55277 4.20711C4.61004 4.32452 4.66954 4.44065 4.73671 4.55222C4.74507 4.56613 4.75404 4.57953 4.76243 4.59332C4.78611 4.63217 4.82146 4.64777 4.86307 4.64911C4.90319 4.65033 4.94322 4.64569 4.98318 4.64202C4.98225 4.81778 4.93451 4.97857 4.84513 5.12655C4.8326 5.14725 4.81907 5.1561 4.79465 5.15536C4.72995 5.1533 4.66517 5.15499 4.60042 5.15517C4.58734 5.15325 4.5878 5.14108 4.58598 5.13192C4.57832 5.09423 4.56823 5.05725 4.55756 5.0204C4.5166 4.8782 4.45723 4.74261 4.38111 4.61754C4.35652 4.57707 4.32904 4.53888 4.30329 4.49938C4.27935 4.46644 4.25351 4.4351 4.22687 4.40468C4.17936 4.3505 4.13009 4.29816 4.07616 4.25088C3.99817 4.18291 3.91462 4.12233 3.8265 4.06983C3.81429 4.06211 3.79966 4.0573 3.79331 4.04189Z" fill="#B9E1E1"/>
<path d="M4.80547 3.72767C4.81046 3.71627 4.81003 3.70056 4.80745 3.68982C4.78467 3.59631 4.62391 2.94436 4.53303 2.80089C4.522 2.78349 4.51941 2.77889 4.51074 2.77127C4.55345 2.77477 4.59529 2.78426 4.63761 2.79048C4.64087 2.79089 4.64396 2.79207 4.64671 2.79398C4.64941 2.79586 4.65165 2.79841 4.65327 2.80141C4.71005 2.98306 4.75875 3.16709 4.7994 3.35347C4.8243 3.46705 4.84988 3.58909 4.87019 3.7037L4.8705 3.70445C4.87459 3.71244 4.87564 3.71023 4.85184 3.71337C4.83712 3.71537 4.81727 3.72229 4.80547 3.72767Z" fill="#DCF9FB"/>
<path d="M3.44757 3.90527C3.4106 3.89767 3.37367 3.88938 3.33662 3.8827C3.29241 3.87481 3.24783 3.86936 3.20308 3.86639C3.16073 3.86347 3.11874 3.86259 3.07631 3.86249C3.05247 3.86249 3.02832 3.86495 3.00433 3.86308C2.99451 3.85515 2.99628 3.84438 2.9977 3.83358C3.01804 3.67897 3.0417 3.52504 3.07255 3.37219C3.09418 3.26452 3.11853 3.15763 3.14849 3.05228C3.17711 2.95164 3.21046 2.85277 3.26214 2.76215C3.26991 2.74852 3.27114 2.73725 3.26291 2.72447C3.2686 2.72205 3.27465 2.72208 3.28063 2.72178C3.41662 2.71529 3.55261 2.70825 3.6888 2.70956C3.69468 2.70956 3.70078 2.7081 3.70651 2.71118C3.70878 2.71799 3.70497 2.72355 3.703 2.72923C3.64295 2.90201 3.59757 3.07943 3.5585 3.25866C3.52535 3.41071 3.49784 3.56391 3.47411 3.71787C3.46455 3.78027 3.45644 3.84282 3.44757 3.90527Z" fill="#B9E1E1"/>
<path d="M3.27473 2.72216C3.29907 2.71917 3.29677 2.72057 3.28217 2.74685C3.24275 2.81779 3.20955 2.89072 3.1842 2.96768C3.16949 3.01227 3.15524 3.05729 3.14423 3.1033C3.1322 3.15351 3.11801 3.20312 3.10687 3.25359C3.09556 3.30466 3.08602 3.35612 3.07558 3.40739C3.06486 3.45988 3.05395 3.51233 3.0458 3.56533C3.03318 3.64761 3.02101 3.72993 3.00926 3.81232C3.00687 3.82909 3.00384 3.84597 3.00433 3.86313C2.99826 3.86601 2.95667 3.87053 2.95349 3.86313C2.95622 3.82275 2.96342 3.78298 2.96935 3.74307C2.98401 3.6445 3.0005 3.54623 3.0188 3.4483C3.06149 3.22197 3.1141 2.9983 3.18461 2.77971C3.18906 2.76597 3.19433 2.75248 3.19828 2.73859C3.20058 2.73044 3.20518 2.72743 3.21254 2.7272C3.22943 2.7263 3.27173 2.72203 3.27473 2.72216Z" fill="#DCF9FB"/>
<path d="M5.52317 5.50625C5.4812 5.50283 5.43448 5.46809 5.4011 5.55788C5.36791 5.64688 5.41669 5.68116 5.40934 5.67819C5.40571 5.67768 5.40206 5.67756 5.3984 5.67784C5.37094 5.67819 5.34255 5.67339 5.31512 5.67336C5.30542 5.66865 5.30769 5.66028 5.30931 5.65217C5.32312 5.58218 5.34428 5.51406 5.3724 5.44901C5.40961 5.36369 5.45513 5.28382 5.51219 5.2113C5.59152 5.11055 5.68442 5.02711 5.79248 4.96229C5.90492 4.89478 6.02563 4.85307 6.15355 4.83487C6.21532 4.8261 6.27763 4.82284 6.34009 4.82744C6.36375 4.82919 6.38229 4.81901 6.39501 4.79843C6.40023 4.79005 6.40596 4.78368 6.41486 4.78035C6.42515 4.78023 6.43451 4.78483 6.44433 4.78714C6.46594 4.79227 6.46819 4.79142 6.47766 4.77081C6.49298 4.73752 6.50888 4.70453 6.52868 4.67377C6.53353 4.67048 6.53758 4.666 6.54051 4.66074C6.56616 4.61938 6.59896 4.58516 6.63752 4.55708C6.63861 4.55654 6.63984 4.55631 6.641 4.55648C6.65496 4.55648 6.65861 4.5677 6.66196 4.57865C6.67674 4.62681 6.69333 4.67411 6.71387 4.71998C6.74787 4.79591 6.78985 4.86617 6.84375 4.92816C6.85177 4.93742 6.86193 4.94567 6.85722 4.96072C6.82917 5.01263 6.80109 5.06453 6.77301 5.11641C6.76887 5.12403 6.76435 5.13143 6.75998 5.13894C6.75216 5.152 6.74334 5.16437 6.73364 5.17594C6.73112 5.17399 6.72845 5.1723 6.72564 5.17085C6.72402 5.17005 6.72096 5.16717 6.71937 5.16625C6.68998 5.14943 6.69415 5.14831 6.70881 5.1169C6.71798 5.0971 6.72277 5.07702 6.71696 5.05468C6.71466 5.04545 6.71058 5.03683 6.70498 5.02937C6.69937 5.02189 6.69237 5.01572 6.6844 5.01125C6.6656 5.00049 6.64608 4.99032 6.62461 4.98561C6.59448 4.97903 6.563 4.99374 6.54848 5.02243C6.54369 5.03194 6.54033 5.04213 6.53588 5.05177C6.5295 5.06591 6.52582 5.06787 6.51189 5.0637C6.47493 5.05259 6.4376 5.04351 6.39931 5.03902C6.39571 5.03856 6.39231 5.03711 6.38874 5.03676C6.37853 5.0355 6.37421 5.02917 6.37432 5.0188C6.37432 5.00868 6.37367 4.99852 6.37432 4.98841C6.37668 4.95013 6.35354 4.92428 6.31998 4.91731C6.29576 4.91225 6.27078 4.9126 6.24672 4.91831C6.21594 4.92559 6.19771 4.94539 6.19342 4.97907C6.19169 4.99152 6.19068 5.00412 6.19036 5.01672C6.19022 5.03316 6.18914 5.03454 6.1734 5.0378C6.15397 5.04182 6.1344 5.04485 6.11494 5.04871C6.09492 5.05277 6.0751 5.05779 6.0555 5.06381C6.04273 5.06771 6.03975 5.06614 6.03442 5.05362C6.02954 5.04208 6.02494 5.03043 6.01863 5.01963C6.002 4.99113 5.97191 4.97799 5.94113 4.98635C5.91901 4.99243 5.89796 5.0022 5.87882 5.01534C5.85088 5.03434 5.84067 5.07021 5.85252 5.10399C5.85604 5.11403 5.86118 5.12341 5.86532 5.13326C5.8705 5.14563 5.87003 5.14859 5.85975 5.15522C5.82334 5.1787 5.78967 5.20609 5.75617 5.23378C5.74639 5.24191 5.74367 5.24198 5.73454 5.23309C5.72639 5.2247 5.71772 5.21686 5.70867 5.20961C5.68291 5.18999 5.64771 5.18976 5.6235 5.2113C5.60664 5.22632 5.59067 5.24267 5.57863 5.26275C5.56041 5.29313 5.56464 5.32922 5.58946 5.35389C5.59949 5.36389 5.60052 5.36466 5.61685 5.37641C5.59178 5.4028 5.54277 5.47418 5.52842 5.50226" fill="#414141"/>
<path d="M5.18766 5.66979C5.08683 5.66968 4.986 5.66956 4.88517 5.66945C4.72488 5.66945 4.56465 5.66945 4.40437 5.66945C4.36739 5.66945 4.36677 5.66822 4.37192 5.63003C4.3755 5.60218 4.37617 5.57441 4.36132 5.54908C4.34535 5.52176 4.32275 5.50426 4.29243 5.49935C4.27762 5.49683 4.26269 5.49521 4.24772 5.49457C4.22969 5.49403 4.2264 5.48932 4.22574 5.47015C4.22358 5.40825 4.21879 5.34672 4.2075 5.28574C4.203 5.2616 4.20424 5.25957 4.22722 5.25291C4.24579 5.24749 4.26389 5.2408 4.28043 5.2303C4.32167 5.20418 4.33374 5.15954 4.32388 5.11369C4.31934 5.09278 4.3125 5.07239 4.30584 5.05208C4.28856 4.9994 4.24276 4.97201 4.19086 4.98224C4.17307 4.98577 4.15602 4.99175 4.13887 4.99746C4.1248 5.0022 4.12301 5.00171 4.11648 4.9873C4.08922 4.92673 4.05705 4.86872 4.02033 4.81396C4.01343 4.80376 4.01379 4.80054 4.02429 4.79222C4.03872 4.78069 4.05039 4.76611 4.06376 4.75346C4.09593 4.72307 4.09536 4.65914 4.07611 4.6286C4.05798 4.59987 4.03501 4.57544 4.01001 4.55399C3.97855 4.52686 3.92341 4.52589 3.88844 4.55899C3.8764 4.57042 3.86275 4.57992 3.8521 4.5929C3.84571 4.60072 3.83981 4.60087 3.83226 4.59416C3.81444 4.57822 3.79644 4.56248 3.77795 4.54742C3.74896 4.52383 3.71847 4.5026 3.68754 4.48187C3.66074 4.4639 3.66198 4.46793 3.67561 4.4382C3.68129 4.42635 3.6863 4.41416 3.69057 4.40166C3.70617 4.35304 3.69203 4.29976 3.6423 4.27317C3.62086 4.26178 3.59931 4.25003 3.57619 4.2434C3.54376 4.23409 3.51209 4.23581 3.48357 4.25812C3.472 4.2673 3.46272 4.27929 3.45654 4.29307C3.44886 4.30951 3.44212 4.32643 3.43477 4.34303C3.42921 4.35554 3.42798 4.35633 3.41542 4.35216C3.36723 4.33622 3.31795 4.32532 3.26811 4.31698C3.25628 4.31508 3.2444 4.31318 3.23254 4.3114C3.21535 4.30878 3.21403 4.30737 3.21372 4.28837C3.21349 4.27256 3.21354 4.25676 3.21372 4.2409C3.21413 4.197 3.1921 4.16875 3.15645 4.15043C3.1462 4.14498 3.13498 4.14185 3.12352 4.14125C3.09659 4.14028 3.0696 4.13848 3.04272 4.14314C2.99145 4.15219 2.95961 4.1899 2.95802 4.2445C2.95761 4.25841 2.95802 4.27232 2.95786 4.28628C2.95759 4.3076 2.95678 4.30824 2.93729 4.31151C2.87741 4.32149 2.81772 4.33241 2.75955 4.35095C2.74567 4.35535 2.74402 4.3544 2.73767 4.33997C2.73163 4.3262 2.72574 4.31236 2.71965 4.2986C2.69568 4.2439 2.64009 4.22622 2.58887 4.24589C2.56968 4.25321 2.55096 4.26181 2.53279 4.27162C2.50301 4.28785 2.48336 4.31292 2.47693 4.34861C2.47362 4.36736 2.47529 4.38668 2.48176 4.40449C2.48735 4.42056 2.49477 4.43573 2.50175 4.45112C2.50768 4.46418 2.50701 4.46716 2.49568 4.47441C2.44787 4.50498 2.40319 4.54014 2.3596 4.57693C2.35401 4.58167 2.34879 4.58701 2.34339 4.59187C2.33406 4.6001 2.33119 4.6001 2.32175 4.59152C2.31131 4.58202 2.30056 4.57287 2.29079 4.56264C2.25397 4.52406 2.18503 4.52429 2.1493 4.56528C2.13876 4.57735 2.12871 4.58995 2.11789 4.60175C2.10482 4.61597 2.10395 4.61546 2.09053 4.60244C2.07915 4.59138 2.05229 4.5665 2.05038 4.56502C2.03249 4.54397 2.03323 4.54382 2.05134 4.52229C2.20534 4.33916 2.40056 4.19976 2.61906 4.1169C2.72919 4.07512 2.84254 4.04789 2.959 4.03732C3.03013 4.03109 3.10161 4.03038 3.17284 4.03519C3.26931 4.04128 3.36492 4.05797 3.45809 4.08497C3.53454 4.107 3.6089 4.13639 3.68023 4.1728C3.72896 4.197 3.77623 4.22436 3.82177 4.2547C3.88558 4.29726 3.94596 4.34524 4.00235 4.39816C4.0563 4.44919 4.10694 4.50398 4.15396 4.56214C4.16034 4.5705 4.16629 4.57919 4.17183 4.58819C4.21581 4.64048 4.25112 4.6993 4.28411 4.7594C4.3504 4.87984 4.4 5.00963 4.43135 5.14483C4.44235 5.19214 4.44961 5.24015 4.45773 5.28803C4.46478 5.32979 4.49386 5.34409 4.52957 5.32385C4.57432 5.29853 4.60275 5.23823 4.59625 5.18487C4.59481 5.1733 4.58723 5.16019 4.59903 5.14931C4.60839 5.14376 4.61868 5.14422 4.62889 5.14417C4.68293 5.14403 4.73691 5.14345 4.79091 5.14445C4.8132 5.14488 4.82812 5.13609 4.84007 5.11663C4.88471 5.04373 4.91874 4.96421 4.94098 4.88069C4.95854 4.81548 4.97116 4.74932 4.97541 4.68151C4.97595 4.67457 4.97584 4.66757 4.9751 4.66063C4.97417 4.6524 4.9761 4.64562 4.98333 4.64129C4.99505 4.64106 5.02071 4.63952 5.02185 4.6394C5.06669 4.63661 5.06669 4.63666 5.06677 4.68411C5.06677 4.72021 5.06657 4.75626 5.06688 4.79222C5.06715 4.82521 5.07551 4.83536 5.10611 4.84349C5.17935 4.86314 5.25349 4.86949 5.32905 4.86535C5.36397 4.86344 5.39808 4.85686 5.43274 4.85395C5.43989 4.8531 5.4469 4.85118 5.45354 4.84827C5.47458 4.83978 5.48077 4.83119 5.48108 4.8071C5.48162 4.76223 5.48093 4.71733 5.48147 4.67243C5.48159 4.66266 5.47969 4.65191 5.48794 4.64397C5.50155 4.63294 5.51454 4.64137 5.52669 4.64672C5.55675 4.66002 5.57933 4.68362 5.60009 4.70918C5.63855 4.75645 5.66705 4.81047 5.69412 4.86544C5.69647 4.86984 5.69749 4.87494 5.69698 4.88C5.69605 4.89229 5.68759 4.89842 5.67897 4.90432C5.60814 4.95252 5.54459 5.00975 5.4861 5.07361C5.41908 5.14682 5.36346 5.22866 5.31635 5.3171C5.26163 5.41982 5.22445 5.52931 5.20249 5.64474C5.20059 5.65442 5.20244 5.66814 5.18766 5.66979Z" fill="#45423D"/>
<path d="M5.18763 5.66979C5.19216 5.64822 5.19653 5.62662 5.20133 5.60524C5.2405 5.42933 5.31577 5.27234 5.42446 5.13288C5.49664 5.03971 5.58222 4.95904 5.67815 4.8938C5.68364 4.89 5.68972 4.88697 5.69315 4.88049C5.69746 4.87292 6.02455 4.65114 6.39037 4.72239C6.4121 4.73906 6.41469 4.77108 6.40286 4.80013C6.39129 4.82847 6.36976 4.83736 6.33525 4.83652C6.30342 4.83567 6.27162 4.83387 6.23994 4.8357C6.18661 4.83855 6.13363 4.84564 6.08133 4.85693C5.9381 4.88858 5.80768 4.94987 5.69065 5.04239C5.55391 5.15046 5.45072 5.28716 5.3799 5.4509C5.35117 5.51774 5.32955 5.58778 5.31538 5.65965C5.3145 5.66393 5.30278 5.73338 5.29915 5.76408C5.29589 5.79254 5.28293 5.81242 5.25683 5.82181C5.21849 5.8356 5.17753 5.80613 5.17673 5.76346C5.17626 5.74197 5.18068 5.72086 5.18374 5.69967C5.18496 5.69124 5.18629 5.67117 5.18763 5.66979Z" fill="#A19D98"/>
<path d="M4.87553 5.52188C4.81014 5.52188 4.74474 5.52208 4.67936 5.52176C4.64873 5.5216 4.62652 5.50586 4.61388 5.47698C4.60123 5.44805 4.60514 5.42002 4.62348 5.39491C4.63806 5.37508 4.65891 5.36746 4.68203 5.36669C4.69762 5.36618 4.71325 5.36649 4.72891 5.36649C4.8393 5.36657 4.94969 5.36665 5.06008 5.36672C5.08099 5.36672 5.1005 5.37052 5.11709 5.38549C5.13998 5.40619 5.14929 5.43973 5.13975 5.46963C5.13511 5.48475 5.12602 5.49797 5.11383 5.5074C5.10161 5.51679 5.08692 5.52191 5.0718 5.52199C5.00639 5.52234 4.94094 5.52188 4.87553 5.52188Z" fill="#FCBE4F"/>
<path d="M2.8066 3.88256C2.8107 3.88599 2.81538 3.88609 2.82019 3.88508C2.86111 3.87665 2.90248 3.87179 2.9439 3.86727C2.94751 3.86685 2.9457 3.86691 2.95592 3.86588C3.10136 3.85449 3.29524 3.86289 3.4477 3.9053C3.48131 3.9151 3.51517 3.9224 3.54883 3.93212C3.55226 3.93233 3.71696 3.99578 3.78095 4.032C3.78667 4.03632 3.78945 4.03862 3.79356 4.04192C3.79618 4.073 3.78702 4.09636 3.76978 4.11757C3.7458 4.14712 3.71408 4.16831 3.67862 4.18175C3.633 4.16085 3.58759 4.13946 3.54048 4.12233C3.45711 4.09199 3.37122 4.07 3.28393 4.05662C3.20789 4.04521 3.1311 4.04032 3.05429 4.042C2.96368 4.04359 2.87347 4.05501 2.78507 4.07607C2.51072 4.14099 2.26194 4.29323 2.0725 4.51215C2.06645 4.51917 2.06026 4.52606 2.05419 4.53303C2.04157 4.54762 2.03606 4.55708 2.02676 4.56865C2.01132 4.58796 1.99628 4.60766 1.98124 4.62731C1.94609 4.67316 1.88432 4.67562 1.84585 4.62754C1.8198 4.59498 1.82421 4.5459 1.84542 4.51498C1.86853 4.48189 1.89324 4.45005 1.91943 4.41961C1.94622 4.38804 1.97231 4.35581 2.00166 4.32681C2.04282 4.28621 2.08379 4.24529 2.12853 4.20908C2.28135 4.08543 2.44883 3.99114 2.63343 3.9316C2.68221 3.91582 2.73174 3.9028 2.78185 3.89257C2.79067 3.89082 2.79994 3.89015 2.8066 3.88256Z" fill="#EDAE50"/>
<path d="M4.30841 4.49383C4.35311 4.54958 4.38951 4.61129 4.42464 4.67385C4.46597 4.7474 4.50032 4.82456 4.52945 4.90436C4.55614 4.97761 4.57923 5.05201 4.59457 5.12891C4.59641 5.13756 4.59857 5.14599 4.60058 5.15468C4.60461 5.17828 4.6092 5.20164 4.60429 5.22594C4.59428 5.27582 4.57068 5.31485 4.52565 5.33658C4.48792 5.35481 4.45519 5.33578 4.449 5.29248C4.43279 5.17855 4.40629 5.06733 4.36593 4.96003C4.31811 4.83307 4.25554 4.71507 4.17589 4.60704C4.17226 4.6021 4.16889 4.59686 4.16541 4.59175C4.17403 4.56161 4.19187 4.53725 4.20905 4.51219C4.2187 4.49812 4.23359 4.50043 4.24606 4.49629C4.26617 4.48963 4.28728 4.48418 4.30841 4.49383Z" fill="#EDAE50"/>
<path d="M4.29808 4.49127C4.19949 4.48287 4.16851 4.58531 4.16534 4.59176C4.12276 4.53712 4.07784 4.48479 4.02893 4.43625C3.92955 4.3373 3.81679 4.25445 3.69433 4.19042C3.68893 4.18762 3.68371 4.18471 3.67841 4.18173C3.68299 4.17604 3.72357 4.16766 3.75739 4.11908C3.78601 4.07797 3.79276 4.0501 3.79333 4.0419C3.82561 4.05468 3.85379 4.07545 3.88307 4.09388C3.93368 4.12547 3.98233 4.16043 4.02872 4.19852C4.07064 4.23323 4.11132 4.26938 4.15005 4.30822C4.1766 4.33481 4.20147 4.36298 4.22657 4.39084C4.25576 4.42328 4.2852 4.45589 4.30829 4.49387" fill="#FCD38C"/>
<path d="M6.85569 4.96033C6.84508 4.94172 6.829 4.92808 6.81604 4.91142C6.74638 4.82188 6.69645 4.72109 6.66125 4.6118C6.65723 4.59923 6.65356 4.58655 6.64949 4.57398C6.64779 4.56865 6.64651 4.56256 6.63933 4.56276C6.55052 4.48264 6.44331 4.43797 6.33833 4.38904C6.17975 4.31521 6.01414 4.26448 5.84662 4.21976C5.71522 4.18469 5.58214 4.15869 5.44861 4.13464C5.43647 4.13244 5.42347 4.13138 5.41508 4.11943C5.41287 4.11078 5.41287 4.10193 5.41287 4.09311C5.41269 3.98848 5.41272 3.88386 5.41304 3.77923C5.41304 3.76785 5.40971 3.75474 5.42138 3.74631C5.44769 3.75313 5.47487 3.75313 5.50161 3.75705C5.55204 3.76441 5.60282 3.76989 5.65322 3.77793C5.71848 3.78822 5.78392 3.79737 5.84867 3.81105C5.89334 3.82054 5.93827 3.82852 5.98288 3.83855C6.03516 3.8503 6.08743 3.8622 6.13902 3.87604C6.22508 3.89907 6.3111 3.92245 6.39495 3.95352C6.42833 3.96588 6.46144 3.97923 6.49524 3.99021C6.52967 4.00137 6.55667 4.02366 6.58235 4.04876C6.63825 4.10335 6.69398 4.15809 6.7479 4.21483C6.78393 4.2528 6.82014 4.29052 6.85452 4.33023C6.86941 4.34743 6.88589 4.36317 6.90141 4.37991C6.92818 4.40887 6.95308 4.43965 6.98054 4.46801C7.00255 4.49081 7.01557 4.51951 7.01721 4.55233C7.01949 4.5985 7.01806 4.64428 7.00695 4.68967C6.98646 4.77319 6.94871 4.8469 6.89749 4.91351C6.88465 4.93011 6.8714 4.94642 6.85569 4.96033Z" fill="#EDAE50"/>
<path d="M4.61099 3.98527L4.48691 3.89458C4.48486 3.89329 4.48288 3.89182 4.48107 3.89018C4.47357 3.88259 4.46904 3.88607 4.46433 3.89398C4.45729 3.90571 4.44939 3.91689 4.44181 3.92827C4.42386 3.95513 4.4063 3.98229 4.38786 4.00875C4.37416 4.0284 4.3568 4.03446 4.33761 4.02814C4.30892 4.01865 4.29596 3.98609 4.3102 3.95789C4.31463 3.94901 4.32055 3.94091 4.32605 3.93263C4.38917 3.83733 4.45233 3.74202 4.51553 3.64674C4.51947 3.64042 4.52386 3.63438 4.5286 3.62871C4.54508 3.61002 4.57007 3.60709 4.58898 3.62111C4.59815 3.62789 4.60464 3.638 4.60725 3.6495C4.6098 3.66101 4.60821 3.67312 4.60283 3.68347C4.59721 3.69459 4.59003 3.70483 4.58317 3.71517C4.56357 3.74467 4.54377 3.77403 4.52409 3.80345C4.51623 3.81519 4.51603 3.81543 4.52729 3.82368C4.56956 3.85475 4.61196 3.88573 4.65434 3.91661L4.61099 3.98527Z" fill="#45423E"/>
<path d="M5.12271 3.72283C5.12852 3.72715 5.12812 3.73371 5.12812 3.73993C5.12827 3.85081 5.12827 3.96165 5.12812 4.0725C5.12827 4.0763 5.12767 4.08006 5.12631 4.08358C5.11888 4.09307 5.10828 4.09269 5.09826 4.09273C5.06113 4.09292 5.02404 4.09083 4.98696 4.09008C4.88333 4.08772 4.77971 4.08914 4.67593 4.08936C4.66875 4.08936 4.66152 4.08977 4.65482 4.09315C4.65088 4.09505 4.64728 4.09778 4.64785 4.103C4.64841 4.10822 4.65258 4.10983 4.65675 4.11099C4.65965 4.11177 4.66263 4.11215 4.66566 4.11207C4.71651 4.11092 4.76737 4.11313 4.81834 4.10978C4.86727 4.10654 4.91644 4.10752 4.9656 4.11063C5.00798 4.11331 5.05054 4.11443 5.09301 4.11605C5.10384 4.11644 5.11462 4.11567 5.12426 4.12244C5.12906 4.14786 5.1366 4.17299 5.13145 4.19943C5.13133 4.20186 5.13071 4.20421 5.12955 4.20631C5.12163 4.21626 5.10929 4.21647 5.099 4.22099C5.07951 4.22953 5.06981 4.24347 5.07041 4.26613C5.07321 4.36968 5.06547 4.47312 5.06683 4.57662C5.06697 4.58861 5.0672 4.60057 5.06848 4.61255C5.0712 4.63842 5.06442 4.64691 5.03963 4.64957C5.03308 4.65025 5.02647 4.65045 5.01983 4.65065C5.00829 4.65079 4.99677 4.65087 4.98529 4.64991C4.95159 4.65547 4.91749 4.65585 4.88352 4.6583C4.82055 4.66274 4.77434 4.63577 4.74153 4.57855C4.69601 4.49917 4.65006 4.42005 4.60842 4.33828C4.58973 4.30159 4.57237 4.26422 4.55266 4.22804C4.52103 4.1699 4.52072 4.11307 4.55766 4.05743C4.57379 4.03318 4.58556 4.00587 4.60482 3.98389C4.61548 3.95745 4.63278 3.93542 4.64833 3.91219C4.68398 3.8568 4.72162 3.80291 4.76215 3.75133C4.77452 3.73559 4.79174 3.72589 4.80759 3.7146C4.82864 3.70859 4.90496 3.707 4.9243 3.70633C4.94626 3.70556 4.9683 3.70604 4.99028 3.70633C5.00075 3.70641 5.10252 3.71222 5.12271 3.72283Z" fill="#EDAE50"/>
<path d="M6.41565 4.78885C6.40884 4.78488 6.40462 4.77935 6.40508 4.77063C6.40647 4.74403 6.39016 4.73093 6.37016 4.72116C6.34358 4.71093 6.1409 4.69085 5.93944 4.7646C5.86858 4.78877 5.80023 4.81893 5.73595 4.85884C5.72412 4.86621 5.711 4.87121 5.6999 4.88003C5.69835 4.88126 5.69537 4.88046 5.69306 4.88061C5.67724 4.85681 5.6668 4.82988 5.65256 4.80514C5.63052 4.76686 5.60719 4.7297 5.57737 4.69745C5.55397 4.67208 5.52743 4.65266 5.4939 4.64554C5.48471 4.64631 5.4833 4.63918 5.48219 4.63229C5.48117 4.62412 5.48083 4.61589 5.48114 4.60769C5.48114 4.55026 5.48017 4.4928 5.48137 4.43538C5.4825 4.38104 5.47657 4.32699 5.47731 4.2727C5.47759 4.25205 5.46829 4.23802 5.45028 4.23C5.44308 4.2268 5.43612 4.22311 5.4294 4.21899C5.42424 4.2158 5.41868 4.21251 5.42092 4.20439L5.42161 4.16334C5.42756 4.15462 5.4357 4.15584 5.44435 4.15722C5.54407 4.17303 5.64312 4.19255 5.74148 4.2158C5.85973 4.24398 5.9773 4.27491 6.0924 4.31521C6.18469 4.34749 6.27602 4.38258 6.36443 4.42553C6.40636 4.44591 6.44913 4.46464 6.48742 4.49221C6.50185 4.50261 6.51342 4.51643 6.5244 4.5308C6.55052 4.56497 6.54389 4.60467 6.54145 4.64355C6.54073 4.65569 6.53524 4.66699 6.53427 4.67922C6.51167 4.71538 6.49241 4.75369 6.47672 4.79368C6.47351 4.80199 6.46921 4.8051 6.46019 4.80188C6.44569 4.79671 6.43057 4.79314 6.41565 4.78885Z" fill="#EDAE50"/>
<path d="M6.53458 4.67925C6.52956 4.66911 6.53038 4.65811 6.53223 4.64769C6.53617 4.62569 6.53478 4.60364 6.53478 4.58156C6.53478 4.55993 6.52341 4.54314 6.511 4.52774C6.49537 4.50847 6.47623 4.49272 6.45471 4.48143C6.35407 4.42755 6.24987 4.38269 6.14325 4.34375C6.06619 4.31557 5.98846 4.28986 5.90947 4.26856C5.80961 4.24164 5.7094 4.2168 5.60797 4.19641C5.54969 4.18471 5.49097 4.17594 5.43265 4.16453C5.42914 4.16385 5.42545 4.16372 5.42194 4.16331C5.42194 4.14938 5.42194 4.1355 5.42194 4.12164C5.45776 4.12524 5.49302 4.13274 5.52838 4.13945C5.57436 4.14815 5.62028 4.1574 5.66611 4.1672C5.71419 4.17759 5.76235 4.18767 5.80992 4.20098C5.84634 4.21115 5.88321 4.21981 5.91977 4.22984C6.00914 4.25437 6.09744 4.28257 6.18466 4.31439C6.25553 4.34025 6.32406 4.3723 6.39295 4.4033C6.45851 4.4329 6.5221 4.46718 6.58325 4.50583C6.6012 4.51714 6.61768 4.531 6.63461 4.54402C6.6406 4.54862 6.64602 4.55417 6.63952 4.56276C6.61666 4.5841 6.59307 4.60455 6.57281 4.62888C6.55931 4.64508 6.54739 4.66245 6.53458 4.67925Z" fill="#FCD38C"/>
<path d="M5.12249 4.08373L5.12261 4.12537C5.00263 4.11498 4.77892 4.11498 4.66601 4.12169C4.65742 4.12125 4.64888 4.12032 4.64037 4.11889C4.63407 4.1174 4.62437 4.10885 4.62451 4.10348C4.62482 4.09364 4.63019 4.0889 4.63716 4.08525C4.64587 4.08065 4.65747 4.0798 4.66726 4.0798C4.77529 4.0798 4.88335 4.0781 4.99134 4.08083C5.035 4.08193 5.07878 4.08262 5.12249 4.08373Z" fill="#FCD38C"/>
<path d="M6.97442 4.58877C6.97501 4.6296 6.96724 4.66719 6.95613 4.70412C6.93652 4.76945 6.90461 4.82772 6.86397 4.88091C6.85572 4.89173 6.85529 4.89176 6.84672 4.88108C6.80719 4.83215 6.77559 4.77791 6.74847 4.72052C6.72813 4.67742 6.71146 4.63274 6.69652 4.58735C6.69192 4.57326 6.69246 4.57076 6.70585 4.56353C6.75261 4.53824 6.80162 4.52028 6.8539 4.51242C6.87773 4.50882 6.90175 4.50889 6.92558 4.50579C6.92798 4.5056 6.93037 4.50552 6.93278 4.50563C6.95544 4.50611 6.95899 4.50913 6.9675 4.53088C6.97504 4.55024 6.9749 4.57035 6.97442 4.58877Z" fill="#FEFEFE"/>
<path d="M5.41915 3.75566C5.41915 3.87635 5.42045 4.1411 5.42329 4.21536C5.41659 4.22433 5.40789 4.22105 5.40007 4.2187C5.31556 4.19271 5.23051 4.19656 5.14519 4.213C5.13799 4.21438 5.13098 4.21626 5.12491 4.21004L5.12445 4.21065C5.12051 4.20495 5.12445 3.61512 5.12395 3.57737C5.12372 3.56116 5.1263 3.54645 5.13396 3.53221C5.14337 3.5147 5.15157 3.4965 5.16031 3.47857C5.1615 3.47728 5.16314 3.47646 5.16487 3.4763C5.26323 3.52056 5.34449 3.57191 5.41856 3.65171C5.41748 3.68056 5.41856 3.71916 5.41915 3.75566Z" fill="#414141"/>
<path d="M5.16531 3.46941H5.16384L5.16241 3.46911C5.1695 3.45124 5.16991 3.43252 5.16984 3.41351C5.16961 3.35669 5.1705 3.29986 5.16999 3.24306C5.16979 3.22235 5.17572 3.20557 5.18802 3.18937C5.24855 3.10944 5.31438 3.03408 5.38493 2.96383C5.42976 2.91918 5.47737 2.8777 5.52966 2.84268C5.5396 2.84518 5.53534 2.85201 5.5331 2.85724C5.50104 2.93175 5.50556 3.00988 5.51566 3.08743C5.52007 3.12161 5.52907 3.15683 5.55604 3.18193C5.55797 3.18352 5.55925 3.18579 5.55967 3.18833C5.56007 3.19086 5.55956 3.19347 5.55825 3.19563C5.49733 3.22546 5.44948 3.27178 5.4091 3.32739C5.40314 3.3356 5.39874 3.34427 5.40021 3.35509C5.39754 3.42279 5.39812 3.49042 5.40036 3.6018C5.40024 3.603 5.4001 3.60419 5.3999 3.60537C5.39088 3.6118 5.38501 3.60454 5.37943 3.59956C5.35537 3.57799 5.33202 3.55561 5.30607 3.53637C5.27771 3.51531 5.24867 3.49565 5.21722 3.48001C5.20067 3.47181 5.18383 3.46626 5.16531 3.46941Z" fill="#A19D98"/>
<path d="M5.56899 2.83435C5.58114 2.84076 5.58737 2.85145 5.59043 2.86518C5.59827 2.90008 5.60346 2.93559 5.60594 2.97138C5.61015 3.03255 5.60175 3.09175 5.58721 3.15048C5.58419 3.1627 5.58071 3.17476 5.57302 3.18486C5.56536 3.18623 5.563 3.18039 5.55991 3.17478C5.52409 3.10999 5.51759 3.0393 5.52205 2.96649C5.52262 2.9565 5.52417 2.94652 5.5248 2.93646C5.52679 2.89777 5.54262 2.86132 5.56899 2.83435Z" fill="#A19D98"/>
<path d="M5.45859 4.2227C5.47728 4.23134 5.48644 4.24403 5.48718 4.26757C5.49098 4.38624 5.48996 4.50491 5.49024 4.62355C5.49024 4.63114 5.49101 4.66279 5.49093 4.67159C5.49066 4.72081 5.48985 4.77005 5.4905 4.81927C5.49075 4.83659 5.48394 4.84647 5.4697 4.85272C5.35103 4.88694 5.19694 4.8852 5.08887 4.84892C5.06451 4.84115 5.05804 4.83158 5.05786 4.80507C5.05758 4.77036 5.05786 4.73566 5.05786 4.7009C5.05786 4.68642 5.05809 4.6719 5.05786 4.65734C5.05758 4.64282 5.06145 4.41779 5.06145 4.41087C5.06145 4.35784 5.06184 4.30478 5.0613 4.25175C5.06114 4.23508 5.06698 4.22506 5.08175 4.21809C5.25338 4.16096 5.34346 4.17759 5.45859 4.2227Z" fill="#A19D98"/>
<path d="M5.09337 4.53517V4.27921C5.09337 4.27479 5.09326 4.27037 5.09337 4.26592C5.09377 4.24835 5.09521 4.24599 5.11124 4.23981C5.17159 4.21542 5.34804 4.19235 5.44221 4.25782C5.45707 4.26605 5.45948 4.27446 5.46008 4.29438C5.46252 4.33922 5.45832 4.67225 5.45846 4.80051C5.45846 4.80308 5.45846 4.80556 5.45846 4.8081C5.458 4.82641 5.45684 4.82729 5.4392 4.83112C5.32935 4.85518 5.22013 4.852 5.11137 4.82353C5.09524 4.81932 5.09439 4.8189 5.09439 4.80054C5.09422 4.74174 5.09422 4.68297 5.09439 4.6242C5.09439 4.59447 5.09439 4.56479 5.09439 4.53506L5.09337 4.53517Z" fill="#45423D"/>
<path d="M5.1613 3.47299C5.16339 3.45676 5.17279 3.45506 5.19093 3.45954C5.2127 3.46638 5.23355 3.47618 5.25292 3.48873C5.29605 3.51585 5.33736 3.54569 5.3736 3.58271C5.38169 3.59099 5.39108 3.59791 5.39987 3.60537C5.40111 3.61082 5.40389 3.61575 5.40787 3.61948C5.41932 3.63031 5.42086 3.64284 5.41855 3.65867C5.39952 3.65582 5.38884 3.64386 5.37678 3.62984C5.34405 3.59187 5.30581 3.56112 5.26526 3.53314C5.24029 3.5159 5.20203 3.49706 5.17429 3.48541C5.16479 3.48142 5.16017 3.48166 5.1613 3.47299Z" fill="#DCF9FB"/>
<path d="M5.56909 2.83435C5.57551 2.83803 5.57962 2.83971 5.56314 2.8551C5.54226 2.8748 5.52845 2.92449 5.52984 3.00599C5.5312 3.06002 5.53188 3.10811 5.57312 3.18486C5.56963 3.19055 5.56507 3.19474 5.55838 3.19561C5.48852 3.12328 5.49529 2.90072 5.52979 2.84266C5.54407 2.82707 5.55242 2.8253 5.56909 2.83435Z" fill="#DCF9FB"/>
</g>
<path d="M8.90997 4.5C8.90997 2.06442 6.93554 0.0900002 4.49997 0.0900002C2.06439 0.0900002 0.0899658 2.06442 0.0899658 4.5C0.0899658 6.93558 2.06439 8.91 4.49997 8.91C6.93554 8.91 8.90997 6.93558 8.90997 4.5Z" stroke="#CED3E6" stroke-width="0.18"/>
</g>
</g>
<defs>
<clipPath id="clip0_875_1378">
<rect width="24" height="24" fill="white"/>
</clipPath>
<clipPath id="clip1_875_1378">
<rect width="18.6667" height="17.3333" fill="white" transform="translate(2.66669 4)"/>
</clipPath>
<clipPath id="clip2_875_1378">
<rect width="9" height="9" fill="white"/>
</clipPath>
</defs>
</svg>
