<svg width="40" height="41" viewBox="0 0 40 41" fill="none" xmlns="http://www.w3.org/2000/svg">
<g clip-path="url(#clip0_3187_12678)">
<path d="M38.0488 20.0812C38.0488 10.1131 29.9682 2.03235 20.0001 2.03235C10.032 2.03235 1.95129 10.1131 1.95129 20.0812C1.95129 30.0492 10.032 38.1299 20.0001 38.1299C29.9682 38.1299 38.0488 30.0492 38.0488 20.0812Z" fill="#180D68"/>
<path fill-rule="evenodd" clip-rule="evenodd" d="M20 2.8881C10.5046 2.8881 2.80702 10.5857 2.80702 20.0811C2.80702 29.5765 10.5046 37.2741 20 37.2741C29.4955 37.2741 37.193 29.5765 37.193 20.0811C37.193 10.5857 29.4955 2.8881 20 2.8881ZM0 20.0811C0 9.03539 8.9543 0.0810852 20 0.0810852C31.0457 0.0810852 40 9.03539 40 20.0811C40 31.1268 31.0457 40.0811 20 40.0811C8.9543 40.0811 0 31.1268 0 20.0811Z" fill="url(#paint0_linear_3187_12678)"/>
<mask id="mask0_3187_12678" style="mask-type:alpha" maskUnits="userSpaceOnUse" x="12" y="7" width="16" height="26">
<path fill-rule="evenodd" clip-rule="evenodd" d="M19.455 22.9756H19.3188H13.3295L20.0155 32.3491L27.8856 21.2729H20.6809V22.9756H19.455ZM20.6809 18.5486H26.4912L20.0155 7.84424L12.4807 20.2513H19.3188V18.5486H20.6809Z" fill="white"/>
</mask>
<g mask="url(#mask0_3187_12678)">
<path d="M20.0175 7.81287L19.7816 8.36323V20.1122H20.0175L28.6627 18.9103L20.0175 7.81287Z" fill="#FFBC01"/>
<path d="M20.0156 7.75055L12.4456 20.2947L20.0156 24.7636V16.8584V7.75055Z" fill="#FFE8A8"/>
<path d="M19.9979 18.9742V26.2959V32.0851V32.3801L27.9135 21.2048L26.0447 17.8675L19.9979 18.9742Z" fill="#FFBC01"/>
<path d="M20.0156 32.3802V21.7409H12.4456L20.0156 32.3802Z" fill="#FFE8A8"/>
</g>
</g>
<defs>
<linearGradient id="paint0_linear_3187_12678" x1="20" y1="0.782838" x2="20" y2="39.3794" gradientUnits="userSpaceOnUse">
<stop stop-color="#FFB901"/>
<stop offset="1" stop-color="#F9CB53"/>
</linearGradient>
<clipPath id="clip0_3187_12678">
<rect width="40" height="40" fill="white" transform="translate(0 0.0810852)"/>
</clipPath>
</defs>
</svg>
