<svg width="40" height="39" viewBox="0 0 40 39" fill="none" xmlns="http://www.w3.org/2000/svg">
<rect x="1.02631" y="0.5" width="38" height="38" rx="19" stroke="white"/>
<path d="M20.0348 1.69995C29.8704 1.69995 37.8444 9.67326 37.8444 19.5089C37.8444 29.3445 29.8711 37.3184 20.0355 37.3184C10.1999 37.3184 2.22589 29.3451 2.22589 19.5095C2.22589 9.67386 10.1992 1.69995 20.0348 1.69995Z" fill="#111111" stroke="#111111" stroke-width="0.900384"/>
<path d="M20.0355 1.37183C10.0188 1.37183 1.89783 9.49201 1.89783 19.5088C1.89783 29.5255 10.018 37.6463 20.0347 37.6463C30.0514 37.6463 38.1724 29.5262 38.1724 19.5095C38.1724 9.49271 30.0522 1.37183 20.0355 1.37183Z" fill="url(#paint0_radial_3183_11374)" fill-opacity="0.7"/>
<path d="M20.0355 1.37183C10.0188 1.37183 1.89783 9.49201 1.89783 19.5088C1.89783 29.5255 10.018 37.6463 20.0347 37.6463C30.0514 37.6463 38.1724 29.5262 38.1724 19.5095C38.1724 9.49271 30.0522 1.37183 20.0355 1.37183Z" stroke="url(#paint1_linear_3183_11374)" stroke-width="0.911781"/>
<path fill-rule="evenodd" clip-rule="evenodd" d="M14.7509 5.25171C8.96338 7.39433 4.83813 12.9634 4.83813 19.496C4.83813 26.0285 8.96338 31.5976 14.7509 33.7403V32.2423C9.75046 30.172 6.2326 25.2449 6.2326 19.496C6.2326 13.7472 9.75046 8.81994 14.7509 6.7496V5.25171ZM25.2943 6.7498V5.25188C31.0817 7.39463 35.2067 12.9636 35.2067 19.496C35.2067 26.0284 31.0817 31.5973 25.2943 33.7401V32.2421C30.2945 30.1717 33.8122 25.2447 33.8122 19.496C33.8122 13.7473 30.2945 8.82025 25.2943 6.7498Z" fill="white"/>
<path fill-rule="evenodd" clip-rule="evenodd" d="M20.0233 6.74854L20.8186 8.11501L25.6866 16.4787H28.765V17.8732H11.2876V16.4787H14.3588L19.2278 8.11493L20.0233 6.74854ZM20.0231 10.4074L23.5569 16.4787H16.4887L20.0231 10.4074ZM25.6953 22.4284H28.765V21.034H11.2876V22.4284H14.3501L19.2278 30.8071L20.0233 32.1735L20.8186 30.807L25.6953 22.4284ZM23.5655 22.4284H16.48L20.0231 28.5146L23.5655 22.4284Z" fill="white"/>
<defs>
<radialGradient id="paint0_radial_3183_11374" cx="0" cy="0" r="1" gradientUnits="userSpaceOnUse" gradientTransform="translate(20.0741 6.66838) rotate(90) scale(38.2413 26.918)">
<stop offset="0.03125" stop-color="#3A3A3A"/>
<stop offset="1" stop-color="#1C1C1C"/>
</radialGradient>
<linearGradient id="paint1_linear_3183_11374" x1="20.0351" y1="1.02961" x2="20.0351" y2="37.9886" gradientUnits="userSpaceOnUse">
<stop stop-color="white"/>
<stop offset="1" stop-color="#111111"/>
</linearGradient>
</defs>
</svg>
