<svg width="50" height="50" viewBox="0 0 50 50" fill="none" xmlns="http://www.w3.org/2000/svg">
<circle cx="25" cy="25" r="25" fill="#E62058"/>
<path d="M36.1128 12.3315H40.6554L31.2009 21.6952C29.5479 23.3238 27.3205 24.2368 25 24.2368C22.6795 24.2368 20.4522 23.3238 18.7991 21.6952L9.33677 12.3315H13.8872L21.0704 19.4411C22.1165 20.4736 23.5271 21.0525 24.9969 21.0525C26.4666 21.0525 27.8772 20.4736 28.9233 19.4411L36.1128 12.3315ZM13.8322 38.3665H9.28174L18.7991 28.9462C20.4522 27.3176 22.6795 26.4046 25 26.4046C27.3205 26.4046 29.5479 27.3176 31.2009 28.9462L40.7183 38.3649H36.1678L28.9296 31.194C27.8835 30.1615 26.4729 29.5826 25.0032 29.5826C23.5334 29.5826 22.1228 30.1615 21.0767 31.194L13.8306 38.3665H13.8322Z" fill="white"/>
</svg>
