<svg width="24" height="24" viewBox="0 0 24 24" fill="none" xmlns="http://www.w3.org/2000/svg">
<path fill-rule="evenodd" clip-rule="evenodd" d="M12 0C18.6274 0 24 5.37257 24 12C24 18.6274 18.6274 24 12 24C5.37257 24 0 18.6274 0 12C0 5.37257 5.37257 0 12 0Z" fill="#2775CA"/>
<path fill-rule="evenodd" clip-rule="evenodd" d="M14.7419 3.55026C14.4713 3.46382 14.2501 3.62443 14.2501 3.90853V4.60721C14.2501 4.7977 14.3936 5.01451 14.5724 5.08005C17.4447 6.13205 19.5001 8.89281 19.5001 12.125C19.5001 15.3572 17.4447 18.1178 14.5724 19.1699C14.3763 19.2417 14.2501 19.4339 14.2501 19.6428V20.3414C14.2501 20.6255 14.4713 20.7861 14.7419 20.6997C18.3716 19.5399 21 16.1394 21 12.125C21 8.11055 18.3716 4.70999 14.7419 3.55026Z" fill="white"/>
<path fill-rule="evenodd" clip-rule="evenodd" d="M9.7498 3.90853C9.7498 3.62443 9.52854 3.46382 9.25794 3.55026C5.62815 4.70999 2.99977 8.11051 2.99977 12.125C2.99977 16.1395 5.62815 19.5399 9.25794 20.6997C9.52853 20.7861 9.7498 20.6255 9.7498 20.3414V19.6428C9.7498 19.4522 9.60622 19.2354 9.42735 19.1699C6.55516 18.1178 4.49977 15.3571 4.49977 12.125C4.49977 8.89286 6.55516 6.13205 9.42735 5.08005C9.60622 5.01451 9.7498 4.7977 9.7498 4.6072V3.90853Z" fill="white"/>
<path d="M15.0689 14.4669L14.3824 14.1602C14.2312 14.0927 14.053 14.1558 13.9798 14.3044C13.6559 14.9619 13.1174 15.3809 12.406 15.3809C11.7621 15.3809 11.2455 15.0656 10.8496 14.4282C10.6949 14.1817 10.5719 13.9064 10.4783 13.6049H12.3217C12.4385 13.6049 12.5454 13.5391 12.5981 13.4348L13.0379 12.8411C13.1419 12.6351 12.9923 12.3919 12.7616 12.3919H10.2709C10.2636 12.2641 10.2593 12.1339 10.2593 11.9998C10.2579 11.8668 10.2617 11.7364 10.2686 11.608H12.3217C12.4385 11.608 12.5454 11.5424 12.5981 11.438L13.0379 10.8444C13.142 10.6384 12.9923 10.3951 12.7616 10.3951H10.476C10.8103 9.30523 11.5082 8.59118 12.406 8.60521C13.0903 8.60521 13.6214 8.9798 13.9621 9.59327C14.0384 9.73078 14.2103 9.78347 14.3541 9.71996L15.0442 9.41535C15.2093 9.34247 15.2795 9.14282 15.1921 8.98493C14.5551 7.8346 13.6265 7.25678 12.406 7.25678C11.2924 7.25678 10.4002 7.69954 9.72258 8.57839C9.32657 9.09599 9.05089 9.70331 8.8873 10.3951H7.88497C7.76813 10.3951 7.66123 10.4609 7.60857 10.5652L7.1687 11.1588C7.06468 11.3648 7.21436 11.608 7.4451 11.608H8.72168C8.71552 11.737 8.70963 11.8661 8.70963 11.9998C8.70799 12.1322 8.71112 12.2626 8.71672 12.3919H7.88497C7.76813 12.3919 7.66123 12.4577 7.60857 12.5619L7.1687 13.1555C7.06468 13.3615 7.21436 13.6049 7.4451 13.6049H8.88439C9.33956 15.4862 10.65 16.7692 12.406 16.7427C13.6529 16.7427 14.5926 16.1229 15.2199 14.8888C15.2998 14.7316 15.2298 14.5388 15.0689 14.4669Z" fill="white"/>
<g clip-path="url(#clip0_1280_628)">
<path d="M9.90995 4.5C9.90995 2.06442 7.93553 0.0900002 5.49995 0.0900002C3.06437 0.0900002 1.08995 2.06442 1.08995 4.5C1.08995 6.93558 3.06437 8.91 5.49995 8.91C7.93553 8.91 9.90995 6.93558 9.90995 4.5Z" fill="white"/>
<mask id="mask0_1280_628" style="mask-type:luminance" maskUnits="userSpaceOnUse" x="2" y="2" width="7" height="5">
<path d="M8.19997 2.16H2.79997V6.84H8.19997V2.16Z" fill="white"/>
</mask>
<g mask="url(#mask0_1280_628)">
<path d="M7.76426 5.19767C7.78201 5.21176 7.79365 5.22391 7.81114 5.23831C7.82169 5.24705 7.82178 5.24705 7.83213 5.23754C7.83937 5.23088 7.84637 5.22391 7.8538 5.2174C7.88361 5.19081 7.92377 5.1921 7.95157 5.22103C7.96263 5.23264 7.97307 5.24491 7.98279 5.25774C8.00685 5.28927 8.00444 5.33049 7.97729 5.35918C7.96967 5.36723 7.96159 5.3748 7.95339 5.38217C7.9465 5.38825 7.94627 5.39419 7.95115 5.40185C7.96116 5.41764 7.97091 5.43358 7.98031 5.44975C7.99227 5.4702 8.0029 5.49154 8.013 5.51303C8.02259 5.53353 8.02259 5.53337 8.0425 5.52679C8.05214 5.5233 8.06196 5.52039 8.07194 5.51805C8.10436 5.51151 8.13511 5.52802 8.14895 5.55984C8.15734 5.57946 8.16361 5.60003 8.16767 5.62111C8.17363 5.65117 8.15618 5.68455 8.1283 5.69938C8.1175 5.70504 8.10564 5.70753 8.09433 5.71178C8.08068 5.71695 8.07949 5.71798 8.08173 5.73205C8.08896 5.77633 8.09402 5.82084 8.09433 5.86583C8.09444 5.87568 8.09796 5.88126 8.10771 5.88211C8.11608 5.88283 8.12439 5.88448 8.1327 5.88536C8.16592 5.889 8.18852 5.90644 8.19833 5.94076C8.19919 5.9437 8.20136 6.00562 8.19845 6.02239C8.19207 6.05944 8.16469 6.08584 8.12868 6.08732C8.1209 6.08772 8.1131 6.08718 8.10544 6.08575C8.09123 6.08304 8.08184 6.08932 8.07839 6.10377C8.06993 6.13928 8.05856 6.17376 8.04637 6.20797C8.04278 6.21786 8.04483 6.22655 8.05268 6.23348C8.05674 6.23712 8.07248 6.25497 8.07504 6.26091C8.08088 6.27456 8.05561 6.25333 8.04977 6.2498C8.03643 6.24172 7.87283 6.14656 7.81191 6.11243C7.81624 6.07852 7.83199 6.03511 7.83832 6.00168C7.87062 5.83127 7.83721 5.67585 7.74372 5.53394C7.66598 5.41591 7.5595 5.34041 7.42872 5.30298C7.31362 5.26999 7.19955 5.2767 7.08765 5.31976C6.99507 5.35535 6.8937 5.41373 6.83808 5.50568C6.83169 5.51319 6.82867 5.51231 6.81862 5.50759C6.7838 5.48932 6.64739 5.39577 6.59192 5.36175C6.56736 5.33578 6.55107 5.29325 6.56953 5.26188C6.58272 5.23949 6.60043 5.22134 6.61942 5.20501C6.64611 5.1821 6.68478 5.18276 6.71314 5.20429C6.7483 5.231 6.74826 5.23088 6.78241 5.20218C6.80024 5.18721 6.81927 5.17391 6.83799 5.16019C6.85544 5.14748 6.85671 5.14234 6.84855 5.12238C6.82628 5.0679 6.84055 5.02654 6.89078 4.9996C6.90405 4.99217 6.91795 4.98597 6.93225 4.98109C6.97059 4.96881 7.0059 4.98321 7.02675 5.01917C7.04848 5.05673 7.04836 5.05665 7.08929 5.04673C7.11091 5.04148 7.13283 5.03776 7.1547 5.03359C7.17651 5.02937 7.17983 5.02573 7.18107 5.00301C7.18156 4.99163 7.1832 4.98033 7.18593 4.96935C7.19171 4.94735 7.20215 4.92804 7.2238 4.91939C7.26504 4.90283 7.3067 4.89965 7.34718 4.92142C7.37106 4.93425 7.3822 4.95632 7.38251 4.98492C7.38297 5.02776 7.38323 5.02814 7.42296 5.03493C7.44911 5.03936 7.47467 5.04604 7.50036 5.05239C7.51985 5.05727 7.52487 5.05534 7.5325 5.03557C7.55168 4.98551 7.59949 4.95995 7.65585 4.98911C7.67182 4.99738 7.68861 5.00343 7.70257 5.01677C7.73073 5.04365 7.73269 5.08335 7.72112 5.11231C7.71947 5.11637 7.71749 5.12028 7.7159 5.12437C7.70818 5.14448 7.70736 5.15625 7.70736 5.15625C7.70736 5.15625 7.74681 5.18379 7.76426 5.19767Z" fill="#5F5F5F"/>
<path d="M7.80305 6.09598C7.8194 6.11249 8.03828 6.23857 8.05716 6.25049C8.06277 6.25125 8.06709 6.25517 8.07217 6.25734C8.07608 6.26102 8.07951 6.26479 8.08306 6.26888C8.10039 6.29444 8.10008 6.32141 8.09007 6.34963C8.08368 6.36462 8.07608 6.37897 8.06721 6.39247C8.04661 6.42515 8.00858 6.43541 7.97516 6.41767C7.96498 6.41227 7.95512 6.4063 7.94546 6.39982C7.93846 6.39522 7.93361 6.39645 7.9287 6.40331C7.9019 6.44061 7.87212 6.47545 7.8397 6.50739C7.83317 6.51383 7.8324 6.51942 7.83789 6.5269C7.84424 6.53528 7.85011 6.5441 7.8558 6.55298C7.87889 6.58907 7.87266 6.63068 7.84001 6.65742C7.82864 6.66669 7.81704 6.67573 7.80498 6.68401C7.77253 6.70618 7.7345 6.69995 7.70979 6.66853C7.70294 6.65976 7.69655 6.65056 7.6906 6.64105C7.68534 6.63274 7.68008 6.63087 7.67127 6.63616C7.63418 6.65838 7.59498 6.67592 7.55499 6.69147C7.54046 6.69715 7.54061 6.69738 7.54344 6.71338C7.54444 6.71894 7.54526 6.72461 7.54625 6.73017C7.55558 6.7771 7.54494 6.80253 7.50595 6.8266C7.4959 6.83249 7.48433 6.83157 7.47355 6.83455C7.4547 6.83931 7.43568 6.83892 7.41649 6.83794C7.41022 6.83468 7.40396 6.83115 7.39785 6.82758C7.37939 6.81141 7.37116 6.79008 7.36637 6.76565C7.3599 6.73251 7.36385 6.73791 7.33489 6.73932C7.29651 6.7412 7.25807 6.74105 7.2197 6.73879C7.20481 6.73791 7.20481 6.73786 7.20136 6.75239C7.19979 6.75917 7.19795 6.76587 7.19699 6.77273C7.19077 6.81613 7.15762 6.84869 7.10471 6.83809C7.09179 6.83549 7.07899 6.83195 7.06634 6.82801C7.03018 6.81683 7.00925 6.78013 7.01653 6.74108C7.0183 6.7312 7.02051 6.72132 7.02236 6.7114C7.02484 6.69792 7.02468 6.69718 7.0118 6.69212C6.98709 6.68232 6.96245 6.67232 6.93866 6.66025C6.92462 6.65313 6.91071 6.64565 6.89685 6.63811C6.88243 6.63029 6.88255 6.63017 6.87245 6.64442C6.86703 6.65202 6.86201 6.65987 6.8564 6.66719C6.83172 6.69975 6.79284 6.70657 6.75996 6.68381C6.74748 6.67512 6.73526 6.66584 6.72349 6.65604C6.69353 6.63099 6.68706 6.58983 6.70768 6.55586C6.71379 6.54575 6.72059 6.5361 6.72748 6.52656C6.73228 6.51993 6.73259 6.51459 6.72644 6.50851C6.69356 6.47609 6.66344 6.44078 6.63632 6.40288C6.63117 6.39568 6.62611 6.39573 6.61945 6.40013C6.61133 6.4055 6.60291 6.41039 6.59446 6.4153C6.5566 6.43701 6.51719 6.4263 6.49496 6.3873C6.48702 6.37331 6.47727 6.36048 6.47182 6.34481C6.45829 6.30596 6.46969 6.26999 6.50353 6.24834C6.51073 6.24374 6.51811 6.23949 6.52516 6.23489C6.53765 6.22686 6.53799 6.22663 6.53246 6.21252C6.52102 6.18333 6.51119 6.15345 6.50299 6.12308C6.49936 6.10977 6.49595 6.09626 6.49298 6.08273C6.49082 6.07284 6.48589 6.06901 6.47627 6.07116C6.46858 6.07266 6.46084 6.07373 6.45306 6.07438C6.40726 6.07947 6.37334 6.05059 6.36855 6.00251C6.36724 5.98922 6.36585 5.97608 6.36495 5.96286C6.36375 5.9437 6.36951 5.92478 6.38116 5.91002C6.3928 5.89525 6.40936 5.88574 6.42746 5.88345C6.43755 5.88214 6.44773 5.88131 6.45778 5.87965C6.47093 5.87739 6.47136 5.87708 6.47156 5.86263C6.47213 5.83107 6.47445 5.79955 6.4784 5.7682C6.48006 5.75445 6.48443 5.74105 6.48347 5.72695C6.48249 5.71729 6.47859 5.71132 6.47124 5.70829C6.4662 5.70675 6.46501 5.7061 6.45752 5.70412C6.44269 5.70032 6.42924 5.69358 6.41852 5.68213" fill="#414141"/>
<path d="M6.48392 5.73557C6.48562 5.72587 6.48168 5.71136 6.47224 5.70856C6.46416 5.70619 6.45124 5.7011 6.44319 5.69853C6.41125 5.68837 6.39117 5.66182 6.38769 5.62612C6.38363 5.61095 6.39631 5.56179 6.40209 5.54585C6.415 5.51077 6.44663 5.49032 6.48225 5.49598C6.48996 5.49717 6.49754 5.49923 6.5048 5.50211C6.51827 5.50763 6.52863 5.50329 6.53458 5.48981C6.54925 5.45664 6.57117 5.42377 6.5853 5.39035C6.59899 5.35807 6.58929 5.36075 6.59408 5.36186C6.60577 5.37247 6.77618 5.45978 6.8299 5.5054C6.79493 5.54528 6.71715 5.72584 6.71395 5.78625" fill="#414141"/>
<path d="M6.83206 5.50254C6.94086 5.37865 7.01872 5.32546 7.12613 5.29333C7.19146 5.27359 7.25969 5.26643 7.32746 5.27214C7.44148 5.28184 7.54444 5.32378 7.63514 5.39791C7.71508 5.46331 7.77333 5.54616 7.81305 5.6439C7.83735 5.70366 7.85019 5.76614 7.85618 5.83089C7.86477 5.92364 7.84594 6.02722 7.81573 6.11365C7.80961 6.11936 7.69834 6.0391 7.68642 6.02347C7.68371 6.01505 7.68708 6.00731 7.68912 5.99948C7.70007 5.95727 7.70716 5.91436 7.70588 5.87051C7.69987 5.65961 7.5635 5.48563 7.37488 5.44315C7.23567 5.41178 7.08807 5.44346 6.95292 5.58812C6.94952 5.59011 6.94849 5.58578 6.92555 5.56912C6.88703 5.54444 6.86808 5.52896 6.84173 5.51216C6.82665 5.50288 6.82741 5.5079 6.83206 5.50254Z" fill="#414141"/>
<path d="M7.81792 6.10757C7.81427 6.11366 7.81103 6.11994 7.80813 6.12645C7.77495 6.21069 7.7218 6.27985 7.65705 6.33843C7.57235 6.41511 7.4741 6.46292 7.36255 6.47829C7.33521 6.48208 7.30783 6.48622 7.28021 6.48529C7.20034 6.48262 7.12314 6.46714 7.04942 6.43332C7.00262 6.4117 6.95883 6.38354 6.91923 6.34957C6.85757 6.29704 6.80748 6.23391 6.77071 6.1591C6.7369 6.09018 6.71745 6.01727 6.7092 5.94046C6.70202 5.87434 6.70766 5.80944 6.7208 5.74469C6.73582 5.67087 6.76385 5.60283 6.803 5.53977C6.80858 5.53082 6.82478 5.51043 6.83003 5.50534C6.8585 5.52088 6.93613 5.5749 6.94858 5.58663C6.95644 5.59743 6.94192 5.61164 6.93744 5.61858C6.91358 5.65531 6.89393 5.69413 6.88128 5.73677C6.83723 5.88525 6.85742 6.02348 6.94618 6.14771C7.02022 6.25137 7.12089 6.30819 7.24401 6.32121C7.41941 6.3398 7.59942 6.23486 7.67349 6.04972C7.67758 6.03948 7.67654 6.02336 7.69321 6.02256C7.70393 6.0355 7.80534 6.10029 7.81792 6.10757Z" fill="#5F5F5F"/>
<path d="M7.69317 6.02256C7.6792 6.06029 7.66359 6.09706 7.64169 6.13066C7.57235 6.23697 7.4777 6.30295 7.35718 6.32569C7.23511 6.34868 7.12336 6.31998 7.024 6.24265C6.93663 6.17456 6.88085 6.08297 6.85935 5.97083C6.8339 5.83829 6.86063 5.7163 6.93511 5.60609C6.93791 5.60195 6.94053 5.59781 6.94331 5.59367C6.94614 5.59011 6.98316 5.54705 7.00117 5.53116C7.08104 5.46066 7.1724 5.42453 7.27683 5.42247C7.47251 5.41853 7.64899 5.55808 7.6999 5.76082C7.72029 5.84195 7.71975 5.92333 7.69758 6.00425C7.69592 6.01025 7.6946 6.01645 7.69317 6.02256Z" fill="#EDAE50"/>
<path d="M7.39825 5.87782C7.40154 5.94719 7.34109 6.00091 7.28374 6.00017C7.21825 5.99937 7.16453 5.94527 7.16515 5.87663C7.16569 5.80955 7.21547 5.75408 7.28454 5.75388C7.34209 5.75374 7.40143 5.80798 7.39825 5.87782Z" fill="#414141"/>
<path d="M7.40484 5.64711C7.41817 5.64569 7.42928 5.65068 7.43851 5.66108C7.44668 5.6703 7.45543 5.67897 7.46342 5.68841C7.48194 5.71021 7.47064 5.75015 7.44668 5.75799C7.43622 5.76144 7.42662 5.76164 7.41739 5.75526C7.39767 5.74164 7.38085 5.72436 7.36589 5.70541C7.35005 5.6853 7.3581 5.65951 7.3817 5.65076C7.38911 5.64791 7.39697 5.64665 7.40484 5.64711Z" fill="#FCD38C"/>
<path d="M4.26393 6.83092C4.2315 6.81292 4.21224 6.78499 4.20646 6.7466C4.20448 6.73354 4.20106 6.72074 4.19851 6.70772C4.19671 6.6986 4.19235 6.69554 4.18332 6.6963C4.12592 6.7014 4.06822 6.70206 4.01073 6.69823C4.00294 6.69772 3.99514 6.69726 3.98742 6.6963C3.98004 6.69543 3.97619 6.69864 3.97469 6.70611C3.97195 6.71971 3.96827 6.73311 3.96614 6.74683C3.95957 6.78913 3.93757 6.8182 3.90015 6.83457C3.87619 6.84142 3.85225 6.839 3.82833 6.83434C3.80616 6.83 3.78339 6.82797 3.7633 6.81572C3.75558 6.80974 3.7473 6.80457 3.7406 6.79713C3.71673 6.77055 3.70685 6.73951 3.71301 6.70332C3.71534 6.68964 3.71841 6.67615 3.72103 6.66252C3.72545 6.63922 3.72542 6.6391 3.70482 6.63145C3.6579 6.61386 3.61215 6.59306 3.56784 6.56915C3.55717 6.56344 3.54635 6.55778 3.53616 6.55126C3.52837 6.54621 3.5232 6.54727 3.51814 6.55506C3.51037 6.56701 3.50174 6.57838 3.49404 6.59046C3.46118 6.64187 3.39671 6.65692 3.34603 6.61574C3.33276 6.60494 3.31873 6.59514 3.30541 6.5844C3.25838 6.54655 3.24981 6.48622 3.28407 6.43507C3.29304 6.42166 3.30222 6.40836 3.3116 6.39522C3.31605 6.38902 3.31597 6.38396 3.31034 6.37887C3.30759 6.37642 3.30513 6.37362 3.30253 6.37102C3.25863 6.32703 3.21808 6.2795 3.18125 6.2288C3.17081 6.2144 3.17071 6.21448 3.15536 6.2238C3.14495 6.23008 3.13461 6.23643 3.1242 6.24276C3.06953 6.2757 3.0152 6.26122 2.98141 6.2048C2.97678 6.19758 2.97503 6.19495 2.97019 6.18629C2.96421 6.17407 2.95701 6.16264 2.9516 6.15004C2.92856 6.09626 2.94461 6.04121 2.99287 6.01082C3.00417 6.0037 3.01568 5.99685 3.0271 5.98976C3.04232 5.98029 3.04248 5.98017 3.03594 5.96366C3.01491 5.91056 2.99756 5.85597 2.98403 5.80027C2.98179 5.79108 2.97933 5.78196 2.97753 5.7727C2.97573 5.76342 2.97061 5.76039 2.96202 5.76154C2.94597 5.76368 2.92988 5.76619 2.91373 5.76714C2.87228 5.76967 2.84029 5.75231 2.81864 5.71484C2.80964 5.69941 2.80626 5.68213 2.80473 5.66427C2.80362 5.65099 2.80113 5.63907 2.80028 5.62477C2.79678 5.57092 2.82606 5.50326 2.8904 5.49843C2.90414 5.4974 2.91782 5.49522 2.93155 5.4936C2.94741 5.49174 2.94797 5.49157 2.94833 5.47568C2.94936 5.42893 2.95297 5.38228 2.95914 5.33595C2.96166 5.31718 2.96454 5.2985 2.96768 5.27984C2.97069 5.26202 2.97071 5.26165 2.95386 5.25582C2.94124 5.25148 2.92862 5.24743 2.9162 5.24298C2.86225 5.2238 2.83439 5.16967 2.84952 5.11208C2.85512 5.09078 2.86197 5.06982 2.86935 5.04913C2.88825 4.99577 2.94001 4.96888 2.9919 4.985C3.00745 4.98983 3.02301 4.99466 3.03811 5.00074C3.04777 5.00454 3.05207 5.00137 3.05613 4.9924C3.0657 4.97129 3.07611 4.95061 3.08619 4.92981C3.08979 4.92264 3.09309 4.9169 3.09637 4.9103C3.10718 4.88942 3.11865 4.86885 3.13242 4.84981C3.14479 4.83843 5.22811 6.12913 5.22227 6.14399C5.21824 6.15162 5.21503 6.15893 5.2112 6.16629C5.20386 6.18004 5.19689 6.19403 5.18908 6.20746C5.15936 6.25842 5.10525 6.2739 5.05475 6.24613C5.0415 6.23885 5.02875 6.23042 5.01572 6.2226C5.00216 6.21448 5.00201 6.2144 4.9928 6.22694C4.97223 6.25494 4.95073 6.2821 4.92828 6.30841C4.90818 6.33189 4.88693 6.35416 4.86529 6.37608C4.85534 6.38616 4.85538 6.38645 4.86303 6.39787C4.87166 6.41078 4.88079 6.42335 4.88935 6.43629C4.92255 6.4866 4.91365 6.54716 4.86752 6.58417C4.85274 6.59605 4.83772 6.60757 4.82245 6.61876C4.77454 6.65373 4.71761 6.64421 4.68217 6.59525C4.67315 6.58268 4.66459 6.56966 4.65559 6.55701C4.64744 6.54564 4.64713 6.54544 4.6352 6.5523C4.58626 6.58054 4.53548 6.60502 4.48322 6.62554C4.4759 6.62842 4.46852 6.6311 4.46124 6.63402C4.44807 6.6393 4.44782 6.6395 4.45044 6.6549C4.45277 6.66858 4.45471 6.68244 4.45844 6.69569C4.47235 6.74534 4.44329 6.80529 4.3788 6.82637C4.35092 6.83552 4.29052 6.84214 4.26393 6.83092Z" fill="#414141"/>
<path d="M5.21822 6.14767C5.17448 6.12093 4.78504 5.86817 4.75776 5.85231C4.74297 5.84441 4.74778 5.84346 4.75676 5.82572C4.78861 5.75403 4.81004 5.67769 4.82034 5.59931C4.82777 5.54219 4.82737 5.48483 4.82291 5.4273C4.81872 5.37312 4.80905 5.31953 4.79407 5.26751C4.77498 5.20118 4.74737 5.13917 4.71327 5.07986C4.67522 5.01371 4.62675 4.95723 4.57321 4.90517C4.53204 4.86514 4.48552 4.83261 4.43638 4.80438C4.36256 4.76162 4.28225 4.73281 4.19903 4.71918C4.14676 4.71063 4.094 4.70641 4.04125 4.71006C3.92899 4.71783 3.82271 4.74894 3.72386 4.80618C3.64587 4.85252 3.57608 4.91268 3.51755 4.98405C3.50262 5.00228 3.48138 5.03853 3.46675 5.05691C3.45836 5.06744 3.31861 4.97195 3.1285 4.85346C3.13552 4.84046 3.14228 4.82981 3.14977 4.81847C3.15444 4.81139 3.15406 4.80599 3.14797 4.80039C3.13631 4.78947 3.12469 4.77851 3.11323 4.76737C3.07684 4.73178 3.06833 4.68458 3.09113 4.63823C3.09633 4.62762 3.10574 4.60267 3.12009 4.58455C3.12703 4.57578 3.13467 4.56778 3.14216 4.55961C3.17887 4.51962 3.2502 4.51893 3.28849 4.55579C3.33485 4.60034 3.32876 4.59 3.36779 4.55842C3.40115 4.53153 3.43491 4.50529 3.47021 4.48115C3.48919 4.46821 3.49041 4.46192 3.48081 4.44021C3.47011 4.41597 3.46047 4.39161 3.46253 4.36394C3.4651 4.32975 3.47827 4.30051 3.50478 4.28153C3.54263 4.25445 3.58282 4.23216 3.63111 4.23354C3.67099 4.23471 3.69892 4.25561 3.71918 4.28983C3.72639 4.30213 3.73201 4.31557 3.73783 4.32874C3.74325 4.34109 3.752 4.34512 3.76428 4.34172C3.81599 4.32746 3.86837 4.31665 3.92107 4.30766C3.94023 4.30441 3.9441 4.29848 3.94483 4.27844C3.94518 4.27147 3.94518 4.2645 3.94483 4.25754C3.94074 4.19382 3.98759 4.14033 4.04298 4.13663C4.07352 4.13459 4.1041 4.13215 4.13441 4.13853C4.17898 4.14802 4.22285 4.19104 4.21843 4.25008C4.21783 4.25825 4.21827 4.26651 4.21843 4.27477C4.21883 4.29902 4.22316 4.30498 4.24592 4.30842C4.29524 4.31568 4.34409 4.32619 4.39217 4.33985C4.41763 4.34718 4.42157 4.34453 4.43216 4.31946C4.44047 4.29983 4.4488 4.28016 4.46348 4.2644C4.49315 4.23265 4.53006 4.22753 4.56853 4.23648C4.59899 4.24358 4.62761 4.25815 4.65384 4.27615C4.69656 4.3055 4.71214 4.35823 4.69475 4.40953C4.69113 4.42021 4.68678 4.43065 4.68223 4.44098C4.67321 4.46124 4.67475 4.46863 4.69267 4.48058C4.7303 4.50545 4.76653 4.53253 4.80121 4.56179C4.83917 4.59409 4.8324 4.59895 4.8743 4.55904C4.91099 4.52402 4.96766 4.51985 5.00112 4.54382C5.03504 4.56807 5.06455 4.59866 5.08413 4.63688C5.10156 4.67094 5.09922 4.73354 5.06451 4.76503C5.05409 4.77453 5.04486 4.78542 5.03519 4.79579C5.02681 4.80484 5.02567 4.81467 5.03231 4.82495C5.06334 4.87311 5.09111 4.92348 5.11541 4.97569C5.12138 4.98854 5.13162 4.99179 5.14424 4.98757C5.15908 4.98255 5.17425 4.97852 5.1896 4.97563C5.23067 4.96803 5.2759 4.98703 5.29698 5.025C5.31743 5.06178 5.33005 5.10215 5.33132 5.14533C5.33271 5.19281 5.31025 5.22563 5.27183 5.24751C5.25906 5.25459 5.24561 5.26019 5.23172 5.26425C5.21702 5.26865 5.21072 5.27808 5.2137 5.29387C5.22406 5.35044 5.22751 5.40779 5.23092 5.46518C5.2318 5.4804 5.23875 5.48877 5.25327 5.4892C5.2641 5.48954 5.27474 5.49165 5.28541 5.49314C5.34052 5.50074 5.37819 5.5459 5.37839 5.60463C5.3785 5.616 5.37796 5.62734 5.37688 5.63868C5.37506 5.6565 5.36899 5.68209 5.36423 5.6988C5.35047 5.7474 5.30385 5.77404 5.25585 5.77082C5.24031 5.76979 5.22485 5.76717 5.20928 5.76553C5.19501 5.76408 5.19428 5.76427 5.19076 5.77916C5.18009 5.82395 5.16844 5.86843 5.15317 5.91176C5.14609 5.9319 5.13877 5.95195 5.13074 5.97171C5.12714 5.98045 5.12864 5.98585 5.13633 5.9904C5.1515 5.99945 5.16679 6.00825 5.1814 6.01825C5.22043 6.04484 5.23651 6.0932 5.22233 6.13936C5.22116 6.14222 5.21981 6.14502 5.21822 6.14767Z" fill="#666059"/>
<path d="M3.62974 5.14974C3.64775 5.12698 3.66485 5.10331 3.68459 5.08196C3.77768 4.98118 3.89016 4.92202 4.02297 4.90628C4.14043 4.89234 4.25186 4.91387 4.35479 4.97489C4.51324 5.06882 4.60776 5.21199 4.63757 5.40071C4.65488 5.51031 4.64176 5.61735 4.60044 5.72009C4.59812 5.72589 4.59645 5.73197 4.59449 5.73795C4.59899 5.74783 4.59462 5.75634 4.59069 5.76491C4.57064 5.80859 4.54428 5.84775 4.51376 5.8836C4.42602 5.98669 4.31861 6.05504 4.18828 6.07867C4.01526 6.11005 3.85915 6.06787 3.72345 5.95003C3.61339 5.85441 3.54707 5.73063 3.5257 5.58221C3.50909 5.46672 3.52291 5.35415 3.56834 5.24666C3.57935 5.22061 3.59272 5.19598 3.60619 5.17127C3.61169 5.16096 3.61885 5.15331 3.62974 5.14974Z" fill="#EDAE50"/>
<path d="M3.73034 5.49012C3.72736 5.27723 3.90023 5.115 4.08358 5.114C4.26342 5.11303 4.44288 5.26391 4.44319 5.492C4.4435 5.70373 4.28035 5.86468 4.08995 5.86674C3.8825 5.869 3.72653 5.68867 3.73034 5.49012Z" fill="#45423D"/>
<path d="M4.43702 5.14293C4.44 5.1744 4.4026 5.19904 4.37659 5.18089C4.35895 5.16854 4.3423 5.15599 4.32832 5.13956C4.30819 5.11596 4.31278 5.09143 4.33945 5.076C4.3592 5.06457 4.37761 5.06376 4.39585 5.08014C4.40868 5.09166 4.42112 5.10325 4.43033 5.11825C4.435 5.12555 4.43735 5.13419 4.43702 5.14293Z" fill="#FCD38C"/>
<path d="M3.80194 5.49265C3.79752 5.33887 3.91583 5.18885 4.08753 5.18955C4.24793 5.19019 4.37314 5.32573 4.37152 5.49522C4.36995 5.66233 4.23845 5.79334 4.08215 5.79131C3.9201 5.78921 3.79755 5.64551 3.80194 5.49265Z" fill="#EDAE50"/>
<path d="M4.0859 5.61317C4.02202 5.61317 3.96875 5.55721 3.96923 5.48978C3.96964 5.42331 4.01851 5.36769 4.08665 5.36695C4.14878 5.36631 4.20305 5.42039 4.2027 5.49081C4.20239 5.55942 4.15121 5.61326 4.0859 5.61317Z" fill="#414141"/>
<path d="M4.22082 5.28659C4.22755 5.28659 4.23411 5.28736 4.23982 5.2913C4.26464 5.30865 4.27793 5.3328 4.27704 5.36449C4.27657 5.38081 4.25438 5.39792 4.23926 5.39431C4.21367 5.3882 4.19282 5.37485 4.17858 5.35083C4.16626 5.33007 4.1687 5.31269 4.18716 5.29798C4.19714 5.29012 4.20855 5.2869 4.22082 5.28659Z" fill="#FCD38C"/>
<path d="M3.62977 5.14969C3.61116 5.18073 3.59316 5.21199 3.57878 5.24555C3.55461 5.30213 3.53893 5.36235 3.53226 5.42403C3.52342 5.50175 3.52952 5.58061 3.55021 5.65585C3.57091 5.73109 3.60576 5.80111 3.65271 5.86187C3.72407 5.95416 3.81401 6.01776 3.92176 6.05322C3.9842 6.07376 4.04851 6.08324 4.11364 6.07867C4.28404 6.06684 4.42298 5.9904 4.52918 5.84892C4.55147 5.81908 4.57069 5.78686 4.58655 5.75277C4.58892 5.74772 4.59185 5.74292 4.59454 5.73798C4.60934 5.74529 4.72459 5.82372 4.74425 5.83821C4.75205 5.8439 4.74852 5.85149 4.7448 5.85846C4.72456 5.89654 4.70317 5.93385 4.67742 5.96818C4.62113 6.04319 4.55548 6.10718 4.47781 6.15731C4.40244 6.20604 4.31963 6.24064 4.23306 6.2596C4.16609 6.27448 4.09824 6.27669 4.03061 6.27225C3.94064 6.26643 3.85442 6.2424 3.77234 6.2023C3.71612 6.17513 3.66343 6.14051 3.61555 6.09924C3.52138 6.01749 3.44833 5.91873 3.40107 5.79947C3.37088 5.72289 3.35198 5.64189 3.34507 5.5593C3.33426 5.43614 3.3528 5.31761 3.39395 5.20236C3.40904 5.16015 3.42894 5.12058 3.45021 5.08165C3.45229 5.07787 3.45464 5.07407 3.45705 5.07051C3.46998 5.05116 3.47243 5.05054 3.49164 5.06208C3.5239 5.08147 3.58595 5.12204 3.61754 5.14234C3.62177 5.14452 3.62586 5.14697 3.62977 5.14969Z" fill="#666059"/>
<path d="M4.63153 5.61548C4.64783 5.53908 4.64935 5.45998 4.63601 5.38294C4.62268 5.3059 4.59475 5.23246 4.5539 5.16702C4.48563 5.07427 4.39987 4.99612 4.30468 4.94789C4.24527 4.92093 4.18161 4.9059 4.11696 4.9036C3.9463 4.8972 3.8 4.95675 3.6808 5.08623C3.66207 5.10695 3.64446 5.12879 3.6281 5.15162C3.61407 5.14282 3.48498 5.07338 3.46682 5.05687C3.45962 5.05033 3.51591 4.98314 3.54482 4.95175C3.60805 4.88311 3.67951 4.82641 3.76162 4.78488C3.83847 4.74312 3.92632 4.71926 4.01495 4.70933C4.08291 4.70159 4.15155 4.70352 4.21902 4.71504C4.30796 4.73044 4.38997 4.76691 4.46773 4.81564C4.52106 4.84871 4.57017 4.88877 4.61383 4.93493C4.69964 5.02634 4.76278 5.13239 4.79837 5.25608C4.82104 5.33551 4.83202 5.41813 4.83094 5.50105C4.82976 5.62474 4.80029 5.73837 4.75748 5.82989C4.74901 5.84806 4.7567 5.8476 4.7321 5.82989C4.70188 5.80713 4.62646 5.75956 4.59463 5.73803C4.59265 5.73642 4.61864 5.67642 4.63153 5.61548Z" fill="#45423D"/>
<path d="M3.83913 2.39163C3.826 2.34766 3.81594 2.30281 3.80488 2.25825C3.80197 2.24652 3.80524 2.24336 3.81712 2.24033C4.47433 2.07195 5.27351 2.2006 5.684 2.33159C5.74906 2.35619 5.81237 2.38476 5.87093 2.42385C5.89635 2.44084 5.92043 2.45954 5.93943 2.48461C5.94469 2.49148 5.94945 2.49878 5.95362 2.50645C5.96357 2.52508 5.96578 2.54386 5.95645 2.56423C5.93483 2.61149 5.91132 2.6577 5.88591 2.70283C5.86946 2.73222 5.85261 2.76134 5.83593 2.79059C5.82808 2.8048 5.81929 2.81838 5.80959 2.83126C5.80111 2.83959 5.79157 2.83558 5.78244 2.83342C5.74222 2.82393 5.70164 2.8165 5.66168 2.80614C5.65875 2.80537 5.65572 2.80666 5.65274 2.80678C5.6109 2.79249 5.56673 2.79087 5.52422 2.7802C5.51866 2.7788 5.51381 2.78235 5.50848 2.7814C5.43867 2.7671 5.36788 2.75988 5.2976 2.7497C5.27289 2.74612 5.24736 2.74801 5.22342 2.7387C5.21426 2.72851 5.21259 2.71517 5.2095 2.70233C5.19178 2.6265 5.16877 2.5529 5.12662 2.48754C5.12019 2.47761 5.11322 2.46813 5.1059 2.4589C5.08396 2.43117 5.05778 2.41467 5.02222 2.40975C4.92947 2.3969 4.83659 2.38579 4.74343 2.37748C4.58842 2.36355 4.43324 2.36118 4.27797 2.3635C4.20134 2.36462 4.12477 2.36998 4.04829 2.37694C3.98494 2.38263 3.92176 2.38939 3.85876 2.39819C3.85096 2.39898 3.84422 2.39849 3.83913 2.39163Z" fill="#EDAE50"/>
<path d="M6.01837 3.71561C5.97474 3.71528 5.93107 3.71433 5.88744 3.71499C5.87351 3.71517 5.87042 3.70664 5.86739 3.69611C5.85556 3.69231 5.85591 3.68092 5.85409 3.67143C5.83999 3.59835 5.82671 3.52506 5.81135 3.45224C5.77357 3.2732 5.73113 3.09545 5.67954 2.92021C5.67065 2.89002 5.6611 2.86005 5.65239 2.82978C5.64976 2.82059 5.64469 2.81054 5.65324 2.80131C5.65642 2.79751 5.66062 2.79751 5.66476 2.79828C5.71335 2.80779 5.76185 2.81728 5.80958 2.83099C5.8409 2.92387 5.86725 3.01837 5.89158 3.11351C5.9246 3.24282 5.95296 3.37332 5.97937 3.50427C5.98924 3.55319 6.01825 3.7144 6.01837 3.71561Z" fill="#45423D"/>
<path d="M3.83925 2.39165C3.89666 2.38132 3.9546 2.37532 4.01251 2.36985C4.05427 2.36591 4.09625 2.36337 4.1381 2.36036C4.25443 2.35185 4.37086 2.35201 4.48724 2.35409C4.57179 2.3556 4.65626 2.36031 4.74066 2.36738C4.79687 2.37209 4.853 2.37751 4.90899 2.38425C4.95604 2.38994 5.00271 2.39816 5.04977 2.40462C5.06499 2.40668 5.07644 2.41454 5.08731 2.42501C5.12478 2.46108 5.15124 2.50521 5.17201 2.55337C5.19677 2.61059 5.21373 2.67043 5.22499 2.73212C5.22237 2.74078 5.21568 2.7409 5.20891 2.74047C5.17901 2.73857 5.14903 2.73635 5.11925 2.73342C5.09297 2.73086 5.06659 2.72962 5.04035 2.72807C4.99852 2.72563 4.95663 2.72085 4.91457 2.7233C4.89836 2.72427 4.88237 2.71997 4.86619 2.71969C4.84428 2.71936 4.83747 2.72435 4.82986 2.74574C4.78506 2.87195 4.74816 3.00077 4.71574 3.13105C4.66563 3.33233 4.62743 3.53623 4.59529 3.74142C4.58668 3.79627 4.57966 3.85136 4.57199 3.90636C4.57041 3.91756 4.56927 3.92903 4.56251 3.93865C4.55723 3.94423 4.5505 3.9446 4.54405 3.94284C4.51393 3.93464 4.484 3.92549 4.45394 3.91706C4.45158 3.91649 4.44941 3.91535 4.44757 3.91369C4.44574 3.91202 4.44433 3.90993 4.44345 3.90757C4.43861 3.89383 4.44165 3.87989 4.4436 3.86637C4.47423 3.6444 4.51173 3.42383 4.56107 3.20561C4.59596 3.05126 4.63572 2.89849 4.68665 2.74908C4.69437 2.7265 4.69003 2.71992 4.66752 2.71966C4.57822 2.71861 4.48909 2.72188 4.39984 2.72638C4.35499 2.72866 4.31017 2.73059 4.26543 2.73455C4.26245 2.73455 4.25944 2.73466 4.25643 2.73468C4.20973 2.735 4.20865 2.73608 4.19392 2.78185C4.10822 3.04802 4.04832 3.32087 4.00204 3.59735C3.9882 3.68004 3.97605 3.763 3.96373 3.84593C3.96262 3.85352 3.96182 3.861 3.95729 3.86737C3.95297 3.87472 3.94581 3.8757 3.93865 3.87686C3.90142 3.88255 3.86396 3.88653 3.8269 3.89345C3.81855 3.89504 3.80831 3.8969 3.80663 3.88275C3.81284 3.83904 3.81906 3.79534 3.8253 3.75163C3.84145 3.63793 3.85974 3.52463 3.88016 3.41174C3.90695 3.26383 3.93758 3.11708 3.97543 2.9721C3.99345 2.90332 4.01207 2.83469 4.03473 2.7674C4.04265 2.74382 4.04262 2.74382 4.02549 2.72754C3.98414 2.68811 3.94293 2.64851 3.90137 2.60932C3.89373 2.60226 3.88839 2.59285 3.88607 2.58243C3.872 2.52496 3.85724 2.46767 3.84271 2.41032C3.8402 2.40446 3.83899 2.39808 3.83925 2.39165Z" fill="#45423D"/>
<path d="M3.83927 2.39153C3.84145 2.39755 3.84393 2.40349 3.84267 2.41022C3.83909 2.40454 3.83456 2.39896 3.83927 2.39153Z" fill="#A9A9A9"/>
<path d="M4.79325 4.04189C4.7242 4.00281 4.65179 3.97201 4.57774 3.94534C4.571 3.9429 4.56392 3.9411 4.55878 3.93528C4.5664 3.87962 4.57344 3.82387 4.58173 3.76833C4.60096 3.63975 4.62341 3.5118 4.64909 3.38451C4.6882 3.19155 4.73498 3.00081 4.79649 2.81432C4.80634 2.78447 4.81654 2.75475 4.82678 2.72507C4.83195 2.71005 4.83218 2.71 4.84745 2.71046C4.93262 2.71299 5.01778 2.71643 5.10283 2.72204C5.14353 2.72473 5.1841 2.72867 5.22474 2.73206C5.2919 2.73887 5.35881 2.74757 5.42561 2.75754C5.454 2.76179 5.48239 2.7657 5.51058 2.77123C5.52678 2.77806 5.53685 2.79111 5.54663 2.8061C5.58384 2.8632 5.61346 2.92485 5.63814 2.98839C5.66394 3.05485 5.68754 3.12263 5.70346 3.19286C5.70973 3.22051 5.71866 3.24745 5.72509 3.275C5.7462 3.36567 5.76957 3.45574 5.78662 3.54746C5.79536 3.59449 5.80465 3.64148 5.81614 3.68796C5.81923 3.70033 5.82429 3.71432 5.80917 3.72322C5.80755 3.72512 5.80624 3.72749 5.80423 3.72862C5.77749 3.74353 5.75944 3.76778 5.74187 3.79252C5.71251 3.83382 5.68347 3.87535 5.65431 3.9168C5.64611 3.9206 5.6393 3.91744 5.63261 3.91237C5.59749 3.88587 5.56202 3.85982 5.52624 3.83425C5.50806 3.82119 5.50667 3.81466 5.51886 3.79542C5.53619 3.76807 5.55478 3.74168 5.57265 3.71473C5.57954 3.70437 5.58689 3.69429 5.5925 3.68308C5.6026 3.66277 5.59888 3.6425 5.58337 3.63037C5.56782 3.61825 5.54845 3.6207 5.53356 3.63831C5.51476 3.66053 5.49995 3.68599 5.4839 3.71046C5.43292 3.78784 5.38187 3.86516 5.33068 3.94243C5.32589 3.94968 5.32098 3.95694 5.31774 3.96522C5.31023 3.98401 5.31545 4.00338 5.33062 4.01381C5.34628 4.02459 5.36434 4.02246 5.37761 4.00644C5.39617 3.98404 5.41091 3.95851 5.42708 3.93428C5.43736 3.91873 5.44765 3.90317 5.45829 3.88787C5.46568 3.87725 5.47388 3.87566 5.48455 3.88288C5.52343 3.90923 5.56056 3.93822 5.59849 3.96597C5.60484 3.97062 5.61111 3.97614 5.61088 3.98566C5.599 4.00603 5.58717 4.02645 5.5752 4.04675C5.56922 4.05694 5.5628 4.06686 5.55688 4.07713C5.5322 4.1196 5.53143 4.16352 5.5527 4.20711C5.60998 4.32452 5.66947 4.44065 5.73665 4.55222C5.74501 4.56613 5.75398 4.57953 5.76237 4.59332C5.78605 4.63217 5.82139 4.64777 5.86301 4.64911C5.90313 4.65033 5.94316 4.64569 5.98312 4.64202C5.98218 4.81778 5.93445 4.97857 5.84507 5.12655C5.83254 5.14725 5.81901 5.1561 5.79459 5.15537C5.72989 5.1533 5.66511 5.15499 5.60036 5.15517C5.58728 5.15325 5.58774 5.14108 5.58592 5.13192C5.57826 5.09423 5.56817 5.05725 5.5575 5.0204C5.51654 4.8782 5.45717 4.74261 5.38105 4.61754C5.35646 4.57707 5.32898 4.53888 5.30322 4.49938C5.27928 4.46644 5.25345 4.4351 5.22681 4.40468C5.1793 4.3505 5.13003 4.29816 5.0761 4.25088C4.99811 4.18291 4.91456 4.12233 4.82644 4.06983C4.81423 4.06211 4.7996 4.0573 4.79325 4.04189Z" fill="#B9E1E1"/>
<path d="M5.80547 3.72767C5.81046 3.71627 5.81003 3.70056 5.80745 3.68982C5.78467 3.59631 5.62391 2.94436 5.53303 2.80089C5.522 2.78349 5.51941 2.77889 5.51074 2.77127C5.55345 2.77477 5.59529 2.78426 5.63761 2.79048C5.64087 2.79089 5.64396 2.79207 5.64671 2.79398C5.64941 2.79586 5.65165 2.79841 5.65327 2.80141C5.71005 2.98306 5.75875 3.16709 5.7994 3.35347C5.8243 3.46705 5.84988 3.58909 5.87019 3.7037L5.8705 3.70445C5.87459 3.71244 5.87564 3.71023 5.85184 3.71337C5.83712 3.71537 5.81727 3.72229 5.80547 3.72767Z" fill="#DCF9FB"/>
<path d="M4.44754 3.90527C4.41057 3.89767 4.37364 3.88938 4.33659 3.8827C4.29238 3.87481 4.2478 3.86936 4.20305 3.86639C4.1607 3.86347 4.11871 3.86259 4.07628 3.86249C4.05244 3.86249 4.02829 3.86495 4.0043 3.86308C3.99448 3.85515 3.99625 3.84438 3.99767 3.83358C4.01801 3.67897 4.04167 3.52504 4.07252 3.37219C4.09415 3.26452 4.1185 3.15763 4.14846 3.05228C4.17708 2.95164 4.21043 2.85277 4.26211 2.76215C4.26988 2.74852 4.27111 2.73725 4.26287 2.72447C4.26857 2.72205 4.27462 2.72208 4.2806 2.72178C4.41659 2.71529 4.55258 2.70825 4.68877 2.70956C4.69465 2.70956 4.70075 2.7081 4.70648 2.71118C4.70875 2.71799 4.70494 2.72355 4.70297 2.72923C4.64292 2.90201 4.59754 3.07943 4.55847 3.25866C4.52531 3.41071 4.49781 3.56391 4.47408 3.71787C4.46452 3.78027 4.45641 3.84282 4.44754 3.90527Z" fill="#B9E1E1"/>
<path d="M4.27466 2.72216C4.29901 2.71917 4.29671 2.72057 4.28211 2.74685C4.24269 2.81779 4.20949 2.89072 4.18414 2.96768C4.16943 3.01227 4.15518 3.05729 4.14416 3.1033C4.13214 3.15351 4.11795 3.20312 4.10681 3.25359C4.0955 3.30466 4.08596 3.35612 4.07552 3.40739C4.0648 3.45988 4.05389 3.51233 4.04574 3.56533C4.03312 3.64761 4.02095 3.72993 4.0092 3.81232C4.00681 3.82909 4.00378 3.84597 4.00427 3.86313C3.9982 3.86601 3.9566 3.87053 3.95343 3.86313C3.95616 3.82275 3.96336 3.78298 3.96929 3.74307C3.98395 3.6445 4.00044 3.54623 4.01874 3.4483C4.06143 3.22197 4.11404 2.9983 4.18455 2.77971C4.189 2.76597 4.19427 2.75248 4.19821 2.73859C4.20052 2.73044 4.20512 2.72743 4.21248 2.7272C4.22937 2.7263 4.27167 2.72203 4.27466 2.72216Z" fill="#DCF9FB"/>
<path d="M6.52311 5.50625C6.48114 5.50283 6.43442 5.46809 6.40104 5.55788C6.36785 5.64688 6.41663 5.68116 6.40928 5.67819C6.40565 5.67768 6.402 5.67756 6.39834 5.67784C6.37088 5.67819 6.34249 5.67339 6.31506 5.67336C6.30536 5.66865 6.30763 5.66028 6.30925 5.65217C6.32306 5.58218 6.34422 5.51406 6.37233 5.44901C6.40954 5.36369 6.45507 5.28382 6.51213 5.2113C6.59146 5.11055 6.68436 5.02711 6.79242 4.96229C6.90486 4.89478 7.02557 4.85307 7.15349 4.83487C7.21526 4.8261 7.27757 4.82284 7.34003 4.82744C7.36369 4.82919 7.38223 4.81901 7.39495 4.79843C7.40017 4.79005 7.40589 4.78368 7.4148 4.78035C7.42509 4.78023 7.43445 4.78483 7.44427 4.78714C7.46588 4.79227 7.46813 4.79142 7.4776 4.77081C7.49292 4.73752 7.50882 4.70453 7.52862 4.67377C7.53347 4.67048 7.53752 4.666 7.54045 4.66074C7.56609 4.61938 7.5989 4.58516 7.63746 4.55708C7.63855 4.55654 7.63978 4.55631 7.64094 4.55648C7.6549 4.55648 7.65855 4.5677 7.6619 4.57865C7.67668 4.62681 7.69327 4.67411 7.71381 4.71998C7.74781 4.79591 7.78979 4.86617 7.84369 4.92816C7.85171 4.93742 7.86187 4.94567 7.85715 4.96072C7.82911 5.01263 7.80103 5.06453 7.77295 5.11641C7.76881 5.12403 7.76429 5.13143 7.75992 5.13894C7.7521 5.152 7.74328 5.16437 7.73358 5.17594C7.73106 5.17399 7.72839 5.1723 7.72557 5.17085C7.72395 5.17005 7.72089 5.16717 7.71931 5.16625C7.68992 5.14943 7.69409 5.14831 7.70875 5.1169C7.71792 5.0971 7.72271 5.07702 7.7169 5.05468C7.71459 5.04545 7.71052 5.03683 7.70492 5.02937C7.69931 5.02189 7.69231 5.01572 7.68434 5.01125C7.66554 5.00049 7.64601 4.99032 7.62455 4.98561C7.59442 4.97903 7.56294 4.99374 7.54842 5.02243C7.54363 5.03194 7.54027 5.04213 7.53582 5.05177C7.52944 5.06591 7.52576 5.06787 7.51183 5.0637C7.47487 5.05259 7.43754 5.04351 7.39925 5.03902C7.39565 5.03856 7.39225 5.03711 7.38868 5.03676C7.37847 5.0355 7.37415 5.02917 7.37426 5.0188C7.37426 5.00868 7.37361 4.99852 7.37426 4.98841C7.37662 4.95013 7.35348 4.92428 7.31992 4.91731C7.2957 4.91225 7.27071 4.9126 7.24666 4.91831C7.21588 4.92559 7.19765 4.94539 7.19336 4.97907C7.19163 4.99152 7.19061 5.00412 7.1903 5.01672C7.19016 5.03316 7.18908 5.03454 7.17333 5.0378C7.15391 5.04182 7.13434 5.04485 7.11488 5.04871C7.09485 5.05277 7.07504 5.05779 7.05543 5.06381C7.04267 5.06771 7.03969 5.06614 7.03436 5.05362C7.02948 5.04208 7.02488 5.03043 7.01857 5.01963C7.00194 4.99113 6.97185 4.97799 6.94107 4.98635C6.91895 4.99243 6.8979 5.0022 6.87876 5.01534C6.85082 5.03434 6.84061 5.07021 6.85246 5.10399C6.85598 5.11403 6.86112 5.12341 6.86526 5.13326C6.87044 5.14563 6.86997 5.14859 6.85969 5.15522C6.82328 5.1787 6.78961 5.20609 6.75611 5.23378C6.74633 5.24191 6.74361 5.24198 6.73448 5.23309C6.72633 5.2247 6.71766 5.21686 6.70861 5.20961C6.68285 5.18999 6.64765 5.18976 6.62343 5.2113C6.60658 5.22632 6.59061 5.24267 6.57857 5.26275C6.56035 5.29313 6.56457 5.32922 6.5894 5.35389C6.59943 5.36389 6.60046 5.36466 6.61679 5.37641C6.59172 5.4028 6.54271 5.47418 6.52836 5.50226" fill="#414141"/>
<path d="M6.18762 5.66979C6.08679 5.66968 5.98595 5.66956 5.88512 5.66945C5.72484 5.66945 5.56461 5.66945 5.40432 5.66945C5.36734 5.66945 5.36672 5.66822 5.37187 5.63003C5.37546 5.60218 5.37613 5.57441 5.36127 5.54908C5.3453 5.52176 5.3227 5.50426 5.29238 5.49935C5.27757 5.49683 5.26265 5.49521 5.24767 5.49457C5.22964 5.49403 5.22635 5.48932 5.2257 5.47015C5.22354 5.40825 5.21874 5.34672 5.20745 5.28574C5.20295 5.2616 5.2042 5.25957 5.22717 5.25291C5.24574 5.24749 5.26384 5.2408 5.28039 5.2303C5.32162 5.20418 5.3337 5.15954 5.32383 5.11369C5.3193 5.09278 5.31246 5.07239 5.3058 5.05208C5.28852 4.9994 5.24272 4.97201 5.19081 4.98224C5.17302 4.98577 5.15597 4.99175 5.13882 4.99746C5.12475 5.0022 5.12297 5.00171 5.11644 4.9873C5.08918 4.92673 5.05701 4.86872 5.02029 4.81396C5.01338 4.80376 5.01374 4.80054 5.02425 4.79222C5.03868 4.78069 5.05035 4.76611 5.06371 4.75346C5.09589 4.72307 5.09531 4.65914 5.07607 4.6286C5.05794 4.59987 5.03496 4.57544 5.00996 4.55399C4.97851 4.52686 4.92336 4.52589 4.88839 4.55899C4.87635 4.57042 4.8627 4.57992 4.85205 4.5929C4.84567 4.60072 4.83976 4.60087 4.83222 4.59416C4.8144 4.57822 4.7964 4.56248 4.77791 4.54742C4.74891 4.52383 4.71843 4.5026 4.6875 4.48187C4.66069 4.4639 4.66194 4.46793 4.67557 4.4382C4.68125 4.42635 4.68625 4.41416 4.69053 4.40166C4.70612 4.35304 4.69198 4.29976 4.64225 4.27317C4.62082 4.26178 4.59927 4.25003 4.57614 4.2434C4.54371 4.23409 4.51205 4.23581 4.48353 4.25812C4.47196 4.2673 4.46268 4.27929 4.45649 4.29307C4.44882 4.30951 4.44208 4.32643 4.43473 4.34303C4.42917 4.35554 4.42794 4.35633 4.41537 4.35216C4.36718 4.33622 4.31791 4.32532 4.26807 4.31698C4.25623 4.31508 4.24435 4.31318 4.23249 4.3114C4.21531 4.30878 4.21398 4.30737 4.21367 4.28837C4.21344 4.27256 4.21349 4.25676 4.21367 4.2409C4.21408 4.197 4.19206 4.16875 4.1564 4.15043C4.14616 4.14498 4.13493 4.14185 4.12348 4.14125C4.09654 4.14028 4.06956 4.13848 4.04267 4.14314C3.99141 4.15219 3.95956 4.1899 3.95797 4.2445C3.95757 4.25841 3.95797 4.27232 3.95781 4.28628C3.95755 4.3076 3.95673 4.30824 3.93724 4.31151C3.87737 4.32149 3.81767 4.33241 3.7595 4.35095C3.74562 4.35535 3.74397 4.3544 3.73762 4.33997C3.73158 4.3262 3.72569 4.31236 3.71961 4.2986C3.69563 4.2439 3.64005 4.22622 3.58883 4.24589C3.56963 4.25321 3.55091 4.26181 3.53275 4.27162C3.50297 4.28785 3.48331 4.31292 3.47688 4.34861C3.47358 4.36736 3.47525 4.38668 3.48171 4.40449C3.48731 4.42056 3.49472 4.43573 3.50171 4.45112C3.50763 4.46418 3.50696 4.46716 3.49564 4.47441C3.44782 4.50498 3.40315 4.54014 3.35956 4.57693C3.35396 4.58167 3.34874 4.58701 3.34334 4.59187C3.33401 4.6001 3.33115 4.6001 3.32171 4.59152C3.31127 4.58202 3.30052 4.57287 3.29075 4.56264C3.25393 4.52406 3.18499 4.52429 3.14925 4.56528C3.13871 4.57735 3.12867 4.58995 3.11785 4.60175C3.10477 4.61597 3.10391 4.61546 3.09049 4.60244C3.0791 4.59138 3.05225 4.5665 3.05033 4.56502C3.03245 4.54397 3.03318 4.54382 3.0513 4.52229C3.2053 4.33916 3.40051 4.19976 3.61902 4.1169C3.72915 4.07512 3.8425 4.04789 3.95896 4.03732C4.03009 4.03109 4.10157 4.03038 4.1728 4.03519C4.26926 4.04128 4.36487 4.05797 4.45805 4.08497C4.5345 4.107 4.60885 4.13639 4.68018 4.1728C4.72891 4.197 4.77619 4.22436 4.82173 4.2547C4.88553 4.29726 4.94591 4.34524 5.0023 4.39816C5.05625 4.44919 5.1069 4.50398 5.15391 4.56214C5.16029 4.5705 5.16625 4.57919 5.17178 4.58819C5.21577 4.64048 5.25108 4.6993 5.28407 4.7594C5.35036 4.87984 5.39995 5.00963 5.43131 5.14483C5.4423 5.19214 5.44957 5.24015 5.45769 5.28803C5.46474 5.32979 5.49382 5.34409 5.52952 5.32385C5.57428 5.29853 5.6027 5.23823 5.5962 5.18487C5.59476 5.1733 5.58719 5.16019 5.59899 5.14931C5.60835 5.14376 5.61864 5.14422 5.62885 5.14417C5.68288 5.14403 5.73687 5.14345 5.79087 5.14445C5.81315 5.14488 5.82808 5.13609 5.84002 5.11663C5.88466 5.04373 5.9187 4.96421 5.94094 4.88069C5.95849 4.81548 5.97111 4.74932 5.97537 4.68151C5.97591 4.67457 5.97579 4.66757 5.97505 4.66063C5.97412 4.6524 5.97605 4.64562 5.98328 4.64129C5.995 4.64106 6.02066 4.63952 6.02181 4.6394C6.06664 4.63661 6.06664 4.63666 6.06672 4.68411C6.06672 4.72021 6.06653 4.75626 6.06684 4.79222C6.0671 4.82521 6.07546 4.83536 6.10606 4.84349C6.1793 4.86314 6.25345 4.86949 6.329 4.86535C6.36392 4.86344 6.39804 4.85686 6.4327 4.85395C6.43985 4.8531 6.44685 4.85118 6.45349 4.84827C6.47454 4.83978 6.48072 4.83119 6.48103 4.8071C6.48157 4.76223 6.48089 4.71733 6.48143 4.67243C6.48154 4.66266 6.47964 4.65191 6.48789 4.64397C6.50151 4.63294 6.5145 4.64137 6.52664 4.64672C6.5567 4.66002 6.57928 4.68362 6.60005 4.70918C6.6385 4.75645 6.66701 4.81047 6.69407 4.86544C6.69643 4.86984 6.69744 4.87494 6.69694 4.88C6.696 4.89229 6.68754 4.89842 6.67892 4.90432C6.6081 4.95252 6.54454 5.00975 6.48606 5.07361C6.41903 5.14682 6.36341 5.22866 6.3163 5.3171C6.26158 5.41982 6.2244 5.52931 6.20244 5.64474C6.20054 5.65442 6.20239 5.66814 6.18762 5.66979Z" fill="#45423D"/>
<path d="M6.18758 5.66979C6.19212 5.64822 6.19649 5.62662 6.20128 5.60524C6.24046 5.42933 6.31573 5.27234 6.42442 5.13288C6.4966 5.03971 6.58218 4.95904 6.6781 4.8938C6.6836 4.89 6.68967 4.88697 6.69311 4.88049C6.69741 4.87292 7.0245 4.65114 7.39033 4.72239C7.41206 4.73906 7.41464 4.77108 7.40281 4.80013C7.39124 4.82847 7.36971 4.83736 7.3352 4.83652C7.30337 4.83567 7.27158 4.83387 7.2399 4.8357C7.18657 4.83855 7.13358 4.84564 7.08128 4.85693C6.93805 4.88858 6.80764 4.94987 6.6906 5.04239C6.55387 5.15046 6.45068 5.28716 6.37986 5.4509C6.35112 5.51774 6.32951 5.58778 6.31534 5.65965C6.31445 5.66393 6.30274 5.73338 6.2991 5.76408C6.29585 5.79254 6.28289 5.81242 6.25679 5.82181C6.21845 5.8356 6.17749 5.80613 6.17669 5.76346C6.17621 5.74197 6.18063 5.72086 6.18369 5.69967C6.18492 5.69124 6.18624 5.67117 6.18758 5.66979Z" fill="#A19D98"/>
<path d="M5.87548 5.52188C5.8101 5.52188 5.74469 5.52208 5.67932 5.52176C5.64868 5.5216 5.62648 5.50586 5.61383 5.47698C5.60118 5.44805 5.60509 5.42002 5.62344 5.39491C5.63802 5.37508 5.65886 5.36746 5.68198 5.36669C5.69758 5.36618 5.71321 5.36649 5.72887 5.36649C5.83926 5.36657 5.94964 5.36665 6.06003 5.36672C6.08095 5.36672 6.10045 5.37052 6.11704 5.38549C6.13994 5.40619 6.14925 5.43973 6.13971 5.46963C6.13506 5.48475 6.12598 5.49797 6.11379 5.5074C6.10156 5.51679 6.08687 5.52191 6.07175 5.52199C6.00634 5.52234 5.94089 5.52188 5.87548 5.52188Z" fill="#FCBE4F"/>
<path d="M3.8066 3.88256C3.8107 3.88599 3.81538 3.88609 3.82019 3.88508C3.86111 3.87665 3.90248 3.87179 3.9439 3.86727C3.94751 3.86685 3.9457 3.86691 3.95592 3.86588C4.10136 3.85449 4.29524 3.86289 4.4477 3.9053C4.48131 3.9151 4.51517 3.9224 4.54883 3.93212C4.55226 3.93233 4.71696 3.99578 4.78095 4.032C4.78667 4.03632 4.78945 4.03862 4.79356 4.04192C4.79618 4.073 4.78702 4.09636 4.76978 4.11757C4.7458 4.14712 4.71408 4.16831 4.67862 4.18175C4.633 4.16085 4.58759 4.13946 4.54048 4.12233C4.45711 4.09199 4.37122 4.07 4.28393 4.05662C4.20789 4.04521 4.1311 4.04032 4.05429 4.042C3.96368 4.04359 3.87347 4.05501 3.78507 4.07607C3.51072 4.14099 3.26194 4.29323 3.0725 4.51215C3.06645 4.51917 3.06026 4.52606 3.05419 4.53303C3.04157 4.54762 3.03606 4.55708 3.02676 4.56865C3.01132 4.58796 2.99628 4.60766 2.98124 4.62731C2.94609 4.67316 2.88432 4.67562 2.84585 4.62754C2.8198 4.59498 2.82421 4.5459 2.84542 4.51498C2.86853 4.48189 2.89324 4.45005 2.91943 4.41961C2.94622 4.38804 2.97231 4.35581 3.00166 4.32681C3.04282 4.28621 3.08379 4.24529 3.12853 4.20908C3.28135 4.08543 3.44883 3.99114 3.63343 3.9316C3.68221 3.91582 3.73174 3.9028 3.78185 3.89257C3.79067 3.89082 3.79994 3.89015 3.8066 3.88256Z" fill="#EDAE50"/>
<path d="M5.30836 4.49383C5.35307 4.54958 5.38946 4.61129 5.42459 4.67385C5.46593 4.7474 5.50027 4.82456 5.5294 4.90436C5.55609 4.97761 5.57918 5.05201 5.59453 5.12891C5.59636 5.13756 5.59852 5.14599 5.60053 5.15468C5.60456 5.17828 5.60916 5.20164 5.60425 5.22594C5.59423 5.27582 5.57064 5.31485 5.5256 5.33658C5.48787 5.35481 5.45514 5.33578 5.44896 5.29248C5.43274 5.17855 5.40625 5.06733 5.36588 4.96003C5.31807 4.83307 5.25549 4.71507 5.17585 4.60704C5.17222 4.6021 5.16884 4.59686 5.16536 4.59175C5.17398 4.56161 5.19182 4.53725 5.209 4.51219C5.21866 4.49812 5.23355 4.50043 5.24602 4.49629C5.26613 4.48963 5.28724 4.48418 5.30836 4.49383Z" fill="#EDAE50"/>
<path d="M5.29807 4.49127C5.19947 4.48287 5.1685 4.58531 5.16532 4.59176C5.12275 4.53712 5.07783 4.48479 5.02892 4.43625C4.92954 4.3373 4.81678 4.25445 4.69431 4.19042C4.68891 4.18762 4.68369 4.18471 4.67839 4.18173C4.68297 4.17604 4.72355 4.16766 4.75738 4.11908C4.786 4.07797 4.79274 4.0501 4.79331 4.0419C4.8256 4.05468 4.85378 4.07545 4.88305 4.09388C4.93366 4.12547 4.98231 4.16043 5.0287 4.19852C5.07063 4.23323 5.11131 4.26938 5.15004 4.30822C5.17658 4.33481 5.20145 4.36298 5.22656 4.39084C5.25575 4.42328 5.28519 4.45589 5.30828 4.49387" fill="#FCD38C"/>
<path d="M7.85567 4.96033C7.84507 4.94172 7.82898 4.92808 7.81602 4.91142C7.74636 4.82188 7.69644 4.72109 7.66124 4.6118C7.65721 4.59923 7.65355 4.58655 7.64947 4.57398C7.64777 4.56865 7.64649 4.56256 7.63931 4.56276C7.55051 4.48264 7.44329 4.43797 7.33832 4.38904C7.17974 4.31521 7.01412 4.26448 6.84661 4.21976C6.71521 4.18469 6.58212 4.15869 6.44859 4.13464C6.43645 4.13244 6.42346 4.13138 6.41506 4.11943C6.41286 4.11078 6.41286 4.10193 6.41286 4.09311C6.41268 3.98848 6.41271 3.88386 6.41302 3.77923C6.41302 3.76785 6.4097 3.75474 6.42136 3.74631C6.44768 3.75313 6.47486 3.75313 6.5016 3.75705C6.55203 3.76441 6.60281 3.76989 6.65321 3.77793C6.71846 3.78822 6.7839 3.79737 6.84865 3.81105C6.89332 3.82054 6.93826 3.82852 6.98287 3.83855C7.03515 3.8503 7.08741 3.8622 7.13901 3.87604C7.22507 3.89907 7.31109 3.92245 7.39494 3.95352C7.42832 3.96588 7.46142 3.97923 7.49523 3.99021C7.52966 4.00137 7.55666 4.02366 7.58233 4.04876C7.63823 4.10335 7.69396 4.15809 7.74788 4.21483C7.78392 4.2528 7.82013 4.29052 7.85451 4.33023C7.8694 4.34743 7.88588 4.36317 7.90139 4.37991C7.92816 4.40887 7.95307 4.43965 7.98052 4.46801C8.00253 4.49081 8.01556 4.51951 8.0172 4.55233C8.01947 4.5985 8.01805 4.64428 8.00694 4.68967C7.98645 4.77319 7.9487 4.8469 7.89748 4.91351C7.88463 4.93011 7.87138 4.94642 7.85567 4.96033Z" fill="#EDAE50"/>
<path d="M5.61095 3.98527L5.48686 3.89458C5.48482 3.89329 5.48284 3.89182 5.48102 3.89018C5.47352 3.88259 5.46899 3.88607 5.46428 3.89398C5.45724 3.90571 5.44934 3.91689 5.44176 3.92827C5.42381 3.95513 5.40625 3.98229 5.38781 4.00875C5.37412 4.0284 5.35675 4.03446 5.33756 4.02814C5.30887 4.01865 5.29591 3.98609 5.31015 3.95789C5.31459 3.94901 5.32051 3.94091 5.32601 3.93263C5.38912 3.83733 5.45229 3.74202 5.51548 3.64674C5.51943 3.64042 5.52381 3.63438 5.52856 3.62871C5.54503 3.61002 5.57002 3.60709 5.58894 3.62111C5.5981 3.62789 5.6046 3.638 5.6072 3.6495C5.60975 3.66101 5.60817 3.67312 5.60278 3.68347C5.59717 3.69459 5.58999 3.70483 5.58313 3.71517C5.56353 3.74467 5.54373 3.77403 5.52404 3.80345C5.51619 3.81519 5.51599 3.81543 5.52725 3.82368C5.56951 3.85475 5.61191 3.88573 5.65429 3.91661L5.61095 3.98527Z" fill="#45423E"/>
<path d="M6.12271 3.72283C6.12852 3.72715 6.12812 3.73371 6.12812 3.73993C6.12827 3.85081 6.12827 3.96165 6.12812 4.0725C6.12827 4.0763 6.12767 4.08006 6.12631 4.08358C6.11888 4.09307 6.10828 4.09269 6.09826 4.09273C6.06113 4.09292 6.02404 4.09083 5.98696 4.09008C5.88333 4.08772 5.77971 4.08914 5.67593 4.08936C5.66875 4.08936 5.66152 4.08977 5.65482 4.09315C5.65088 4.09505 5.64728 4.09778 5.64785 4.103C5.64841 4.10822 5.65258 4.10983 5.65675 4.11099C5.65965 4.11177 5.66263 4.11215 5.66566 4.11207C5.71651 4.11092 5.76737 4.11313 5.81834 4.10978C5.86727 4.10654 5.91644 4.10752 5.9656 4.11063C6.00798 4.11331 6.05054 4.11443 6.09301 4.11605C6.10384 4.11644 6.11462 4.11567 6.12426 4.12244C6.12906 4.14786 6.1366 4.17299 6.13145 4.19943C6.13133 4.20186 6.13071 4.20421 6.12955 4.20631C6.12163 4.21626 6.10929 4.21647 6.099 4.22099C6.07951 4.22953 6.06981 4.24347 6.07041 4.26613C6.07321 4.36968 6.06547 4.47312 6.06683 4.57662C6.06697 4.58861 6.0672 4.60057 6.06848 4.61255C6.0712 4.63842 6.06442 4.64691 6.03963 4.64957C6.03308 4.65025 6.02647 4.65045 6.01983 4.65065C6.00829 4.65079 5.99677 4.65087 5.98529 4.64991C5.95159 4.65547 5.91749 4.65585 5.88352 4.6583C5.82055 4.66274 5.77434 4.63577 5.74153 4.57855C5.69601 4.49917 5.65006 4.42005 5.60842 4.33828C5.58973 4.30159 5.57237 4.26422 5.55266 4.22804C5.52103 4.1699 5.52072 4.11307 5.55766 4.05743C5.57379 4.03318 5.58556 4.00587 5.60482 3.98389C5.61548 3.95745 5.63278 3.93542 5.64833 3.91219C5.68398 3.8568 5.72162 3.80291 5.76215 3.75133C5.77452 3.73559 5.79174 3.72589 5.80759 3.7146C5.82864 3.70859 5.90496 3.707 5.9243 3.70633C5.94626 3.70556 5.9683 3.70604 5.99028 3.70633C6.00075 3.70641 6.10252 3.71222 6.12271 3.72283Z" fill="#EDAE50"/>
<path d="M7.41565 4.78885C7.40884 4.78488 7.40462 4.77935 7.40508 4.77063C7.40647 4.74403 7.39016 4.73093 7.37016 4.72116C7.34358 4.71093 7.1409 4.69085 6.93944 4.7646C6.86858 4.78877 6.80023 4.81893 6.73595 4.85884C6.72412 4.86621 6.711 4.87121 6.6999 4.88003C6.69835 4.88126 6.69537 4.88046 6.69306 4.88061C6.67724 4.85681 6.6668 4.82988 6.65256 4.80514C6.63052 4.76686 6.60719 4.7297 6.57737 4.69745C6.55397 4.67208 6.52743 4.65266 6.4939 4.64554C6.48471 4.64631 6.4833 4.63918 6.48219 4.63229C6.48117 4.62412 6.48083 4.61589 6.48114 4.60769C6.48114 4.55026 6.48017 4.4928 6.48137 4.43538C6.4825 4.38104 6.47657 4.32699 6.47731 4.2727C6.47759 4.25205 6.46829 4.23802 6.45028 4.23C6.44308 4.2268 6.43612 4.22311 6.4294 4.21899C6.42424 4.2158 6.41868 4.21251 6.42092 4.20439L6.42161 4.16334C6.42756 4.15462 6.4357 4.15584 6.44435 4.15722C6.54407 4.17303 6.64312 4.19255 6.74148 4.2158C6.85973 4.24398 6.9773 4.27491 7.0924 4.31521C7.18469 4.34749 7.27602 4.38258 7.36443 4.42553C7.40636 4.44591 7.44913 4.46464 7.48742 4.49221C7.50185 4.50261 7.51342 4.51643 7.5244 4.5308C7.55052 4.56497 7.54389 4.60467 7.54145 4.64355C7.54073 4.65569 7.53524 4.66699 7.53427 4.67922C7.51167 4.71538 7.49241 4.75369 7.47672 4.79368C7.47351 4.80199 7.46921 4.8051 7.46019 4.80188C7.44569 4.79671 7.43057 4.79314 7.41565 4.78885Z" fill="#EDAE50"/>
<path d="M7.53457 4.67925C7.52954 4.66911 7.53036 4.65811 7.53221 4.64769C7.53615 4.62569 7.53476 4.60364 7.53476 4.58156C7.53476 4.55993 7.52339 4.54314 7.51099 4.52774C7.49536 4.50847 7.47621 4.49272 7.45469 4.48143C7.35406 4.42755 7.24986 4.38269 7.14323 4.34375C7.06617 4.31557 6.98845 4.28986 6.90946 4.26856C6.80959 4.24164 6.70938 4.2168 6.60796 4.19641C6.54967 4.18471 6.49096 4.17594 6.43264 4.16453C6.42912 4.16385 6.42544 4.16372 6.42192 4.16331C6.42192 4.14938 6.42192 4.1355 6.42192 4.12164C6.45774 4.12524 6.493 4.13274 6.52837 4.13945C6.57435 4.14815 6.62026 4.1574 6.6661 4.1672C6.71418 4.17759 6.76233 4.18767 6.8099 4.20098C6.84633 4.21115 6.88319 4.21981 6.91975 4.22984C7.00913 4.25437 7.09743 4.28257 7.18465 4.31439C7.25552 4.34025 7.32405 4.3723 7.39294 4.4033C7.45849 4.4329 7.52208 4.46718 7.58323 4.50583C7.60118 4.51714 7.61766 4.531 7.6346 4.54402C7.64059 4.54862 7.646 4.55417 7.63951 4.56276C7.61665 4.5841 7.59305 4.60455 7.57279 4.62888C7.55929 4.64508 7.54738 4.66245 7.53457 4.67925Z" fill="#FCD38C"/>
<path d="M6.12243 4.08373L6.12254 4.12537C6.00257 4.11498 5.77886 4.11498 5.66595 4.12169C5.65736 4.12125 5.64882 4.12032 5.64031 4.11889C5.63401 4.1174 5.62431 4.10885 5.62445 4.10348C5.62476 4.09364 5.63013 4.0889 5.6371 4.08525C5.64581 4.08065 5.65741 4.0798 5.66719 4.0798C5.77523 4.0798 5.88329 4.0781 5.99128 4.08083C6.03493 4.08193 6.07872 4.08262 6.12243 4.08373Z" fill="#FCD38C"/>
<path d="M7.97438 4.58877C7.97497 4.6296 7.96719 4.66719 7.95608 4.70412C7.93648 4.76945 7.90457 4.82772 7.86392 4.88091C7.85567 4.89173 7.85525 4.89176 7.84667 4.88108C7.80714 4.83215 7.77554 4.77791 7.74843 4.72052C7.72809 4.67742 7.71141 4.63274 7.69647 4.58735C7.69187 4.57326 7.69241 4.57076 7.7058 4.56353C7.75257 4.53824 7.80158 4.52028 7.85386 4.51242C7.87768 4.50882 7.90171 4.50889 7.92553 4.50579C7.92794 4.5056 7.93033 4.50552 7.93273 4.50563C7.95539 4.50611 7.95895 4.50913 7.96745 4.53088C7.975 4.55024 7.97485 4.57035 7.97438 4.58877Z" fill="#FEFEFE"/>
<path d="M6.41915 3.75566C6.41915 3.87635 6.42045 4.1411 6.42329 4.21536C6.41659 4.22433 6.40789 4.22105 6.40007 4.2187C6.31556 4.19271 6.23051 4.19656 6.14519 4.213C6.13799 4.21438 6.13098 4.21626 6.12491 4.21004L6.12445 4.21065C6.12051 4.20495 6.12445 3.61512 6.12395 3.57737C6.12372 3.56116 6.1263 3.54645 6.13396 3.53221C6.14337 3.5147 6.15157 3.4965 6.16031 3.47857C6.1615 3.47728 6.16314 3.47646 6.16487 3.4763C6.26323 3.52056 6.34449 3.57191 6.41856 3.65171C6.41748 3.68056 6.41856 3.71916 6.41915 3.75566Z" fill="#414141"/>
<path d="M6.16527 3.46941H6.16379L6.16237 3.46911C6.16945 3.45124 6.16986 3.43252 6.1698 3.41351C6.16957 3.35669 6.17045 3.29986 6.16995 3.24306C6.16975 3.22235 6.17567 3.20557 6.18798 3.18937C6.24851 3.10944 6.31434 3.03408 6.38488 2.96383C6.42972 2.91918 6.47732 2.8777 6.52962 2.84268C6.53955 2.84518 6.5353 2.85201 6.53305 2.85724C6.501 2.93175 6.50551 3.00988 6.51561 3.08743C6.52003 3.12161 6.52903 3.15683 6.556 3.18193C6.55793 3.18352 6.5592 3.18579 6.55963 3.18833C6.56002 3.19086 6.55951 3.19347 6.5582 3.19563C6.49728 3.22546 6.44944 3.27178 6.40905 3.32739C6.40309 3.3356 6.39869 3.34427 6.40017 3.35509C6.3975 3.42279 6.39807 3.49042 6.40031 3.6018C6.4002 3.603 6.40005 3.60419 6.39985 3.60537C6.39084 3.6118 6.38496 3.60454 6.37938 3.59956C6.35533 3.57799 6.33198 3.55561 6.30603 3.53637C6.27767 3.51531 6.24862 3.49565 6.21717 3.48001C6.20063 3.47181 6.18379 3.46626 6.16527 3.46941Z" fill="#A19D98"/>
<path d="M6.56898 2.83435C6.58112 2.84076 6.58735 2.85145 6.59041 2.86518C6.59825 2.90008 6.60344 2.93559 6.60593 2.97138C6.61013 3.03255 6.60174 3.09175 6.58719 3.15048C6.58418 3.1627 6.58069 3.17476 6.573 3.18486C6.56534 3.18623 6.56299 3.18039 6.5599 3.17478C6.52408 3.10999 6.51758 3.0393 6.52203 2.96649C6.5226 2.9565 6.52416 2.94652 6.52478 2.93646C6.52678 2.89777 6.5426 2.86132 6.56898 2.83435Z" fill="#A19D98"/>
<path d="M6.45858 4.2227C6.47726 4.23134 6.48643 4.24403 6.48716 4.26757C6.49096 4.38624 6.48995 4.50491 6.49022 4.62355C6.49022 4.63114 6.49099 4.66279 6.49091 4.67159C6.49065 4.72081 6.48983 4.77005 6.49049 4.81927C6.49073 4.83659 6.48392 4.84647 6.46969 4.85272C6.35102 4.88694 6.19692 4.8852 6.08886 4.84892C6.06449 4.84115 6.05803 4.83158 6.05785 4.80507C6.05757 4.77036 6.05785 4.73566 6.05785 4.7009C6.05785 4.68642 6.05808 4.6719 6.05785 4.65734C6.05757 4.64282 6.06143 4.41779 6.06143 4.41087C6.06143 4.35784 6.06182 4.30478 6.06128 4.25175C6.06112 4.23508 6.06696 4.22506 6.08174 4.21809C6.25336 4.16096 6.34344 4.17759 6.45858 4.2227Z" fill="#A19D98"/>
<path d="M6.09334 4.53517V4.27921C6.09334 4.27479 6.09323 4.27037 6.09334 4.26592C6.09374 4.24835 6.09518 4.24599 6.11121 4.23981C6.17156 4.21542 6.34801 4.19235 6.44218 4.25782C6.45704 4.26605 6.45945 4.27446 6.46005 4.29438C6.46249 4.33922 6.45829 4.67225 6.45843 4.80051C6.45843 4.80308 6.45843 4.80556 6.45843 4.8081C6.45797 4.82641 6.45681 4.82729 6.43917 4.83112C6.32932 4.85518 6.2201 4.852 6.11134 4.82353C6.09521 4.81932 6.09436 4.8189 6.09436 4.80054C6.09419 4.74174 6.09419 4.68297 6.09436 4.6242C6.09436 4.59447 6.09436 4.56479 6.09436 4.53506L6.09334 4.53517Z" fill="#45423D"/>
<path d="M6.1613 3.47299C6.16339 3.45676 6.17279 3.45506 6.19093 3.45954C6.2127 3.46638 6.23355 3.47618 6.25292 3.48873C6.29605 3.51585 6.33736 3.54569 6.3736 3.58271C6.38169 3.59099 6.39108 3.59791 6.39987 3.60537C6.40111 3.61082 6.40389 3.61575 6.40787 3.61948C6.41932 3.63031 6.42086 3.64284 6.41855 3.65867C6.39952 3.65582 6.38884 3.64386 6.37678 3.62984C6.34405 3.59187 6.30581 3.56112 6.26526 3.53314C6.24029 3.5159 6.20203 3.49706 6.17429 3.48541C6.16479 3.48142 6.16017 3.48166 6.1613 3.47299Z" fill="#DCF9FB"/>
<path d="M6.56903 2.83435C6.57545 2.83803 6.57956 2.83971 6.56308 2.8551C6.5422 2.8748 6.52839 2.92449 6.52978 3.00599C6.53114 3.06002 6.53182 3.10811 6.57306 3.18486C6.56957 3.19055 6.56501 3.19474 6.55832 3.19561C6.48846 3.12328 6.49523 2.90072 6.52973 2.84266C6.54401 2.82707 6.55236 2.8253 6.56903 2.83435Z" fill="#DCF9FB"/>
</g>
<path d="M9.90995 4.5C9.90995 2.06442 7.93553 0.0900002 5.49995 0.0900002C3.06437 0.0900002 1.08995 2.06442 1.08995 4.5C1.08995 6.93558 3.06437 8.91 5.49995 8.91C7.93553 8.91 9.90995 6.93558 9.90995 4.5Z" stroke="#CED3E6" stroke-width="0.18"/>
</g>
<defs>
<clipPath id="clip0_1280_628">
<rect width="9" height="9" fill="white" transform="translate(1)"/>
</clipPath>
</defs>
</svg>
