<svg width="256" height="256" viewBox="0 0 256 256" fill="none" xmlns="http://www.w3.org/2000/svg">
<g clip-path="url(#clip0_430_1009)">
<circle cx="128" cy="128" r="128" fill="#006AFF"/>
<path d="M145.535 55.1556C135.375 61.1304 129.369 71.8971 129.369 83.2703C129.369 89.2451 131.765 95.2502 134.768 100.618C137.164 105.41 138.347 113.781 129.976 117.966C124.001 121.545 116.207 119.149 112.628 113.174C109.049 108.383 104.864 103.591 99.4653 100.012C89.3052 94.037 77.3253 94.037 67.1652 100.012C57.0051 105.987 51 116.784 51 128.157C51 139.53 56.9748 150.297 67.1652 156.272C77.3253 162.246 89.3052 162.246 99.4653 156.272C104.864 153.269 109.049 148.507 112.021 143.109C114.417 138.924 120.999 133.525 129.369 138.317C135.344 141.896 137.134 149.69 134.161 155.665C131.159 161.064 129.369 167.038 129.369 173.013C129.369 184.386 135.344 195.153 145.535 201.128C155.695 207.103 167.675 207.103 177.835 201.128C187.995 195.153 194 184.386 194 173.013C194 161.64 188.025 150.873 177.835 144.898C172.436 141.896 166.462 140.713 159.88 140.713C154.482 140.713 147.324 137.134 147.324 128.157C147.324 120.969 152.723 115.601 159.88 115.601C165.855 115.601 172.436 114.418 177.835 111.415C187.995 105.441 194 94.6739 194 83.3007C194 71.9274 188.025 61.1607 177.835 55.1859C173.043 52.1834 167.068 51.0006 161.67 51.0006C156.301 50.9702 150.296 52.1834 145.535 55.1556Z" fill="white"/>
</g>
<defs>
<clipPath id="clip0_430_1009">
<rect width="256" height="256" fill="white"/>
</clipPath>
</defs>
</svg>
