<svg width="24" height="24" viewBox="0 0 24 24" fill="none" xmlns="http://www.w3.org/2000/svg">
<g clip-path="url(#clip0_875_644)">
<path d="M23.5 12C23.5 18.3739 18.3739 23.5 12 23.5C5.6261 23.5 0.5 18.3739 0.5 12C0.5 5.6261 5.6261 0.5 12 0.5C18.3739 0.5 23.5 5.6261 23.5 12Z" fill="#2775CA" stroke="#2775CA"/>
<path d="M15.3334 14.0027C15.3334 12.3569 14.2886 11.7925 12.199 11.5575C10.7065 11.3693 10.408 10.9931 10.408 10.3347C10.408 9.67626 10.9055 9.25314 11.9005 9.25314C12.796 9.25314 13.2936 9.5353 13.5423 10.2407C13.5921 10.3818 13.7413 10.4758 13.8906 10.4758H14.6865C14.8856 10.4758 15.0348 10.3347 15.0348 10.1467V10.0996C14.8358 9.065 13.9403 8.26559 12.796 8.17158V7.04295C12.796 6.85481 12.6468 6.71373 12.3981 6.66666H11.6518C11.4527 6.66666 11.3035 6.80774 11.2537 7.04295V8.12451C9.76114 8.31265 8.81594 9.25314 8.81594 10.4288C8.81594 11.9807 9.81093 12.592 11.9005 12.8272C13.2936 13.0623 13.7413 13.3444 13.7413 14.0969C13.7413 14.8493 13.0447 15.3666 12.0995 15.3666C10.8059 15.3666 10.3582 14.8492 10.2089 14.1438C10.1592 13.9558 10.01 13.8617 9.86072 13.8617H9.01487C8.81594 13.8617 8.66669 14.0027 8.66669 14.1909V14.2379C8.86561 15.4135 9.66168 16.26 11.3035 16.4952V17.6238C11.3035 17.8119 11.4527 17.9529 11.7015 18H12.4477C12.6468 18 12.796 17.8589 12.8458 17.6238V16.4952C14.3384 16.26 15.3334 15.2724 15.3334 14.0027Z" fill="white"/>
<path d="M9.55107 18.474C5.80567 17.1793 3.88492 13.1561 5.27751 9.59533C5.99778 7.65312 7.58237 6.17338 9.55107 5.47974C9.74318 5.38729 9.83917 5.24856 9.83917 5.01727V4.36991C9.83917 4.1849 9.74318 4.04617 9.55107 4C9.50301 4 9.40701 4 9.35896 4.04617C4.79729 5.43346 2.30033 10.1041 3.74086 14.4971C4.60518 17.0867 6.66999 19.0752 9.35896 19.9076C9.55107 20 9.74318 19.9076 9.79112 19.7225C9.83917 19.6764 9.83917 19.6301 9.83917 19.5376V18.8902C9.83917 18.7514 9.69512 18.5665 9.55107 18.474ZM14.641 4.04617C14.4489 3.95372 14.2568 4.04617 14.2088 4.23118C14.1608 4.27746 14.1608 4.32363 14.1608 4.41619V5.06355C14.1608 5.24856 14.3048 5.43346 14.4489 5.52602C18.1943 6.82075 20.115 10.8439 18.7224 14.4047C18.0022 16.3469 16.4176 17.8266 14.4489 18.5203C14.2568 18.6127 14.1608 18.7514 14.1608 18.9827V19.6301C14.1608 19.8151 14.2568 19.9538 14.4489 20C14.4969 20 14.5929 20 14.641 19.9538C19.2027 18.5665 21.6996 13.8959 20.2591 9.50288C19.3948 6.86703 17.2819 4.87854 14.641 4.04617Z" fill="white"/>
</g>
<defs>
<clipPath id="clip0_875_644">
<rect width="24" height="24" fill="white"/>
</clipPath>
</defs>
</svg>
