<?xml version="1.0" encoding="UTF-8"?><svg id="Calque_2" xmlns="http://www.w3.org/2000/svg" viewBox="0 0 964 964"><defs><style>.cls-1{fill:#f2f2f2;}</style></defs><g id="Calque_1-2"><path class="cls-1" d="M482,949c-63.05,0-124.21-12.35-181.77-36.69-55.61-23.52-105.55-57.19-148.45-100.09-42.89-42.89-76.57-92.84-100.09-148.45-24.35-57.56-36.69-118.72-36.69-181.77s12.35-124.21,36.69-181.77c23.52-55.61,57.19-105.55,100.09-148.45,42.89-42.89,92.84-76.57,148.45-100.09,57.56-24.35,118.72-36.69,181.77-36.69s124.21,12.35,181.77,36.69c55.61,23.52,105.55,57.19,148.45,100.09,42.89,42.89,76.57,92.84,100.09,148.45,24.35,57.56,36.69,118.72,36.69,181.77s-12.35,124.21-36.69,181.77c-23.52,55.61-57.19,105.55-100.09,148.45s-92.84,76.57-148.45,100.09c-57.56,24.35-118.72,36.69-181.77,36.69Z"/><path d="M482,30c61.03,0,120.22,11.95,175.93,35.51,53.82,22.76,102.16,55.36,143.68,96.88,41.52,41.52,74.12,89.86,96.88,143.68,23.56,55.71,35.51,114.9,35.51,175.93s-11.95,120.22-35.51,175.93c-22.76,53.82-55.36,102.16-96.88,143.68-41.52,41.52-89.86,74.12-143.68,96.88-55.71,23.56-114.9,35.51-175.93,35.51s-120.22-11.95-175.93-35.51c-53.82-22.76-102.16-55.36-143.68-96.88-41.52-41.52-74.12-89.86-96.88-143.68-23.56-55.71-35.51-114.9-35.51-175.93s11.95-120.22,35.51-175.93c22.76-53.82,55.36-102.16,96.88-143.68,41.52-41.52,89.86-74.12,143.68-96.88,55.71-23.56,114.9-35.51,175.93-35.51M482,0C215.8,0,0,215.8,0,482s215.8,482,482,482,482-215.8,482-482S748.2,0,482,0h0Z"/><path d="M837,478.32c0,234.73-143.65,310.05-219.33,242.98-62.3-54.68-80.83-170.24-174.54-182.11-118.93-14.96-129.23,143.42-207.49,143.42-91.13,0-108.64-132.58-108.64-200.68s19.56-164.57,97.31-164.57c90.62,0,95.77,135.68,209.04,128.46,112.76-7.74,114.81-149.09,187.93-209.45,63.84-52.11,215.73,4.13,215.73,241.95Z"/></g></svg>