<svg viewBox="0 0 24 24" fill="none" xmlns="http://www.w3.org/2000/svg">
<g clip-path="url(#clip0_1276_16)">
<mask id="mask0_1276_16" style="mask-type:luminance" maskUnits="userSpaceOnUse" x="0" y="0" width="24" height="24">
<path d="M24 0H0V24H24V0Z" fill="white"/>
</mask>
<g mask="url(#mask0_1276_16)">
<path d="M24.0026 12.0013C24.0026 18.6294 18.6294 24.0026 12.0013 24.0026C5.37318 24.0026 0 18.6294 0 12.0013C0 5.37318 5.37318 0 12.0013 0C18.6294 0 24.0026 5.37318 24.0026 12.0013Z" fill="#F256C5"/>
</g>
<path d="M16.9992 13.2156L11.9996 20.2966L11.998 20.2942L7 13.2156L11.9988 16.1861L16.9992 13.2156Z" fill="white"/>
<path d="M11.9996 4L17 12.3005L11.9988 15.271L11.998 15.2701L7 12.3005L11.998 4.00164L11.9996 4Z" fill="white"/>
</g>
<defs>
<clipPath id="clip0_1276_16">
<rect width="24" height="24" fill="white"/>
</clipPath>
</defs>
</svg>
