<svg width="128" height="128" viewBox="0 0 128 128" fill="none" xmlns="http://www.w3.org/2000/svg">
<path d="M125.888 64.1913C125.888 29.6138 97.8574 1.58325 63.2799 1.58325C28.7025 1.58325 0.671875 29.6138 0.671875 64.1913C0.671875 98.7688 28.7025 126.799 63.2799 126.799C97.8574 126.799 125.888 98.7688 125.888 64.1913Z" fill="#FA3812"/>
<path d="M100.701 77.2587C98.9965 74.7036 96.5694 72.7142 93.7294 71.5443C93.1038 71.2843 92.4615 71.0665 91.8068 70.8922C90.5959 64.6323 86.7909 61.6653 82.979 60.2815L66.9066 54.5606C60.5534 52.2919 58.0123 48.6598 58.0123 44.0296C58.0123 39.3995 62.822 34.4967 69.4545 34.4967C76.087 34.4967 83.2518 40.9427 86.6112 52.0192H88.7865V32.0484H86.5181L83.3449 37.5833C81.5491 35.6982 79.3962 34.1899 77.0112 33.1459C74.6264 32.1019 72.0576 31.5434 69.4545 31.5029H67.6383C63.3373 28.5426 58.2375 26.96 53.0163 26.9661C37.5825 26.9661 23.2397 44.941 23.2397 64.1866C23.2397 83.4322 37.5825 101.321 53.0163 101.321C56.2684 101.375 59.4992 100.785 62.5225 99.5847C65.5459 98.3847 68.3018 96.5985 70.6319 94.329L74.0846 100.862H76.8055V96.8436C79.5267 99.5777 83.1685 101.2 87.021 101.395C90.8734 101.591 94.6605 100.344 97.6439 97.8986C100.627 95.4535 102.593 91.985 103.159 88.1692C103.724 84.3534 102.848 80.4638 100.701 77.2587ZM53.2025 97.8681C43.2171 97.8681 35.2276 90.6035 35.2276 75.0834V53.476C35.2276 37.9492 43.7559 30.6848 53.2025 30.6848C56.2754 30.6788 59.2792 31.5964 61.8241 33.3191C59.0947 34.6926 56.8007 36.7979 55.1981 39.3995C53.647 42.0415 52.8315 45.0506 52.8366 48.1142C52.8366 55.831 56.3757 60.6475 61.9172 62.5501L75.1689 67.2733C77.9111 68.1663 80.4953 69.4865 82.8259 71.185C80.5603 71.945 78.5018 73.2202 76.8122 74.9105H76.8055V71.3514H73.9916C71.264 88.5148 63.1879 97.8681 53.2025 97.8681ZM97.4814 95.5797C95.2377 97.822 92.286 99.2172 89.1291 99.5274C85.9724 99.8374 82.8054 99.0433 80.1684 97.2804C77.5313 95.5173 75.5871 92.8945 74.6672 89.8588C73.7472 86.8231 73.9085 83.5621 75.1231 80.6318C76.3379 77.7016 78.5311 75.2831 81.3292 73.7885C84.1271 72.2941 87.3568 71.8161 90.4677 72.4359C93.5786 73.0556 96.3785 74.735 98.39 77.1877C100.402 79.6404 101.501 82.7147 101.499 85.887C101.504 87.6881 101.152 89.4722 100.462 91.136C99.7721 92.7997 98.7591 94.3101 97.4814 95.5797Z" fill="#FEFDFC"/>
<path d="M82.0166 77.3301L83.8057 77.3555L85.5957 77.3301H87.7227V78.9424H85.3623V89.9043C85.3623 90.8294 85.4395 91.6306 85.9062 92.3096L85.9082 92.3125C86.483 93.1641 87.4762 93.6367 88.7002 93.6367C89.8574 93.6367 90.821 93.2298 91.4951 92.5449C92.1695 91.8595 92.5801 90.8691 92.5801 89.6582V78.9424H90.5381V77.3301H96.2822V78.9424H94.2402V89.6582C94.2402 91.315 93.6644 92.7306 92.6592 93.7324C91.6544 94.7338 90.2462 95.2968 88.627 95.2969C86.4989 95.2969 84.875 94.7117 83.7305 93.5781L83.5078 93.3438C82.3896 92.0892 82.25 90.3961 82.25 88.749V78.9424H79.8887V77.3301H82.0166Z" fill="white" stroke="white" stroke-width="0.8"/>
</svg>
