<svg width="24" height="24" viewBox="0 0 24 24" fill="none" xmlns="http://www.w3.org/2000/svg">
<g clip-path="url(#clip0_1080_20489)">
<path d="M12 24C18.6274 24 24 18.6274 24 12C24 5.37257 18.6274 -1.52588e-05 12 -1.52588e-05C5.37258 -1.52588e-05 0 5.37257 0 12C0 18.6274 5.37258 24 12 24Z" fill="#9A9350"/>
<path d="M11.3435 16.2441C11.5361 16.4266 11.6452 16.6789 11.6453 16.9443L11.6462 16.9434V18.4199H5.04468C4.66308 18.4199 4.40064 18.0374 4.53687 17.6816L6.75366 11.8975L11.3435 16.2441ZM19.4607 17.6816C19.5967 18.0372 19.3341 18.4196 18.9529 18.4199H12.3503V16.9434L12.3513 16.9443C12.3514 16.6789 12.4605 16.4266 12.6531 16.2441L17.2429 11.8984L19.4607 17.6816ZM11.3259 10.8682C11.5313 11.07 11.6472 11.3463 11.6472 11.6338L11.6462 11.6348V14.9268C11.6462 15.1443 11.3859 15.2568 11.2283 15.1074L6.97046 11.0762L8.21948 7.81641L11.3259 10.8682ZM17.0271 11.0762L12.7693 15.1074C12.6117 15.2568 12.3513 15.1443 12.3513 14.9268V11.6348L12.3503 11.6338C12.3504 11.3463 12.4662 11.07 12.6716 10.8682L15.7781 7.81641L17.0271 11.0762ZM11.6462 9.51562C11.6459 9.75691 11.3547 9.87951 11.1824 9.70996L8.4353 7.01074L9.58667 4.00391C9.66683 3.79382 9.86878 3.65447 10.0945 3.6543H11.6462V9.51562ZM13.9021 3.6543C14.1279 3.6543 14.3297 3.79375 14.4099 4.00391L15.5613 7.01074L12.8142 9.70996C12.6419 9.87937 12.3506 9.75686 12.3503 9.51562V3.6543H13.9021Z" fill="white"/>
</g>
<defs>
<clipPath id="clip0_1080_20489">
<rect width="24" height="24" fill="white"/>
</clipPath>
</defs>
</svg>

