<svg width="512" height="512" viewBox="0 0 512 512" fill="none" xmlns="http://www.w3.org/2000/svg">
<path d="M463 374C463 388.201 463 395.301 463.04 395.58C463.625 399.713 467.644 400.765 470.178 397.448C470.35 397.223 473.355 391.872 479.365 381.169C500.148 344.161 512 301.465 512 256C512 114.615 397.385 0 256 0C114.615 0 0 114.615 0 256C0 397.385 114.615 512 256 512C297.979 512 337.598 501.896 372.557 483.987C376.867 481.779 371.842 470 367 470C313.8 470 271 427.2 271 374C271 320.8 313.8 278 367 278C420.2 278 463 320.8 463 374Z" fill="url(#paint0_linear_2634_3)"/>
<path d="M463 374C463 388.201 463 395.301 463.04 395.58C463.625 399.713 467.644 400.765 470.178 397.448C470.35 397.223 473.355 391.872 479.365 381.169C500.148 344.161 512 301.465 512 256C512 114.615 397.385 0 256 0C114.615 0 0 114.615 0 256C0 397.385 114.615 512 256 512C297.979 512 337.598 501.896 372.557 483.987C376.867 481.779 371.842 470 367 470C313.8 470 271 427.2 271 374C271 320.8 313.8 278 367 278C420.2 278 463 320.8 463 374Z" fill="url(#paint1_radial_2634_3)" fill-opacity="0.2"/>
<mask id="mask0_2634_3" style="mask-type:alpha" maskUnits="userSpaceOnUse" x="0" y="0" width="512" height="512">
<path d="M448.801 424.421C488.155 379.407 512 320.488 512 256C512 114.615 397.385 0 256 0C114.615 0 0 114.615 0 256C0 397.385 114.615 512 256 512C314.893 512 369.141 492.113 412.396 458.689C398.896 465.911 383.445 470 367 470C313.8 470 271 427.2 271 374C271 320.8 313.8 278 367 278C420.2 278 463 320.8 463 374C463 392.524 457.811 409.786 448.801 424.421Z" fill="url(#paint2_linear_2634_3)"/>
</mask>
<g mask="url(#mask0_2634_3)">
<path d="M114.681 317.445V417.87C114.681 424.051 119.913 426.618 121.541 427.201C123.168 427.899 128.633 429.416 133.516 424.867L209.488 351.859C215.957 345.643 222.201 339.108 226.894 331.461C229.102 327.867 230.018 325.841 230.018 325.841C234.669 316.395 234.669 307.297 230.133 298.198C223.392 284.669 206.183 270.905 180.254 257.842L135.958 282.569C122.82 290.034 114.681 303.213 114.681 317.445Z" fill="#69342F"/>
<path d="M71 94.1029V199.427C71 212.607 79.8364 224.271 92.3934 228.003C135.179 240.367 209.706 266.96 227.728 306.035C230.051 311.166 231.447 316.182 231.915 321.429C243.89 299.619 249.354 274.542 246.796 249.114C243.307 213.073 224.238 180.298 194.475 159.42L88.3239 85.1217C86.4634 83.7221 84.2544 83.0222 82.0454 83.0222C80.1849 83.0222 78.5573 83.3721 76.8133 84.3053C73.3252 86.2881 71 89.9039 71 94.1029Z" fill="#B3554C"/>
<path d="M397.247 317.445V417.87C397.247 424.051 392.016 426.618 390.386 427.201C388.76 427.899 383.294 429.416 378.412 424.867L300.672 350.162C295.38 345.074 290.327 339.695 286.341 333.533C283.184 328.653 281.911 325.841 281.911 325.841C277.26 316.395 277.26 307.297 281.792 298.198C288.537 284.669 305.746 270.905 331.669 257.842L375.97 282.569C389.225 290.034 397.247 303.213 397.247 317.445Z" fill="#69342F"/>
<path d="M441 94.0806V199.405C441 212.585 432.162 224.248 419.605 227.981C376.819 240.344 302.294 266.938 284.272 306.012C281.945 311.143 280.549 316.159 280.085 321.409C268.11 299.597 262.646 274.519 265.204 249.092C268.689 213.051 287.758 180.276 317.524 159.398L423.677 85.0995C425.537 83.6998 427.745 83 429.953 83C431.813 83 433.443 83.3499 435.184 84.283C438.674 86.2659 441 89.8817 441 94.0806Z" fill="#B3554C"/>
<g filter="url(#filter0_ii_2634_3)">
<path d="M429.782 107.888L363.276 174.392C355.788 181.879 346.647 187.321 336.699 190.368C330.67 192.218 324.347 193.175 317.926 193.175H194.066C187.646 193.175 181.322 192.218 175.293 190.368C165.347 187.321 156.204 181.879 148.717 174.392C126.538 152.213 104.38 130.056 82.2111 107.877C80.1435 105.81 78.0642 103.731 75.9966 101.663C76.465 106.202 77.139 111.077 78.108 116.224C79.936 126.073 82.7988 136.934 87.2388 148.339C89.023 152.942 90.9606 157.35 93.0063 161.562C98.1982 172.248 104.118 181.716 110.279 190.052C121.879 205.756 137.616 217.509 155.388 224.365C167.077 228.87 179.636 231.265 192.478 231.265H319.515C332.357 231.265 344.917 228.87 356.605 224.365C374.377 217.509 390.113 205.756 401.715 190.052C407.863 181.727 413.795 172.248 418.975 161.572C421.033 157.361 422.969 152.942 424.754 148.339C429.194 136.934 432.057 126.073 433.885 116.224C434.853 111.077 435.528 106.202 435.997 101.663C433.918 103.742 431.85 105.81 429.782 107.888ZM89.807 242.903L133.568 286.673H202.838L168.209 321.302L195.144 348.236L256.709 286.673H377.043L420.826 242.903C405.949 228.037 381.832 228.026 366.955 242.903L361.285 248.584H149.349L143.668 242.903C136.235 235.47 126.483 231.748 116.743 231.748C106.992 231.748 97.2404 235.47 89.807 242.903ZM266.307 303.987L208.008 361.1L233.126 386.216C245.379 398.469 265.246 398.469 277.499 386.216L359.731 303.987H266.307Z" fill="#E7F0FD"/>
</g>
</g>
<g clip-path="url(#clip0_2634_3)">
<path d="M368 288C416.053 288 455 326.955 455 375C455 423.053 416.053 462 368 462C319.955 462 281 423.049 281 375C281 326.955 319.955 288 368 288Z" fill="#F5AC37"/>
<path d="M371.206 381.143H404.265C404.97 381.143 405.302 381.143 405.353 380.219C405.624 376.856 405.624 373.473 405.353 370.106C405.353 369.452 405.028 369.182 404.32 369.182H338.528C337.713 369.182 337.494 369.452 337.494 370.216V379.894C337.494 381.143 337.494 381.143 338.798 381.143H371.206ZM401.662 357.872C401.755 357.625 401.755 357.355 401.662 357.112C401.109 355.91 400.456 354.763 399.696 353.687C398.553 351.846 397.206 350.151 395.671 348.628C394.947 347.708 394.109 346.882 393.17 346.181C388.464 342.176 382.869 339.342 376.856 337.917C373.822 337.236 370.721 336.911 367.612 336.938H338.414C337.6 336.938 337.49 337.263 337.49 337.972V357.273C337.49 358.087 337.49 358.306 338.524 358.306H401.27C401.27 358.306 401.814 358.197 401.924 357.872H401.658H401.662ZM401.662 392.453C400.738 392.351 399.806 392.351 398.882 392.453H338.582C337.768 392.453 337.494 392.453 337.494 393.542V412.412C337.494 413.281 337.494 413.5 338.582 413.5H366.422C367.753 413.602 369.084 413.508 370.388 413.23C374.428 412.941 378.402 412.064 382.192 410.619C383.57 410.141 384.901 409.519 386.158 408.771H386.538C393.064 405.377 398.365 400.044 401.708 393.499C401.708 393.499 402.088 392.676 401.662 392.461V392.453ZM326.567 423.284V422.959V410.29V405.995V393.217C326.567 392.508 326.567 392.402 325.698 392.402H313.898C313.244 392.402 312.974 392.402 312.974 391.533V381.201H325.588C326.293 381.201 326.567 381.201 326.567 380.277V370.055C326.567 369.401 326.567 369.241 325.698 369.241H313.898C313.244 369.241 312.974 369.241 312.974 368.372V358.803C312.974 358.204 312.974 358.044 313.843 358.044H325.534C326.348 358.044 326.567 358.044 326.567 357.01V327.702C326.567 326.833 326.567 326.614 327.656 326.614H368.435C371.394 326.731 374.335 327.056 377.243 327.593C383.237 328.701 388.996 330.842 394.262 333.9C397.754 335.955 400.969 338.437 403.83 341.295C405.984 343.531 407.926 345.95 409.648 348.526C411.359 351.138 412.78 353.929 413.896 356.846C414.033 357.605 414.761 358.118 415.521 357.989H425.254C426.502 357.989 426.502 357.989 426.557 359.187V368.106C426.557 368.975 426.232 369.194 425.359 369.194H417.854C417.095 369.194 416.875 369.194 416.93 370.173C417.228 373.485 417.228 376.809 416.93 380.121C416.93 381.045 416.93 381.154 417.968 381.154H426.553C426.933 381.644 426.553 382.133 426.553 382.626C426.608 383.257 426.608 383.895 426.553 384.525V391.106C426.553 392.03 426.283 392.304 425.465 392.304H415.188C414.472 392.167 413.775 392.625 413.61 393.338C411.163 399.7 407.248 405.404 402.19 409.977C400.342 411.641 398.4 413.207 396.372 414.651C394.196 415.904 392.077 417.208 389.846 418.242C385.739 420.089 381.433 421.452 377.012 422.317C372.815 423.069 368.56 423.409 364.289 423.351H326.551V423.296L326.567 423.284Z" fill="#FEFEFD"/>
<circle cx="368" cy="375" r="87" fill="#00A3FF"/>
<path d="M327.025 365.221L325.899 366.947C313.209 386.415 316.043 411.91 332.714 428.244C342.521 437.853 355.374 442.658 368.228 442.66C368.228 442.66 368.228 442.66 327.025 365.221Z" fill="white"/>
<path opacity="0.6" d="M368.224 388.757L327.021 365.221C368.224 442.66 368.224 442.66 368.224 442.66C368.224 425.794 368.224 406.469 368.224 388.757Z" fill="white"/>
<path opacity="0.6" d="M409.475 365.221L410.601 366.947C423.291 386.415 420.457 411.91 403.786 428.244C393.979 437.853 381.126 442.658 368.272 442.66C368.272 442.66 368.272 442.66 409.475 365.221Z" fill="white"/>
<path opacity="0.2" d="M368.267 388.757L409.471 365.221C368.267 442.66 368.267 442.66 368.267 442.66C368.267 425.794 368.267 406.469 368.267 388.757Z" fill="white"/>
<path opacity="0.2" d="M368.274 336.17V376.763L403.767 356.48L368.274 336.17Z" fill="white"/>
<path opacity="0.6" d="M368.28 336.17L332.763 356.479L368.28 376.763V336.17Z" fill="white"/>
<path d="M368.28 302.032L332.763 356.492L368.28 336.126V302.032Z" fill="white"/>
<path opacity="0.6" d="M368.274 336.121L403.794 356.487L368.274 302V336.121Z" fill="white"/>
</g>
<defs>
<filter id="filter0_ii_2634_3" x="67.9966" y="93.6633" width="376" height="309.742" filterUnits="userSpaceOnUse" color-interpolation-filters="sRGB">
<feFlood flood-opacity="0" result="BackgroundImageFix"/>
<feBlend mode="normal" in="SourceGraphic" in2="BackgroundImageFix" result="shape"/>
<feColorMatrix in="SourceAlpha" type="matrix" values="0 0 0 0 0 0 0 0 0 0 0 0 0 0 0 0 0 0 127 0" result="hardAlpha"/>
<feOffset dx="-8" dy="-8"/>
<feGaussianBlur stdDeviation="4"/>
<feComposite in2="hardAlpha" operator="arithmetic" k2="-1" k3="1"/>
<feColorMatrix type="matrix" values="0 0 0 0 0.982 0 0 0 0 0.988545 0 0 0 0 0.998 0 0 0 1 0"/>
<feBlend mode="normal" in2="shape" result="effect1_innerShadow_2634_3"/>
<feColorMatrix in="SourceAlpha" type="matrix" values="0 0 0 0 0 0 0 0 0 0 0 0 0 0 0 0 0 0 127 0" result="hardAlpha"/>
<feOffset dx="8" dy="8"/>
<feGaussianBlur stdDeviation="4"/>
<feComposite in2="hardAlpha" operator="arithmetic" k2="-1" k3="1"/>
<feColorMatrix type="matrix" values="0 0 0 0 0 0 0 0 0 0 0 0 0 0 0 0 0 0 0.25 0"/>
<feBlend mode="normal" in2="effect1_innerShadow_2634_3" result="effect2_innerShadow_2634_3"/>
</filter>
<linearGradient id="paint0_linear_2634_3" x1="0" y1="0" x2="512" y2="512" gradientUnits="userSpaceOnUse">
<stop stop-color="#FF0000"/>
<stop offset="0.5" stop-color="#641414"/>
<stop offset="1"/>
</linearGradient>
<radialGradient id="paint1_radial_2634_3" cx="0" cy="0" r="1" gradientUnits="userSpaceOnUse" gradientTransform="translate(261.389 512) rotate(-91.206) scale(256.057)">
<stop stop-color="#FF0000"/>
<stop offset="1"/>
</radialGradient>
<linearGradient id="paint2_linear_2634_3" x1="0" y1="0" x2="512" y2="512" gradientUnits="userSpaceOnUse">
<stop stop-color="#FF000D"/>
<stop offset="1" stop-color="#8A0000"/>
</linearGradient>
<clipPath id="clip0_2634_3">
<rect width="174" height="174" fill="white" transform="translate(281 288)"/>
</clipPath>
</defs>
</svg>
