<svg width="52" height="52" viewBox="0 0 52 52" fill="none" xmlns="http://www.w3.org/2000/svg">
<mask id="mask0_1815_170" style="mask-type:luminance" maskUnits="userSpaceOnUse" x="0" y="0" width="52" height="52">
<path d="M52 0H0V52H52V0Z" fill="white"/>
</mask>
<g mask="url(#mask0_1815_170)">
<path d="M26 52C40.3594 52 52 40.3594 52 26C52 11.6406 40.3594 0 26 0C11.6406 0 0 11.6406 0 26C0 40.3594 11.6406 52 26 52Z" fill="#1A82FF"/>
<path d="M26.0667 48.867C21.2134 48.867 16.3796 47.2864 12.458 44.4162L13.6635 42.7746C17.2383 45.3907 21.6436 46.8318 26.0667 46.8318C28.1265 46.8318 30.1698 46.5257 32.1403 45.9226L32.7386 47.8688C30.5747 48.5314 28.3303 48.867 26.0682 48.867H26.0667ZM35.102 47.0011L34.2953 45.1323C34.4144 45.0817 34.5319 45.0297 34.6495 44.9763C40.5654 42.3021 44.8263 37.1351 46.3399 30.802L48.3222 31.2745C46.6628 38.2241 41.9852 43.8932 35.489 46.8303C35.3595 46.8882 35.23 46.9462 35.102 47.0011ZM10.5099 42.8192C8.24026 40.7378 6.43945 38.2523 5.15955 35.4312C3.80523 32.4466 3.11914 29.2822 3.11914 26.0258C3.11914 25.2221 3.16229 24.4079 3.24861 23.6072L5.27563 23.8226C5.19825 24.5521 5.15806 25.2934 5.15806 26.0258C5.15806 28.991 5.78314 31.8732 7.01691 34.5918C8.18371 37.162 9.82229 39.426 11.8895 41.3201L10.5099 42.8192ZM48.7717 28.7994L46.7491 28.5469C46.8562 27.6911 46.9114 26.8221 46.9114 25.9604C46.9114 22.9951 46.2863 20.1131 45.0525 17.3943C43.9408 14.9461 42.3974 12.7711 40.4627 10.929L41.8691 9.45676C43.9943 11.4787 45.6895 13.8676 46.9099 16.555C48.2642 19.5396 48.9503 22.7039 48.9503 25.9604C48.9503 26.9053 48.8907 27.8606 48.7731 28.7994H48.7717ZM5.64323 21.5615L3.65194 21.1263C4.40053 17.7168 5.94088 14.4737 8.10929 11.7476C10.3833 8.88777 13.2319 6.67124 16.579 5.1574C16.8365 5.04004 17.0984 4.92862 17.3574 4.82314L18.1298 6.7054C17.8932 6.80197 17.655 6.90448 17.4199 7.01144C14.3719 8.39009 11.7763 10.4091 9.7062 13.0133C7.73127 15.4973 6.32635 18.4536 5.64323 21.563V21.5615ZM38.714 9.4419C35.0797 6.67718 30.5642 5.15443 26.0012 5.15443C24.0724 5.15443 22.1526 5.42333 20.2982 5.95369L19.7371 3.99714C21.7746 3.41478 23.8819 3.11914 26.0012 3.11914C31.0077 3.11914 35.9607 4.79045 39.9493 7.82259L38.714 9.44042V9.4419Z" fill="white"/>
<path d="M23.1856 15.6038C23.3375 15.7839 23.4908 15.961 23.6456 16.1366C24.3941 15.9639 25.1725 15.8688 25.9732 15.8688C30.6865 15.8688 34.6587 19.0327 35.8865 23.3532C36.1216 23.4038 36.3553 23.4544 36.592 23.4975C38.4597 23.8413 39.6355 24.0452 40.3692 24.1687C39.3914 17.0921 33.3193 11.6436 25.9732 11.6436C24.1695 11.6436 22.4416 11.9724 20.8477 12.5737C21.5277 13.4965 22.513 14.7614 23.1842 15.6038H23.1856Z" fill="white"/>
<path d="M36.3227 27.3906C38.5283 26.9858 39.7859 26.7685 40.4987 26.6539C40.5032 26.4961 40.5077 26.337 40.5077 26.1777C40.5077 26.0185 40.5047 25.8577 40.4987 25.6984C39.7859 25.5823 38.5283 25.3665 36.3227 24.9618C36.284 24.9543 36.2438 24.9469 36.2051 24.9395C36.2542 25.3457 36.2825 25.7579 36.2825 26.1777C36.2825 26.5974 36.2542 27.0081 36.2066 27.4144C36.2453 27.407 36.2855 27.3995 36.3242 27.3921L36.3227 27.3906Z" fill="white"/>
<path d="M22.032 35.8066C22.0543 35.7798 22.0766 35.7545 22.0989 35.7292C18.3261 34.1978 15.6651 30.4995 15.6651 26.1776C15.6651 21.8556 18.3261 18.1558 22.0989 16.6244C22.0766 16.5976 22.0528 16.5708 22.0304 16.5455C22.0304 16.5455 20.4127 14.5125 19.4512 13.1865C14.6992 15.5766 11.4385 20.4968 11.4385 26.179C11.4385 31.8612 14.6992 36.78 19.4512 39.1701C20.4127 37.8425 22.032 35.8096 22.032 35.8096V35.8066Z" fill="white"/>
<path d="M36.5925 28.8548C36.3574 28.898 36.1222 28.947 35.8886 28.9991C34.6607 33.3196 30.6886 36.4851 25.9753 36.4851C25.173 36.4851 24.3946 36.3899 23.6461 36.2173C23.4914 36.3914 23.338 36.5685 23.1877 36.7486C22.5165 37.5924 21.5313 38.8574 20.8496 39.7802C22.4435 40.3815 24.1714 40.7103 25.9753 40.7103C33.3213 40.7103 39.3934 35.2603 40.3712 28.1836C39.6375 28.3057 38.4618 28.511 36.594 28.8548H36.5925Z" fill="white"/>
<path d="M18.829 33.6982C20.8814 31.6607 24.16 29.9225 28.1217 28.7304C28.1233 28.7304 28.1247 28.7288 28.1276 28.7274H28.1262C28.1262 28.7274 28.1247 28.7304 28.1233 28.7304C26.0561 29.8957 24.1347 31.3453 22.4574 33.0195C21.8309 33.6447 21.231 34.3068 20.67 34.9915L20.594 35.0852C21.0525 35.3636 21.5332 35.6046 22.0333 35.8101C22.5169 35.2296 23.0318 34.664 23.5662 34.1312H23.5677C27.0785 30.6264 31.4882 28.3002 36.325 27.3924C36.3712 26.9935 36.398 26.5887 36.398 26.178C36.398 25.7673 36.3712 25.3609 36.325 24.9621C31.4882 24.0542 27.077 21.728 23.5662 18.2247C23.0349 17.6919 22.5199 17.1279 22.0333 16.5459C21.5317 16.7513 21.0495 16.9939 20.5926 17.2722L20.6685 17.3645C21.231 18.0521 21.8323 18.7144 22.4559 19.3364C24.1361 21.0122 26.0575 22.4618 28.1276 23.6286C24.1629 22.4335 20.8843 20.6967 18.832 18.6563L18.8126 18.637C18.4331 18.9986 18.0804 19.3885 17.7575 19.8037C19.0254 21.0524 20.6745 22.1894 22.6612 23.1791H22.6598C24.4115 24.0513 26.4176 24.7999 28.5816 25.3922H15.6099C15.5906 25.6512 15.5771 25.9131 15.5771 26.1765C15.5771 26.4399 15.5906 26.7018 15.6099 26.9608H28.5846C26.4207 27.5516 24.4115 28.3002 22.6628 29.1739C20.6759 30.1636 19.0284 31.3006 17.7589 32.5492C18.0804 32.9645 18.4331 33.3544 18.8141 33.7161L18.8334 33.6967L18.829 33.6982Z" fill="white"/>
<path opacity="0.2" d="M42.2522 42.1421C51.167 33.1663 51.1193 18.6632 42.1436 9.74847C33.1679 0.83376 18.6647 0.881384 9.75 9.85712L42.2522 42.1421Z" fill="white"/>
<path d="M32.1211 17.9038C33.9144 19.2403 35.2583 21.1453 35.8863 23.3539C36.1215 23.4045 36.3551 23.455 36.5918 23.4982C38.4596 23.842 39.6353 24.0459 40.369 24.1694C39.8198 20.1928 37.6604 16.7311 34.5722 14.46L32.1211 17.9054V17.9038Z" fill="url(#paint0_linear_1815_170)"/>
<path d="M32.123 34.4472C33.9164 33.1108 35.2603 31.2059 35.8884 28.9973C36.1235 28.9466 36.3572 28.896 36.5938 28.8529C38.4616 28.5091 39.6374 28.3052 40.371 28.1816C39.8219 32.1583 37.6624 35.6201 34.5743 37.8911L32.123 34.4458V34.4472Z" fill="url(#paint1_linear_1815_170)"/>
</g>
<defs>
<linearGradient id="paint0_linear_1815_170" x1="38.0741" y1="29.6611" x2="35.678" y2="18.2506" gradientUnits="userSpaceOnUse">
<stop stop-color="#1A82FF" stop-opacity="0.5"/>
<stop offset="1" stop-color="white"/>
</linearGradient>
<linearGradient id="paint1_linear_1815_170" x1="38.0746" y1="22.69" x2="35.6785" y2="34.1005" gradientUnits="userSpaceOnUse">
<stop stop-color="#1A82FF" stop-opacity="0.5"/>
<stop offset="1" stop-color="white"/>
</linearGradient>
</defs>
</svg>
