<svg width="52" height="52" viewBox="0 0 52 52" fill="none" xmlns="http://www.w3.org/2000/svg">
<path d="M26 52C40.3594 52 52 40.3594 52 26C52 11.6406 40.3594 0 26 0C11.6406 0 0 11.6406 0 26C0 40.3594 11.6406 52 26 52Z" fill="#1A82FF"/>
<path d="M23.1857 15.6028C23.3375 15.7829 23.4908 15.96 23.6456 16.1357C24.3942 15.963 25.1725 15.8678 25.9733 15.8678C30.6866 15.8678 34.6588 19.0319 35.8866 23.3523C36.1217 23.4028 36.3554 23.4535 36.592 23.4966C38.4598 23.8404 39.6356 24.0443 40.3692 24.1678C39.3915 17.0911 33.3193 11.6426 25.9733 11.6426C24.1695 11.6426 22.4416 11.9715 20.8477 12.5728C21.5278 13.4955 22.513 14.7605 23.1842 15.6028H23.1857Z" fill="white"/>
<path d="M36.3227 27.3897C38.5283 26.9848 39.7859 26.7676 40.4987 26.6529C40.5032 26.4952 40.5077 26.336 40.5077 26.1767C40.5077 26.0175 40.5047 25.8567 40.4987 25.6975C39.7859 25.5814 38.5283 25.3656 36.3227 24.9608C36.284 24.9534 36.2438 24.9459 36.2051 24.9385C36.2542 25.3448 36.2825 25.757 36.2825 26.1767C36.2825 26.5964 36.2542 27.0072 36.2066 27.4134C36.2453 27.406 36.2854 27.3986 36.3241 27.3911L36.3227 27.3897Z" fill="white"/>
<path d="M22.0319 35.8057C22.0543 35.7789 22.0766 35.7535 22.0989 35.7283C18.3262 34.1968 15.6652 30.4985 15.6652 26.1766C15.6652 21.8546 18.3262 18.1548 22.0989 16.6234C22.0766 16.5966 22.0527 16.5698 22.0305 16.5445C22.0305 16.5445 20.4127 14.5115 19.4513 13.1855C14.6993 15.5757 11.4385 20.4959 11.4385 26.1781C11.4385 31.8603 14.6993 36.779 19.4513 39.1692C20.4127 37.8416 22.0319 35.8086 22.0319 35.8086V35.8057Z" fill="white"/>
<path d="M36.5915 28.8538C36.3563 28.897 36.1212 28.9461 35.8875 28.9982C34.6597 33.3186 30.6875 36.4842 25.9742 36.4842C25.1721 36.4842 24.3937 36.3889 23.6451 36.2162C23.4903 36.3904 23.337 36.5675 23.1866 36.7476C22.5155 37.5914 21.5302 38.8565 20.8486 39.7792C22.4425 40.3804 24.1704 40.7093 25.9742 40.7093C33.3203 40.7093 39.3924 35.2593 40.3702 28.1826C39.6365 28.3047 38.4607 28.5101 36.5929 28.8538H36.5915Z" fill="white"/>
<path d="M18.829 33.6972C20.8813 31.6598 24.16 29.9215 28.1218 28.7294C28.1218 28.7294 28.1248 28.7279 28.1277 28.7264H28.1262C28.1262 28.7264 28.1247 28.7294 28.1232 28.7294C26.0561 29.8947 24.1347 31.3443 22.4574 33.0186C21.8308 33.6437 21.2311 34.3059 20.67 34.9905L20.5941 35.0843C21.0525 35.3626 21.5332 35.6037 22.0333 35.8091C22.5169 35.2287 23.0319 34.6631 23.5662 34.1303H23.5676C27.0785 30.6255 31.4882 28.2993 36.3251 27.3914C36.3712 26.9926 36.398 26.5878 36.398 26.177C36.398 25.7663 36.3712 25.3599 36.3251 24.9611C31.4882 24.0533 27.0769 21.7271 23.5662 18.2237C23.0349 17.6909 22.5199 17.1269 22.0333 16.5449C21.5317 16.7503 21.0495 16.9929 20.5926 17.2712L20.6685 17.3635C21.2311 18.0511 21.8324 18.7133 22.4559 19.3355C24.1362 21.0113 26.0575 22.4608 28.1277 23.6276C24.163 22.4325 20.8843 20.6957 18.832 18.6553L18.8126 18.6359C18.4332 18.9976 18.0804 19.3876 17.7575 19.8028C19.0254 21.0514 20.6744 22.1885 22.6613 23.1781H22.6598C24.4115 24.0503 26.4177 24.7989 28.5816 25.3912H15.6099C15.5905 25.6502 15.5771 25.9121 15.5771 26.1756C15.5771 26.4389 15.5905 26.7009 15.6099 26.9598H28.5846C26.4207 27.5506 24.4115 28.2993 22.6628 29.1729C20.676 30.1626 19.0284 31.2996 17.7589 32.5483C18.0804 32.9635 18.4332 33.3535 18.8141 33.7151L18.8335 33.6957L18.829 33.6972Z" fill="white"/>
<path opacity="0.2" d="M42.2522 42.1431C51.1669 33.1673 51.1194 18.6642 42.1436 9.74945C33.1679 0.834734 18.6647 0.88236 9.75 9.85811L42.2522 42.1431Z" fill="white"/>
<path d="M32.1211 17.9038C33.9144 19.2403 35.2584 21.1452 35.8864 23.3538C36.1216 23.4044 36.3552 23.455 36.5918 23.4982C38.4596 23.842 39.6353 24.0459 40.3691 24.1694C39.8198 20.1927 37.6604 16.7311 34.5723 14.46L32.1211 17.9053V17.9038Z" fill="url(#paint0_linear_1815_84)"/>
<path d="M32.123 34.4473C33.9164 33.1108 35.2603 31.2058 35.8884 28.9972C36.1235 28.9467 36.3572 28.896 36.5938 28.8528C38.4616 28.5091 39.6374 28.3051 40.371 28.1816C39.8219 32.1583 37.6624 35.62 34.5742 37.8911L32.123 34.4457V34.4473Z" fill="url(#paint1_linear_1815_84)"/>
<defs>
<linearGradient id="paint0_linear_1815_84" x1="38.0742" y1="29.6611" x2="35.678" y2="18.2505" gradientUnits="userSpaceOnUse">
<stop stop-color="#1A82FF" stop-opacity="0.5"/>
<stop offset="1" stop-color="white"/>
</linearGradient>
<linearGradient id="paint1_linear_1815_84" x1="38.0747" y1="22.69" x2="35.6785" y2="34.1005" gradientUnits="userSpaceOnUse">
<stop stop-color="#1A82FF" stop-opacity="0.5"/>
<stop offset="1" stop-color="white"/>
</linearGradient>
</defs>
</svg>
