<svg width="32" height="32" viewBox="0 0 32 32" fill="none" xmlns="http://www.w3.org/2000/svg">
<g clip-path="url(#clip0_18618_39417)">
<circle cx="16" cy="16" r="15.8095" fill="black"/>
<g clip-path="url(#clip1_18618_39417)">
<g clip-path="url(#clip2_18618_39417)">
<path d="M19.2431 19.8938C13.2502 21.6935 8.29272 24.3187 5.18872 27.3946L5.05176 27.5315C5.87736 28.3123 6.78232 29.0112 7.76024 29.6051L7.97016 29.3479C8.81752 28.3123 9.72632 27.3127 10.6722 26.3706C13.2118 23.84 16.1174 21.6499 19.2457 19.8912L19.2418 19.8938H19.2431Z" fill="white"/>
<path d="M0.151855 17.2276C0.391215 20.4366 1.5829 23.3793 3.45298 25.7729L3.53874 25.6871C5.46 23.7914 7.96112 22.0685 10.9781 20.5671C13.6226 19.25 16.6587 18.1198 19.9317 17.2276H0.151855Z" fill="white"/>
<path d="M12.3495 4.03852C17.7114 9.38124 24.4596 12.914 31.8618 14.2542C30.9684 6.33356 24.2266 0.171631 16.0359 0.171631C13.8727 0.171631 11.8106 0.60299 9.92773 1.38123C10.6919 2.30156 11.5085 3.19756 12.3495 4.03852Z" fill="white"/>
<path d="M5.1889 4.69256C8.2929 7.77224 13.2503 10.3937 19.2433 12.1972C16.115 10.4359 13.2094 8.2484 10.6699 5.71784C9.7265 4.77832 8.81898 3.77864 7.96778 2.74056L7.75786 2.48328C6.77994 3.0772 5.87498 3.7748 5.05322 4.5556L5.19018 4.69256H5.1889Z" fill="white"/>
<path d="M12.3495 28.0487C11.5047 28.8896 10.6893 29.7856 9.92773 30.7059C11.8081 31.4842 13.8727 31.9155 16.0359 31.9155C24.2279 31.9155 30.9697 25.7536 31.8644 17.8304C24.4634 19.1706 17.7153 22.7034 12.3521 28.0461L12.3495 28.0487Z" fill="white"/>
<path d="M10.9781 11.5201C7.96112 10.0187 5.46 8.29449 3.53874 6.40009L3.45298 6.31433C1.5829 8.70793 0.391215 11.6507 0.151855 14.8596H19.9278C16.6562 13.9674 13.6226 12.8372 10.9742 11.5162L10.9768 11.5201H10.9781Z" fill="white"/>
</g>
<path d="M19.2431 19.8938C13.2502 21.6935 8.29272 24.3187 5.18872 27.3946L5.05176 27.5315C5.87736 28.3123 6.78232 29.0112 7.76024 29.6051L7.97016 29.3479C8.81752 28.3123 9.72632 27.3127 10.6722 26.3706C13.2118 23.84 16.1174 21.6499 19.2457 19.8912L19.2418 19.8938H19.2431Z" fill="white"/>
<path d="M0.151855 17.2276C0.391215 20.4366 1.5829 23.3793 3.45298 25.7729L3.53874 25.6871C5.46 23.7914 7.96112 22.0685 10.9781 20.5671C13.6226 19.25 16.6587 18.1198 19.9317 17.2276H0.151855Z" fill="white"/>
<path d="M12.3495 4.03852C17.7114 9.38124 24.4596 12.914 31.8618 14.2542C30.9684 6.33356 24.2266 0.171631 16.0359 0.171631C13.8727 0.171631 11.8106 0.60299 9.92773 1.38123C10.6919 2.30156 11.5085 3.19756 12.3495 4.03852Z" fill="white"/>
<path d="M5.1889 4.69256C8.2929 7.77224 13.2503 10.3937 19.2433 12.1972C16.115 10.4359 13.2094 8.2484 10.6699 5.71784C9.7265 4.77832 8.81898 3.77864 7.96778 2.74056L7.75786 2.48328C6.77994 3.0772 5.87498 3.7748 5.05322 4.5556L5.19018 4.69256H5.1889Z" fill="white"/>
<path d="M12.3495 28.0487C11.5047 28.8896 10.6893 29.7856 9.92773 30.7059C11.8081 31.4842 13.8727 31.9155 16.0359 31.9155C24.2279 31.9155 30.9697 25.7536 31.8644 17.8304C24.4634 19.1706 17.7153 22.7034 12.3521 28.0461L12.3495 28.0487Z" fill="white"/>
<path d="M10.9781 11.5201C7.96112 10.0187 5.46 8.29449 3.53874 6.40009L3.45298 6.31433C1.5829 8.70793 0.391215 11.6507 0.151855 14.8596H19.9278C16.6562 13.9674 13.6226 12.8372 10.9742 11.5162L10.9768 11.5201H10.9781Z" fill="white"/>
</g>
</g>
<defs>
<clipPath id="clip0_18618_39417">
<rect width="32" height="32" fill="white"/>
</clipPath>
<clipPath id="clip1_18618_39417">
<rect width="32" height="32" fill="white"/>
</clipPath>
<clipPath id="clip2_18618_39417">
<rect width="32" height="32" fill="white"/>
</clipPath>
</defs>
</svg>
