<svg width="263" height="263" viewBox="0 0 263 263" fill="none" xmlns="http://www.w3.org/2000/svg">
<g clip-path="url(#clip0_93_4)">
<path d="M258.567 163.186C241.071 233.359 169.99 276.064 99.8018 258.565C29.6432 241.071 -13.0669 169.994 4.43697 99.827C21.9254 29.6475 93.0065 -13.0609 163.172 4.43323C233.356 21.9274 276.063 93.0126 258.565 163.187L258.566 163.186H258.567Z" fill="url(#paint0_linear_93_4)"/>
<path d="M189.266 112.922C191.873 95.4776 178.601 86.1005 160.452 79.845L166.339 56.215L151.964 52.6306L146.233 75.6385C142.454 74.6954 138.573 73.8068 134.715 72.9258L140.488 49.7659L126.122 46.1816L120.231 69.8042C117.104 69.0918 114.032 68.3875 111.052 67.6458L111.069 67.5713L91.2452 62.618L87.4214 77.9814C87.4214 77.9814 98.0863 80.4275 97.8618 80.578C103.683 82.0322 104.735 85.8878 104.561 88.9442L97.8541 115.865C98.2547 115.966 98.7746 116.114 99.3484 116.344C98.8686 116.225 98.3585 116.095 97.8289 115.968L88.4282 153.68C87.7168 155.45 85.9112 158.105 81.8414 157.097C81.9852 157.306 71.3933 154.488 71.3933 154.488L64.2563 170.953L82.9632 175.62C86.4434 176.493 89.8536 177.407 93.212 178.266L87.2637 202.168L101.622 205.752L107.513 182.104C111.436 183.17 115.242 184.153 118.969 185.079L113.098 208.615L127.474 212.2L133.422 188.343C157.935 192.985 176.366 191.113 184.124 168.927C190.376 151.065 183.813 140.762 170.917 134.044C180.31 131.876 187.385 125.694 189.271 112.924L189.267 112.921L189.266 112.922ZM156.422 159.008C151.98 176.87 121.924 167.214 112.18 164.793L120.073 133.128C129.817 135.562 161.065 140.379 156.423 159.008H156.422ZM160.868 112.663C156.815 128.911 131.8 120.657 123.685 118.632L130.842 89.9145C138.957 91.9384 165.09 95.7159 160.869 112.663H160.868Z" fill="white"/>
</g>
<defs>
<linearGradient id="paint0_linear_93_4" x1="-42.6983" y1="15.2496" x2="312.477" y2="206.496" gradientUnits="userSpaceOnUse">
<stop stop-color="#2A2CBF"/>
<stop offset="0.482532" stop-color="#6335FF"/>
<stop offset="0.905715" stop-color="#BD89FF"/>
</linearGradient>
<clipPath id="clip0_93_4">
<rect width="263" height="263" fill="white"/>
</clipPath>
</defs>
</svg>
