<svg width="50" height="50" viewBox="0 0 50 50" fill="none" xmlns="http://www.w3.org/2000/svg">
<circle cx="25" cy="25" r="25" fill="url(#paint0_linear_3711_145175)"/>
<path d="M36.1646 11.998H40.7071L31.2526 21.3617C29.5996 22.9903 27.3723 23.9033 25.0518 23.9033C22.7313 23.9033 20.5039 22.9903 18.8509 21.3617L9.38853 11.998H13.9389L21.1222 19.1076C22.1683 20.1401 23.5788 20.719 25.0486 20.719C26.5184 20.719 27.929 20.1401 28.975 19.1076L36.1646 11.998ZM13.884 38.033H9.3335L18.8509 28.6127C20.5039 26.9841 22.7313 26.0711 25.0518 26.0711C27.3723 26.0711 29.5996 26.9841 31.2526 28.6127L40.77 38.0314H36.2196L28.9813 30.8605C27.9353 29.828 26.5247 29.2491 25.0549 29.2491C23.5851 29.2491 22.1745 29.828 21.1285 30.8605L13.8824 38.033H13.884Z" fill="white"/>
<defs>
<linearGradient id="paint0_linear_3711_145175" x1="11" y1="45.6667" x2="41.3333" y2="6.33333" gradientUnits="userSpaceOnUse">
<stop stop-color="#F25125"/>
<stop offset="1" stop-color="#FC980C"/>
</linearGradient>
</defs>
</svg>
