<svg width="24" height="24" xmlns="http://www.w3.org/2000/svg" fill="none">
    <defs>
        <linearGradient y2="1.36343" x2="1.04405" y1="-0.02174" x1="0.05343" id="paint0_linear_3020_218400">
            <stop stop-color="#080F22"/>
            <stop stop-color="#0B152E" offset="0.3411"/>
            <stop stop-color="#5741BC" offset="1"/>
        </linearGradient>
    </defs>
    <g>
        <title>Layer 1</title>
        <path id="svg_1" d="m24,0l0,24l-24,0l24,-24z" opacity="undefined" fill="transparent"/>
        <path stroke-width="0" id="svg_2" d="m12,23.5c-6.35359,0 -11.5,-5.14641 -11.5,-11.5c0,-6.35359 5.14641,-11.5 11.5,-11.5c6.35359,0 11.5,5.14641 11.5,11.5c0,6.35359 -5.14641,11.5 -11.5,11.5z" opacity="undefined" stroke="#A0AEC0" fill="url(#paint0_linear_3020_218400)"/>
        <path id="svg_3" fill="#664AED" d="m10.1513,15.8803l-1.21087,-0.3066l-0.44582,1.7606l1.21086,0.3066l0.44583,-1.7606z"/>
        <path id="svg_4" fill="#146AF4" d="m12.2499,16.4101l-1.2108,-0.3066l-0.4459,1.7606l1.2109,0.3066l0.4458,-1.7606z"/>
        <path id="svg_5" fill="#146AF4" d="m14.9291,5.84373l-1.2108,-0.30662l-0.4459,1.76057l1.2109,0.30661l0.4458,-1.76056z"/>
        <path id="svg_6" fill="#664AED" d="m12.8334,5.30662l-1.2108,-0.30662l-0.4459,1.76057l1.2109,0.30662l0.4458,-1.76057z"/>
        <path id="svg_7" fill="#B9B9FC" d="m12.9351,16.1029l-5.9351,-1.3558l0.3564,-1.2707l5.9351,1.3558c0.5091,0.1179 1.0183,-0.1375 1.1346,-0.5632c0.1164,-0.4258 -0.1963,-0.8646 -0.7055,-0.9825l-3.7094,-0.8449l0.3564,-1.2707l3.7094,0.8449c1.3383,0.3079 2.1748,1.4737 1.8547,2.5937c-0.32,1.1201 -1.6656,1.7947 -3.0039,1.4868l0.0073,0.0066z"/>
        <path id="svg_8" fill="#664AED" d="m12.3876,7.07199l-2.0429,-0.5173l-2.23283,8.81771l2.04283,0.5173l2.2329,-8.81771z"/>
        <path id="svg_9" fill="#9FF7EC" d="m12.7124,12.0944l-3.97902,-0.9504l0.3823,-1.42931l3.97902,0.95041c0.5461,0.1326 1.0922,-0.1547 1.2171,-0.6336c0.1248,-0.4789 -0.2107,-0.97252 -0.7568,-1.10514l-5.555,-1.32616l0.38229,-1.4293l5.55501,1.32616c1.4355,0.34627 2.3328,1.65769 1.9895,2.91754c-0.3433,1.2599 -1.7867,2.0187 -3.2222,1.6724l0.0078,0.0074z"/>
        <path id="svg_10" fill="#664AED" d="m12.3876,7.06808l-2.0429,-0.5173l-0.42698,1.68628l2.04288,0.5173l0.427,-1.68628z"/>
    </g>
</svg>