<svg width="24" height="24" viewBox="0 0 24 24" fill="none" xmlns="http://www.w3.org/2000/svg">
<mask id="path-1-inside-1_1056_877" fill="white">
<path d="M0 12C0 5.37258 5.37259 0 12 0H12.3243V24H12C5.37259 24 0 18.6274 0 12V12Z"/>
</mask>
<path d="M0 12C0 5.37258 5.37259 0 12 0H12.3243V24H12C5.37259 24 0 18.6274 0 12V12Z" fill="#00F99B"/>
<path d="M0 0H12.3243H0ZM12.3243 24H0H12.3243ZM0 24V0V24ZM12.5243 0V24H12.1243V0H12.5243Z" fill="black" mask="url(#path-1-inside-1_1056_877)"/>
<path d="M9.51002 9L7.15351 9C5.27267 9 3.74797 10.5247 3.74792 12.4055V13.2991C3.74792 13.3221 3.76654 13.3407 3.78948 13.3407H4.26469C4.28763 13.3407 4.30624 13.3221 4.30624 13.2991V12.4055C4.30624 10.833 5.58102 9.55829 7.15351 9.55829H10.334C10.3658 9.55829 10.3857 9.52405 10.3687 9.49711C10.1878 9.20906 9.91668 9.00025 9.51072 9C9.51052 9 9.51027 9 9.51002 9Z" fill="#2B2B2B"/>
<path d="M10.6714 10.3742C10.6681 10.3543 10.6508 10.3399 10.6307 10.3399H7.1536C5.98195 10.3399 5.03215 11.2897 5.0321 12.4614V13.2992C5.0321 13.3221 5.05072 13.3407 5.07366 13.3407H5.42422C5.516 13.3407 5.59042 13.2663 5.59042 13.1745V12.4614C5.59042 11.5981 6.2903 10.8982 7.1536 10.8982H10.6833C10.707 10.8982 10.7259 10.8783 10.7246 10.8547C10.7168 10.7198 10.7016 10.5526 10.6714 10.3742Z" fill="#2B2B2B"/>
<path d="M4.2147 16H6.57121C8.45204 16 9.97675 14.4753 9.97675 12.5945L9.97679 11.7009C9.97679 11.6779 9.95818 11.6593 9.93524 11.6593L9.46003 11.6593C9.43709 11.6593 9.41847 11.6779 9.41847 11.7008V12.5945C9.41847 14.1669 8.1437 15.4417 6.57121 15.4417H3.39075C3.35892 15.4417 3.33906 15.4759 3.35597 15.5029C3.53696 15.7909 3.80804 15.9998 4.21395 16C4.2142 16 4.21445 16 4.2147 16Z" fill="#2B2B2B"/>
<path d="M3.05317 14.6258C3.05654 14.6456 3.07378 14.6601 3.09393 14.6601H6.57098C7.74267 14.6601 8.69248 13.7103 8.69248 12.5386V11.7008C8.69248 11.6779 8.67391 11.6593 8.65093 11.6593H8.30041C8.20863 11.6593 8.13421 11.7337 8.13421 11.8255V12.5386C8.13421 13.4019 7.43433 14.1018 6.57098 14.1018H3.04137C3.01765 14.1018 2.9987 14.1217 3.00007 14.1453C3.00776 14.2802 3.02305 14.4474 3.05317 14.6258Z" fill="#2B2B2B"/>
<path d="M24 11.6757C24 5.22738 18.7726 0 12.3243 0V0V24V24C18.7726 24 24 18.7726 24 12.3243V11.6757Z" fill="#627EEA"/>
<path d="M17.4991 7V11.1393L20.9977 12.7027L17.4991 7Z" fill="white" fill-opacity="0.602"/>
<path d="M17.4991 7L14 12.7027L17.4991 11.1393V7Z" fill="white"/>
<path d="M17.4991 15.385V18.1976L21 13.3541L17.4991 15.385Z" fill="white" fill-opacity="0.602"/>
<path d="M17.4991 18.1976V15.3846L14 13.3541L17.4991 18.1976Z" fill="white"/>
<path d="M17.4991 14.734L20.9977 12.7026L17.4991 11.1402V14.734Z" fill="white" fill-opacity="0.2"/>
<path d="M14 12.7026L17.4991 14.734V11.1402L14 12.7026Z" fill="white" fill-opacity="0.602"/>
<g clip-path="url(#clip0_1056_877)">
<path fill-rule="evenodd" clip-rule="evenodd" d="M4.41 0C6.8452 0 8.82 1.9748 8.82 4.41C8.82 6.8452 6.8452 8.82 4.41 8.82C1.9748 8.82 0 6.8452 0 4.41C0 1.9748 1.9748 0 4.41 0Z" fill="#1E1E1E"/>
<path d="M4.47612 6.25338C3.0658 6.25338 1.92273 5.84589 1.92273 5.29993C1.92273 5.01505 2.23408 4.75839 2.73241 4.57758C3.12137 4.82718 3.77405 4.95507 4.51405 4.95507C5.2364 4.95507 5.87497 4.79896 6.26746 4.55994C6.73757 4.73898 7.02951 4.98859 7.02951 5.26377C7.02951 5.81061 5.88644 6.25338 4.47612 6.25338Z" fill="white"/>
<path d="M4.49117 4.83248C3.42218 4.83248 2.55518 4.49732 2.55518 4.08366C2.55518 3.85434 2.82242 3.64883 3.24137 3.51212C3.54037 3.66824 3.98843 3.7679 4.49117 3.7679C4.99391 3.7679 5.44196 3.66824 5.74096 3.51212C6.16079 3.64972 6.42716 3.85434 6.42716 4.08366C6.42804 4.49732 5.56103 4.83248 4.49117 4.83248Z" fill="white"/>
<path d="M4.48406 3.64354C3.65762 3.64354 2.9873 3.36659 2.9873 3.02614C2.9873 2.68569 3.65762 2.40874 4.48406 2.40874C5.31049 2.40874 5.98081 2.68569 5.98081 3.02614C5.98081 3.36659 5.31049 3.64354 4.48406 3.64354Z" fill="white"/>
</g>
<defs>
<clipPath id="clip0_1056_877">
<rect width="8.82" height="8.82" fill="white"/>
</clipPath>
</defs>
</svg>
