<svg width="32" height="32" viewBox="0 0 32 32" fill="none" xmlns="http://www.w3.org/2000/svg">
<rect x="0.540541" y="0.540541" width="30.9189" height="30.9189" rx="15.4595" fill="#025DCA"/>
<rect x="0.540541" y="0.540541" width="30.9189" height="30.9189" rx="15.4595" stroke="#024BA1" stroke-width="1.08108"/>
<path d="M15.351 14.073C14.8164 14.073 14.431 13.9376 14.1949 13.6668C13.9588 13.389 13.8408 13.0245 13.8408 12.5732C13.8408 11.5733 14.5872 11.0733 16.0801 11.0733C17.4827 11.0733 18.8596 11.5162 19.7244 11.9486L19.1839 12.4892C18.7514 12.1649 17.3022 11.8233 16.0801 11.8233C15.4829 11.8233 15.0802 11.8892 14.8719 12.0211C14.6705 12.1531 14.5699 12.3371 14.5699 12.5732C14.5699 12.8092 14.6254 12.9933 14.7365 13.1252C14.8476 13.2571 15.0524 13.3231 15.351 13.3231H16.6425C17.5799 13.3231 18.4236 13.4828 19.1735 13.8022C19.9303 14.1216 20.5518 14.559 21.0378 15.1145C21.5239 15.6631 21.8954 16.2984 22.1523 17.0205C22.4092 17.7357 22.5376 18.503 22.5376 19.3223C22.5376 19.9889 22.4439 20.6208 22.2564 21.218C22.0689 21.8151 21.7843 22.3637 21.4024 22.8636C21.0274 23.3635 20.5726 23.7975 20.0379 24.1655C19.5102 24.5266 18.8784 24.8078 18.1423 25.0092C17.4133 25.2175 16.6217 25.3216 15.7676 25.3216C14.4275 25.3216 13.1707 25.1168 11.9972 24.7071C10.8307 24.3044 9.85862 23.6478 9.08093 22.9188L9.51337 22.4863C10.2216 23.1251 11.2786 23.6968 12.341 24.0509C13.4103 24.3981 14.5525 24.5717 15.7676 24.5717C16.7189 24.5717 17.5764 24.4363 18.3402 24.1655C19.111 23.8878 19.7428 23.5093 20.2358 23.0302C20.7358 22.5511 21.1177 21.9956 21.3815 21.3638C21.6523 20.7319 21.7877 20.0514 21.7877 19.3223C21.7877 18.3572 21.5933 17.4858 21.2045 16.7081C20.8156 15.9235 20.2219 15.2881 19.4234 14.8021C18.6319 14.316 17.6945 14.073 16.6113 14.073H15.351ZM16.5384 14.8229C17.9479 14.8229 19.0485 15.2534 19.8401 16.1144C20.6386 16.9754 21.0378 18.0447 21.0378 19.3223C21.0378 20.6208 20.5761 21.6971 19.6526 22.5511C18.7291 23.3982 17.4341 23.8218 15.7676 23.8218C14.6566 23.8218 13.6186 23.669 12.6534 23.3635C11.6883 23.058 10.6927 22.5013 10.0539 21.9458L10.5944 21.4052C11.1638 21.8705 12.1153 22.4296 12.9763 22.6865C13.8442 22.9434 14.7747 23.0719 15.7676 23.0719C17.2327 23.0719 18.3506 22.7212 19.1214 22.0199C19.8991 21.3186 20.2879 20.4194 20.2879 19.3223C20.2879 18.2391 19.9616 17.3434 19.3089 16.6352C18.6631 15.9269 17.7361 15.5728 16.528 15.5728H15.351C14.3372 15.5728 13.5769 15.2951 13.07 14.7396C12.5632 14.1841 12.3097 13.4619 12.3097 12.5732C12.3097 11.6844 12.6222 10.9622 13.2471 10.4068C13.879 9.85127 14.8233 9.57352 16.0801 9.57352C16.9619 9.57352 17.7813 9.67768 18.5381 9.88599C19.295 10.0874 20.2636 10.5369 20.7566 10.9188L20.2161 11.4593C19.3481 10.8621 17.7049 10.3234 16.0801 10.3234C15.0316 10.3234 14.2643 10.5317 13.7783 10.9484C13.2992 11.358 13.0596 11.8996 13.0596 12.5732C13.0596 13.2536 13.2367 13.7987 13.5908 14.2084C13.9519 14.6181 14.5386 14.8229 15.351 14.8229H16.5384ZM16.4967 16.3227C17.5105 16.3227 18.2708 16.6039 18.7777 17.1664C19.2846 17.7288 19.538 18.4475 19.538 19.3223C19.538 20.2111 19.2221 20.9333 18.5902 21.4888C17.9653 22.0442 17.0244 22.322 15.7676 22.322C14.8858 22.322 14.063 22.2213 13.2992 22.0199C12.5423 21.8116 11.5199 21.3547 11.0269 20.9728L11.5674 20.4323C12.4354 21.0294 14.1359 21.5721 15.7676 21.5721C16.8161 21.5721 17.5799 21.3672 18.059 20.9576C18.5451 20.541 18.7881 19.9959 18.7881 19.3223C18.7881 18.6488 18.6076 18.1072 18.2465 17.6975C17.8854 17.2809 17.2987 17.0726 16.4863 17.0726H15.351C13.9276 17.0726 12.8131 16.6491 12.0077 15.8019C11.2091 14.9479 10.8099 13.8716 10.8099 12.5732C10.8099 11.2747 11.2716 10.2019 12.1951 9.3548C13.1186 8.50074 14.4136 8.07371 16.0801 8.07371C17.1911 8.07371 18.2257 8.22647 19.1839 8.53198C20.149 8.8375 21.1989 9.28218 21.8377 9.83767L21.2971 10.3782C20.7278 9.91299 19.722 9.4659 18.861 9.20899C18 8.95207 17.073 8.82362 16.0801 8.82362C14.615 8.82362 13.4936 9.17427 12.7159 9.87557C11.9452 10.5769 11.5598 11.4761 11.5598 12.5732C11.5598 13.6633 11.8861 14.5625 12.5388 15.2708C13.1915 15.9721 14.1289 16.3227 15.351 16.3227H16.4967ZM16.4967 17.8225C17.0314 17.8225 17.4167 17.9614 17.6528 18.2391C17.8889 18.5169 18.0069 18.878 18.0069 19.3223C18.0069 20.3222 17.2605 20.8222 15.7676 20.8222C14.3581 20.8222 12.7081 20.4164 11.9999 19.9998L12.5404 19.4593C13.0264 19.6815 14.5386 20.0723 15.7676 20.0723C16.3648 20.0723 16.764 20.0063 16.9654 19.8744C17.1737 19.7424 17.2779 19.5584 17.2779 19.3223C17.2779 19.0932 17.2188 18.9127 17.1008 18.7807C16.9897 18.6419 16.7814 18.5724 16.4759 18.5724H15.351C14.3928 18.5724 13.5248 18.4162 12.7472 18.1037C11.9764 17.7913 11.3411 17.3608 10.8411 16.8122C10.3481 16.2637 9.96971 15.6284 9.70586 14.9062C9.442 14.1841 9.31007 13.4064 9.31007 12.5732C9.31007 11.9066 9.40381 11.2747 9.59129 10.6776C9.77877 10.0804 10.06 9.53186 10.4349 9.03192C10.8168 8.53198 11.2716 8.10148 11.7994 7.74041C12.334 7.3724 12.9659 7.08771 13.695 6.88635C14.431 6.67804 15.226 6.57389 16.0801 6.57389C17.4202 6.57389 18.6735 6.77872 19.8401 7.1884C21.0066 7.59113 22.033 8.13562 22.8107 8.8647L22.2701 9.40524C21.5619 8.76643 20.5587 8.20216 19.4963 7.85498C18.434 7.50086 17.2952 7.3238 16.0801 7.3238C15.1288 7.3238 14.2678 7.46267 13.4971 7.74041C12.7333 8.01121 12.1014 8.38617 11.6015 8.86528C11.1085 9.34439 10.7266 9.89987 10.4558 10.5317C10.1919 11.1636 10.06 11.8441 10.06 12.5732C10.06 13.5522 10.2579 14.4341 10.6537 15.2187C11.0494 16.0033 11.6535 16.6352 12.4659 17.1143C13.2783 17.5864 14.24 17.8225 15.351 17.8225H16.4967ZM17.2779 25.2026L16.9097 25.2551L16.528 25.2928V27.6755H17.2779V25.2026ZM14.2782 27.6755H15.0281V25.3003L14.6644 25.2737L14.2782 25.2332V27.6755ZM17.2779 4.32416H16.528V6.57857L16.8647 6.59443L17.2779 6.63064V4.32416ZM14.2782 6.74556L14.6178 6.68458L15.0281 6.62978V4.32416H14.2782V6.74556Z" fill="#F8F0E3"/>
</svg>
