<svg width="80" height="80" viewBox="0 0 80 80" fill="none" xmlns="http://www.w3.org/2000/svg">
<rect x="1.45455" y="1.45455" width="77.0909" height="77.0909" rx="38.5455" fill="url(#paint0_linear_349_6274)"/>
<rect x="1.45455" y="1.45455" width="77.0909" height="77.0909" rx="38.5455" stroke="url(#paint1_linear_349_6274)" stroke-width="2.90909"/>
<path d="M63.9532 45.5286L63.8871 45.598C63.8562 45.6299 63.825 45.6616 63.7934 45.6931L45.6688 63.7886C42.5115 66.9408 37.3924 66.9408 34.2351 63.7886L29.2299 58.7917C28.8751 58.4389 28.8744 57.865 29.2276 57.5106C29.3316 57.4063 29.4593 57.3289 29.5998 57.285C34.9645 55.629 39.3235 53.7174 42.6767 51.5503C50.6625 46.3891 57.7547 44.3819 63.9532 45.5286ZM60.1534 30.6431C66.8451 32.7517 66.0642 37.6745 66.1529 39.6151C58.8244 35.7724 50.0081 37.1809 39.7038 43.8404C32.0236 48.8041 25.5902 50.8506 20.4036 49.9799C15.217 49.1092 14.0503 42.7749 13.8184 41.0917C19.5175 43.9733 27.1551 42.3194 36.731 36.1306C45.6542 30.3636 53.4617 28.5344 60.1534 30.6431ZM45.6688 16.1824L50.3717 20.8771C50.7259 21.2306 50.7264 21.8044 50.373 22.1587C50.2469 22.2851 50.0863 22.3714 49.9113 22.4067C43.1032 23.7782 37.6583 25.7829 33.5768 28.4208C26.5827 32.941 20.6226 35.0419 15.6965 34.7237L15.6971 34.7224L34.2351 16.1824C37.3924 13.0302 42.5115 13.0302 45.6688 16.1824Z" fill="white"/>
<defs>
<linearGradient id="paint0_linear_349_6274" x1="40" y1="2.90909" x2="40" y2="80" gradientUnits="userSpaceOnUse">
<stop stop-color="#2041CA"/>
<stop offset="1" stop-color="#3068EF"/>
</linearGradient>
<linearGradient id="paint1_linear_349_6274" x1="40" y1="80.0427" x2="40" y2="0.0434107" gradientUnits="userSpaceOnUse">
<stop stop-color="#CFDFFF"/>
<stop offset="1" stop-color="#7CACFF"/>
</linearGradient>
</defs>
</svg>
