<svg width="36" height="36" viewBox="0 0 24 24" fill="none" xmlns="http://www.w3.org/2000/svg">
    <mask id="mask0_3825_493808" style="mask-type:luminance" maskUnits="userSpaceOnUse" x="0" y="0" width="24" height="24">
        <path d="M23.1582 0.370728H0.251953V23.277H23.1582V0.370728Z" fill="white"/>
    </mask>
    <g mask="url(#mask0_3825_493808)">
        <path d="M11.7051 23.277C18.0305 23.277 23.1582 18.1492 23.1582 11.8239C23.1582 5.49847 18.0305 0.370728 11.7051 0.370728C5.37969 0.370728 0.251953 5.49847 0.251953 11.8239C0.251953 18.1492 5.37969 23.277 11.7051 23.277Z" fill="url(#paint0_linear_3825_493808)"/>
        <mask id="mask1_3825_493808" style="mask-type:luminance" maskUnits="userSpaceOnUse" x="4" y="5" width="16" height="14">
            <path d="M19.2051 5.52454H4.25781V18.123H19.2051V5.52454Z" fill="white"/>
        </mask>
        <g mask="url(#mask1_3825_493808)">
            <g opacity="0.8">
                <path fill-rule="evenodd" clip-rule="evenodd" d="M19.2051 15.7332L16.8832 11.8303H13.9623L16.3102 15.7332H10.4688C8.36422 15.7332 6.77582 13.9655 6.77582 11.8301C6.77582 9.69463 8.3649 7.92652 10.4688 7.92652H15.4901L14.0604 5.52454H10.4688C7.09662 5.52454 4.25781 8.35669 4.25781 11.8301C4.25781 15.3034 7.09891 18.123 10.4688 18.123H19.2051M11.3528 10.0518C11.3528 10.7152 10.8302 11.2528 10.1856 11.2528C9.54101 11.2528 9.01843 10.7152 9.01843 10.0518C9.01843 9.38851 9.54101 8.85086 10.1856 8.85086C10.8302 8.85086 11.3528 9.38851 11.3528 10.0518ZM10.1856 14.5791C10.8302 14.5791 11.3528 14.0415 11.3528 13.3782C11.3528 12.7148 10.8302 12.1772 10.1856 12.1772C9.54101 12.1772 9.01843 12.7148 9.01843 13.3782C9.01843 14.0415 9.54101 14.5791 10.1856 14.5791Z" fill="white"/>
            </g>
        </g>
    </g>
    <defs>
        <linearGradient id="paint0_linear_3825_493808" x1="11.7051" y1="0.370728" x2="11.7051" y2="23.277" gradientUnits="userSpaceOnUse">
            <stop stop-color="#B3B2D3"/>
            <stop offset="0.526042" stop-color="#8C8ADA"/>
            <stop offset="1" stop-color="#6D69DE"/>
        </linearGradient>
    </defs>
</svg>
