<svg width="41" height="42" viewBox="0 0 41 42" fill="none" xmlns="http://www.w3.org/2000/svg">
    <g clip-path="url(#clip0_3185_12297)">
        <path d="M20.6812 0.772217C9.54995 0.772217 0.526306 9.79586 0.526306 20.9271C0.526307 32.0584 9.54995 41.082 20.6812 41.082C31.8124 41.082 40.8361 32.0584 40.8361 20.9271C40.8361 9.79586 31.8124 0.772216 20.6812 0.772217Z"
              fill="url(#paint0_linear_3185_12297)"/>
        <path d="M20.6768 17.3528L28.3202 14.6031L20.6768 6.96661V17.3528Z" fill="#9FF7EC"/>
        <path d="M20.6767 34.8875L10.954 26.5337V16.671" fill="#BADEFF"/>
        <path d="M20.6768 17.3528L13.0344 14.5965L15.7999 11.8044L20.6768 6.96661V17.3528Z" fill="#C5C5FF"/>
        <path d="M20.6768 34.8875V26.4869C20.6768 26.4869 27.6707 19.4829 30.4084 16.671L20.6768 34.8875Z"
              fill="#9077ED"/>
        <path d="M10.954 16.671L20.6767 26.4869V34.8875L10.954 16.671Z" fill="#5E9EFC"/>
        <path d="M28.3202 14.6031L20.6768 22.3066V17.3528L28.3202 14.6031Z" fill="#A181F7"/>
        <path d="M13.0344 14.5965L20.6768 22.3066V17.3529L13.0344 14.5965Z" fill="#61A9FF"/>
        <path d="M30.4073 16.671L20.6768 34.8875L30.4073 26.5026V16.671Z" fill="#BCCFFF"/>
    </g>
    <defs>
        <linearGradient id="paint0_linear_3185_12297" x1="0.526306" y1="20.9271" x2="40.8361" y2="20.9271"
                        gradientUnits="userSpaceOnUse">
            <stop stop-color="#465160"/>
            <stop offset="1" stop-color="#172536"/>
        </linearGradient>
        <clipPath id="clip0_3185_12297">
            <rect x="0.526306" y="0.772217" width="40.3098" height="40.3098" rx="20.1549" fill="white"/>
        </clipPath>
    </defs>
</svg>
