<svg width="292" height="292" viewBox="0 0 292 292" fill="none" xmlns="http://www.w3.org/2000/svg">
    <path d="M292 146C292 226.634 226.634 292 146 292C65.3664 292 0 226.634 0 146C0 65.3664 65.3664 0 146 0C226.634 0 292 65.3664 292 146Z"
          fill="white"/>
    <path fill-rule="evenodd" clip-rule="evenodd"
          d="M146.085 69.0022C145.715 69.0007 145.338 69 144.953 69L144.953 69.0086C133.278 69.0995 129.11 69.916 128.167 70.5239C127.934 70.6741 128.016 70.9725 128.144 71.2183L133.69 81.8279L133.683 81.8236C133.854 82.1449 134.006 82.7876 133.244 82.7876H127.483C126.219 82.7876 123.858 83.751 123.858 86.4283V106.425C117.427 112.302 115.886 122.773 116.006 128.012C116.006 146.231 126.82 168.033 133.939 182.387C137.433 189.432 140.038 194.682 140.038 196.836C140.038 203.377 135.63 212.193 130.653 215.464C126.671 218.08 125.676 221.578 125.676 223L166.424 223C166.424 221.578 165.429 218.08 161.448 215.463C156.471 212.193 152.063 203.377 152.063 196.836C152.063 194.682 154.667 189.431 158.161 182.387C165.28 168.033 176.094 146.231 176.094 128.012C176.214 122.772 174.673 112.301 168.243 106.425V86.4283C168.243 83.751 165.881 82.7876 164.618 82.7876H158.856C158.095 82.7876 158.247 82.1449 158.418 81.8236L158.411 81.828L163.956 71.2181C164.085 70.9722 164.167 70.6738 163.933 70.5236C162.99 69.9158 158.823 69.0992 147.147 69.0083L147.147 69.0003C146.787 69.0003 146.433 69.0009 146.085 69.0022ZM158.188 85.847C157.754 85.847 156.946 86.1045 156.57 87.0356C155.607 92.23 156.231 99.4288 163.171 103.206C163.891 102.787 164.618 102.048 164.618 100.904V87.2732C164.596 86.7977 164.294 85.847 163.267 85.847H158.188ZM133.913 85.847C134.346 85.847 135.155 86.1045 135.531 87.0353C136.494 92.2297 135.87 99.4288 128.93 103.206C128.209 102.787 127.483 102.048 127.483 100.904V87.2732C127.505 86.7977 127.806 85.847 128.833 85.847H133.913Z"
          fill="black"/>
</svg>
