<svg width="27" height="28" viewBox="0 0 27 28" fill="none" xmlns="http://www.w3.org/2000/svg" data-testid="wusdl-icon"><g clip-path="url(#clip0_4772_84)"><circle cx="13.5" cy="13.9998" r="13.5" fill="#004E76"></circle><circle cx="13.5002" cy="13.9998" r="12.3591" fill="url(#paint0_linear_4772_84)"></circle><ellipse cx="13.5001" cy="13.9999" rx="10.0016" ry="10.0016" fill="#004E76"></ellipse><path d="M11.3696 16.2133V20.2063H15.5329V11.9509H11.3696V16.2133Z" fill="white"></path><path d="M7.20654 16.0792V16.2316C7.20654 16.9083 7.47752 17.5567 7.96013 18.0357L9.39579 19.4593C9.87841 19.9376 10.5333 20.2062 11.2161 20.2062H11.3698V16.0799H7.20654V16.0792Z" fill="white"></path><path d="M18.9072 9.87806L16.753 7.8252H15.5332V20.2061H15.7162C16.3812 20.2061 17.0203 19.9511 17.5001 19.494L18.9072 18.1533C19.412 17.6721 19.6972 17.0082 19.6972 16.3144V11.7169C19.6972 11.0232 19.412 10.3592 18.9072 9.87806Z" fill="white"></path><path fill-rule="evenodd" clip-rule="evenodd" d="M11.2054 20.1687L11.2054 16.0792L11.3696 16.0792L11.3696 20.1687L11.2054 20.1687Z" fill="url(#paint1_linear_4772_84)"></path><path fill-rule="evenodd" clip-rule="evenodd" d="M15.3689 20.1207L15.3689 11.9509L15.5332 11.9509L15.5332 20.1207L15.3689 20.1207Z" fill="url(#paint2_linear_4772_84)"></path></g><defs><linearGradient id="paint0_linear_4772_84" x1="1.14111" y1="1.64063" x2="7.54039" y2="30.0552" gradientUnits="userSpaceOnUse"><stop offset="0.164826" stop-color="#CEFD51"></stop><stop offset="0.839238" stop-color="#21CFFA"></stop></linearGradient><linearGradient id="paint1_linear_4772_84" x1="11.0685" y1="20.1687" x2="11.0685" y2="16.0792" gradientUnits="userSpaceOnUse"><stop offset="0.22" stop-color="#153F5A" stop-opacity="0"></stop><stop offset="1" stop-color="#153F5A"></stop></linearGradient><linearGradient id="paint2_linear_4772_84" x1="15.2321" y1="20.1207" x2="15.2321" y2="11.9509" gradientUnits="userSpaceOnUse"><stop offset="0.22" stop-color="#153F5A" stop-opacity="0"></stop><stop offset="1" stop-color="#153F5A"></stop></linearGradient><clipPath id="clip0_4772_84"><rect width="27" height="27" fill="white" transform="translate(0 0.5)"></rect></clipPath></defs></svg>