<svg width="33" height="33" viewBox="0 0 33 33" fill="none" xmlns="http://www.w3.org/2000/svg">
<g clip-path="url(#clip0_1078_236)">
<rect x="1.04054" y="1.04054" width="30.9189" height="30.9189" rx="15.4595" fill="url(#paint0_linear_1078_236)"/>
<rect x="1.04054" y="1.04054" width="30.9189" height="30.9189" rx="15.4595" stroke="#025DCA" stroke-width="1.08108"/>
<path d="M15.8516 14.5728C15.317 14.5728 14.9316 14.4374 14.6955 14.1666C14.4594 13.8889 14.3414 13.5243 14.3414 13.073C14.3414 12.0731 15.0878 11.5732 16.5807 11.5732C17.9833 11.5732 19.3602 12.016 20.225 12.4485L19.6845 12.989C19.2521 12.6647 17.8028 12.3231 16.5807 12.3231C15.9835 12.3231 15.5808 12.389 15.3725 12.521C15.1711 12.6529 15.0705 12.8369 15.0705 13.073C15.0705 13.3091 15.126 13.4931 15.2371 13.625C15.3482 13.7569 15.553 13.8229 15.8516 13.8229H17.1431C18.0805 13.8229 18.9242 13.9826 19.6741 14.302C20.4309 14.6214 21.0524 15.0589 21.5384 15.6143C22.0245 16.1629 22.396 16.7982 22.6529 17.5204C22.9098 18.2356 23.0383 19.0028 23.0383 19.8222C23.0383 20.4888 22.9445 21.1206 22.757 21.7178C22.5696 22.3149 22.2849 22.8635 21.903 23.3634C21.528 23.8633 21.0732 24.2973 20.5386 24.6653C20.0108 25.0264 19.379 25.3076 18.6429 25.509C17.9139 25.7173 17.1223 25.8214 16.2682 25.8214C14.9281 25.8214 13.6713 25.6166 12.4979 25.2069C11.3313 24.8042 10.3592 24.1476 9.58154 23.4186L10.014 22.9861C10.7222 23.6249 11.7792 24.1966 12.8416 24.5508C13.9109 24.8979 15.0531 25.0715 16.2682 25.0715C17.2195 25.0715 18.077 24.9361 18.8408 24.6653C19.6116 24.3876 20.2435 24.0092 20.7364 23.5301C21.2364 23.0509 21.6183 22.4955 21.8821 21.8636C22.1529 21.2317 22.2883 20.5512 22.2883 19.8222C22.2883 18.857 22.0939 17.9856 21.7051 17.2079C21.3162 16.4233 20.7226 15.7879 19.924 15.3019C19.1325 14.8158 18.1951 14.5728 17.1119 14.5728H15.8516ZM17.039 15.3227C18.4485 15.3227 19.5491 15.7532 20.3407 16.6142C21.1392 17.4752 21.5384 18.5445 21.5384 19.8222C21.5384 21.1206 21.0767 22.1969 20.1532 23.0509C19.2297 23.8981 17.9347 24.3216 16.2682 24.3216C15.1573 24.3216 14.1192 24.1689 13.154 23.8633C12.1889 23.5578 11.1933 23.0011 10.5545 22.4456L11.0951 21.9051C11.6644 22.3703 12.6159 22.9294 13.4769 23.1863C14.3449 23.4433 15.2753 23.5717 16.2682 23.5717C17.7333 23.5717 18.8513 23.2211 19.622 22.5198C20.3997 21.8185 20.7885 20.9193 20.7885 19.8222C20.7885 18.739 20.4622 17.8432 19.8095 17.135C19.1637 16.4267 18.2367 16.0726 17.0286 16.0726H15.8516C14.8379 16.0726 14.0775 15.7949 13.5706 15.2394C13.0638 14.6839 12.8103 13.9618 12.8103 13.073C12.8103 12.1842 13.1228 11.4621 13.7477 10.9066C14.3796 10.3511 15.3239 10.0733 16.5807 10.0733C17.4625 10.0733 18.2819 10.1775 19.0387 10.3858C19.7956 10.5872 20.7642 11.0367 21.2572 11.4186L20.7167 11.9591C19.8487 11.362 18.2055 10.8233 16.5807 10.8233C15.5322 10.8233 14.7649 11.0316 14.2789 11.4482C13.7998 11.8578 13.5602 12.3995 13.5602 13.073C13.5602 13.7535 13.7373 14.2985 14.0914 14.7082C14.4525 15.1179 15.0392 15.3227 15.8516 15.3227H17.039ZM16.9973 16.8225C18.0111 16.8225 18.7714 17.1037 19.2783 17.6662C19.7852 18.2286 20.0386 18.9473 20.0386 19.8222C20.0386 20.7109 19.7227 21.4331 19.0908 21.9886C18.4659 22.5441 17.525 22.8218 16.2682 22.8218C15.3864 22.8218 14.5636 22.7211 13.7998 22.5198C13.0429 22.3115 12.0205 21.8545 11.5275 21.4726L12.068 20.9321C12.936 21.5292 14.6365 22.0719 16.2682 22.0719C17.3167 22.0719 18.0805 21.8671 18.5596 21.4574C19.0457 21.0408 19.2887 20.4957 19.2887 19.8222C19.2887 19.1486 19.1082 18.607 18.7471 18.1974C18.386 17.7807 17.7993 17.5724 16.9869 17.5724H15.8516C14.4282 17.5724 13.3137 17.1489 12.5083 16.3018C11.7098 15.4477 11.3105 14.3714 11.3105 13.073C11.3105 11.7745 11.7723 10.7017 12.6958 9.85462C13.6192 9.00055 14.9142 8.57352 16.5807 8.57352C17.6917 8.57352 18.7263 8.72628 19.6845 9.0318C20.6497 9.33732 21.6995 9.782 22.3383 10.3375L21.7978 10.878C21.2284 10.4128 20.2226 9.96572 19.3616 9.7088C18.5006 9.45189 17.5736 9.32343 16.5807 9.32343C15.1156 9.32343 13.9942 9.67408 13.2165 10.3754C12.4458 11.0767 12.0604 11.9759 12.0604 13.073C12.0604 14.1631 12.3868 15.0623 13.0395 15.7706C13.6922 16.4719 14.6295 16.8225 15.8516 16.8225H16.9973ZM16.9973 18.3223C17.532 18.3223 17.9173 18.4612 18.1534 18.739C18.3895 19.0167 18.5075 19.3778 18.5075 19.8222C18.5075 20.822 17.7611 21.322 16.2682 21.322C14.8587 21.322 13.2087 20.9163 12.5005 20.4997L13.041 19.9591C13.5271 20.1813 15.0392 20.5721 16.2682 20.5721C16.8654 20.5721 17.2646 20.5061 17.466 20.3742C17.6743 20.2423 17.7785 20.0582 17.7785 19.8222C17.7785 19.593 17.7194 19.4125 17.6014 19.2806C17.4903 19.1417 17.282 19.0723 16.9765 19.0723H15.8516C14.8934 19.0723 14.0255 18.916 13.2478 18.6036C12.477 18.2911 11.8417 17.8606 11.3417 17.3121C10.8488 16.7635 10.4703 16.1282 10.2065 15.406C9.94261 14.6839 9.81068 13.9062 9.81068 13.073C9.81068 12.4064 9.90442 11.7745 10.0919 11.1774C10.2794 10.5802 10.5606 10.0317 10.9355 9.53174C11.3174 9.0318 11.7723 8.6013 12.3 8.24023C12.8346 7.87222 13.4665 7.58753 14.1956 7.38617C14.9316 7.17786 15.7266 7.0737 16.5807 7.0737C17.9208 7.0737 19.1741 7.27854 20.3407 7.68821C21.5072 8.09094 22.5336 8.63544 23.3113 9.36452L22.7707 9.90506C22.0625 9.26624 21.0593 8.70198 19.997 8.3548C18.9346 8.00068 17.7958 7.82361 16.5807 7.82361C15.6294 7.82361 14.7684 7.96249 13.9977 8.24023C13.2339 8.51103 12.602 8.88599 12.1021 9.36509C11.6091 9.8442 11.2272 10.3997 10.9564 11.0316C10.6925 11.6634 10.5606 12.3439 10.5606 13.073C10.5606 14.052 10.7585 14.9339 11.1543 15.7185C11.5501 16.5031 12.1541 17.135 12.9666 17.6141C13.779 18.0863 14.7406 18.3223 15.8516 18.3223H16.9973ZM17.7785 25.7024L17.4103 25.755L17.0286 25.7927V28.1753H17.7785V25.7024ZM14.7788 28.1753H15.5287V25.8002L15.165 25.7735L14.7788 25.733V28.1753ZM17.7785 4.82397H17.0286V7.07838L17.3653 7.09424L17.7785 7.13046V4.82397ZM14.7788 7.24537L15.1184 7.1844L15.5287 7.12959V4.82397H14.7788V7.24537Z" fill="#025DCA"/>
</g>
<defs>
<linearGradient id="paint0_linear_1078_236" x1="16.5" y1="-32.5" x2="16.5" y2="32.5" gradientUnits="userSpaceOnUse">
<stop stop-color="white"/>
<stop offset="1" stop-color="#FFF8F0"/>
</linearGradient>
<clipPath id="clip0_1078_236">
<rect x="0.5" y="0.5" width="32" height="32" rx="16" fill="white"/>
</clipPath>
</defs>
</svg>
