<svg width="44" height="44" viewBox="0 0 44 44" fill="none" xmlns="http://www.w3.org/2000/svg">
<g clip-path="url(#clip0_1185_16761)">
<g clip-path="url(#clip1_1185_16761)">
<rect x="-0.0644531" width="44.0645" height="44.0645" rx="22.0323" fill="black" fill-opacity="0.8"/>
<g style="mix-blend-mode:soft-light">
<path d="M21.0328 -0.442176C20.8692 -0.291608 20.7095 -0.138047 20.5429 0.0075351C18.0203 2.21986 15.4967 4.43185 12.9721 6.64351C10.7853 8.56001 8.5991 10.4765 6.41362 12.393C6.37148 12.4321 6.34238 12.4833 6.33032 12.5396C6.07581 13.909 5.82328 15.2787 5.57274 16.6488C5.28121 18.2369 4.99001 19.826 4.69914 21.4161C4.40232 23.0408 4.10484 24.6652 3.8067 26.2892C3.54227 27.737 3.27619 29.1852 3.00846 30.6337C2.86302 31.4314 2.71792 32.2258 2.57315 33.0169L2.55331 33.1076C2.44424 32.9082 2.35499 32.7407 2.25583 32.5771C2.22 32.521 2.19574 32.4581 2.1845 32.3924C2.17325 32.3266 2.17526 32.2592 2.19039 32.1942C2.49184 30.5789 2.78932 28.9628 3.08283 27.3461C3.36444 25.8079 3.64573 24.2696 3.92668 22.7314C4.21689 21.1499 4.50677 19.5685 4.79632 17.987L5.51919 14.0413C5.75123 12.7703 5.9826 11.4983 6.21331 10.2252C6.22964 10.1644 6.26428 10.11 6.31247 10.0697C7.92944 8.65175 9.54641 7.23481 11.1634 5.81887L16.4585 1.17818C16.9127 0.779321 17.3649 0.380465 17.822 -0.0183915C17.8779 -0.0690815 17.9464 -0.103547 18.0203 -0.118106C18.9378 -0.284733 19.8654 -0.389665 20.7968 -0.432204C20.8303 -0.436535 20.8634 -0.4432 20.8959 -0.452148L21.0328 -0.442176Z" fill="white" fill-opacity="0.43"/>
<path d="M17.5056 43.9416C16.9801 43.81 16.4704 43.6793 15.9587 43.5557C15.8754 43.5347 15.8645 43.4988 15.8784 43.4221C16.3623 40.7916 16.8446 38.1611 17.3251 35.5307C17.4907 34.6223 17.6554 33.7139 17.8269 32.8075C17.8448 32.7399 17.8833 32.6796 17.937 32.635C19.193 31.5282 20.453 30.423 21.7169 29.3195L26.7741 24.8902C28.9722 22.9624 31.1702 21.0346 33.3683 19.1068L41.666 11.8356C41.6838 11.8197 41.7027 11.8067 41.7324 11.7848C41.7562 11.8247 41.779 11.8586 41.7979 11.8955C42.2466 12.8019 42.6368 13.7365 42.966 14.6934C42.9832 14.7298 42.9864 14.7713 42.9751 14.81C42.9637 14.8486 42.9386 14.8817 42.9045 14.9028C39.8801 17.5499 36.857 20.1987 33.8353 22.8491L26.1484 29.5877C23.7864 31.6578 21.4244 33.7289 19.0624 35.8009C19.0191 35.8391 18.9889 35.89 18.9762 35.9465C18.7567 37.1278 18.5395 38.3097 18.3247 39.4923L17.575 43.5906C17.5512 43.6973 17.5314 43.81 17.5056 43.9416Z" fill="white" fill-opacity="0.43"/>
<path d="M20.2583 44.3085L18.3842 44.0991C18.4258 43.8668 18.4635 43.6574 18.5022 43.447C18.7997 41.8183 19.0972 40.1896 19.3946 38.561C19.5146 37.9039 19.6336 37.2457 19.7586 36.5886C19.7727 36.5209 19.8074 36.4593 19.8577 36.4121C22.8127 33.8196 25.769 31.227 28.7266 28.6344L43.2555 15.897C43.2704 15.884 43.2863 15.874 43.317 15.8501C43.3815 16.0944 43.4469 16.3267 43.5044 16.56C43.7392 17.5149 43.9134 18.4837 44.026 19.4607C44.0377 19.5159 44.0337 19.5732 44.0144 19.6261C43.9951 19.679 43.9613 19.7254 43.9169 19.7599C41.5959 21.7887 39.2752 23.8226 36.9549 25.8614L22.5122 38.5251C22.064 38.9179 21.6148 39.3088 21.1696 39.7047C21.1247 39.7468 21.0939 39.8018 21.0813 39.8622C20.8169 41.3021 20.5525 42.7423 20.2881 44.1828C20.2811 44.2088 20.2722 44.2427 20.2583 44.3085Z" fill="white" fill-opacity="0.43"/>
<path d="M14.8175 43.2116L13.3945 42.6822C13.4709 42.2594 13.5443 41.8525 13.6186 41.4457L14.3504 37.4571C14.6572 35.7859 14.9639 34.1147 15.2706 32.4435C15.4776 31.3134 15.6855 30.1833 15.8944 29.0532C15.9069 28.9928 15.9377 28.9378 15.9826 28.8957C18.0656 27.0663 20.15 25.2382 22.2356 23.4114L39.4478 8.32069C39.4657 8.30474 39.4845 8.28978 39.5153 8.26485C40.1106 9.0367 40.6542 9.84751 41.1425 10.6919L23.1182 26.4886C21.1052 28.2535 19.0916 30.0171 17.0773 31.7794C16.9464 31.8851 16.8588 32.0356 16.8314 32.2022C16.4923 34.0908 16.1472 35.9777 15.7962 37.863C15.4987 39.487 15.2012 41.1117 14.9037 42.737C14.878 42.8886 14.8492 43.0411 14.8175 43.2116Z" fill="white" fill-opacity="0.43"/>
<path d="M44.1221 20.5995C44.134 20.9255 44.1478 21.2187 44.1548 21.5119C44.179 22.6713 44.1127 23.8309 43.9565 24.9799C43.9356 25.1414 43.9138 25.303 43.8831 25.4635C43.8709 25.5163 43.8429 25.564 43.8028 25.6001C42.6869 26.5813 41.57 27.5608 40.4521 28.5387L29.1291 38.4652C27.1816 40.167 25.2367 41.8705 23.2945 43.5756C23.2286 43.6318 23.1861 43.7108 23.1755 43.797C23.1467 43.9735 23.112 44.1479 23.0763 44.3394H20.9603C21.0435 43.8807 21.1229 43.442 21.2042 42.9972C21.3668 42.1091 21.5321 41.221 21.7 40.3329C21.7112 40.2761 21.7396 40.2242 21.7813 40.1843C23.826 38.3895 25.8713 36.5946 27.9173 34.7998L43.9575 20.7471L44.1221 20.5995Z" fill="white" fill-opacity="0.43"/>
<path d="M12.1809 42.1427C11.7951 41.9353 11.4183 41.7339 11.0445 41.5275C11.0295 41.5125 11.0181 41.4943 11.0113 41.4743C11.0044 41.4542 11.0022 41.4328 11.0048 41.4118C11.1694 40.4944 11.339 39.579 11.5066 38.6637L12.2998 34.3062C12.5795 32.7772 12.8598 31.2466 13.1407 29.7143C13.4051 28.2519 13.6722 26.7917 13.9419 25.3339C13.9517 25.248 13.9926 25.1688 14.057 25.1115C15.898 23.5015 17.7384 21.8894 19.5782 20.2754L36.6516 5.32027L36.7507 5.23651L38.6348 7.14604L38.5019 7.26869L21.6298 22.0563C19.3822 24.0273 17.1322 25.998 14.88 27.9683C14.8085 28.0299 14.7623 28.1158 14.7501 28.2096C14.294 30.7151 13.8358 33.2203 13.3757 35.7251L12.2046 42.0849C12.198 42.1046 12.19 42.124 12.1809 42.1427Z" fill="white" fill-opacity="0.43"/>
<path d="M33.3774 2.72772L35.4697 4.16959L29.29 9.58706C27.2354 11.3872 25.1801 13.1891 23.1242 14.9926L17.4354 19.9783C15.876 21.345 14.3172 22.7121 12.759 24.0795C12.7024 24.1313 12.6626 24.1991 12.645 24.2739C12.3852 25.6699 12.1287 27.0659 11.8755 28.4619L11.0039 33.2183C10.7236 34.7572 10.4426 36.2955 10.161 37.8331L9.65829 40.5812C9.65002 40.6129 9.64009 40.6442 9.62854 40.6749C9.30924 40.4486 8.99788 40.2302 8.68949 40.0068C8.67702 39.9916 8.66807 39.9738 8.66327 39.9546C8.65847 39.9355 8.65794 39.9155 8.66173 39.8961C8.8303 38.9562 9.00086 38.0165 9.1734 37.0772C9.38428 35.9259 9.59515 34.7748 9.80604 33.6241C10.0566 32.258 10.3071 30.8923 10.5577 29.5269C10.8221 28.0784 11.0865 26.6299 11.3509 25.1813C11.5751 23.9555 11.7998 22.7304 12.0252 21.5059C12.0415 21.4455 12.0762 21.3918 12.1244 21.3523C13.3143 20.3033 14.5089 19.256 15.708 18.2103L33.1989 2.88527L33.3774 2.72772Z" fill="white" fill-opacity="0.43"/>
<path d="M23.6031 44.2806C23.6 44.2049 23.6144 44.1296 23.645 44.0604C23.6756 43.9913 23.7217 43.9301 23.7796 43.8817C26.3062 41.6727 28.8305 39.4618 31.3524 37.2488L43.5828 26.5305L43.7207 26.4138C43.6671 26.6621 43.6215 26.8775 43.5739 27.0909C42.989 29.5906 41.9781 31.9697 40.5862 34.1227C40.5413 34.1928 40.4869 34.2562 40.4246 34.3112C38.0038 36.4384 35.5819 38.5617 33.1591 40.6809C32.6237 41.1496 32.0882 41.6176 31.5527 42.0849C31.474 42.1567 31.386 42.2175 31.291 42.2654C29.4682 43.1257 27.5347 43.7252 25.5466 44.0463C24.9378 44.146 24.322 44.2038 23.7092 44.2796C23.6739 44.282 23.6384 44.2823 23.6031 44.2806Z" fill="white" fill-opacity="0.43"/>
<path d="M31.6191 1.79442L12.1272 18.8814C11.6255 19.3215 11.1241 19.7619 10.623 20.2026C10.5829 20.2388 10.5549 20.2865 10.5426 20.3392C10.1143 22.6659 9.68722 24.9909 9.26149 27.3142C8.78553 29.9141 8.30989 32.5133 7.83458 35.1119C7.61643 36.3025 7.39894 37.4927 7.18211 38.6826C7.17653 38.7099 7.16958 38.7369 7.16128 38.7634C7.13154 38.7415 7.10675 38.7265 7.08592 38.7076C6.8876 38.5301 6.70713 38.3436 6.50584 38.1771C6.45746 38.1391 6.42197 38.087 6.40421 38.0279C6.38646 37.9688 6.38732 37.9056 6.40668 37.847C6.84695 35.4672 7.28391 33.087 7.71757 30.7065C8.11025 28.566 8.50325 26.4251 8.89658 24.2839C9.20861 22.5768 9.5203 20.8697 9.83167 19.1626C9.91793 18.689 10.0042 18.2153 10.0944 17.7427C10.1058 17.6936 10.1317 17.6491 10.1688 17.6151C12.6438 15.4433 15.1199 13.2728 17.5969 11.1037L24.191 5.32031C25.8695 3.84986 27.5479 2.37841 29.2264 0.90597C29.2508 0.878782 29.2833 0.860223 29.319 0.853039C29.3547 0.845855 29.3918 0.850427 29.4247 0.866081C30.1718 1.13681 30.9043 1.44668 31.6191 1.79442Z" fill="white" fill-opacity="0.43"/>
<path d="M4.78354 36.3313C4.58522 36.0841 4.4097 35.8617 4.23816 35.6333C4.21429 35.5891 4.20791 35.5375 4.22031 35.4888C4.34723 34.7798 4.47812 34.0708 4.60802 33.3629C4.85923 31.9968 5.10944 30.6307 5.35867 29.2646C5.61516 27.8593 5.87231 26.454 6.13013 25.0487L6.83516 21.1977C7.08504 19.8356 7.33526 18.4729 7.5858 17.1095C7.7709 16.097 7.95534 15.0826 8.13911 14.0662C8.15342 13.9608 8.20607 13.8646 8.28686 13.796C10.5464 11.8196 12.8049 9.84163 15.0625 7.86198L20.1424 3.40874C21.5247 2.19755 22.907 0.98536 24.2893 -0.227828C24.314 -0.255232 24.345 -0.276114 24.3796 -0.288634C24.4141 -0.301154 24.4513 -0.304925 24.4876 -0.299619C25.2869 -0.158025 26.0861 -0.0180938 26.8853 0.120176C26.9045 0.124801 26.9231 0.131485 26.9409 0.140117C26.9081 0.171029 26.8814 0.198951 26.8536 0.22388L13.109 12.2733C11.5952 13.6028 10.0803 14.929 8.56451 16.2519C8.48583 16.3173 8.43392 16.4097 8.41875 16.5112C8.0935 18.306 7.76561 20.0986 7.43508 21.8888C7.1138 23.6451 6.79384 25.4014 6.47521 27.1576C6.08386 29.2988 5.69085 31.4397 5.29619 33.5802C5.13423 34.461 4.97326 35.3418 4.81328 36.2227C4.80634 36.2506 4.79742 36.2755 4.78354 36.3313Z" fill="white" fill-opacity="0.43"/>
<path d="M0.556269 28.4809C0.484283 28.2727 0.429234 28.0589 0.391664 27.8417C0.374807 27.6772 0.433311 27.5047 0.46405 27.3362C0.787312 25.5672 1.11124 23.798 1.43582 22.0284C1.74917 20.3226 2.06218 18.6162 2.37487 16.9091C2.68755 15.202 3.00123 13.4876 3.31589 11.7658C3.49108 10.8026 3.66791 9.83868 3.8464 8.87411C3.86162 8.80198 3.89206 8.73398 3.93564 8.67469C5.92028 5.96168 8.48687 3.7328 11.445 2.15338C11.4837 2.13244 11.5234 2.1135 11.562 2.09455C11.5723 2.0937 11.5826 2.0937 11.5928 2.09455C11.5373 2.14441 11.4936 2.18728 11.444 2.22817C9.0728 4.30687 6.70155 6.38525 4.3303 8.46329C4.26629 8.51522 4.22357 8.58907 4.21032 8.6707C3.84475 10.6829 3.4762 12.6948 3.10468 14.7064C2.73316 16.718 2.36561 18.7315 2.00202 20.7471C1.64967 22.6749 1.29633 24.6007 0.942002 26.5245C0.827637 27.1467 0.713934 27.7689 0.600892 28.3912C0.594942 28.4211 0.586018 28.451 0.579076 28.4799L0.556269 28.4809Z" fill="white" fill-opacity="0.43"/>
<path d="M32.7375 41.4926C35.042 39.4737 37.3461 37.4542 39.6499 35.434C37.804 37.9282 35.4467 39.9944 32.7375 41.4926Z" fill="white" fill-opacity="0.43"/>
</g>
<path d="M-0.291017 22.0301C-0.291017 24.9432 0.282758 27.8278 1.39755 30.5191C2.51234 33.2104 4.14631 35.6558 6.20617 37.7157C8.26603 39.7756 10.7114 41.4095 13.4028 42.5243C16.0941 43.6391 18.9787 44.2129 21.8918 44.2129L21.8918 43.1038C19.1243 43.1038 16.384 42.5587 13.8272 41.4996C11.2705 40.4406 8.94732 38.8883 6.99045 36.9314C5.03358 34.9746 3.48131 32.6514 2.42226 30.0946C1.36321 27.5379 0.818122 24.7975 0.818122 22.0301L-0.291017 22.0301Z" fill="#F4BB3B"/>
<path d="M21.8918 -0.152344C18.9787 -0.152344 16.0941 0.421431 13.4028 1.53622C10.7114 2.65101 8.26603 4.28498 6.20617 6.34484C4.14631 8.40471 2.51234 10.8501 1.39755 13.5415C0.282758 16.2328 -0.291016 19.1174 -0.291016 22.0304L0.818123 22.0304C0.818122 19.263 1.36321 16.5227 2.42226 13.9659C3.48131 11.4091 5.03358 9.08599 6.99045 7.12912C8.94732 5.17225 11.2705 3.61998 13.8272 2.56093C16.384 1.50188 19.1243 0.956795 21.8918 0.956795L21.8918 -0.152344Z" fill="#60D8A4"/>
<path d="M21.8919 44.2129C24.805 44.2129 27.6896 43.6391 30.3809 42.5243C33.0722 41.4095 35.5177 39.7756 37.5775 37.7157C39.6374 35.6558 41.2714 33.2104 42.3861 30.5191C43.5009 27.8277 44.0747 24.9432 44.0747 22.0301L42.9656 22.0301C42.9656 24.7975 42.4205 27.5379 41.3614 30.0946C40.3024 32.6514 38.7501 34.9746 36.7932 36.9314C34.8364 38.8883 32.5132 40.4406 29.9565 41.4996C27.3997 42.5587 24.6594 43.1038 21.8919 43.1038L21.8919 44.2129Z" fill="#FF5A5A"/>
<path d="M44.0746 22.0304C44.0746 19.1174 43.5008 16.2328 42.386 13.5415C41.2712 10.8501 39.6372 8.4047 37.5774 6.34484C35.5175 4.28498 33.0721 2.65101 30.3808 1.53622C27.6894 0.421429 24.8049 -0.152345 21.8918 -0.152345L21.8918 0.956794C24.6592 0.956793 27.3995 1.50188 29.9563 2.56093C32.5131 3.61998 34.8362 5.17225 36.7931 7.12912C38.75 9.08599 40.3022 11.4091 41.3613 13.9659C42.4203 16.5227 42.9654 19.263 42.9654 22.0304L44.0746 22.0304Z" fill="#1682FE"/>
<path d="M35.4601 18.7105V12.5232H32.3463V9.42958H26.1228V6.33594H19.8997V9.42958H13.6767V12.5232H10.563V31.0839H13.6748V34.1774H19.8978V37.2711H26.1209V34.1774H32.3463V31.0839H35.4601V24.8972H29.2345V27.9908H26.1228V31.0845H19.8997V27.9908H16.7879V15.6169H19.8997V12.5232H26.1228V15.6169H29.2345V18.7105H35.4601Z" fill="#3A3A3A"/>
<path d="M34.1901 18.7105V12.5232H31.0763V9.42958H24.8527V6.33594H18.6297V9.42958H12.4066V12.5232H9.29297V31.0839H12.4048V34.1774H18.6278V37.2711H24.8509V34.1774H31.0763V31.0839H34.1901V24.8972H27.9645V27.9908H24.8527V31.0845H18.6297V27.9908H15.5179V15.6169H18.6297V12.5232H24.8527V15.6169H27.9645V18.7105H34.1901Z" fill="url(#paint0_linear_1185_16761)"/>
</g>
<g filter="url(#filter0_bd_1185_16761)">
<path d="M28.2617 35.9376C28.2617 31.5915 31.7849 28.0684 36.1309 28.0684C40.477 28.0684 44.0002 31.5915 44.0002 35.9376V36.1949C44.0002 40.5409 40.477 44.0641 36.1309 44.0641C31.7849 44.0641 28.2617 40.5409 28.2617 36.1949V35.9376Z" fill="#3D8FCB" shape-rendering="crispEdges"/>
<path d="M35.7784 29.7265C35.7319 29.7691 35.6866 29.8126 35.6393 29.8538C34.923 30.4804 34.2064 31.1069 33.4896 31.7333C32.8686 32.2761 32.2479 32.8189 31.6273 33.3617C31.6153 33.3727 31.6071 33.3872 31.6036 33.4032C31.5314 33.791 31.4597 34.179 31.3885 34.567C31.3057 35.0168 31.223 35.4669 31.1405 35.9172C31.0562 36.3774 30.9717 36.8374 30.887 37.2974C30.812 37.7075 30.7364 38.1176 30.6604 38.5279C30.6191 38.7538 30.5779 38.9788 30.5368 39.2028L30.5312 39.2285C30.5002 39.1721 30.4748 39.1246 30.4467 39.0783C30.4365 39.0624 30.4296 39.0446 30.4264 39.026C30.4232 39.0073 30.4238 38.9883 30.4281 38.9699C30.5137 38.5123 30.5982 38.0546 30.6815 37.5968C30.7615 37.1611 30.8413 36.7254 30.9211 36.2897C31.0035 35.8418 31.0858 35.3939 31.1681 34.946L31.3733 33.8285C31.4392 33.4685 31.5049 33.1083 31.5704 32.7477C31.575 32.7305 31.5849 32.7151 31.5986 32.7037C32.0577 32.3021 32.5168 31.9008 32.976 31.4997L34.4795 30.1854C34.6085 30.0724 34.7369 29.9594 34.8667 29.8465C34.8826 29.8321 34.902 29.8224 34.923 29.8182C35.1835 29.771 35.4469 29.7413 35.7114 29.7293C35.7209 29.7281 35.7303 29.7262 35.7395 29.7236L35.7784 29.7265Z" fill="#F7FAFD"/>
<path d="M34.777 42.297C34.6277 42.2597 34.483 42.2227 34.3377 42.1877C34.3141 42.1818 34.311 42.1716 34.3149 42.1499C34.4523 41.4049 34.5892 40.6598 34.7257 39.9148C34.7727 39.6576 34.8195 39.4003 34.8682 39.1436C34.8733 39.1244 34.8842 39.1073 34.8994 39.0947C35.2561 38.7812 35.6139 38.4682 35.9728 38.1557L37.4087 36.9012C38.0329 36.3552 38.657 35.8092 39.2812 35.2632L41.6373 33.2038C41.6424 33.1993 41.6477 33.1957 41.6562 33.1894C41.6629 33.2007 41.6694 33.2103 41.6747 33.2208C41.8022 33.4775 41.913 33.7422 42.0064 34.0132C42.0113 34.0235 42.0122 34.0353 42.009 34.0462C42.0058 34.0572 41.9987 34.0666 41.989 34.0725C41.1302 34.8223 40.2718 35.5724 39.4138 36.3231L37.2311 38.2317C36.5604 38.8179 35.8897 39.4045 35.219 39.9914C35.2067 40.0022 35.1981 40.0166 35.1945 40.0326C35.1322 40.3672 35.0705 40.7019 35.0095 41.0369L34.7967 42.1976C34.7899 42.2278 34.7843 42.2597 34.777 42.297Z" fill="#F7FAFD"/>
<path d="M35.5587 42.4009L35.0265 42.3416C35.0383 42.2758 35.049 42.2165 35.06 42.1569C35.1445 41.6956 35.229 41.2343 35.3134 40.7731C35.3475 40.5869 35.3813 40.4005 35.4168 40.2144C35.4208 40.1953 35.4306 40.1778 35.4449 40.1645C36.284 39.4302 37.1234 38.6959 37.9632 37.9616L42.0887 34.3541C42.0929 34.3504 42.0975 34.3476 42.1062 34.3408C42.1245 34.41 42.1431 34.4758 42.1594 34.5419C42.2261 34.8123 42.2755 35.0867 42.3075 35.3634C42.3108 35.379 42.3097 35.3953 42.3042 35.4103C42.2987 35.4253 42.2891 35.4384 42.2765 35.4481C41.6175 36.0228 40.9585 36.5988 40.2997 37.1762L36.1987 40.7629C36.0714 40.8742 35.9438 40.9849 35.8174 41.097C35.8047 41.1089 35.7959 41.1245 35.7924 41.1416C35.7173 41.5494 35.6422 41.9573 35.5671 42.3653C35.5651 42.3726 35.5626 42.3822 35.5587 42.4009Z" fill="#F7FAFD"/>
<path d="M34.0136 42.0902L33.6096 41.9402C33.6313 41.8205 33.6521 41.7053 33.6732 41.5901L33.881 40.4604C33.9681 39.9871 34.0552 39.5138 34.1423 39.0404C34.201 38.7204 34.2601 38.4003 34.3194 38.0802C34.323 38.0631 34.3317 38.0475 34.3445 38.0356C34.9359 37.5175 35.5278 36.9997 36.12 36.4823L41.0074 32.2083C41.0125 32.2038 41.0178 32.1995 41.0266 32.1925C41.1956 32.4111 41.35 32.6407 41.4886 32.8799L36.3706 37.3539C35.799 37.8537 35.2273 38.3532 34.6553 38.8523C34.6181 38.8823 34.5932 38.9249 34.5855 38.9721C34.4892 39.507 34.3912 40.0414 34.2915 40.5753C34.2071 41.0353 34.1226 41.4954 34.0381 41.9558C34.0308 41.9987 34.0226 42.0419 34.0136 42.0902Z" fill="#F7FAFD"/>
<path d="M42.3346 35.686C42.338 35.7783 42.3419 35.8614 42.3439 35.9444C42.3508 36.2728 42.332 36.6012 42.2876 36.9266C42.2817 36.9724 42.2755 37.0181 42.2668 37.0636C42.2633 37.0786 42.2553 37.0921 42.2439 37.1023C41.9271 37.3802 41.61 37.6576 41.2925 37.9346L38.0773 40.746C37.5244 41.228 36.9721 41.7104 36.4206 42.1934C36.4019 42.2093 36.3898 42.2317 36.3868 42.2561C36.3787 42.306 36.3688 42.3555 36.3587 42.4097H35.7578C35.7815 42.2798 35.804 42.1555 35.8271 42.0296C35.8733 41.778 35.9202 41.5265 35.9679 41.275C35.9711 41.2589 35.9791 41.2442 35.9909 41.2329C36.5715 40.7245 37.1523 40.2162 37.7333 39.7078L42.2879 35.7278L42.3346 35.686Z" fill="#F7FAFD"/>
<path d="M33.2648 41.7875C33.1553 41.7288 33.0483 41.6717 32.9422 41.6132C32.9379 41.609 32.9347 41.6039 32.9327 41.5982C32.9308 41.5925 32.9302 41.5865 32.9309 41.5805C32.9776 41.3207 33.0258 41.0614 33.0734 40.8022L33.2986 39.568C33.378 39.135 33.4576 38.7015 33.5374 38.2675C33.6125 37.8533 33.6883 37.4397 33.7649 37.0269C33.7677 37.0025 33.7793 36.9801 33.7976 36.9639C34.3203 36.5079 34.8429 36.0513 35.3653 35.5942L40.2133 31.3585L40.2415 31.3348L40.7764 31.8756L40.7387 31.9104L35.9479 36.0986C35.3097 36.6568 34.6708 37.2149 34.0313 37.773C34.011 37.7904 33.9978 37.8148 33.9944 37.8413C33.8649 38.5509 33.7348 39.2605 33.6041 39.9699L33.2716 41.7711C33.2697 41.7767 33.2674 41.7822 33.2648 41.7875Z" fill="#F7FAFD"/>
<path d="M39.2836 30.6243L39.8777 31.0326L38.123 32.567C37.5396 33.0768 36.956 33.5872 36.3722 34.098L34.7569 35.51C34.3141 35.8971 33.8715 36.2843 33.429 36.6716C33.413 36.6863 33.4017 36.7054 33.3967 36.7267C33.3229 37.122 33.2501 37.5174 33.1782 37.9128L32.9307 39.2599C32.8511 39.6958 32.7713 40.1314 32.6913 40.5669L32.5486 41.3453C32.5462 41.3542 32.5434 41.3631 32.5401 41.3718C32.4495 41.3077 32.3611 41.2458 32.2735 41.1826C32.27 41.1783 32.2674 41.1732 32.266 41.1678C32.2647 41.1624 32.2645 41.1567 32.2656 41.1512C32.3135 40.885 32.3619 40.6189 32.4109 40.3528C32.4708 40.0268 32.5307 39.7008 32.5905 39.3749C32.6617 38.9879 32.7328 38.6011 32.804 38.2144C32.879 37.8042 32.9541 37.3939 33.0292 36.9837C33.0929 36.6365 33.1567 36.2895 33.2207 35.9427C33.2253 35.9256 33.2352 35.9104 33.2488 35.8992C33.5867 35.6021 33.9259 35.3055 34.2664 35.0093L39.2329 30.6689L39.2836 30.6243Z" fill="#F7FAFD"/>
<path d="M36.5083 42.393C36.5075 42.3715 36.5115 42.3502 36.5202 42.3306C36.5289 42.311 36.542 42.2937 36.5585 42.28C37.2759 41.6544 37.9927 41.0282 38.7088 40.4014L42.1816 37.3657L42.2207 37.3327C42.2055 37.403 42.1926 37.464 42.1791 37.5244C42.013 38.2324 41.7259 38.9062 41.3307 39.516C41.3179 39.5359 41.3025 39.5538 41.2848 39.5694C40.5974 40.1719 39.9097 40.7732 39.2218 41.3734C39.0697 41.5062 38.9177 41.6387 38.7656 41.7711C38.7433 41.7914 38.7183 41.8086 38.6913 41.8222C38.1737 42.0659 37.6247 42.2357 37.0602 42.3266C36.8873 42.3548 36.7125 42.3712 36.5385 42.3927C36.5284 42.3934 36.5184 42.3935 36.5083 42.393Z" fill="#F7FAFD"/>
<path d="M38.7842 30.3599L33.2495 35.1993C33.107 35.3239 32.9646 35.4487 32.8223 35.5735C32.811 35.5837 32.803 35.5972 32.7995 35.6122C32.6779 36.2711 32.5566 36.9296 32.4357 37.5877C32.3006 38.324 32.1655 39.0602 32.0306 39.7961C31.9686 40.1333 31.9069 40.4704 31.8453 40.8075C31.8437 40.8152 31.8417 40.8228 31.8394 40.8303C31.8309 40.8241 31.8239 40.8199 31.818 40.8145C31.7617 40.7643 31.7104 40.7114 31.6533 40.6643C31.6395 40.6535 31.6295 40.6388 31.6244 40.622C31.6194 40.6053 31.6196 40.5874 31.6251 40.5708C31.7501 39.8968 31.8742 39.2227 31.9973 38.5484C32.1088 37.9422 32.2204 37.3358 32.3321 36.7294C32.4207 36.2459 32.5092 35.7624 32.5976 35.2789C32.6221 35.1448 32.6466 35.0106 32.6723 34.8768C32.6755 34.8629 32.6829 34.8503 32.6934 34.8406C33.3962 34.2255 34.0992 33.6108 34.8026 32.9965L36.675 31.3585C37.1516 30.942 37.6282 30.5253 38.1048 30.1082C38.1117 30.1005 38.1209 30.0953 38.1311 30.0932C38.1412 30.0912 38.1517 30.0925 38.1611 30.0969C38.3732 30.1736 38.5812 30.2614 38.7842 30.3599Z" fill="#F7FAFD"/>
<path d="M31.1646 40.1416C31.1082 40.0716 31.0584 40.0086 31.0097 39.9439C31.0029 39.9314 31.0011 39.9168 31.0046 39.903C31.0407 39.7022 31.0778 39.5014 31.1147 39.3009C31.1861 38.9139 31.2571 38.527 31.3279 38.1401C31.4007 37.7421 31.4737 37.3441 31.5469 36.9461L31.7471 35.8554C31.8181 35.4696 31.8891 35.0837 31.9603 34.6975C32.0128 34.4108 32.0652 34.1235 32.1174 33.8356C32.1214 33.8058 32.1364 33.7785 32.1593 33.7591C32.8009 33.1993 33.4422 32.6391 34.0833 32.0784L35.5257 30.8172C35.9182 30.4741 36.3107 30.1308 36.7032 29.7872C36.7102 29.7794 36.719 29.7735 36.7289 29.77C36.7387 29.7664 36.7492 29.7654 36.7595 29.7669C36.9865 29.807 37.2134 29.8466 37.4404 29.8858C37.4458 29.8871 37.4511 29.889 37.4561 29.8914C37.4468 29.9002 37.4392 29.9081 37.4314 29.9151L33.5286 33.3278C33.0987 33.7044 32.6686 34.08 32.2382 34.4546C32.2158 34.4732 32.2011 34.4993 32.1968 34.5281C32.1044 35.0364 32.0113 35.5441 31.9175 36.0511C31.8262 36.5485 31.7354 37.046 31.6449 37.5434C31.5338 38.1498 31.4222 38.7562 31.3101 39.3624C31.2641 39.6119 31.2184 39.8614 31.173 40.1108C31.171 40.1187 31.1685 40.1258 31.1646 40.1416Z" fill="#F7FAFD"/>
<path d="M29.9641 37.9182C29.9437 37.8592 29.928 37.7987 29.9174 37.7371C29.9126 37.6905 29.9292 37.6417 29.9379 37.594C30.0297 37.093 30.1217 36.5919 30.2138 36.0907C30.3028 35.6076 30.3917 35.1243 30.4805 34.6408C30.5693 34.1573 30.6583 33.6717 30.7477 33.1841C30.7974 32.9113 30.8476 32.6383 30.8983 32.3651C30.9026 32.3446 30.9113 32.3254 30.9237 32.3086C31.4872 31.5402 32.216 30.9089 33.056 30.4616C33.0669 30.4557 33.0782 30.4503 33.0892 30.4449C33.0921 30.4447 33.095 30.4447 33.0979 30.4449C33.0821 30.4591 33.0698 30.4712 33.0557 30.4828C32.3824 31.0715 31.709 31.6602 31.0357 32.2487C31.0176 32.2634 31.0054 32.2843 31.0017 32.3075C30.8979 32.8774 30.7932 33.4472 30.6877 34.0169C30.5822 34.5866 30.4779 35.1569 30.3746 35.7278C30.2746 36.2738 30.1742 36.8192 30.0736 37.3641C30.0411 37.5403 30.0089 37.7165 29.9768 37.8928C29.9751 37.9012 29.9725 37.9097 29.9706 37.9179L29.9641 37.9182Z" fill="#F7FAFD"/>
<path d="M39.102 41.6034C39.7564 41.0316 40.4107 40.4596 41.0648 39.8875C40.5407 40.5939 39.8713 41.1791 39.102 41.6034Z" fill="#F7FAFD"/>
</g>
</g>
<defs>
<filter id="filter0_bd_1185_16761" x="8.2719" y="8.07854" width="55.7179" height="55.9757" filterUnits="userSpaceOnUse" color-interpolation-filters="sRGB">
<feFlood flood-opacity="0" result="BackgroundImageFix"/>
<feGaussianBlur in="BackgroundImageFix" stdDeviation="9.99491"/>
<feComposite in2="SourceAlpha" operator="in" result="effect1_backgroundBlur_1185_16761"/>
<feColorMatrix in="SourceAlpha" type="matrix" values="0 0 0 0 0 0 0 0 0 0 0 0 0 0 0 0 0 0 127 0" result="hardAlpha"/>
<feOffset dy="0.85063"/>
<feGaussianBlur stdDeviation="5.74176"/>
<feComposite in2="hardAlpha" operator="out"/>
<feColorMatrix type="matrix" values="0 0 0 0 0.131359 0 0 0 0 0.30852 0 0 0 0 0.472054 0 0 0 0.3 0"/>
<feBlend mode="normal" in2="effect1_backgroundBlur_1185_16761" result="effect2_dropShadow_1185_16761"/>
<feBlend mode="normal" in="SourceGraphic" in2="effect2_dropShadow_1185_16761" result="shape"/>
</filter>
<linearGradient id="paint0_linear_1185_16761" x1="21.7415" y1="6.33594" x2="21.7415" y2="37.2711" gradientUnits="userSpaceOnUse">
<stop stop-color="white"/>
<stop offset="1" stop-color="#999999"/>
</linearGradient>
<clipPath id="clip0_1185_16761">
<rect width="44" height="44" fill="white"/>
</clipPath>
<clipPath id="clip1_1185_16761">
<rect x="-0.0644531" width="44.0645" height="44.0645" rx="22.0323" fill="white"/>
</clipPath>
</defs>
</svg>
