<svg width="25" height="25" viewBox="0 0 25 25" fill="none" xmlns="http://www.w3.org/2000/svg">
<g clip-path="url(#clip0_1707_70)">
<path d="M13 25C19.65 25 25 19.65 25 13C25 6.34996 19.65 1 13 1C6.34996 1 1 6.34996 1 13C1 19.65 6.34996 25 13 25Z" fill="#2775CA"/>
<path d="M16.3001 14.8998C16.3001 13.1499 15.2501 12.5499 13.1501 12.2999C11.6501 12.0999 11.3501 11.6999 11.3501 10.9998C11.3501 10.2998 11.8501 9.84988 12.8501 9.84988C13.7501 9.84988 14.2501 10.1499 14.5001 10.8999C14.5501 11.0499 14.7001 11.1498 14.8501 11.1498H15.65C15.8501 11.1498 16.0001 10.9998 16.0001 10.7999V10.7499C15.8 9.64984 14.9 8.79988 13.7501 8.69992V7.49992C13.7501 7.29988 13.6001 7.14988 13.3501 7.09984H12.6001C12.4001 7.09984 12.2501 7.24984 12.2 7.49992V8.64988C10.7 8.84992 9.75011 9.84988 9.75011 11.0999C9.75011 12.7499 10.7501 13.3998 12.8501 13.6499C14.2501 13.8999 14.7001 14.1999 14.7001 14.9999C14.7001 15.8 14 16.3499 13.0501 16.3499C11.75 16.3499 11.3 15.7998 11.15 15.0498C11.1001 14.8499 10.9501 14.7498 10.8001 14.7498H9.95003C9.75011 14.7498 9.60011 14.8998 9.60011 15.0999V15.1499C9.80003 16.3998 10.6001 17.2998 12.2501 17.5499V18.7499C12.2501 18.9498 12.4001 19.0998 12.65 19.1499H13.4C13.6001 19.1499 13.7501 18.9999 13.8001 18.7499V17.5499C15.3001 17.2998 16.3001 16.2498 16.3001 14.8998Z" fill="white"/>
<path d="M10.4501 20.1501C6.55006 18.7502 4.55002 14.4002 6.0001 10.5501C6.7501 8.4501 8.4001 6.85014 10.4501 6.10014C10.6501 6.00018 10.7501 5.85018 10.7501 5.6001V4.90014C10.7501 4.7001 10.6501 4.5501 10.4501 4.50018C10.4 4.50018 10.3001 4.50018 10.25 4.5501C5.50006 6.0501 2.90002 11.1002 4.40002 15.8501C5.30002 18.6501 7.45006 20.8001 10.25 21.7001C10.4501 21.8001 10.6501 21.7001 10.7 21.5001C10.7501 21.4502 10.7501 21.4001 10.7501 21.3002V20.6001C10.7501 20.4501 10.6001 20.2502 10.4501 20.1501ZM15.7501 4.5501C15.5501 4.45014 15.35 4.5501 15.3001 4.75014C15.2501 4.80018 15.2501 4.8501 15.2501 4.95018V5.65014C15.2501 5.85018 15.4001 6.0501 15.5501 6.15018C19.4501 7.5501 21.4501 11.9001 20 15.7502C19.25 17.8502 17.6 19.4501 15.5501 20.2001C15.35 20.3001 15.2501 20.4501 15.2501 20.7002V21.4001C15.2501 21.6002 15.35 21.7502 15.5501 21.8001C15.6001 21.8001 15.7001 21.8001 15.7501 21.7502C20.5001 20.2502 23.1001 15.2001 21.6001 10.4501C20.7001 7.60014 18.5 5.4501 15.7501 4.5501Z" fill="white"/>
</g>
<rect x="0.89" y="0.89" width="9.22" height="9.22" rx="4.61" fill="#0A131E"/>
<rect x="0.89" y="0.89" width="9.22" height="9.22" rx="4.61" stroke="white" stroke-width="0.22"/>
<mask id="mask0_1707_70" style="mask-type:luminance" maskUnits="userSpaceOnUse" x="2" y="2" width="8" height="7">
<path d="M2 2H9.02571V9H2V2Z" fill="white"/>
</mask>
<g mask="url(#mask0_1707_70)">
<path d="M7.29856 5.35351L4.46651 6.98859C4.27093 7.10151 4.20388 7.35153 4.31677 7.54705C4.42964 7.74256 4.6797 7.80952 4.87528 7.6966L7.70733 6.06152C7.90291 5.9486 7.96996 5.69858 7.85706 5.50304C7.74419 5.30755 7.49414 5.24059 7.29856 5.35351Z" fill="#FF7829"/>
<path d="M5.33979 4.83077L3.21576 6.05707C3.02018 6.17 2.95314 6.42002 3.06602 6.61553C3.1789 6.81105 3.42895 6.87801 3.62454 6.76508L5.74858 5.53878C5.94414 5.42586 6.01119 5.17581 5.89831 4.9803C5.78544 4.78481 5.53537 4.71784 5.33979 4.83077Z" fill="#FCBF22"/>
<path d="M5.86509 2.87049L3.03305 4.50558C2.83747 4.6185 2.77043 4.86852 2.88331 5.06404C2.99619 5.25955 3.24624 5.32651 3.44182 5.21359L6.27388 3.5785C6.46944 3.46559 6.53649 3.21555 6.42362 3.02004C6.31074 2.82453 6.06067 2.75758 5.86509 2.87049Z" fill="#2AE5B9"/>
</g>
<defs>
<clipPath id="clip0_1707_70">
<rect width="24" height="24" fill="white" transform="translate(1 1)"/>
</clipPath>
</defs>
</svg>
