<svg width="24" height="24" viewBox="0 0 24 24" fill="none" xmlns="http://www.w3.org/2000/svg">
<g clip-path="url(#clip0_1090_1046)">
<path d="M23.625 12C23.625 18.4203 18.4203 23.625 12 23.625C5.57969 23.625 0.375 18.4203 0.375 12C0.375 5.57969 5.57969 0.375 12 0.375C18.4203 0.375 23.625 5.57969 23.625 12Z" fill="white" stroke="white" stroke-width="0.75"/>
<path d="M20.625 12C20.625 7.23654 16.7635 3.375 12 3.375C7.23654 3.375 3.375 7.23654 3.375 12C3.375 16.7635 7.23654 20.625 12 20.625C16.7635 20.625 20.625 16.7635 20.625 12Z" stroke="#0051FF" stroke-width="0.75"/>
<path d="M11.9677 6V10.3981L15.685 12.0591L11.9677 6Z" fill="#6697FF"/>
<path d="M11.9677 6L8.25 12.0591L11.9677 10.3981V6Z" fill="#0052FF"/>
<path d="M11.9677 14.9092V17.8975L15.6875 12.7513L11.9677 14.9092Z" fill="#6697FF"/>
<path d="M11.9677 17.8975V14.9086L8.25 12.7513L11.9677 17.8975Z" fill="#0052FF"/>
<path d="M11.9677 14.2174L15.685 12.0589L11.9677 10.3989V14.2174Z" fill="#CCDCFF"/>
<path d="M8.25 12.0589L11.9677 14.2174V10.3989L8.25 12.0589Z" fill="#6697FF"/>
</g>
<defs>
<clipPath id="clip0_1090_1046">
<rect width="24" height="24" fill="white"/>
</clipPath>
</defs>
</svg>
