<svg xmlns="http://www.w3.org/2000/svg" width="1em" height="1em" viewBox="0 0 301 301" fill="none">
  <path d="M150.119.988l47.357 68.314-47.357 17.408-48.268-17.408L150.119.988z" fill="#d82292" />
  <path d="M101.852 164.927h95.625l-.001-95.624-47.356 17.361-48.269-17.361.001 95.625z" fill="#ef6fc4" />
  <path d="M197.476 69.303v95.624l-47.357-17.303V86.668l47.357-17.365z" fill="#ff8abc" />
  <path d="M150.119 233.221l-48.268-68.293 48.268-17.304 47.357 17.304-47.357 68.293z" fill="#d82292" />
  <path d="M166.04 286.884l8.812-53.866 27.232 2.391 12.307 25.295-48.351 26.18z" fill="#e748b1" />
  <path d="M254.613 203.26l-39.101-27.646-40.153 57.412 26.725 2.383 12.307 25.294 40.222-57.443z" fill="#ff8abc" />
  <path d="M174.851 233.018l40.222-57.443 12.606 23.28-25.595 36.555-27.233-2.392z" fill="#da33a2" />
  <path d="M263.198 148.756l-8.585 54.505-26.933-4.406-12.606-23.28 48.124-26.819z" fill="#e748b1" />
  <path d="M134.326 286.884l-8.811-53.866-27.232 2.391-12.307 25.295 48.35 26.18z" fill="#d82292" />
  <path d="M45.754 203.26l39.101-27.646 40.153 57.412-26.725 2.383-12.307 25.294-40.222-57.443z" fill="#e748b1" />
  <path d="M125.515 233.018l-40.222-57.443-12.606 23.28 25.596 36.555 27.232-2.392z" fill="#da33a2" />
  <path d="M37.168 148.756l8.586 54.505 26.933-4.406 12.606-23.28-48.124-26.819z" fill="#ff8abc" />
</svg>