<?xml version="1.0" encoding="UTF-8"?><svg id="Calque_2" xmlns="http://www.w3.org/2000/svg" viewBox="0 0 964 964"><defs><style>.cls-1{fill:#f2f2f2;}.cls-2{fill:none;stroke:#000;stroke-miterlimit:10;stroke-width:18px;}</style></defs><g id="Calque_2-2"><g id="Calque_1-2"><path class="cls-1" d="M484,949c-63.05,0-124.21-12.35-181.77-36.69-55.61-23.52-105.55-57.19-148.45-100.09-42.89-42.89-76.57-92.84-100.09-148.45-24.35-57.56-36.69-118.72-36.69-181.77s12.35-124.21,36.69-181.77c23.52-55.61,57.19-105.55,100.09-148.45,42.9-42.9,92.84-76.57,148.45-100.09,57.56-24.35,118.72-36.69,181.77-36.69s124.21,12.35,181.77,36.69c55.61,23.52,105.55,57.19,148.45,100.09,42.89,42.89,76.57,92.84,100.09,148.45,24.35,57.56,36.69,118.72,36.69,181.77s-12.35,124.21-36.69,181.77c-23.52,55.61-57.19,105.55-100.09,148.45-42.9,42.9-92.84,76.57-148.45,100.09-57.56,24.35-118.72,36.69-181.77,36.69h0Z"/><path d="M482,30c61.03,0,120.22,11.95,175.93,35.51,53.82,22.76,102.16,55.36,143.68,96.88,41.52,41.52,74.12,89.86,96.88,143.68,23.56,55.71,35.51,114.9,35.51,175.93s-11.95,120.22-35.51,175.93c-22.76,53.82-55.36,102.16-96.88,143.68-41.52,41.52-89.86,74.12-143.68,96.88-55.71,23.56-114.9,35.51-175.93,35.51s-120.22-11.95-175.93-35.51c-53.82-22.76-102.16-55.36-143.68-96.88-41.52-41.52-74.12-89.86-96.88-143.68-23.56-55.71-35.51-114.9-35.51-175.93s11.95-120.22,35.51-175.93c22.76-53.82,55.36-102.16,96.88-143.68,41.52-41.52,89.86-74.12,143.68-96.88,55.71-23.56,114.9-35.51,175.93-35.51M482,0C215.8,0,0,215.8,0,482s215.8,482,482,482,482-215.8,482-482S748.2,0,482,0h0Z"/></g><path class="cls-2" d="M486.66,762.43c-188.66,0-249.19-115.45-195.29-176.28,43.95-50.07,136.83-64.97,146.37-140.28,12.02-95.59-115.27-103.87-115.27-166.77,0-73.25,106.56-87.31,161.29-87.31s132.27,15.72,132.27,78.21c0,72.83-109.05,76.97-103.24,168.01,6.22,90.63,119.83,92.28,168.34,151.04,41.88,51.31-3.32,173.39-194.46,173.39Z"/><path d="M482.78,762.43c-101.99,0-214.59-62.17-147.86-158.74,47.3-59.21,116.26-63.67,121.41-133.1,4.33-93.01-23.06-101.79-59.84-133.95-45.83-40.08,12.19-67.19,72.88-67.19,56.41,0,116.27,27.37,85.81,58.8-36.46,37.62-57.73,27.65-58.29,135.1,16.02,95.82,98.13,91.87,133.79,141.68,64.8,99.81-44.59,157.41-147.92,157.41Z"/></g></svg>