<svg width="380" height="380" viewBox="0 0 380 380" fill="none" xmlns="http://www.w3.org/2000/svg">
<path fill-rule="evenodd" clip-rule="evenodd" d="M189.64 0C294.376 0 379.281 84.9047 379.281 189.64C379.281 294.376 294.376 379.281 189.64 379.281C84.9047 379.281 0 294.376 0 189.64C0 84.9047 84.9047 0 189.64 0Z" fill="#2775CA"/>
<path fill-rule="evenodd" clip-rule="evenodd" d="M232.972 56.106C228.696 54.7399 225.199 57.2781 225.199 61.7679V72.8094C225.199 75.8197 227.467 79.246 230.294 80.2819C275.685 96.907 308.166 140.536 308.166 191.616C308.166 242.695 275.685 286.322 230.294 302.949C227.194 304.084 225.199 307.121 225.199 310.422V321.462C225.199 325.953 228.696 328.491 232.972 327.125C290.334 308.797 331.871 255.057 331.871 191.616C331.871 128.174 290.334 74.4336 232.972 56.106Z" fill="white"/>
<path fill-rule="evenodd" clip-rule="evenodd" d="M154.079 61.7679C154.079 57.2781 150.583 54.7399 146.306 56.106C88.9435 74.4336 47.4062 128.173 47.4062 191.616C47.4062 255.059 88.9435 308.797 146.306 327.125C150.583 328.491 154.079 325.953 154.079 321.462V310.422C154.079 307.411 151.81 303.984 148.984 302.949C103.593 286.322 71.1113 242.694 71.1113 191.616C71.1113 140.537 103.593 96.907 148.984 80.2819C151.81 79.246 154.079 75.8197 154.079 72.8093V61.7679Z" fill="white"/>
<path d="M238.139 228.625L227.29 223.779C224.902 222.712 222.086 223.709 220.929 226.057C215.809 236.448 207.299 243.071 196.057 243.071C185.88 243.071 177.717 238.086 171.461 228.015C169.015 224.118 167.072 219.768 165.592 215.003H194.724C196.57 215.003 198.259 213.963 199.092 212.314L206.042 202.933C207.686 199.678 205.321 195.834 201.676 195.834H162.314C162.2 193.815 162.132 191.757 162.132 189.636C162.11 187.535 162.169 185.475 162.278 183.446H194.724C196.57 183.446 198.259 182.408 199.092 180.759L206.042 171.378C207.688 168.122 205.321 164.278 201.676 164.278H165.557C170.84 147.054 181.868 135.77 196.057 135.991C206.87 135.991 215.264 141.911 220.649 151.606C221.855 153.779 224.571 154.612 226.844 153.608L237.749 148.794C240.358 147.642 241.467 144.487 240.086 141.992C230.02 123.813 215.344 114.682 196.057 114.682C178.458 114.682 164.358 121.679 153.65 135.567C147.391 143.747 143.035 153.345 140.449 164.278H124.609C122.763 164.278 121.073 165.317 120.241 166.965L113.29 176.347C111.646 179.602 114.011 183.446 117.658 183.446H137.832C137.735 185.484 137.642 187.524 137.642 189.636C137.616 191.73 137.665 193.791 137.754 195.834H124.609C122.763 195.834 121.073 196.873 120.241 198.521L113.29 207.902C111.646 211.157 114.011 215.003 117.658 215.003H140.403C147.597 244.735 168.306 265.01 196.057 264.591C215.761 264.591 230.612 254.796 240.526 235.292C241.788 232.809 240.682 229.762 238.139 228.625Z" fill="white"/>
</svg>
