<svg width="207" height="207" viewBox="0 0 207 207" fill="none" xmlns="http://www.w3.org/2000/svg">
<path d="M103.125 206.25C160.079 206.25 206.25 160.079 206.25 103.125C206.25 46.1706 160.079 0 103.125 0C46.1706 0 0 46.1706 0 103.125C0 160.079 46.1706 206.25 103.125 206.25Z" fill="#00A3FF"/>
<path d="M53.7513 94.5312L52.4296 96.5147C37.2249 120.312 40.5304 151.382 61.0233 171.214C72.2614 183.113 88.1263 189.062 103.992 189.062C103.992 189.062 103.992 189.062 53.7513 94.5312Z" fill="#9CDBFF"/>
<path opacity="0.6" d="M103.987 122.955L53.7461 93.8682C103.987 189.06 103.987 189.06 103.987 189.06C103.987 168.568 103.987 144.77 103.987 122.955Z" fill="#9CDBFF"/>
<path opacity="0.6" d="M154.236 94.5312L155.559 96.5147C170.763 120.312 167.457 151.382 146.965 171.214C135.066 183.113 119.861 189.062 103.996 189.062C103.996 189.062 103.996 189.062 154.236 94.5312Z" fill="#9CDBFF"/>
<path opacity="0.2" d="M103.996 122.955L154.236 93.8682C103.996 189.06 103.996 189.06 103.996 189.06C103.996 168.568 103.996 144.77 103.996 122.955Z" fill="#9CDBFF"/>
<path opacity="0.2" d="M103.996 58.8389V108.418L147.626 83.9584L103.996 58.8389Z" fill="#9CDBFF"/>
<path opacity="0.6" d="M103.989 58.8389L60.3594 83.9584L103.989 108.418V58.8389Z" fill="#9CDBFF"/>
<path d="M103.989 17.1875L60.3594 83.9541L103.989 58.8345V17.1875Z" fill="#9CDBFF"/>
<path opacity="0.6" d="M103.996 58.8345L147.626 83.9541L103.996 17.1875V58.8345Z" fill="#9CDBFF"/>
</svg>
