<svg width="100" height="100" viewBox="0 0 100 100" fill="none" xmlns="http://www.w3.org/2000/svg">
<ellipse cx="50" cy="50" rx="50" ry="50" fill="#6A97FF"/>
<path d="M58.7549 7.50031C57.8174 7.18781 56.8799 7.18781 55.9424 7.18781L55.0049 15.6253C55.6299 15.6253 56.5674 15.9378 57.1924 15.9378L58.7549 7.50031Z" fill="white"/>
<path d="M47.1924 15.3128L46.5674 6.56281C45.6299 6.56281 44.6924 6.87531 43.7549 6.87531L45.0049 15.6253C45.6299 15.6253 46.5674 15.6253 47.1924 15.3128Z" fill="white"/>
<path d="M22.1924 29.3753L15.0049 24.3753C14.3799 25.0003 14.0674 25.9378 13.4424 26.5628L20.9424 31.2503C21.2549 30.6253 21.5674 30.0003 22.1924 29.3753Z" fill="white"/>
<path d="M52.1924 15.3128L52.8174 6.56281C51.8799 6.56281 50.9424 6.56281 50.3174 6.56281H50.0049V15.3128C50.6299 15.3128 51.5674 15.3128 52.1924 15.3128Z" fill="white"/>
<path d="M19.3799 33.7503L11.5674 29.3753C11.2549 30.3128 10.9424 31.2503 10.6299 31.8753L18.4424 35.6253C18.7549 35.0003 19.0674 34.3753 19.3799 33.7503Z" fill="white"/>
<path d="M37.5049 17.5003L34.3799 9.37531C33.4424 9.68781 32.8174 10.0003 31.8799 10.3128L35.6299 18.1253C36.2549 18.1253 36.8799 17.8128 37.5049 17.5003Z" fill="white"/>
<path d="M25.3174 25.6253L19.0674 19.3753C18.4424 20.3128 17.8174 20.9378 17.1924 21.5628L23.7549 27.1878C24.3799 26.8753 24.6924 26.2503 25.3174 25.6253Z" fill="white"/>
<path d="M42.1924 16.2503L40.3174 7.81281C39.3799 8.12531 38.4424 8.12531 37.5049 8.43781L40.0049 16.8753C40.9424 16.5628 41.5674 16.2503 42.1924 16.2503Z" fill="white"/>
<path d="M29.0674 22.5003L23.7549 15.6253C22.8174 15.9378 22.1924 16.5628 21.5674 17.1878L27.1924 23.7503C27.8174 23.4378 28.4424 22.8128 29.0674 22.5003Z" fill="white"/>
<path d="M33.1299 19.6878L28.7549 12.1878C28.1299 12.5003 27.1924 13.1253 26.5674 13.4378L31.2549 20.9378C31.8799 20.3128 32.5049 20.0003 33.1299 19.6878Z" fill="white"/>
<path d="M64.6924 9.06281C63.7549 8.75031 62.8174 8.43781 62.1924 8.12531L59.6924 16.5628C60.3174 16.8753 61.2549 16.8753 61.8799 17.1878L64.6924 9.06281Z" fill="white"/>
<path d="M83.7549 42.1878L92.1924 40.3128C91.8799 39.3753 91.8799 38.4378 91.5674 37.5003L83.1299 40.0003C83.4424 40.9378 83.7549 41.5628 83.7549 42.1878Z" fill="white"/>
<path d="M80.3174 33.1253L87.8174 28.7503C87.5049 28.1253 86.8799 27.1878 86.5674 26.5628L79.0674 31.2503C79.6924 31.8753 80.0049 32.5003 80.3174 33.1253Z" fill="white"/>
<path d="M84.6924 47.1878L93.4424 46.5628C93.4424 45.6253 93.1299 44.6878 93.1299 43.7503L84.3799 45.0003C84.3799 45.6253 84.3799 46.5628 84.6924 47.1878Z" fill="white"/>
<path d="M82.5049 37.5003L90.6299 34.3753C90.3174 33.4378 90.0049 32.8128 89.6924 31.8753L81.8799 35.6253C81.8799 36.2503 82.1924 36.8753 82.5049 37.5003Z" fill="white"/>
<path d="M70.6299 22.1878L75.9424 15.0003C75.3174 14.3753 74.3799 14.0628 73.7549 13.4378L68.7549 20.9378C69.3799 21.2503 70.0049 21.5628 70.6299 22.1878Z" fill="white"/>
<path d="M66.2549 19.3753L70.3174 11.5628C69.3799 11.2503 68.7549 10.6253 67.8174 10.3128L64.0674 18.1253C65.0049 18.7503 65.6299 19.0628 66.2549 19.3753Z" fill="white"/>
<path d="M74.3799 25.3128L80.6299 19.0628C80.0049 18.4378 79.3799 17.8128 78.7549 17.1878L73.1299 23.7503C73.1299 24.3753 73.7549 24.6878 74.3799 25.3128Z" fill="white"/>
<path d="M77.5049 29.0628L84.3799 23.7503C83.7549 23.1253 83.1299 22.1878 82.5049 21.5628L75.9424 27.1878C76.5674 27.8128 77.1924 28.4378 77.5049 29.0628Z" fill="white"/>
<path d="M17.5049 62.5003L9.37988 65.6253C9.69238 66.5628 10.0049 67.1878 10.3174 68.1253L18.1299 64.3753C18.1299 63.7503 17.8174 63.1253 17.5049 62.5003Z" fill="white"/>
<path d="M66.8799 80.3128L71.2549 87.8128C72.1924 87.5003 72.8174 86.8753 73.7549 86.2503L68.7549 79.0628C68.1299 79.3753 67.5049 80.0003 66.8799 80.3128Z" fill="white"/>
<path d="M62.5049 82.5003L65.6299 90.6253C66.5674 90.3128 67.1924 90.0003 68.1299 89.6878L64.3799 81.8753C63.7549 81.8753 63.1299 82.1878 62.5049 82.5003Z" fill="white"/>
<path d="M70.9424 77.5003L76.2549 84.3753C76.8799 83.7503 77.8174 83.1253 78.4424 82.5003L72.8174 75.9378C72.1924 76.5628 71.5674 77.1878 70.9424 77.5003Z" fill="white"/>
<path d="M52.8174 84.6878L53.4424 93.4378C54.3799 93.4378 55.3174 93.1253 56.2549 93.1253L55.0049 84.3753C54.3799 84.3753 53.7549 84.3753 52.8174 84.6878Z" fill="white"/>
<path d="M74.6924 74.3753L80.9424 80.6253C81.5674 80.0003 82.1924 79.3753 82.8174 78.7503L76.2549 73.1253C75.9424 73.1253 75.3174 73.7503 74.6924 74.3753Z" fill="white"/>
<path d="M57.8174 83.7503L59.6924 92.1878C60.6299 91.8753 61.5674 91.8753 62.5049 91.5628L60.0049 83.1253C59.0674 83.4378 58.4424 83.7503 57.8174 83.7503Z" fill="white"/>
<path d="M47.8174 84.6878L47.1924 93.4378C48.1299 93.4378 49.0674 93.4378 50.0049 93.4378V84.6878C49.3799 84.6878 48.4424 84.6878 47.8174 84.6878Z" fill="white"/>
<path d="M17.5049 38.1253L9.37988 35.0003C9.06738 35.9378 8.75488 36.8753 8.44238 37.5003L16.8799 40.0003C16.8799 39.6878 17.1924 38.7503 17.5049 38.1253Z" fill="white"/>
<path d="M84.6924 50.0003C84.6924 50.6253 84.6924 51.5628 84.6924 52.1878L93.4424 52.8128C93.4424 51.8753 93.4424 50.9378 93.4424 50.3128L84.6924 50.0003Z" fill="white"/>
<path d="M82.5049 61.8753L90.6299 65.0003C90.9424 64.0628 91.2549 63.1253 91.5674 62.5003L83.1299 60.0003C83.1299 60.3128 82.8174 60.9378 82.5049 61.8753Z" fill="white"/>
<path d="M80.6299 66.2503L88.4424 70.3128C88.7549 69.3753 89.3799 68.7503 89.6924 67.8128L81.5674 64.0628C81.2549 65.0003 80.9424 65.6253 80.6299 66.2503Z" fill="white"/>
<path d="M78.1299 70.3128L85.3174 75.6253C85.9424 75.0003 86.2549 74.0628 86.8799 73.4378L79.3799 68.7503C78.7549 69.3753 78.4424 70.0003 78.1299 70.3128Z" fill="white"/>
<path d="M84.0674 56.8753L92.5049 58.7503C92.8174 57.8128 92.8174 56.8753 92.8174 55.9378L84.3799 54.6878C84.3799 55.6253 84.0674 56.2503 84.0674 56.8753Z" fill="white"/>
<path d="M16.2549 57.5003L7.81738 59.3753C8.12988 60.3128 8.12988 61.2503 8.44238 61.8753L16.8799 59.3753C16.5674 59.0628 16.2549 58.4378 16.2549 57.5003Z" fill="white"/>
<path d="M19.6924 66.8753L12.1924 71.2503C12.5049 71.8753 13.1299 72.8128 13.4424 73.4378L20.9424 68.7503C20.3174 68.1253 20.0049 67.5003 19.6924 66.8753Z" fill="white"/>
<path d="M15.3174 52.8128L6.56738 53.4378C6.56738 54.3753 6.87988 55.3128 6.87988 56.2503L15.6299 55.0003C15.6299 54.3753 15.6299 53.4378 15.3174 52.8128Z" fill="white"/>
<path d="M15.3174 47.8128L6.56738 47.1878C6.56738 48.1253 6.56738 49.0628 6.56738 50.0003H15.3174C15.3174 49.3753 15.3174 48.4378 15.3174 47.8128Z" fill="white"/>
<path d="M22.5049 70.9378L15.6299 76.2503C16.2549 76.8753 16.8799 77.8128 17.5049 78.4378L24.0674 72.8128C23.4424 72.1878 22.8174 71.5628 22.5049 70.9378Z" fill="white"/>
<path d="M35.0049 90.9378C35.9424 91.2503 36.8799 91.5628 37.5049 91.8753L40.0049 83.4378C39.3799 83.1253 38.4424 83.1253 37.8174 82.8128L35.0049 90.9378Z" fill="white"/>
<path d="M15.9424 42.8128L7.50488 40.9378C7.19238 41.8753 7.19238 42.8128 6.87988 43.7503L15.6299 45.0003C15.6299 44.3753 15.9424 43.7503 15.9424 42.8128Z" fill="white"/>
<path d="M41.2549 92.5003C42.1924 92.8128 43.1299 92.8128 44.0674 93.1253L45.3174 84.3753C44.6924 84.3753 43.7549 84.0628 43.1299 84.0628L41.2549 92.5003Z" fill="white"/>
<path d="M33.7549 80.6253L29.6924 88.4378C30.6299 88.7503 31.2549 89.3753 32.1924 89.6878L35.9424 81.8753C35.0049 81.2503 34.3799 80.9378 33.7549 80.6253Z" fill="white"/>
<path d="M25.6299 74.6878L19.3799 80.9378C20.0049 81.5628 20.6299 82.1878 21.5674 82.8128L27.1924 76.2503C26.8799 75.6253 26.2549 75.3128 25.6299 74.6878Z" fill="white"/>
<path d="M29.3799 77.8128L24.0674 84.6878C24.6924 85.3128 25.6299 85.6253 26.2549 86.2503L30.9424 78.7503C30.6299 78.7503 30.0049 78.4378 29.3799 77.8128Z" fill="white"/>
<path d="M41.5674 77.8128H44.0674H56.2549H58.7549V75.3128V69.6878H63.4424H64.0674C69.3799 66.2503 71.2549 61.5628 71.2549 56.2503C71.2549 51.5628 68.7549 47.5003 64.6924 44.6878H67.1924H69.6924V42.1878V32.5003V30.0003H67.1924H58.7549V24.6878V22.1878H56.2549H44.0674H41.5674V24.6878V30.0003H36.8799H36.2549C30.9424 33.4378 29.0674 38.1253 29.0674 43.4378C29.0674 48.1253 31.5674 52.1878 35.3174 55.0003H32.8174H30.3174V57.5003V67.1878V69.6878H32.8174H41.2549V75.3128V77.8128H41.5674ZM55.9424 75.3128H43.7549V69.6878H55.9424V75.3128ZM44.0674 24.6878H56.2549V30.0003H44.0674V24.6878ZM36.8799 32.5003H41.5674H44.0674H56.2549H58.7549H67.1924V42.1878H48.1299H31.5674C31.5674 38.1253 33.7549 34.6878 36.8799 32.5003ZM31.5674 45.0003H48.4424H56.8799C62.8174 45.0003 67.8174 49.3753 68.7549 55.0003H43.7549C37.5049 55.0003 32.5049 50.6253 31.5674 45.0003ZM32.8174 67.1878V57.5003H68.4424C68.4424 61.5628 66.2549 65.0003 63.1299 67.1878H58.4424H55.9424H43.7549H41.2549H32.8174Z" fill="white"/>
</svg>
