<svg width="2500" height="2500" viewBox="0 0 2500 2500" fill="none" xmlns="http://www.w3.org/2000/svg">
<g filter="url(#filter0_d_923_476)">
<circle cx="1238" cy="1250" r="1180" fill="url(#paint0_linear_923_476)"/>
<g filter="url(#filter1_d_923_476)">
<path d="M1612.62 1215.06C1661.09 1158.37 1689.85 1086.08 1689.85 1003.92C1689.85 851.117 1585.51 722.135 1443.38 685.988V511H1279.08V675.308H1114.77V511H950.462V675.308H704V839.615H868.308V1661.15H704V1825.46H950.462V1989.77H1114.77V1825.46H1279.08V1989.77H1443.38V1825.46C1624.94 1825.46 1772 1678.41 1772 1496.85C1772 1377.72 1707.92 1272.57 1612.62 1215.06ZM1032.62 839.615H1361.23C1451.6 839.615 1525.54 913.554 1525.54 1003.92C1525.54 1094.29 1451.6 1168.23 1361.23 1168.23H1032.62V839.615ZM1443.38 1661.15H1032.62V1332.54H1443.38C1533.75 1332.54 1607.69 1406.48 1607.69 1496.85C1607.69 1587.22 1533.75 1661.15 1443.38 1661.15Z" fill="#090915"/>
</g>
</g>
<defs>
<filter id="filter0_d_923_476" x="-50" y="-50" width="2600" height="2600" filterUnits="userSpaceOnUse" color-interpolation-filters="sRGB">
<feFlood flood-opacity="0" result="BackgroundImageFix"/>
<feColorMatrix in="SourceAlpha" type="matrix" values="0 0 0 0 0 0 0 0 0 0 0 0 0 0 0 0 0 0 127 0" result="hardAlpha"/>
<feOffset/>
<feGaussianBlur stdDeviation="25"/>
<feComposite in2="hardAlpha" operator="out"/>
<feColorMatrix type="matrix" values="0 0 0 0 0.675749 0 0 0 0 0.384462 0 0 0 0 0.895833 0 0 0 1 0"/>
<feBlend mode="normal" in2="BackgroundImageFix" result="effect1_dropShadow_923_476"/>
<feBlend mode="normal" in="SourceGraphic" in2="effect1_dropShadow_923_476" result="shape"/>
</filter>
<filter id="filter1_d_923_476" x="704" y="511" width="1118" height="1498.77" filterUnits="userSpaceOnUse" color-interpolation-filters="sRGB">
<feFlood flood-opacity="0" result="BackgroundImageFix"/>
<feColorMatrix in="SourceAlpha" type="matrix" values="0 0 0 0 0 0 0 0 0 0 0 0 0 0 0 0 0 0 127 0" result="hardAlpha"/>
<feOffset dx="40" dy="10"/>
<feGaussianBlur stdDeviation="5"/>
<feComposite in2="hardAlpha" operator="out"/>
<feColorMatrix type="matrix" values="0 0 0 0 0 0 0 0 0 0 0 0 0 0 0 0 0 0 0.25 0"/>
<feBlend mode="normal" in2="BackgroundImageFix" result="effect1_dropShadow_923_476"/>
<feBlend mode="normal" in="SourceGraphic" in2="effect1_dropShadow_923_476" result="shape"/>
</filter>
<linearGradient id="paint0_linear_923_476" x1="97.5032" y1="4913.28" x2="2507.14" y2="4886.54" gradientUnits="userSpaceOnUse">
<stop stop-color="#7A8FD9"/>
<stop offset="1" stop-color="#AC62E4"/>
</linearGradient>
</defs>
</svg>
