<svg width="400" height="400" viewBox="0 0 400 400" fill="none" xmlns="http://www.w3.org/2000/svg">
<path d="M354.898 74.1084C347.028 64.4384 338.278 55.5284 328.758 47.4784C294.008 18.1084 249.068 0.398438 199.998 0.398438C150.928 0.398438 105.818 18.1784 71.0284 47.6484C61.5284 55.7084 52.7784 64.6384 44.9284 74.3184C17.0784 108.628 0.398438 152.368 0.398438 199.998C0.398438 247.628 18.1084 294.008 47.4884 328.768C55.5384 338.288 64.4584 347.048 74.1184 354.908C108.458 382.848 152.278 399.598 199.998 399.598C247.718 399.598 291.368 382.918 325.668 355.068C335.348 347.218 344.288 338.478 352.338 328.968C381.818 294.188 399.598 249.168 399.598 199.998C399.598 150.828 382.858 108.468 354.898 74.1184V74.0984V74.1084Z" fill="#E7C585"/>
<path d="M262.651 185.456C263.171 171.066 254.591 157.716 240.661 151.336L238.421 150.306C229.631 146.256 219.931 144.156 210.111 144.156H159.621C156.981 144.156 154.461 145.126 152.601 146.866C150.741 148.606 149.701 150.946 149.711 153.406L150.391 251.156C150.421 255.446 154.181 258.926 158.821 258.926H179.501C183.121 258.926 186.071 256.246 186.141 252.896L186.801 223.466H200.241L223.551 256.806C224.471 258.126 226.071 258.926 227.771 258.926H251.501C255.131 258.926 258.371 256.496 258.901 252.876C259.141 251.226 258.641 249.556 257.701 248.186L237.381 218.446L238.201 218.136C252.561 212.646 262.101 199.866 262.641 185.476L262.661 185.456H262.651ZM225.511 186.156C225.481 186.466 225.511 186.976 225.421 187.266C225.451 187.756 225.071 188.366 224.951 188.846C224.811 189.386 224.901 189.206 224.571 189.596C224.501 189.906 224.081 190.256 224.011 190.566C223.781 191.416 223.261 191.886 222.601 192.476C222.391 192.666 222.081 193.136 221.851 193.276C221.541 193.766 221.331 194.026 220.821 194.166C220.681 194.266 220.401 194.616 220.261 194.666C219.741 195.156 219.181 195.536 218.521 195.886C217.011 196.666 215.601 197.066 213.971 197.296C212.751 197.466 211.541 197.486 210.301 197.486C207.351 197.486 204.221 197.676 201.191 197.416C200.561 197.366 199.611 197.536 198.981 197.506C198.341 197.476 197.801 197.556 197.151 197.506C196.161 197.476 193.261 197.646 192.271 197.506C188.981 197.036 187.001 198.256 186.921 196.846C186.781 194.796 186.851 191.286 186.831 189.386C186.811 186.866 186.731 184.976 186.901 182.516C187.041 180.346 186.901 178.106 186.831 175.916C186.741 173.306 186.551 171.396 187.301 171.486C188.861 171.676 193.091 171.416 194.631 171.536C195.601 171.606 196.891 171.516 197.861 171.586C200.711 171.046 207.321 171.866 206.501 171.496C206.971 171.516 208.711 171.526 209.181 171.586C209.961 171.676 210.661 171.426 211.441 171.536C212.411 171.636 212.641 171.776 213.601 171.896C213.951 171.926 214.591 172.196 214.921 172.256C215.091 172.286 215.651 172.496 215.811 172.536C217.511 172.886 218.451 173.246 219.761 174.306C221.121 174.936 223.641 178.286 224.231 179.386C225.451 181.666 224.911 180.776 225.261 182.186C225.491 182.886 225.681 183.486 225.681 184.236C225.541 184.986 225.631 185.456 225.541 186.096L225.511 186.146V186.156Z" fill="#1B293F"/>
<path d="M280.733 228.95C280.733 225.62 283.643 222.93 287.213 222.93H304.203C308.233 222.93 311.513 225.96 311.513 229.71V245.68C311.513 248.88 308.713 251.48 305.243 251.48H286.753C283.413 251.48 280.703 248.98 280.703 245.89V228.97L280.723 228.95H280.733Z" fill="#1B293F"/>
<path d="M311.723 111.633V119.683H311.663V196.553C311.663 198.183 310.353 199.493 308.723 199.493H282.973C281.333 199.493 280.003 198.183 280.003 196.553V119.683H120.193V280.353H309.413C310.583 280.353 311.523 281.323 311.523 282.493C311.503 289.913 308.463 296.633 303.553 301.493C298.643 306.353 291.833 309.383 284.333 309.383H110.693C98.3034 309.383 88.2734 299.433 88.2734 287.133V282.433C88.2734 282.073 88.3634 281.713 88.5434 281.433V111.243C88.5434 99.8528 97.8434 90.6328 109.323 90.6328H120.213V91.0228H290.963C302.453 91.0228 311.743 100.243 311.743 111.633H311.723Z" fill="#1B293F"/>
<path d="M355.22 73.87C354.24 72.65 353.24 71.45 352.22 70.26C350.2 67.88 348.12 65.56 345.98 63.28C340.64 57.58 334.99 52.21 329.03 47.17C294.19 17.74 249.17 0 200 0C150.83 0 105.63 17.81 70.77 47.34C67.2 50.37 63.73 53.52 60.39 56.79C59.27 57.88 58.17 58.98 57.08 60.09C52.71 64.55 48.56 69.21 44.62 74.06C16.72 108.45 0 152.27 0 200C0 247.73 17.74 294.2 47.18 329.03C51.21 333.8 55.46 338.38 59.92 342.75C64.38 347.12 69.03 351.29 73.87 355.22C108.29 383.22 152.18 400 200 400C247.82 400 291.55 383.28 325.93 355.39C335.63 347.53 344.59 338.77 352.66 329.23C382.2 294.38 400.01 249.27 400.01 200.01C400.01 150.75 383.23 108.29 355.23 73.88L355.22 73.87ZM341.51 318.08L319.79 296.36C317.16 309.96 305.23 320.24 290.89 320.33L314.76 344.2C283.27 369.3 243.39 384.29 199.99 384.29C156.59 384.29 116.54 369.23 85.02 344.03L108.74 320.31C94.45 320.04 82.64 309.66 80.15 296.02L58.32 317.85C31.7 285.9 15.68 244.8 15.68 199.96C15.68 155.12 30.68 116.68 55.78 85.19L79.67 109.08C79.77 94.74 90.06 82.82 103.66 80.19L81.92 58.45C113.9 31.73 155.08 15.65 200.01 15.65C244.94 15.65 285.94 31.67 317.9 58.28L296.05 80.13C309.69 82.61 320.07 94.42 320.35 108.71L344.07 84.98C369.26 116.5 384.33 156.47 384.33 199.95C384.33 243.43 368.25 286.06 341.52 318.04V318.06L341.51 318.08Z" fill="#1B293F"/>
</svg>
