<svg width="500" height="500" viewBox="0 0 500 500" fill="none" xmlns="http://www.w3.org/2000/svg">
<path d="M438.43 96.88C428.86 85.12 418.21 74.27 406.63 64.48C364.36 28.76 309.7 7.21997 250 7.21997C190.3 7.21997 135.44 28.84 93.1297 64.69C81.5697 74.5 70.9297 85.35 61.3797 97.13C27.5097 138.86 7.21973 192.06 7.21973 250C7.21973 307.94 28.7597 364.36 64.4897 406.63C74.2797 418.21 85.1297 428.86 96.8897 438.43C138.66 472.42 191.96 492.79 250.01 492.79C308.06 492.79 361.15 472.5 402.88 438.63C414.66 429.08 425.52 418.45 435.32 406.88C471.18 364.57 492.8 309.81 492.8 250.01C492.8 190.21 472.43 138.67 438.44 96.89L438.43 96.88Z" fill="#E8C787"/>
<path d="M444.03 92.33C442.8 90.82 441.55 89.32 440.28 87.83C437.75 84.86 435.15 81.95 432.48 79.11C425.81 71.99 418.74 65.27 411.29 58.97C367.76 22.18 311.47 0 250 0C188.53 0 132.03 22.26 88.47 59.18C84.01 62.97 79.67 66.91 75.49 70.99C74.09 72.35 72.71 73.73 71.35 75.12C65.89 80.69 60.7 86.52 55.78 92.58C20.9 135.56 0 190.34 0 250C0 309.66 22.18 367.75 58.97 411.29C64.01 417.25 69.32 422.98 74.89 428.44C80.46 433.9 86.28 439.11 92.33 444.03C135.35 479.03 190.23 500.01 250 500.01C309.77 500.01 364.44 479.11 407.41 444.24C419.54 434.41 430.73 423.46 440.82 411.54C477.75 367.97 500.01 311.59 500.01 250.01C500.01 188.43 479.03 135.36 444.03 92.34V92.33ZM426.9 397.61L366.19 336.9C356.8 349.44 345.43 360.4 332.53 369.34L393.46 430.27C354.1 461.64 304.24 480.39 250 480.39C195.76 480.39 145.68 461.56 106.28 430.06L167.2 369.14C154.33 360.18 142.98 349.18 133.62 336.62L72.9 397.34C39.63 357.4 19.6 306.03 19.6 249.97C19.6 193.91 38.35 145.87 69.72 106.51L130.66 167.45C139.59 154.55 150.55 143.18 163.1 133.79L102.39 73.08C142.37 39.68 193.84 19.58 250.01 19.58C306.18 19.58 357.44 39.6 397.38 72.87L336.66 133.59C349.22 142.96 360.22 154.31 369.17 167.18L430.1 106.25C461.59 145.65 480.43 195.61 480.43 249.97C480.43 304.33 460.33 357.61 426.92 397.59L426.9 397.61Z" fill="#1B2940"/>
<path d="M249.02 280.76C266.87 280.76 281.34 266.29 281.34 248.44C281.34 230.59 266.87 216.12 249.02 216.12C231.17 216.12 216.7 230.59 216.7 248.44C216.7 266.29 231.17 280.76 249.02 280.76Z" fill="#1B2940"/>
<path d="M228.2 208.46C220.06 213.23 211.92 218 203.79 222.77V252.33C196.83 248.27 189.88 244.21 182.93 240.14V210.96L207.71 196.37C214.55 200.41 221.38 204.44 228.21 208.47L228.2 208.46Z" fill="#1B2940"/>
<path d="M165.09 250.48L165.22 300.33L207.58 325.26V354.44L140.43 315.06V235.9L165.09 250.48ZM165.09 200.63V229.68L140.42 215.09V186.04L165.09 171.45L189.88 186.04L165.09 200.63ZM225.28 186.03L249.95 171.44L274.74 186.03L249.95 200.62L225.28 186.03Z" fill="#1B2940"/>
<path d="M182.92 290V260.82L207.59 275.41V304.46L182.92 290ZM225.28 335.71L249.95 350.3L274.74 335.71V364.76L249.95 379.35L225.28 364.76V335.71ZM310.11 186.03L334.78 171.44L359.57 186.03V215.08L334.78 229.67V200.62L310.11 186.03ZM334.78 300.33L334.91 250.48L359.58 235.89V315.05L292.43 354.43V325.25L334.78 300.34V300.33Z" fill="#1B2940"/>
<path d="M317.09 290L292.43 304.46V275.41L317.09 260.81V290Z" fill="#1B2940"/>
<path d="M271.88 208.46C279.95 213.1 288.03 217.74 296.1 222.38C296.04 232.49 295.97 242.6 295.91 252.71C302.97 248.52 310.02 244.33 317.08 240.14V210.96L292.3 196.37C285.49 200.41 278.68 204.44 271.87 208.47L271.88 208.46Z" fill="#1B2940"/>
<path d="M274.55 290.09C266.28 294.86 258.02 299.63 249.76 304.4C241.56 299.63 233.36 294.86 225.16 290.09V314.5C233.37 319.1 241.59 323.7 249.8 328.31L274.7 313.92C274.65 305.98 274.61 298.03 274.56 290.09H274.55Z" fill="#1B2940"/>
<path d="M183.33 159.99L250.07 120.64L316.92 159.99L292.36 174.52L250.07 149.58L207.9 174.52L183.33 159.99Z" fill="#1B2940"/>
<path d="M249.04 281.01C266.89 281.01 281.36 266.54 281.36 248.69C281.36 230.84 266.89 216.37 249.04 216.37C231.19 216.37 216.72 230.84 216.72 248.69C216.72 266.54 231.19 281.01 249.04 281.01Z" fill="url(#paint0_radial_4331_13982)"/>
<defs>
<radialGradient id="paint0_radial_4331_13982" cx="0" cy="0" r="1" gradientUnits="userSpaceOnUse" gradientTransform="translate(248.5 249.71) scale(32.36 32.36)">
<stop stop-color="#4893FF"/>
<stop offset="1" stop-color="#1B2940" stop-opacity="0"/>
</radialGradient>
</defs>
</svg>
