<?xml version="1.0" encoding="UTF-8"?><svg id="Calque_2" xmlns="http://www.w3.org/2000/svg" viewBox="0 0 964 964"><defs><style>.cls-1{fill:#414141;}.cls-2{fill:#5b5b5b;}.cls-3{fill:#f2f2f2;}</style></defs><g id="Calque_2-2"><g id="uuid-aade20a0-bb5b-45cd-9322-3965f16f0c26"><g id="Calque_1-2"><path class="cls-3" d="M484,949c-63.05,0-124.21-12.35-181.77-36.69-55.61-23.52-105.55-57.19-148.45-100.09-42.89-42.89-76.57-92.84-100.09-148.45-24.35-57.56-36.69-118.72-36.69-181.77s12.35-124.21,36.69-181.77c23.52-55.61,57.19-105.55,100.09-148.45,42.9-42.9,92.84-76.57,148.45-100.09,57.56-24.35,118.72-36.69,181.77-36.69s124.21,12.35,181.77,36.69c55.61,23.52,105.55,57.19,148.45,100.09,42.89,42.89,76.57,92.84,100.09,148.45,24.35,57.56,36.69,118.72,36.69,181.77s-12.35,124.21-36.69,181.77c-23.52,55.61-57.19,105.55-100.09,148.45-42.9,42.9-92.84,76.57-148.45,100.09-57.56,24.35-118.72,36.69-181.77,36.69h0Z"/><path d="M482,30c61.03,0,120.22,11.95,175.93,35.51,53.82,22.76,102.16,55.36,143.68,96.88,41.52,41.52,74.12,89.86,96.88,143.68,23.56,55.71,35.51,114.9,35.51,175.93s-11.95,120.22-35.51,175.93c-22.76,53.82-55.36,102.16-96.88,143.68-41.52,41.52-89.86,74.12-143.68,96.88-55.71,23.56-114.9,35.51-175.93,35.51s-120.22-11.95-175.93-35.51c-53.82-22.76-102.16-55.36-143.68-96.88-41.52-41.52-74.12-89.86-96.88-143.68-23.56-55.71-35.51-114.9-35.51-175.93s11.95-120.22,35.51-175.93c22.76-53.82,55.36-102.16,96.88-143.68,41.52-41.52,89.86-74.12,143.68-96.88,55.71-23.56,114.9-35.51,175.93-35.51M482,0C215.8,0,0,215.8,0,482s215.8,482,482,482,482-215.8,482-482S748.2,0,482,0h0Z"/></g><path class="cls-1" d="M331.11,409.77c-3.03,10.56-125.03,112.67-127.15,107.4-3.72-9.26,35.04-74.17,47.71-125.88,12.67-51.7,7.94-139.92,14.56-150.48,6.62-10.56,67.9,158.4,64.87,168.96Z"/><path class="cls-2" d="M388.18,354.4c-37.48-44.33-117.96-117.55-120.61-114.91-2.65,2.64,32.34,73.99,41.18,99.07,8.83,25.08,21.18,69.96,21.18,69.96,0,0,35.13,11.91,66.2,26.4,31.06,14.49,60.89,31.68,63.54,30.36,2.65-1.32-34-66.54-71.49-110.88Z"/><path d="M400.32,434.55c-23.83-11.88-70.65-26.1-70.65-26.1,0,0-44.75,44.16-52.69,52.08-7.94,7.92-70.14,56.63-72.78,56.84-1.7.14,28.16,1.04,59.72-4.16,31.57-5.2,59.74-10.29,83.45-14.87,35.54-6.86,93.94-23.93,96.95-24.79,3.01-.85,16.21-5.58,16.41-6.54.2-.96-36.58-20.58-60.41-32.47Z"/><path class="cls-1" d="M595.48,421.08c2.85-6.41-97.45-261.97-97.85-246.13-.23,8.96-2.38,84.62-6.09,126.29-3.72,41.67-12.54,81.02-18.11,110.65-5.57,29.63-57.58,151.39-55.12,152.58,2.46,1.19,174.32-136.98,177.17-143.39Z"/><path class="cls-2" d="M596.01,421.15s166.06,110,168.55,103.24c2.49-6.76-101.8-181.54-136.7-224.02-34.92-42.48-123.54-131.34-128.64-127.35-2.9,2.27,38.42,93.29,47.9,115.09,9.48,21.8,48.89,133.04,48.89,133.04Z"/><path d="M419.79,564.32c-.73-8.79,169.8-144.46,175.68-144.83,5.88-.36,169.64,102.7,168.53,106-1.1,3.29-167.88,22.71-167.88,22.71,0,0-175.6,24.91-176.33,16.12Z"/><path class="cls-2" d="M267.17,540.43c-2.47-1.92-78.03-1.08-82.5-.15-4.47.92,145.89,135.1,145.89,135.1,0,0,236.34,28.3,239.2,25.27,2.86-3.04,33.59-79.34,32.94-82.87-.65-3.53-292.92-.5-292.92-.5,0,0-40.15-74.91-42.61-76.83Z"/><path class="cls-2" d="M602.74,617.98s-33.76,79.36-32.71,82.43c1.06,3.07,95.94-55.2,130.04-75.94,34.1-20.74,82.63-46.62,84.87-52.16,1.16-2.86-56.41,3.39-77.3,5.41-20.89,2.02-70.34,6.31-74.56,8.42-8.71,4.34-30.34,31.85-30.34,31.85Z"/><path class="cls-1" d="M184.56,633.15s-3.36-88.09-.08-92.62c3.29-4.54,75.78,67.34,75.78,67.34,0,0,69.92,63.03,69.72,66.85-.2,3.81-145.43-41.56-145.43-41.56Z"/><path class="cls-1" d="M784.68,573.53c-1.77-8.43-215.54,127.37-215.54,127.37l110.79,15.42s106.52-134.36,104.75-142.79Z"/><path d="M226.59,718.74l28.27,20.62s114.83,1.74,188.11,1.81c73.28.07,187.65-1.46,187.65-1.46,0,0,21.09-5.8,29.42-10.16,8.33-4.36,19.89-13.56,19.89-13.56l-110.01-15.23-239.64-26.21-145.75-41.4,42.06,85.59Z"/></g></g></svg>