<svg xmlns="http://www.w3.org/2000/svg" viewBox="-2 -2 34 34">
  <path d="M15 30C23.3125 30 30 23.3125 30 15C30 6.68745 23.3125 0 15 0C6.68745 0 0 6.68745 0 15C0 23.3125 6.68745 30 15 30Z" />
  <path d="M30.0032 15.0016C30.0032 23.2868 23.2868 30.0032 15.0016 30.0032C6.71647 30.0032 0 23.2868 0 15.0016C0 6.71647 6.71647 0 15.0016 0C23.2868 0 30.0032 6.71647 30.0032 15.0016Z" fill="#3A14A3"/>
  <g transform="translate(-2, -2)">
    <path d="M23.5618 11.8081C23.2057 11.1939 22.6345 10.7579 21.9528 10.5737L21.1483 10.3587L21.7195 8.23385L20.1043 7.80396L19.5332 9.92883L18.0224 9.52351L18.5936 7.39864L16.9784 6.96875L16.4073 9.09362L14.4605 8.57162L13.2384 8.24613L12.5444 10.8316L13.7666 11.1571L11.3592 20.1417L10.1371 19.8162L9.44312 22.4017L10.6652 22.7272L12.612 23.2492L12.0409 25.3741L13.656 25.804L14.2271 23.6791L15.7379 24.0844L15.1668 26.2093L16.7819 26.6392L17.353 24.5143L18.5567 24.8398C18.784 24.9012 19.0173 24.9319 19.2445 24.9319C19.7051 24.9319 20.1596 24.8091 20.5649 24.5757C21.179 24.2195 21.6151 23.6484 21.7993 22.9667L22.4933 20.369C22.6959 19.6074 22.61 18.9565 22.2353 18.4345L21.6949 17.6668L22.4626 17.1264C22.8495 16.85 23.1135 16.4631 23.2486 15.9657L23.8198 13.8285C24.004 13.1468 23.9119 12.4283 23.5557 11.8142L23.5618 11.8081ZM19.7481 19.4109L19.1893 21.5112C19.0603 21.9841 18.8024 22.1315 18.3111 22.0025L14.1596 20.891L15.0808 17.4396L19.2323 18.5511C19.4718 18.6187 19.6376 18.717 19.7174 18.8582C19.7973 18.9933 19.8095 19.1837 19.742 19.4171L19.7481 19.4109ZM20.8351 13.7671L20.2271 16.0394L15.7809 14.848L16.5731 11.9002L20.3254 12.9073C20.5649 12.9749 20.7307 13.0732 20.8106 13.2144C20.8904 13.3495 20.9027 13.5399 20.8351 13.7733V13.7671Z" fill="white"/>
  </g>
</svg>
