<?xml version="1.0" encoding="utf-8"?>
<!-- Generator: Adobe Illustrator 22.1.0, SVG Export Plug-In . SVG Version: 6.00 Build 0)  -->
<svg version="1.1" id="图层_1" xmlns="http://www.w3.org/2000/svg" xmlns:xlink="http://www.w3.org/1999/xlink" x="0px" y="0px"
	 viewBox="0 0 400 400" style="enable-background:new 0 0 400 400;" xml:space="preserve">
<style type="text/css">
	.st0{fill:#FFFFFF;}
	.st1{fill:url(#path1_1_);}
	.st2{fill:url(#path2_1_);}
	.st3{fill:#1682FE;}
	.st4{fill:#60D8A4;}
	.st5{fill:#F4BB3B;}
	.st6{fill:#FF5A5A;}
	.st7{fill:#3A3A3A;}
</style>
<g id="f-logo-1">
	<g id="Layer1">
		<path id="Path" class="st0" d="M400,200c0,110.5-89.5,200-200,200S0,310.5,0,200S89.5,0,200,0S400,89.5,400,200z"/>
		
			<linearGradient id="path1_1_" gradientUnits="userSpaceOnUse" x1="35.3636" y1="256.1671" x2="339.1749" y2="256.1671" gradientTransform="matrix(1 0 0 -1 0 401.2756)">
			<stop  offset="1.000000e-05" style="stop-color:#1B75BA"/>
			<stop  offset="0.17" style="stop-color:#2967B2"/>
			<stop  offset="0.72" style="stop-color:#543D99"/>
			<stop  offset="1" style="stop-color:#652D8F"/>
		</linearGradient>
		<path id="path1" class="st1" d="M338.6,95.9c-33.8-44-77.9-70-146.9-70c-81.8,0-156.4,75.3-156.4,155.6
			c0,55.9,31.7,82.7,66.7,82.7c27.8,0.9,53.5-14.7,65.6-39.7c0.4-0.8,0.4-1.8-0.1-2.7c-0.5-0.8-1.4-1.3-2.3-1.3h-47.2
			c-1.9,0-3.4-1.6-3.4-3.5v-34.2c0-1.9,1.5-3.4,3.4-3.5h63.6c2.6,0,4.9-1.5,5.9-3.9c27.8-63.6,77.1-77.5,105.4-79.7
			c14.5-1.2,29.1,0,43.3,3.5c0.9,0.3,1.9,0,2.5-0.8C339.4,97.7,339.3,96.6,338.6,95.9z"/>
	</g>
</g>
<g id="x-logo-2">
	<g id="g1">
		
			<linearGradient id="path2_1_" gradientUnits="userSpaceOnUse" x1="-16.3581" y1="21.4417" x2="303.142" y2="21.4417" gradientTransform="matrix(0.8361 -0.5486 -0.5486 -0.8361 124.5492 371.6328)">
			<stop  offset="1.000000e-05" style="stop-color:#D81C5C"/>
			<stop  offset="1" style="stop-color:#ED4036"/>
		</linearGradient>
		<path id="path2" class="st2" d="M61.7,305.7c34.3,44.2,78.9,69.4,147.6,69.2c81.7-0.7,156.2-76.5,155.7-157
			c-0.4-56-32.1-82.9-67.5-82.5c-27.8-0.6-53.4,15.1-65.4,40.3c-0.4,0.9-0.4,1.9,0.2,2.7c0.5,0.8,1.4,1.3,2.4,1.2l47-0.3
			c1.9,0,3.4,1.5,3.5,3.4l0.3,34.3c0,0.9-0.4,1.8-1,2.4c-0.7,0.6-1.5,1-2.4,1l-63.5,0.4c-2.6,0-4.9,1.5-5.9,3.9
			c-27.4,63.9-76.7,78-105.1,80.6c-14.5,1.2-29.1,0.1-43.3-3.3c-1-0.4-2,0-2.6,0.8C61,303.8,61.1,304.9,61.7,305.7z"/>
	</g>
</g>
<g>
	<circle class="st0" cx="294.5" cy="313.2" r="76.4"/>
	<rect x="302" y="277.8" class="st3" width="8.4" height="12.1"/>
	<rect x="279.6" y="255.5" class="st3" width="8.4" height="12.1"/>
	<rect x="257.2" y="267.6" class="st4" width="8.4" height="12.1"/>
	<rect x="245.2" y="313.2" class="st5" width="8.4" height="34.5"/>
	<rect x="245.2" y="277.8" class="st4" width="8.4" height="34.5"/>
	<rect x="314.1" y="289" class="st3" width="8.4" height="12.1"/>
	<rect x="314.1" y="324.4" class="st6" width="8.4" height="12.1"/>
	<rect x="302" y="335.6" class="st6" width="8.4" height="12.1"/>
	<rect x="279.6" y="358" class="st6" width="8.4" height="12.1"/>
	<rect x="257.2" y="345.8" class="st5" width="8.4" height="12.1"/>
	<path class="st7" d="M343.9,301.1v-23.3h-11.2v-11.2h-23.3v-11.2h-23.3v11.2h-23.3v11.2h-11.2v68.9h11.2V358h23.3v11.2h23.3V358
		h23.3v-11.2h11.2v-23.3h-23.3v11.2h-11.2v11.2h-23.3v-11.2H275v-45.4h11.2v-11.4h23.3v11.4h11.2v11L343.9,301.1z"/>
</g>
</svg>
