<svg width="240" height="240" viewBox="0 0 240 240" fill="none" xmlns="http://www.w3.org/2000/svg">
<mask id="mask0_119_498" style="mask-type:alpha" maskUnits="userSpaceOnUse" x="0" y="0" width="240" height="240">
<circle cx="120" cy="120" r="115" fill="#BC11FF" stroke="#CA44FF" stroke-width="10"/>
</mask>
<g mask="url(#mask0_119_498)">
<circle cx="120" cy="120" r="120" fill="#F5F5F0"/>
<rect x="0.00012207" y="143.772" width="236.203" height="95.8505" fill="#113857"/>
<rect width="10.2697" height="6.84647" transform="matrix(1 0 0 -1 195.127 140.353)" fill="#113857"/>
<rect width="65.0414" height="6.84647" transform="matrix(1 0 0 -1 164.317 147.205)" fill="#113857"/>
<rect width="30.8091" height="6.84647" transform="matrix(1 0 0 -1 198.553 140.353)" fill="#113857"/>
<rect width="30.8091" height="6.84647" transform="matrix(1 0 0 -1 215.665 126.66)" fill="#113857"/>
<rect width="30.8091" height="6.84647" transform="matrix(1 0 0 -1 201.973 133.5)" fill="#113857"/>
<rect width="30.8091" height="6.84647" transform="matrix(1 0 0 -1 219.085 119.808)" fill="#113857"/>
<rect width="6.84647" height="6.84647" transform="matrix(1 0 0 -1 17.1183 106.116)" fill="#113857"/>
<rect width="6.84647" height="6.84647" transform="matrix(1 0 0 -1 23.9642 112.969)" fill="#113857"/>
<rect width="6.84647" height="6.84647" transform="matrix(1 0 0 -1 30.8103 102.696)" fill="#113857"/>
<rect width="6.84647" height="6.84647" transform="matrix(1 0 0 -1 23.9642 95.844)" fill="#113857"/>
<rect width="17.1162" height="6.84647" transform="matrix(1 0 0 -1 109.542 143.772)" fill="#113857"/>
<rect width="6.84647" height="6.84647" transform="matrix(1 0 0 -1 23.9642 123.241)" fill="#113857"/>
<rect width="6.84647" height="6.84647" transform="matrix(1 0 0 -1 212.245 112.969)" fill="#113857"/>
<rect width="6.84647" height="6.84647" transform="matrix(1 0 0 -1 205.393 106.116)" fill="#113857"/>
<rect width="6.84647" height="6.84647" transform="matrix(1 0 0 -1 198.553 99.2764)" fill="#113857"/>
<rect width="6.84647" height="6.84647" transform="matrix(1 0 0 -1 219.085 102.696)" fill="#113857"/>
<rect width="6.84647" height="6.84647" transform="matrix(1 0 0 -1 205.393 119.808)" fill="#113857"/>
<rect width="30.8091" height="6.84647" transform="matrix(1 0 0 -1 225.937 112.969)" fill="#113857"/>
<rect width="68.4647" height="6.84647" transform="matrix(1 0 0 -1 6.84607 147.205)" fill="#113857"/>
<rect width="37.6556" height="6.84647" transform="matrix(1 0 0 -1 3.42627 140.353)" fill="#113857"/>
<rect width="37.6556" height="6.84647" transform="matrix(1 0 0 -1 -6.84583 133.5)" fill="#113857"/>
<rect width="37.6556" height="6.84647" transform="matrix(1 0 0 -1 -13.6919 126.66)" fill="#113857"/>
<rect width="37.6556" height="6.84647" transform="matrix(1 0 0 -1 -13.6919 119.808)" fill="#113857"/>
<rect width="37.6556" height="6.84647" transform="matrix(1 0 0 -1 -20.5378 112.969)" fill="#113857"/>
<rect width="37.6556" height="6.84647" transform="matrix(1 0 0 -1 -23.9578 106.116)" fill="#113857"/>
<circle cx="120" cy="120" r="115" stroke="#113857" stroke-width="10"/>
<rect width="13.6929" height="6.84647" transform="matrix(1 0 0 -1 205.393 140.353)" fill="#F5F5F0"/>
<rect width="13.6929" height="6.84647" transform="matrix(1 0 0 -1 61.6205 154.044)" fill="#F5F5F0"/>
<rect width="13.6929" height="6.84647" transform="matrix(1 0 0 -1 212.245 133.5)" fill="#F5F5F0"/>
<rect width="13.6929" height="6.84647" transform="matrix(1 0 0 -1 181.435 147.205)" fill="#F5F5F0"/>
<rect width="20.5394" height="6.84647" transform="matrix(1 0 0 -1 27.3842 147.205)" fill="#F5F5F0"/>
<path d="M149.977 78.7862V100.003L138.13 111.85H127.145V123.697H114.867V111.85H103.236L91.604 100.218V89.4485H106.036V95.8028L109.59 99.3569H114.867V79.6478H103.451L91.8194 68.0162V48.0917L103.451 36.4601H114.867V24.6131H127.145V36.4601H137.484L149.116 48.0917V58.9694H134.684V52.5074L131.13 48.9533H127.145V67.1546H138.346L149.977 78.7862ZM114.867 67.1546V48.9533H109.805L106.251 52.5074V63.6005L109.805 67.1546H114.867ZM135.546 83.2019L131.992 79.6478H127.145V99.3569H131.884L135.546 95.6951V83.2019Z" fill="#113857"/>
<path d="M75.7572 163.781H104.121L111.035 170.759V186.589L104.057 193.632H84.5443V209.009H75.7572V163.781ZM100.116 186.266L102.377 184.005V173.408L100.116 171.147H84.5443V186.266H100.116ZM117.527 163.781H125.668L139.107 192.985H139.237L152.74 163.781H160.881V209.009H152.417V181.485H152.288L141.886 202.677H136.458L126.12 181.485H125.991V209.009H117.527V163.781Z" fill="#F5F5F0"/>
</g>
</svg>
