<svg id="SuperjEUR" xmlns="http://www.w3.org/2000/svg" xmlns:xlink="http://www.w3.org/1999/xlink" width="24" height="24" viewBox="0 0 24 24">
  <defs>
    <clipPath id="clip-path">
      <circle id="Ellipse_344" data-name="Ellipse 344" cx="10.013" cy="10.013" r="10.013" fill="none"/>
    </clipPath>
  </defs>
  <circle id="Ellipse_343" data-name="Ellipse 343" cx="11.419" cy="11.419" r="11.419" transform="translate(0.581 0.581)" fill="#fff800"/>
  <g id="Group_4821" data-name="Group 4821" transform="translate(1.987 1.987)" clip-path="url(#clip-path)">
    <rect id="Rectangle_1120" data-name="Rectangle 1120" width="34.258" height="22.838" transform="translate(-7.114 -1.406)" fill="#039"/>
  </g>
  <g id="Group_4822" data-name="Group 4822" transform="translate(1.987 1.987)" clip-path="url(#clip-path)">
    <path id="Path_5347" data-name="Path 5347" d="M242.194,65l-.394,1.2.6.2Z" transform="translate(-232.181 -63.867)" fill="#fff800"/>
  </g>
  <g id="Group_4823" data-name="Group 4823" transform="translate(1.987 1.987)" clip-path="url(#clip-path)">
    <path id="Path_5348" data-name="Path 5348" d="M245.811,65l.394,1.2-.6.2Z" transform="translate(-235.798 -63.867)" fill="#fff800"/>
  </g>
  <g id="Group_4824" data-name="Group 4824" transform="translate(1.987 1.987)" clip-path="url(#clip-path)">
    <path id="Path_5349" data-name="Path 5349" d="M249.967,83.2H248.7v.634Z" transform="translate(-238.75 -81.194)" fill="#fff800"/>
  </g>
  <g id="Group_4825" data-name="Group 4825" transform="translate(1.987 1.987)" clip-path="url(#clip-path)">
    <path id="Path_5350" data-name="Path 5350" d="M247.4,83.2l-1.027.744-.37-.509Z" transform="translate(-236.179 -81.194)" fill="#fff800"/>
  </g>
  <g id="Group_4826" data-name="Group 4826" transform="translate(1.987 1.987)" clip-path="url(#clip-path)">
    <path id="Path_5351" data-name="Path 5351" d="M245.7,88.9l-.394-1.2-.6.2Z" transform="translate(-234.942 -85.478)" fill="#fff800"/>
  </g>
  <g id="Group_4827" data-name="Group 4827" transform="translate(1.987 1.987)" clip-path="url(#clip-path)">
    <path id="Path_5352" data-name="Path 5352" d="M245.127,87.858l-1.027-.744.374-.514Z" transform="translate(-234.37 -84.43)" fill="#fff800"/>
  </g>
  <g id="Group_4828" data-name="Group 4828" transform="translate(1.987 1.987)" clip-path="url(#clip-path)">
    <path id="Path_5353" data-name="Path 5353" d="M224.9,83.2h1.267v.634Z" transform="translate(-216.092 -81.194)" fill="#fff800"/>
  </g>
  <g id="Group_4829" data-name="Group 4829" transform="translate(1.987 1.987)" clip-path="url(#clip-path)">
    <path id="Path_5354" data-name="Path 5354" d="M224.9,83.2l1.027.744.374-.514Z" transform="translate(-216.092 -81.194)" fill="#fff800"/>
  </g>
  <g id="Group_4830" data-name="Group 4830" transform="translate(1.987 1.987)" clip-path="url(#clip-path)">
    <path id="Path_5355" data-name="Path 5355" d="M234.5,88.9l.394-1.2.6.2Z" transform="translate(-225.231 -85.478)" fill="#fff800"/>
  </g>
  <g id="Group_4831" data-name="Group 4831" transform="translate(1.987 1.987)" clip-path="url(#clip-path)">
    <path id="Path_5356" data-name="Path 5356" d="M234.5,87.858l1.027-.744-.374-.514Z" transform="translate(-225.231 -84.43)" fill="#fff800"/>
  </g>
  <g id="Group_4832" data-name="Group 4832" transform="translate(1.987 1.987)" clip-path="url(#clip-path)">
    <path id="Path_5357" data-name="Path 5357" d="M242.194,382.2l-.394,1.2.6.2Z" transform="translate(-232.181 -365.842)" fill="#fff800"/>
  </g>
  <g id="Group_4833" data-name="Group 4833" transform="translate(1.987 1.987)" clip-path="url(#clip-path)">
    <path id="Path_5358" data-name="Path 5358" d="M245.811,382.2l.394,1.2-.6.2Z" transform="translate(-235.798 -365.842)" fill="#fff800"/>
  </g>
  <g id="Group_4834" data-name="Group 4834" transform="translate(1.987 1.987)" clip-path="url(#clip-path)">
    <path id="Path_5359" data-name="Path 5359" d="M249.967,400.4H248.7v.634Z" transform="translate(-238.75 -383.168)" fill="#fff800"/>
  </g>
  <g id="Group_4835" data-name="Group 4835" transform="translate(1.987 1.987)" clip-path="url(#clip-path)">
    <path id="Path_5360" data-name="Path 5360" d="M247.4,400.4l-1.022.749-.374-.514Z" transform="translate(-236.179 -383.168)" fill="#fff800"/>
  </g>
  <g id="Group_4836" data-name="Group 4836" transform="translate(1.987 1.987)" clip-path="url(#clip-path)">
    <path id="Path_5361" data-name="Path 5361" d="M245.7,406.1l-.394-1.2-.6.2Z" transform="translate(-234.942 -387.452)" fill="#fff800"/>
  </g>
  <g id="Group_4837" data-name="Group 4837" transform="translate(1.987 1.987)" clip-path="url(#clip-path)">
    <path id="Path_5362" data-name="Path 5362" d="M245.127,405.058l-1.027-.744.374-.514Z" transform="translate(-234.37 -386.405)" fill="#fff800"/>
  </g>
  <g id="Group_4838" data-name="Group 4838" transform="translate(1.987 1.987)" clip-path="url(#clip-path)">
    <path id="Path_5363" data-name="Path 5363" d="M224.9,400.4h1.267v.634Z" transform="translate(-216.092 -383.168)" fill="#fff800"/>
  </g>
  <g id="Group_4839" data-name="Group 4839" transform="translate(1.987 1.987)" clip-path="url(#clip-path)">
    <path id="Path_5364" data-name="Path 5364" d="M224.9,400.4l1.027.744.374-.514Z" transform="translate(-216.092 -383.168)" fill="#fff800"/>
  </g>
  <g id="Group_4840" data-name="Group 4840" transform="translate(1.987 1.987)" clip-path="url(#clip-path)">
    <path id="Path_5365" data-name="Path 5365" d="M234.5,406.1l.394-1.2.6.2Z" transform="translate(-225.231 -387.452)" fill="#fff800"/>
  </g>
  <g id="Group_4841" data-name="Group 4841" transform="translate(1.987 1.987)" clip-path="url(#clip-path)">
    <path id="Path_5366" data-name="Path 5366" d="M234.5,405.058l1.027-.744-.374-.514Z" transform="translate(-225.231 -386.405)" fill="#fff800"/>
  </g>
  <g id="Group_4842" data-name="Group 4842" transform="translate(1.987 1.987)" clip-path="url(#clip-path)">
    <path id="Path_5367" data-name="Path 5367" d="M83.594,223.6l-.394,1.2.6.2Z" transform="translate(-81.194 -214.854)" fill="#fff800"/>
  </g>
  <g id="Group_4843" data-name="Group 4843" transform="translate(1.987 1.987)" clip-path="url(#clip-path)">
    <path id="Path_5368" data-name="Path 5368" d="M87.211,223.6l.394,1.2-.6.2Z" transform="translate(-84.811 -214.854)" fill="#fff800"/>
  </g>
  <g id="Group_4844" data-name="Group 4844" transform="translate(1.987 1.987)" clip-path="url(#clip-path)">
    <path id="Path_5369" data-name="Path 5369" d="M91.367,241.8H90.1v.634Z" transform="translate(-87.762 -232.181)" fill="#fff800"/>
  </g>
  <g id="Group_4845" data-name="Group 4845" transform="translate(1.987 1.987)" clip-path="url(#clip-path)">
    <path id="Path_5370" data-name="Path 5370" d="M88.7,241.8l-1.027.744-.374-.514Z" transform="translate(-85.097 -232.181)" fill="#fff800"/>
  </g>
  <g id="Group_4846" data-name="Group 4846" transform="translate(1.987 1.987)" clip-path="url(#clip-path)">
    <path id="Path_5371" data-name="Path 5371" d="M87.1,247.5l-.394-1.2-.6.2Z" transform="translate(-83.954 -236.465)" fill="#fff800"/>
  </g>
  <g id="Group_4847" data-name="Group 4847" transform="translate(1.987 1.987)" clip-path="url(#clip-path)">
    <path id="Path_5372" data-name="Path 5372" d="M86.527,246.458l-1.027-.744.374-.514Z" transform="translate(-83.383 -235.418)" fill="#fff800"/>
  </g>
  <g id="Group_4848" data-name="Group 4848" transform="translate(1.987 1.987)" clip-path="url(#clip-path)">
    <path id="Path_5373" data-name="Path 5373" d="M66.3,241.8h1.267v.634Z" transform="translate(-65.105 -232.181)" fill="#fff800"/>
  </g>
  <g id="Group_4849" data-name="Group 4849" transform="translate(1.987 1.987)" clip-path="url(#clip-path)">
    <path id="Path_5374" data-name="Path 5374" d="M66.3,241.8l1.027.744.374-.514Z" transform="translate(-65.105 -232.181)" fill="#fff800"/>
  </g>
  <g id="Group_4850" data-name="Group 4850" transform="translate(1.987 1.987)" clip-path="url(#clip-path)">
    <path id="Path_5375" data-name="Path 5375" d="M75.9,247.5l.394-1.2.6.2Z" transform="translate(-74.244 -236.465)" fill="#fff800"/>
  </g>
  <g id="Group_4851" data-name="Group 4851" transform="translate(1.987 1.987)" clip-path="url(#clip-path)">
    <path id="Path_5376" data-name="Path 5376" d="M75.9,246.458l1.027-.744-.374-.514Z" transform="translate(-74.244 -235.418)" fill="#fff800"/>
  </g>
  <g id="Group_4852" data-name="Group 4852" transform="translate(1.987 1.987)" clip-path="url(#clip-path)">
    <path id="Path_5377" data-name="Path 5377" d="M155.2,109.058l1.027-.744-.374-.514Z" transform="translate(-149.738 -104.613)" fill="#fff800"/>
  </g>
  <g id="Group_4853" data-name="Group 4853" transform="translate(1.987 1.987)" clip-path="url(#clip-path)">
    <path id="Path_5378" data-name="Path 5378" d="M155.2,110.1l.394-1.2.6.2Z" transform="translate(-149.738 -105.66)" fill="#fff800"/>
  </g>
  <g id="Group_4854" data-name="Group 4854" transform="translate(1.987 1.987)" clip-path="url(#clip-path)">
    <path id="Path_5379" data-name="Path 5379" d="M145.6,104.5l1.027.744.374-.514Z" transform="translate(-140.598 -101.471)" fill="#fff800"/>
  </g>
  <g id="Group_4855" data-name="Group 4855" transform="translate(1.987 1.987)" clip-path="url(#clip-path)">
    <path id="Path_5380" data-name="Path 5380" d="M145.6,104.5h1.267v.634Z" transform="translate(-140.598 -101.471)" fill="#fff800"/>
  </g>
  <g id="Group_4856" data-name="Group 4856" transform="translate(1.987 1.987)" clip-path="url(#clip-path)">
    <path id="Path_5381" data-name="Path 5381" d="M162.894,86.2l-.394,1.2.6.2Z" transform="translate(-156.687 -84.05)" fill="#fff800"/>
  </g>
  <g id="Group_4857" data-name="Group 4857" transform="translate(1.987 1.987)" clip-path="url(#clip-path)">
    <path id="Path_5382" data-name="Path 5382" d="M166.511,86.2l.394,1.2-.6.2Z" transform="translate(-160.305 -84.05)" fill="#fff800"/>
  </g>
  <g id="Group_4858" data-name="Group 4858" transform="translate(1.987 1.987)" clip-path="url(#clip-path)">
    <path id="Path_5383" data-name="Path 5383" d="M165.827,109.058l-1.027-.744.374-.514Z" transform="translate(-158.877 -104.613)" fill="#fff800"/>
  </g>
  <g id="Group_4859" data-name="Group 4859" transform="translate(1.987 1.987)" clip-path="url(#clip-path)">
    <path id="Path_5384" data-name="Path 5384" d="M166.4,110.1,166,108.9l-.6.2Z" transform="translate(-159.448 -105.66)" fill="#fff800"/>
  </g>
  <g id="Group_4860" data-name="Group 4860" transform="translate(1.987 1.987)" clip-path="url(#clip-path)">
    <path id="Path_5385" data-name="Path 5385" d="M168.1,104.5l-1.027.744-.374-.514Z" transform="translate(-160.686 -101.471)" fill="#fff800"/>
  </g>
  <g id="Group_4861" data-name="Group 4861" transform="translate(1.987 1.987)" clip-path="url(#clip-path)">
    <path id="Path_5386" data-name="Path 5386" d="M170.767,104.5H169.5v.634Z" transform="translate(-163.351 -101.471)" fill="#fff800"/>
  </g>
  <g id="Group_4862" data-name="Group 4862" transform="translate(1.987 1.987)" clip-path="url(#clip-path)">
    <path id="Path_5387" data-name="Path 5387" d="M108.4,168.2,108,167l-.6.2Z" transform="translate(-104.232 -160.971)" fill="#fff800"/>
  </g>
  <g id="Group_4863" data-name="Group 4863" transform="translate(1.987 1.987)" clip-path="url(#clip-path)">
    <path id="Path_5388" data-name="Path 5388" d="M107.827,167.158l-1.027-.744.374-.514Z" transform="translate(-103.661 -159.924)" fill="#fff800"/>
  </g>
  <g id="Group_4864" data-name="Group 4864" transform="translate(1.987 1.987)" clip-path="url(#clip-path)">
    <path id="Path_5389" data-name="Path 5389" d="M97.1,167.158l1.027-.744-.374-.514Z" transform="translate(-94.426 -159.924)" fill="#fff800"/>
  </g>
  <g id="Group_4865" data-name="Group 4865" transform="translate(1.987 1.987)" clip-path="url(#clip-path)">
    <path id="Path_5390" data-name="Path 5390" d="M97.1,168.2l.394-1.2.6.2Z" transform="translate(-94.426 -160.971)" fill="#fff800"/>
  </g>
  <g id="Group_4866" data-name="Group 4866" transform="translate(1.987 1.987)" clip-path="url(#clip-path)">
    <path id="Path_5391" data-name="Path 5391" d="M87.5,162.5l1.027.744.374-.514Z" transform="translate(-85.287 -156.687)" fill="#fff800"/>
  </g>
  <g id="Group_4867" data-name="Group 4867" transform="translate(1.987 1.987)" clip-path="url(#clip-path)">
    <path id="Path_5392" data-name="Path 5392" d="M87.5,162.5h1.267v.634Z" transform="translate(-85.287 -156.687)" fill="#fff800"/>
  </g>
  <g id="Group_4868" data-name="Group 4868" transform="translate(1.987 1.987)" clip-path="url(#clip-path)">
    <path id="Path_5393" data-name="Path 5393" d="M110,162.5l-1.027.744-.374-.514Z" transform="translate(-105.374 -156.687)" fill="#fff800"/>
  </g>
  <g id="Group_4869" data-name="Group 4869" transform="translate(1.987 1.987)" clip-path="url(#clip-path)">
    <path id="Path_5394" data-name="Path 5394" d="M112.667,162.5H111.4v.634Z" transform="translate(-108.04 -156.687)" fill="#fff800"/>
  </g>
  <g id="Group_4870" data-name="Group 4870" transform="translate(1.987 1.987)" clip-path="url(#clip-path)">
    <path id="Path_5395" data-name="Path 5395" d="M108.411,144.3l.394,1.2-.6.2Z" transform="translate(-104.994 -139.361)" fill="#fff800"/>
  </g>
  <g id="Group_4871" data-name="Group 4871" transform="translate(1.987 1.987)" clip-path="url(#clip-path)">
    <path id="Path_5396" data-name="Path 5396" d="M104.794,144.3l-.394,1.2.6.2Z" transform="translate(-101.376 -139.361)" fill="#fff800"/>
  </g>
  <g id="Group_4872" data-name="Group 4872" transform="translate(1.987 1.987)" clip-path="url(#clip-path)">
    <path id="Path_5397" data-name="Path 5397" d="M112.667,321.1H111.4v.634Z" transform="translate(-108.04 -307.674)" fill="#fff800"/>
  </g>
  <g id="Group_4873" data-name="Group 4873" transform="translate(1.987 1.987)" clip-path="url(#clip-path)">
    <path id="Path_5398" data-name="Path 5398" d="M110,321.1l-1.027.744-.374-.514Z" transform="translate(-105.374 -307.674)" fill="#fff800"/>
  </g>
  <g id="Group_4874" data-name="Group 4874" transform="translate(1.987 1.987)" clip-path="url(#clip-path)">
    <path id="Path_5399" data-name="Path 5399" d="M108.4,326.8,108,325.6l-.6.2Z" transform="translate(-104.232 -311.958)" fill="#fff800"/>
  </g>
  <g id="Group_4875" data-name="Group 4875" transform="translate(1.987 1.987)" clip-path="url(#clip-path)">
    <path id="Path_5400" data-name="Path 5400" d="M107.827,325.758l-1.027-.744.374-.514Z" transform="translate(-103.661 -310.911)" fill="#fff800"/>
  </g>
  <g id="Group_4876" data-name="Group 4876" transform="translate(1.987 1.987)" clip-path="url(#clip-path)">
    <path id="Path_5401" data-name="Path 5401" d="M97.1,325.758l1.027-.744-.374-.514Z" transform="translate(-94.426 -310.911)" fill="#fff800"/>
  </g>
  <g id="Group_4877" data-name="Group 4877" transform="translate(1.987 1.987)" clip-path="url(#clip-path)">
    <path id="Path_5402" data-name="Path 5402" d="M97.1,326.8l.394-1.2.6.2Z" transform="translate(-94.426 -311.958)" fill="#fff800"/>
  </g>
  <g id="Group_4878" data-name="Group 4878" transform="translate(1.987 1.987)" clip-path="url(#clip-path)">
    <path id="Path_5403" data-name="Path 5403" d="M108.411,302.9l.394,1.2-.6.2Z" transform="translate(-104.994 -290.348)" fill="#fff800"/>
  </g>
  <g id="Group_4879" data-name="Group 4879" transform="translate(1.987 1.987)" clip-path="url(#clip-path)">
    <path id="Path_5404" data-name="Path 5404" d="M104.794,302.9l-.394,1.2.6.2Z" transform="translate(-101.376 -290.348)" fill="#fff800"/>
  </g>
  <g id="Group_4880" data-name="Group 4880" transform="translate(1.987 1.987)" clip-path="url(#clip-path)">
    <path id="Path_5405" data-name="Path 5405" d="M87.5,321.1h1.267v.634Z" transform="translate(-85.287 -307.674)" fill="#fff800"/>
  </g>
  <g id="Group_4881" data-name="Group 4881" transform="translate(1.987 1.987)" clip-path="url(#clip-path)">
    <path id="Path_5406" data-name="Path 5406" d="M87.5,321.1l1.027.744.374-.514Z" transform="translate(-85.287 -307.674)" fill="#fff800"/>
  </g>
  <g id="Group_4882" data-name="Group 4882" transform="translate(1.987 1.987)" clip-path="url(#clip-path)">
    <path id="Path_5407" data-name="Path 5407" d="M170.667,379.2H169.4v.634Z" transform="translate(-163.256 -362.986)" fill="#fff800"/>
  </g>
  <g id="Group_4883" data-name="Group 4883" transform="translate(1.987 1.987)" clip-path="url(#clip-path)">
    <path id="Path_5408" data-name="Path 5408" d="M168,379.2l-1.027.744-.374-.514Z" transform="translate(-160.59 -362.986)" fill="#fff800"/>
  </g>
  <g id="Group_4884" data-name="Group 4884" transform="translate(1.987 1.987)" clip-path="url(#clip-path)">
    <path id="Path_5409" data-name="Path 5409" d="M166.4,384.8,166,383.6l-.6.2Z" transform="translate(-159.448 -367.174)" fill="#fff800"/>
  </g>
  <g id="Group_4885" data-name="Group 4885" transform="translate(1.987 1.987)" clip-path="url(#clip-path)">
    <path id="Path_5410" data-name="Path 5410" d="M165.827,383.758l-1.027-.744.374-.514Z" transform="translate(-158.877 -366.127)" fill="#fff800"/>
  </g>
  <g id="Group_4886" data-name="Group 4886" transform="translate(1.987 1.987)" clip-path="url(#clip-path)">
    <path id="Path_5411" data-name="Path 5411" d="M155.2,383.758l1.027-.744-.374-.514Z" transform="translate(-149.738 -366.127)" fill="#fff800"/>
  </g>
  <g id="Group_4887" data-name="Group 4887" transform="translate(1.987 1.987)" clip-path="url(#clip-path)">
    <path id="Path_5412" data-name="Path 5412" d="M155.2,384.8l.394-1.2.6.2Z" transform="translate(-149.738 -367.174)" fill="#fff800"/>
  </g>
  <g id="Group_4888" data-name="Group 4888" transform="translate(1.987 1.987)" clip-path="url(#clip-path)">
    <path id="Path_5413" data-name="Path 5413" d="M166.511,360.9l.394,1.2-.6.2Z" transform="translate(-160.305 -345.564)" fill="#fff800"/>
  </g>
  <g id="Group_4889" data-name="Group 4889" transform="translate(1.987 1.987)" clip-path="url(#clip-path)">
    <path id="Path_5414" data-name="Path 5414" d="M162.894,360.9l-.394,1.2.6.2Z" transform="translate(-156.687 -345.564)" fill="#fff800"/>
  </g>
  <g id="Group_4890" data-name="Group 4890" transform="translate(1.987 1.987)" clip-path="url(#clip-path)">
    <path id="Path_5415" data-name="Path 5415" d="M145.6,379.2h1.267v.634Z" transform="translate(-140.598 -362.986)" fill="#fff800"/>
  </g>
  <g id="Group_4891" data-name="Group 4891" transform="translate(1.987 1.987)" clip-path="url(#clip-path)">
    <path id="Path_5416" data-name="Path 5416" d="M145.6,379.2l1.027.744.374-.514Z" transform="translate(-140.598 -362.986)" fill="#fff800"/>
  </g>
  <g id="Group_4892" data-name="Group 4892" transform="translate(1.987 1.987)" clip-path="url(#clip-path)">
    <path id="Path_5417" data-name="Path 5417" d="M404.411,223.6l.394,1.2-.6.2Z" transform="translate(-386.786 -214.854)" fill="#fff800"/>
  </g>
  <g id="Group_4893" data-name="Group 4893" transform="translate(1.987 1.987)" clip-path="url(#clip-path)">
    <path id="Path_5418" data-name="Path 5418" d="M400.794,223.6l-.394,1.2.6.2Z" transform="translate(-383.168 -214.854)" fill="#fff800"/>
  </g>
  <g id="Group_4894" data-name="Group 4894" transform="translate(1.987 1.987)" clip-path="url(#clip-path)">
    <path id="Path_5419" data-name="Path 5419" d="M383.5,241.8h1.267v.634Z" transform="translate(-367.079 -232.181)" fill="#fff800"/>
  </g>
  <g id="Group_4895" data-name="Group 4895" transform="translate(1.987 1.987)" clip-path="url(#clip-path)">
    <path id="Path_5420" data-name="Path 5420" d="M383.5,241.8l1.027.744.374-.514Z" transform="translate(-367.079 -232.181)" fill="#fff800"/>
  </g>
  <g id="Group_4896" data-name="Group 4896" transform="translate(1.987 1.987)" clip-path="url(#clip-path)">
    <path id="Path_5421" data-name="Path 5421" d="M393.1,247.5l.394-1.2.6.2Z" transform="translate(-376.218 -236.465)" fill="#fff800"/>
  </g>
  <g id="Group_4897" data-name="Group 4897" transform="translate(1.987 1.987)" clip-path="url(#clip-path)">
    <path id="Path_5422" data-name="Path 5422" d="M393.1,246.458l1.027-.744-.374-.514Z" transform="translate(-376.218 -235.418)" fill="#fff800"/>
  </g>
  <g id="Group_4898" data-name="Group 4898" transform="translate(1.987 1.987)" clip-path="url(#clip-path)">
    <path id="Path_5423" data-name="Path 5423" d="M408.567,241.8H407.3v.634Z" transform="translate(-389.737 -232.181)" fill="#fff800"/>
  </g>
  <g id="Group_4899" data-name="Group 4899" transform="translate(1.987 1.987)" clip-path="url(#clip-path)">
    <path id="Path_5424" data-name="Path 5424" d="M405.9,241.8l-1.027.744-.374-.514Z" transform="translate(-387.071 -232.181)" fill="#fff800"/>
  </g>
  <g id="Group_4900" data-name="Group 4900" transform="translate(1.987 1.987)" clip-path="url(#clip-path)">
    <path id="Path_5425" data-name="Path 5425" d="M404.3,247.5l-.394-1.2-.6.2Z" transform="translate(-385.929 -236.465)" fill="#fff800"/>
  </g>
  <g id="Group_4901" data-name="Group 4901" transform="translate(1.987 1.987)" clip-path="url(#clip-path)">
    <path id="Path_5426" data-name="Path 5426" d="M403.727,246.458l-1.027-.744.374-.514Z" transform="translate(-385.358 -235.418)" fill="#fff800"/>
  </g>
  <g id="Group_4902" data-name="Group 4902" transform="translate(1.987 1.987)" clip-path="url(#clip-path)">
    <path id="Path_5427" data-name="Path 5427" d="M324.427,109.058l-1.027-.744.374-.514Z" transform="translate(-309.864 -104.613)" fill="#fff800"/>
  </g>
  <g id="Group_4903" data-name="Group 4903" transform="translate(1.987 1.987)" clip-path="url(#clip-path)">
    <path id="Path_5428" data-name="Path 5428" d="M325,110.1l-.394-1.2-.6.2Z" transform="translate(-310.435 -105.66)" fill="#fff800"/>
  </g>
  <g id="Group_4904" data-name="Group 4904" transform="translate(1.987 1.987)" clip-path="url(#clip-path)">
    <path id="Path_5429" data-name="Path 5429" d="M326.7,104.5l-1.022.744-.374-.514Z" transform="translate(-311.673 -101.471)" fill="#fff800"/>
  </g>
  <g id="Group_4905" data-name="Group 4905" transform="translate(1.987 1.987)" clip-path="url(#clip-path)">
    <path id="Path_5430" data-name="Path 5430" d="M329.267,104.5H328v.634Z" transform="translate(-314.243 -101.471)" fill="#fff800"/>
  </g>
  <g id="Group_4906" data-name="Group 4906" transform="translate(1.987 1.987)" clip-path="url(#clip-path)">
    <path id="Path_5431" data-name="Path 5431" d="M325.111,86.2l.394,1.2-.6.2Z" transform="translate(-311.292 -84.05)" fill="#fff800"/>
  </g>
  <g id="Group_4907" data-name="Group 4907" transform="translate(1.987 1.987)" clip-path="url(#clip-path)">
    <path id="Path_5432" data-name="Path 5432" d="M321.494,86.2l-.394,1.2.6.2Z" transform="translate(-307.674 -84.05)" fill="#fff800"/>
  </g>
  <g id="Group_4908" data-name="Group 4908" transform="translate(1.987 1.987)" clip-path="url(#clip-path)">
    <path id="Path_5433" data-name="Path 5433" d="M313.8,109.058l1.027-.744-.374-.514Z" transform="translate(-300.725 -104.613)" fill="#fff800"/>
  </g>
  <g id="Group_4909" data-name="Group 4909" transform="translate(1.987 1.987)" clip-path="url(#clip-path)">
    <path id="Path_5434" data-name="Path 5434" d="M313.8,110.1l.394-1.2.6.2Z" transform="translate(-300.725 -105.66)" fill="#fff800"/>
  </g>
  <g id="Group_4910" data-name="Group 4910" transform="translate(1.987 1.987)" clip-path="url(#clip-path)">
    <path id="Path_5435" data-name="Path 5435" d="M304.2,104.5l1.027.744.374-.514Z" transform="translate(-291.586 -101.471)" fill="#fff800"/>
  </g>
  <g id="Group_4911" data-name="Group 4911" transform="translate(1.987 1.987)" clip-path="url(#clip-path)">
    <path id="Path_5436" data-name="Path 5436" d="M304.2,104.5h1.267v.634Z" transform="translate(-291.586 -101.471)" fill="#fff800"/>
  </g>
  <g id="Group_4912" data-name="Group 4912" transform="translate(1.987 1.987)" clip-path="url(#clip-path)">
    <path id="Path_5437" data-name="Path 5437" d="M371.8,168.2l.394-1.2.6.2Z" transform="translate(-355.941 -160.971)" fill="#fff800"/>
  </g>
  <g id="Group_4913" data-name="Group 4913" transform="translate(1.987 1.987)" clip-path="url(#clip-path)">
    <path id="Path_5438" data-name="Path 5438" d="M371.8,167.158l1.027-.744-.374-.514Z" transform="translate(-355.941 -159.924)" fill="#fff800"/>
  </g>
  <g id="Group_4914" data-name="Group 4914" transform="translate(1.987 1.987)" clip-path="url(#clip-path)">
    <path id="Path_5439" data-name="Path 5439" d="M382.527,167.158l-1.027-.744.374-.514Z" transform="translate(-365.175 -159.924)" fill="#fff800"/>
  </g>
  <g id="Group_4915" data-name="Group 4915" transform="translate(1.987 1.987)" clip-path="url(#clip-path)">
    <path id="Path_5440" data-name="Path 5440" d="M383.1,168.2,382.7,167l-.6.2Z" transform="translate(-365.746 -160.971)" fill="#fff800"/>
  </g>
  <g id="Group_4916" data-name="Group 4916" transform="translate(1.987 1.987)" clip-path="url(#clip-path)">
    <path id="Path_5441" data-name="Path 5441" d="M384.7,162.5l-1.027.744-.374-.514Z" transform="translate(-366.889 -156.687)" fill="#fff800"/>
  </g>
  <g id="Group_4917" data-name="Group 4917" transform="translate(1.987 1.987)" clip-path="url(#clip-path)">
    <path id="Path_5442" data-name="Path 5442" d="M387.367,162.5H386.1v.634Z" transform="translate(-369.554 -156.687)" fill="#fff800"/>
  </g>
  <g id="Group_4918" data-name="Group 4918" transform="translate(1.987 1.987)" clip-path="url(#clip-path)">
    <path id="Path_5443" data-name="Path 5443" d="M362.2,162.5l1.027.744.374-.514Z" transform="translate(-346.802 -156.687)" fill="#fff800"/>
  </g>
  <g id="Group_4919" data-name="Group 4919" transform="translate(1.987 1.987)" clip-path="url(#clip-path)">
    <path id="Path_5444" data-name="Path 5444" d="M362.2,162.5h1.267v.634Z" transform="translate(-346.802 -156.687)" fill="#fff800"/>
  </g>
  <g id="Group_4920" data-name="Group 4920" transform="translate(1.987 1.987)" clip-path="url(#clip-path)">
    <path id="Path_5445" data-name="Path 5445" d="M379.494,144.3l-.394,1.2.6.2Z" transform="translate(-362.89 -139.361)" fill="#fff800"/>
  </g>
  <g id="Group_4921" data-name="Group 4921" transform="translate(1.987 1.987)" clip-path="url(#clip-path)">
    <path id="Path_5446" data-name="Path 5446" d="M383.111,144.3l.394,1.2-.6.2Z" transform="translate(-366.508 -139.361)" fill="#fff800"/>
  </g>
  <g id="Group_4922" data-name="Group 4922" transform="translate(1.987 1.987)" clip-path="url(#clip-path)">
    <path id="Path_5447" data-name="Path 5447" d="M362.2,321.1h1.267v.634Z" transform="translate(-346.802 -307.674)" fill="#fff800"/>
  </g>
  <g id="Group_4923" data-name="Group 4923" transform="translate(1.987 1.987)" clip-path="url(#clip-path)">
    <path id="Path_5448" data-name="Path 5448" d="M362.2,321.1l1.027.744.374-.514Z" transform="translate(-346.802 -307.674)" fill="#fff800"/>
  </g>
  <g id="Group_4924" data-name="Group 4924" transform="translate(1.987 1.987)" clip-path="url(#clip-path)">
    <path id="Path_5449" data-name="Path 5449" d="M371.8,326.8l.394-1.2.6.2Z" transform="translate(-355.941 -311.958)" fill="#fff800"/>
  </g>
  <g id="Group_4925" data-name="Group 4925" transform="translate(1.987 1.987)" clip-path="url(#clip-path)">
    <path id="Path_5450" data-name="Path 5450" d="M371.8,325.758l1.027-.744-.374-.514Z" transform="translate(-355.941 -310.911)" fill="#fff800"/>
  </g>
  <g id="Group_4926" data-name="Group 4926" transform="translate(1.987 1.987)" clip-path="url(#clip-path)">
    <path id="Path_5451" data-name="Path 5451" d="M382.527,325.758l-1.027-.744.374-.514Z" transform="translate(-365.175 -310.911)" fill="#fff800"/>
  </g>
  <g id="Group_4927" data-name="Group 4927" transform="translate(1.987 1.987)" clip-path="url(#clip-path)">
    <path id="Path_5452" data-name="Path 5452" d="M383.1,326.8l-.394-1.2-.6.2Z" transform="translate(-365.746 -311.958)" fill="#fff800"/>
  </g>
  <g id="Group_4928" data-name="Group 4928" transform="translate(1.987 1.987)" clip-path="url(#clip-path)">
    <path id="Path_5453" data-name="Path 5453" d="M379.494,302.9l-.394,1.2.6.2Z" transform="translate(-362.89 -290.348)" fill="#fff800"/>
  </g>
  <g id="Group_4929" data-name="Group 4929" transform="translate(1.987 1.987)" clip-path="url(#clip-path)">
    <path id="Path_5454" data-name="Path 5454" d="M383.111,302.9l.394,1.2-.6.2Z" transform="translate(-366.508 -290.348)" fill="#fff800"/>
  </g>
  <g id="Group_4930" data-name="Group 4930" transform="translate(1.987 1.987)" clip-path="url(#clip-path)">
    <path id="Path_5455" data-name="Path 5455" d="M387.367,321.1H386.1v.634Z" transform="translate(-369.554 -307.674)" fill="#fff800"/>
  </g>
  <g id="Group_4931" data-name="Group 4931" transform="translate(1.987 1.987)" clip-path="url(#clip-path)">
    <path id="Path_5456" data-name="Path 5456" d="M384.7,321.1l-1.027.744-.374-.514Z" transform="translate(-366.889 -307.674)" fill="#fff800"/>
  </g>
  <g id="Group_4932" data-name="Group 4932" transform="translate(1.987 1.987)" clip-path="url(#clip-path)">
    <path id="Path_5457" data-name="Path 5457" d="M304.2,379.2h1.267v.634Z" transform="translate(-291.586 -362.986)" fill="#fff800"/>
  </g>
  <g id="Group_4933" data-name="Group 4933" transform="translate(1.987 1.987)" clip-path="url(#clip-path)">
    <path id="Path_5458" data-name="Path 5458" d="M304.2,379.2l1.027.744.374-.514Z" transform="translate(-291.586 -362.986)" fill="#fff800"/>
  </g>
  <g id="Group_4934" data-name="Group 4934" transform="translate(1.987 1.987)" clip-path="url(#clip-path)">
    <path id="Path_5459" data-name="Path 5459" d="M313.8,384.8l.394-1.2.6.2Z" transform="translate(-300.725 -367.174)" fill="#fff800"/>
  </g>
  <g id="Group_4935" data-name="Group 4935" transform="translate(1.987 1.987)" clip-path="url(#clip-path)">
    <path id="Path_5460" data-name="Path 5460" d="M313.8,383.758l1.027-.744-.374-.514Z" transform="translate(-300.725 -366.127)" fill="#fff800"/>
  </g>
  <g id="Group_4936" data-name="Group 4936" transform="translate(1.987 1.987)" clip-path="url(#clip-path)">
    <path id="Path_5461" data-name="Path 5461" d="M324.427,383.758l-1.027-.744.374-.514Z" transform="translate(-309.864 -366.127)" fill="#fff800"/>
  </g>
  <g id="Group_4937" data-name="Group 4937" transform="translate(1.987 1.987)" clip-path="url(#clip-path)">
    <path id="Path_5462" data-name="Path 5462" d="M325,384.8l-.394-1.2-.6.2Z" transform="translate(-310.435 -367.174)" fill="#fff800"/>
  </g>
  <g id="Group_4938" data-name="Group 4938" transform="translate(1.987 1.987)" clip-path="url(#clip-path)">
    <path id="Path_5463" data-name="Path 5463" d="M321.494,360.9l-.394,1.2.6.2Z" transform="translate(-307.674 -345.564)" fill="#fff800"/>
  </g>
  <g id="Group_4939" data-name="Group 4939" transform="translate(1.987 1.987)" clip-path="url(#clip-path)">
    <path id="Path_5464" data-name="Path 5464" d="M325.111,360.9l.394,1.2-.6.2Z" transform="translate(-311.292 -345.564)" fill="#fff800"/>
  </g>
  <g id="Group_4940" data-name="Group 4940" transform="translate(1.987 1.987)" clip-path="url(#clip-path)">
    <path id="Path_5465" data-name="Path 5465" d="M329.267,379.2H328v.634Z" transform="translate(-314.243 -362.986)" fill="#fff800"/>
  </g>
  <g id="Group_4941" data-name="Group 4941" transform="translate(1.987 1.987)" clip-path="url(#clip-path)">
    <path id="Path_5466" data-name="Path 5466" d="M326.6,379.2l-1.027.744-.374-.514Z" transform="translate(-311.578 -362.986)" fill="#fff800"/>
  </g>
  <path id="Path_5467" data-name="Path 5467" d="M12,1A11,11,0,1,0,23,12,11,11,0,0,0,12,1m0-1A12,12,0,1,1,0,12,12,12,0,0,1,12,0Z" fill="#039"/>
  <path id="Path_5468" data-name="Path 5468" d="M142.5,185.09l1.752-1.69h6.85l1.718,1.718-5.146,6Z" transform="translate(-135.66 -174.597)" fill="#f70000"/>
  <path id="Path_5469" data-name="Path 5469" d="M144.247,188.745,138.9,182.51l1.877-1.81h6.955l1.838,1.838Zm-5-6.221,5,5.822,4.968-5.794-1.6-1.6h-6.739Z" transform="translate(-132.233 -172.026)"/>
  <path id="Path_5470" data-name="Path 5470" d="M199.914,268.61l-.614-.71h.36A4.986,4.986,0,0,0,199.914,268.61Z" transform="translate(-189.734 -255.041)" fill="#fff800"/>
  <path id="Path_5471" data-name="Path 5471" d="M199.66,267.8h-.36l.614.71A4.6,4.6,0,0,1,199.66,267.8Z" transform="translate(-189.734 -254.946)"/>
  <path id="Path_5472" data-name="Path 5472" d="M164.594,194.4a2.562,2.562,0,0,0-.4.269,2.448,2.448,0,0,0-.547.643,2.928,2.928,0,0,0-.336.835h-.514l-.158.629h.576a1.17,1.17,0,0,0,0,.13v.269c0,.043,0,.086,0,.13h-.422l-.058.23-1.632-1.9,1.248-1.243h2.246Z" transform="translate(-153.367 -185.069)" fill="#fff800"/>
  <path id="Path_5473" data-name="Path 5473" d="M159.272,195.438l-1.872-2.174,1.368-1.363H161.6l-.466.245a2.094,2.094,0,0,0-.379.254,2.36,2.36,0,0,0-.518.61,2.89,2.89,0,0,0-.322.8l-.024.1h-.514l-.1.37h.552l-.014.144a1.044,1.044,0,0,0,0,.12v.269a.925.925,0,0,0,0,.115l.014.144h-.466Zm-1.522-2.165,1.392,1.618.024-.086h.389v-.269h-.6l.226-.888h.509a3.094,3.094,0,0,1,.326-.773,2.627,2.627,0,0,1,.576-.677.509.509,0,0,1,.053-.043h-1.762Z" transform="translate(-149.845 -182.689)"/>
  <path id="Path_5474" data-name="Path 5474" d="M239.4,307.3a2.968,2.968,0,0,0,.922.139h0l-.4.466Z" transform="translate(-227.909 -292.55)" fill="#fff800"/>
  <path id="Path_5475" data-name="Path 5475" d="M230.145,300.286a2.867,2.867,0,0,0,.293.034l-.13.149-.163-.182m-.845-.586,1.008,1.171.7-.806a2.914,2.914,0,0,1-.293.014,2.767,2.767,0,0,1-.893-.134A2.587,2.587,0,0,1,229.3,299.7Z" transform="translate(-218.294 -285.314)"/>
  <path id="Path_5476" data-name="Path 5476" d="M231.534,195.748l-2.794,3.245-.062-.245a2.14,2.14,0,0,1-.422.2,1.746,1.746,0,0,1-.557.082,1.485,1.485,0,0,1-.907-.269,1.6,1.6,0,0,1-.538-.71h1.55l.154-.634H226.11a1.175,1.175,0,0,1-.01-.134,1.391,1.391,0,0,1,0-.144v-.13a1.014,1.014,0,0,1,.01-.125h1.944l.144-.629h-1.958a1.74,1.74,0,0,1,.552-.83,1.375,1.375,0,0,1,.907-.307,1.725,1.725,0,0,1,.514.072,1.849,1.849,0,0,1,.418.2l.3-.878a0,0,0,0,1,0,0h1.4Z" transform="translate(-215.243 -185.164)" fill="#fff800"/>
  <path id="Path_5477" data-name="Path 5477" d="M226.112,196.786l-.082-.322a1.833,1.833,0,0,1-.893.211h0a1.586,1.586,0,0,1-.984-.293,1.728,1.728,0,0,1-.581-.768l-.072-.178h1.637l.091-.379h-1.8l-.014-.115a1.139,1.139,0,0,1-.01-.144c0-.048,0-.1,0-.149v-.13a1.268,1.268,0,0,1,.01-.139l.014-.11h1.954l.086-.37h-1.973l.058-.168a1.9,1.9,0,0,1,.59-.893,1.531,1.531,0,0,1,.989-.336h0a1.8,1.8,0,0,1,.552.082,1.733,1.733,0,0,1,.307.13l.206-.6-.6-.211h2.222l1.339,1.368ZM223.89,195.7a1.428,1.428,0,0,0,.413.48,1.383,1.383,0,0,0,.83.24h0a1.638,1.638,0,0,0,.514-.072,1.787,1.787,0,0,0,.4-.187l.149-.091.043.173,2.554-2.966-1.094-1.123h-1.253l-.326.95-.139-.091a1.488,1.488,0,0,0-.384-.182,1.59,1.59,0,0,0-.47-.067h0a1.245,1.245,0,0,0-.826.278,1.606,1.606,0,0,0-.446.6h1.93l-.206.888H223.65v.125a1.212,1.212,0,0,0,0,.134v.014h1.891l-.216.893Z" transform="translate(-212.677 -182.689)"/>
</svg>
