<svg xmlns="http://www.w3.org/2000/svg" width="24" height="24" viewBox="0 0 24 24"><svg x="10" y="10" width="14" height="14" viewBox="0 0 24 24" preserveAspectRatio="xMidYMid meet">
<g clip-path="url(#clip0_253_3385)">
<path d="M12 24C18.6274 24 24 18.6274 24 12C24 5.37258 18.6274 0 12 0C5.37258 0 0 5.37258 0 12C0 18.6274 5.37258 24 12 24Z" fill="#FF6C15"/>
<path d="M17.5211 10.6184C17.7678 9.09442 16.6892 8.38906 16.0838 7.99978C15.4811 7.61044 14.5598 7.33042 14.5598 7.33042L15.1491 4.95708L13.7891 4.61575L13.1998 6.98908L12.1131 6.7144L12.7025 4.34108L11.3265 3.99841L10.7372 6.37174L7.86112 5.64908L7.5118 7.05706C7.5118 7.05706 8.93182 7.41178 9.08782 7.45306C9.24778 7.49176 9.22648 7.57306 9.21316 7.6264C9.19978 7.67974 7.42648 14.8331 7.39978 14.9277C7.37848 15.0237 7.36246 15.0784 7.23046 15.0477L5.72247 14.6691L5.33447 16.2331L8.11846 16.9304L7.55446 19.1997L9.0385 19.5717L9.6025 17.3011L10.5265 17.5331L9.9625 19.8038L11.3758 20.1584L11.9411 17.8891L13.0052 18.1557C13.7118 18.3331 16.3971 18.3664 16.9811 16.0077C17.5665 13.6478 15.6318 12.6491 15.6318 12.6491C15.6318 12.6491 17.2718 12.1424 17.5211 10.6184ZM14.2985 14.9944C14.0185 16.1238 12.7585 16.2104 12.4718 16.1371L9.94516 15.5051L10.6918 12.4891L13.3118 13.1451C13.8145 13.2731 14.5798 13.8651 14.2985 14.9944ZM14.7651 10.4011C14.4665 11.6037 13.2665 11.5491 12.8878 11.4558L11.0411 10.9931L11.7531 8.12242L13.4385 8.54374C13.7265 8.61574 15.0651 9.19978 14.7651 10.4011Z" fill="#FFF6ED"/>
</g>
<defs>
<clipPath id="clip0_253_3385">
<rect width="24" height="24" fill="white"/>
</clipPath>
</defs>
</svg><svg x="0" y="10" width="14" height="14" viewBox="0 0 32 32" preserveAspectRatio="xMidYMid meet">
<path d="M16 32C24.8366 32 32 24.8366 32 16C32 7.16344 24.8366 0 16 0C7.16344 0 0 7.16344 0 16C0 24.8366 7.16344 32 16 32Z" fill="white"/>
<path d="M23.032 14.02C23.346 11.924 21.749 10.797 19.567 10.045L20.275 7.205L18.547 6.775L17.857 9.54C17.403 9.426 16.937 9.32 16.472 9.214L17.167 6.431L15.439 6L14.731 8.839C14.355 8.753 13.985 8.669 13.627 8.579L13.629 8.57L11.245 7.975L10.785 9.821C10.785 9.821 12.068 10.115 12.041 10.133C12.741 10.308 12.867 10.771 12.846 11.139L12.04 14.374C12.088 14.386 12.15 14.404 12.22 14.431L12.037 14.386L10.907 18.918C10.821 19.13 10.604 19.449 10.114 19.328C10.132 19.353 8.858 19.015 8.858 19.015L8 20.993L10.25 21.554C10.668 21.659 11.078 21.769 11.481 21.872L10.766 24.744L12.493 25.174L13.201 22.334C13.673 22.461 14.131 22.579 14.579 22.691L13.873 25.519L15.601 25.949L16.316 23.083C19.264 23.641 21.48 23.416 22.413 20.75C23.165 18.604 22.376 17.365 20.825 16.558C21.955 16.298 22.805 15.555 23.032 14.02ZM19.082 19.558C18.549 21.705 14.934 20.544 13.762 20.253L14.712 16.448C15.884 16.741 19.641 17.32 19.082 19.558ZM19.617 13.989C19.13 15.942 16.122 14.949 15.147 14.706L16.007 11.256C16.982 11.499 20.125 11.952 19.617 13.989Z" fill="#0052FF"/>
<path fill-rule="evenodd" clip-rule="evenodd" d="M16 30.5C24.0081 30.5 30.5 24.0081 30.5 16C30.5 7.99187 24.0081 1.5 16 1.5C7.99187 1.5 1.5 7.99187 1.5 16C1.5 24.0081 7.99187 30.5 16 30.5ZM32 16C32 24.8366 24.8366 32 16 32C7.16344 32 0 24.8366 0 16C0 7.16344 7.16344 0 16 0C24.8366 0 32 7.16344 32 16Z" fill="#0052FF"/>
</svg><svg x="10" y="0" width="14" height="14" viewBox="0 0 24 24" preserveAspectRatio="xMidYMid meet">
<g clip-path="url(#clip0_1_38)">
<circle cx="12" cy="12" r="12" fill="white"/>
<g clip-path="url(#clip1_1_38)">
<mask id="mask0_1_38" style="mask-type:luminance" maskUnits="userSpaceOnUse" x="0" y="0" width="24" height="24">
<path d="M0 0H24V24H0V0Z" fill="white"/>
</mask>
<g mask="url(#mask0_1_38)">
<mask id="mask1_1_38" style="mask-type:luminance" maskUnits="userSpaceOnUse" x="0" y="0" width="24" height="24">
<path d="M24 0H0V24H24V0Z" fill="white"/>
</mask>
<g mask="url(#mask1_1_38)">
<path d="M12 1.28063C13.4477 1.28063 14.8514 1.56393 16.1722 2.12257C16.8072 2.39108 17.4196 2.72362 17.9927 3.11065C18.5606 3.49428 19.0947 3.93494 19.5801 4.42029C20.0655 4.90568 20.5061 5.43983 20.8898 6.00759C21.2769 6.5806 21.6094 7.19303 21.8778 7.82791C22.4364 9.14867 22.7196 10.5522 22.7196 11.9999C22.7196 13.4476 22.4364 14.8512 21.8778 16.1719C21.6092 16.8068 21.2769 17.4193 20.8898 17.9923C20.5061 18.5602 20.0655 19.0942 19.5801 19.5795C19.0947 20.0649 18.5606 20.5056 17.9927 20.8892C17.4196 21.2764 16.8072 21.6088 16.1722 21.8773C14.8514 22.4359 13.4477 22.7192 12 22.7192C10.5523 22.7192 9.14857 22.4359 7.82778 21.8773C7.19282 21.6088 6.58036 21.2763 6.00731 20.8892C5.43942 20.5056 4.90534 20.0649 4.41991 19.5795C3.93452 19.0942 3.49391 18.56 3.11022 17.9923C2.72311 17.4193 2.39064 16.8068 2.12218 16.1719C1.56365 14.8512 1.28039 13.4476 1.28039 11.9999C1.28039 10.5522 1.56365 9.14867 2.12218 7.82791C2.39078 7.19303 2.72311 6.5806 3.11022 6.00759C3.49391 5.43969 3.93452 4.90568 4.41991 4.42029C4.90534 3.93494 5.43942 3.49428 6.00731 3.11065C6.58036 2.72347 7.19282 2.39108 7.82778 2.12257C9.14857 1.56393 10.5523 1.28063 12 1.28063ZM12 0C5.37253 0 0 5.37253 0 12.0001C0 18.6276 5.37253 24.0001 12 24.0001C18.6275 24.0001 24 18.6276 24 12.0001C24 5.37253 18.6275 0 12 0Z" fill="black"/>
<path d="M8.35866 7.40189V6.51712C8.35866 5.80141 8.82699 5.21971 9.53236 5.09521C10.0654 5.00117 10.5581 5.10077 10.9503 5.5087C11.2074 5.77593 11.34 6.09878 11.3451 6.4699C11.3495 6.77768 11.3461 7.0856 11.3461 7.39763H12.9648C12.9659 7.37844 12.9679 7.35808 12.9679 7.33758V6.49806C12.9701 5.70307 13.5982 5.07516 14.3929 5.06788C14.6669 5.06503 14.9335 5.09222 15.1775 5.22441C15.6781 5.49603 15.94 5.9188 15.9541 6.48824C15.9615 6.78891 15.9554 7.08999 15.9554 7.40089H18.0592C18.4526 7.40089 18.7125 7.66273 18.7482 8.05432C18.7788 8.38942 18.6926 8.69462 18.5818 9.00127C18.4677 9.31859 18.3031 9.61524 18.0944 9.88007C17.9295 10.0896 17.7438 10.2847 17.5537 10.4717C17.3068 10.7136 17.0471 10.9428 16.7901 11.1742C16.6495 11.3006 16.523 11.4369 16.4424 11.6092C16.4192 11.6587 16.3997 11.7156 16.3997 11.7693C16.3973 13.0586 16.4025 14.348 16.3961 15.6374C16.3886 17.1868 15.2425 18.5686 13.7215 18.8627C13.4865 18.9069 13.2481 18.9303 13.0089 18.9326C12.3403 18.9417 11.6716 18.9358 11.003 18.9357C9.37102 18.9357 8.00357 17.8228 7.68419 16.2249C7.64206 16.0039 7.62129 15.7794 7.62214 15.5544C7.61631 14.2982 7.6196 13.0421 7.6183 11.7859C7.61744 11.7466 7.60893 11.7081 7.59327 11.6721C7.49126 11.435 7.31131 11.2611 7.12378 11.0918C6.87069 10.863 6.62032 10.6314 6.37263 10.3969C6.08367 10.1238 5.82448 9.82359 5.63667 9.47196C5.42513 9.07653 5.2456 8.66616 5.24573 8.20429C5.24501 8.10012 5.25655 7.99626 5.2799 7.8948C5.351 7.60196 5.61051 7.40333 5.91468 7.40288C6.70184 7.40189 7.48913 7.40189 8.27629 7.40288L8.35866 7.40189ZM10.6842 8.82396H8.11069C7.94523 8.82396 7.80312 8.93511 7.78177 9.09717C7.76796 9.19093 7.76927 9.28642 7.78575 9.37978C7.84268 9.66778 7.96772 9.92858 8.16831 10.1426C8.36889 10.3566 8.58712 10.547 8.79087 10.7544C8.94479 10.911 9.04254 11.0972 9.04226 11.3268C9.04082 12.7345 9.04082 14.1421 9.04226 15.5498C9.0411 15.6494 9.04738 15.7489 9.06074 15.8475C9.20302 16.814 10.0139 17.5123 10.9906 17.5123C11.6615 17.5123 12.3324 17.512 13.0034 17.5116C13.1029 17.5126 13.2024 17.5069 13.3013 17.4946C14.2588 17.3629 14.9726 16.545 14.9739 15.5783C14.9739 15.3437 14.9719 15.1087 14.9754 14.8744C14.9754 14.8199 14.9601 14.7975 14.908 14.7815C14.4134 14.6299 13.9405 14.4151 13.5007 14.1424C12.4906 13.5149 11.7168 12.6743 11.2152 11.591C10.9747 11.0713 10.8096 10.5282 10.7517 9.95845C10.7138 9.5851 10.7059 9.20817 10.6842 8.82396ZM14.876 12.5978C14.8803 12.2455 14.5982 11.9565 14.2459 11.9524C13.8937 11.9482 13.6047 12.2303 13.6006 12.5826C13.5963 12.9349 13.8785 13.2239 14.2307 13.228H14.2323C14.5831 13.2328 14.8713 12.9521 14.876 12.6014V12.5978Z" fill="black"/>
<path d="M10.9349 12.5927C10.9336 12.945 10.647 13.2298 10.2947 13.2285C9.94245 13.2272 9.65778 12.9405 9.65905 12.5882C9.66036 12.2358 9.94702 11.9511 10.2993 11.9524H10.3015C10.6524 11.9535 10.936 12.2388 10.9349 12.5899V12.5927Z" fill="black"/>
</g>
</g>
</g>
</g>
<defs>
<clipPath id="clip0_1_38">
<rect width="24" height="24" fill="white"/>
</clipPath>
<clipPath id="clip1_1_38">
<rect width="24" height="24" fill="white"/>
</clipPath>
</defs>
</svg><svg x="0" y="0" width="14" height="14" viewBox="0 0 1618 1619" preserveAspectRatio="xMidYMid meet"><path d="m807.913 1618.8c-221.8-3.9-414.8-80.7-572-238.8-157.5996-158.5-237.09962-351.7-235.899616-575.8 1.199996-222.6 81.800016-414.1 239.499616-570.3 160.2-158.5003 355.5-237.10026 581.3-233.8002584 219.497 3.0999984 408.497 83.5999584 562.597 239.3002584 156.6 158.3 235.3 351.1 234 574.3-1.3 221.1-81.2 411.5-237.1 567.6-156.9 157.2-349.5 233.8-572.397 237.5zm-744.7996-810.8c-.6 411 333.3996 745.5 745.2996 746.5 411.097 1 745.997-333.1 746.697-744.7.7-412-332.3-746.6003-743.797-747.3003-413.1-.8-747.6996 332.6003-748.1996 745.5003z" fill="#f19240"/><path d="m63.1141 808.001c.6-413 335.0999-746.3005 748.1999-745.6005 411.496.8 744.496 335.3005 743.796 747.3005-.7 411.599-335.7 745.699-746.696 744.699-411.9-.9-745.8999-335.4-745.2999-746.399zm960.7959-15.601c1.8-1.5 2.5-2.299 3.3-2.699 38.9-21.201 59.5-54.2 62.6-98.1 2.4-35.2-3.1-68.6-25.1-97.5-18.5-24.2-43.9-38.5-72.096-48.4-26.4-9.2-53.6-14.4-81.3-17.1-11.8-1.2-11.8-1.101-11.8-12.801 0-35.9-.2-71.899.2-107.799.1-7.1-2.1-8.801-8.9-8.601-20.2.4-40.4.4-60.6 0-6.9-.1-9.3 1.4-9.3 8.9.4 35.7-.1 71.4.4 107 .1 7.9-2.3 9.701-9.7 9.401-14.4-.6-28.9-.6-43.3 0-7.6.3-10.3-1.3-10.1-9.7.6-35.7 0-71.4.4-107 .1-7.2-2.1-8.7-8.8-8.5-19.9.4-39.9.4-59.8 0-7-.2-9.3 1.499-9.2 8.899.4 37 0 74 .4 111 .1 7.2-1.9 9.201-9.2 9.201-47.2-.3-94.4-.001-141.7-.301-6.7 0-8.3 1.901-8.2 8.301.4 22.8.3 45.6 0 68.5-.1 5.4 1.4 7.2 7 7.1 18.4-.4 36.7-.4 55.1-.2 22.4.2 39.1 17.3 39.2 39.6v342.299c0 19.1-10.9 30.4-30 30.6-16.8.2-33.6.2-50.4-.1-4.5-.1-6.3 1-7 5.8-3.9 26.4-7.8 52.9-12.6 79.2-1.4 7.9 1.1 8.4 7.6 8.4 46.7-.2 93.4 0 140.1-.3 7.2-.1 8.6 2.1 8.6 8.8-.3 38 0 76.1-.3 114.1-.1 6.7 2 8.3 8.4 8.1 20.7-.4 41.5-.4 62.2 0 6.7.1 8.2-2 8.2-8.4-.3-37.2 0-74.5-.3-111.8-.1-6.6 1.2-9.2 8.5-8.9 15.2.6 30.4.5 45.6 0 6.7-.2 8.3 1.9 8.2 8.4-.3 37.5 0 75-.3 112.5-.1 6.4 1.9 7.9 7.9 7.8 21-.4 42-.4 63 0 6.1.1 8-1.5 7.9-7.8-.3-35.1-.1-70.3-.1-105.5 0-16.8 0-16.3 17.2-17.6 40.1-2.9 79.7-8.7 117.496-23.5 40-15.7 71.2-41.2 87.6-81.9 15.2-37.6 18.6-76.899 11.7-116.599-7.2-41.1-30.6-70.5-68.3-88.5-12.6-6-25.8-10.201-40.4-14.301zm-909.296 3.801c.4 59.5 4.7 105.599 14.2 151.199 25.5 123.7 80.6 232.5 164.7 326.7 4.3 4.9 6.4 3.9 10.2-.1 10.9-11.7 21.9-23.3 33.4-34.5 4.7-4.6 5-7.1.4-12.4-139.3-162.9-187.8-349.599-143.1-559.099 22.5-105.4 72.2-197.9 143.8-278.4 3.5-3.9 4.2-6 0-9.9-12-11.4-23.6-23.1-35-35.1-4-4.2-6-3.5-9.6.5-117.6 132.4-176.1 287.4-179 451.1zm677.7 706.299c84.4-.3 151.1-9.8 216.296-29.5 99.1-30 187.2-79.7 264.5-148.7 4.4-3.9 5.5-6.2.5-10.8-11.8-10.8-23.2-22.1-34.4-33.5-4.3-4.4-6.8-4.9-11.8-.4-45.5 41-96.1 74.5-151.7 100.3-101.496 47.2-208.096 66.4-319.796 57.2-61.3-5.1-120.5-18.9-177.7-41.4-70.2-27.6-133.5-66.7-189.7-117.1-4-3.6-5.9-3.1-9.3.4-11.5 11.9-23.2 23.6-35.1 35-4 3.8-4 5.9.3 9.6 132.5 117.5 287.6 176.2 447.9 178.9zm485.596-1204.299c-2-1.9-3.6-3.5-5.4-5.1-118.7-105.5-257.4-164.4-415.596-176.5-84.5-6.5-167.5 3.4-248.7 28-98.9 29.9-186.7 79.7-263.7 148.5-4.6 4.1-4.9 6.399-.3 10.699 11.9 11 23.6 22.4 34.9 34 4 4 6.2 4.301 10.6.301 28.3-25.6 58.7-48.4 91.4-68 127.8-76.6 265.7-105.801 413.5-86.301 74.3 9.8 144.396 32.8 210.496 68 44.7 23.7 85.9 52.5 123.4 86.401 3.9 3.5 6.2 4 10.1-.1 11.6-12.1 23.7-23.8 35.5-35.7 1.5-1.2 2.6-2.7 3.8-4.2zm225.1 530.4c-.3-105.1-15-186.7-44.7-265.5-30.8-81.6-75.5-154.801-133.8-219.701-3.9-4.3-5.9-3.9-9.6 0-11.1 11.5-22.3 22.9-33.9 33.9-4.7 4.4-5.5 7.001-.6 12.401 40.8 45.299 74.1 95.7 99.8 151 45.2 97.199 64.9 199.3 58.4 306.4-3.4 55.8-14 110.199-32 163.099-27.6 81.2-70 153.9-127.3 217.8-3.8 4.2-3.3 6.4.4 10 11.9 11.5 23.6 23.1 35 35.1 3.7 3.9 5.7 3.4 9.1-.4 117.9-132.7 176.7-287.999 179.2-444.099z" fill="#fefefe"/><path d="m1023.91 792.4c14.6 4.1 27.8 8.3 40.4 14.3 37.7 18 61.1 47.3 68.3 88.5 6.9 39.8 3.5 79-11.7 116.6-16.4 40.7-47.6 66.2-87.6 81.9-37.796 14.8-77.396 20.6-117.496 23.5-17.2 1.2-17.2.8-17.2 17.6 0 35.2-.2 70.3.1 105.5.1 6.3-1.8 7.9-7.9 7.8-21-.4-42-.4-63 0-6.1.1-8-1.4-7.9-7.8.3-37.5 0-75 .3-112.5.1-6.4-1.5-8.6-8.2-8.4-15.2.5-30.4.6-45.6 0-7.3-.3-8.6 2.3-8.5 8.9.3 37.2 0 74.5.3 111.8.1 6.4-1.5 8.5-8.2 8.4-20.7-.4-41.4-.4-62.2 0-6.4.1-8.4-1.4-8.4-8.1.3-38 0-76.1.3-114.1.1-6.7-1.4-8.9-8.6-8.8-46.7.4-93.4.1-140.1.3-6.5 0-9.1-.5-7.6-8.4 4.8-26.3 8.7-52.7 12.6-79.2.7-4.8 2.5-5.9 7-5.8 16.8.2 33.6.3 50.4.1 19.2-.3 30-11.5 30-30.6 0-114.1 0-228.2 0-342.3 0-22.3-16.8-39.3-39.2-39.6-18.4-.2-36.7-.2-55.1.2-5.6.1-7.1-1.6-7-7.1.3-22.8.4-45.6 0-68.5-.1-6.5 1.6-8.4 8.2-8.3 47.2.3 94.4 0 141.7.3 7.3 0 9.2-1.9 9.2-9.2-.4-37 .1-74-.4-111-.1-7.5 2.3-9.1 9.2-8.9 19.9.4 39.9.4 59.8 0 6.7-.1 8.9 1.3 8.8 8.5-.4 35.7.1 71.4-.4 107-.1 8.4 2.5 10 10.1 9.7 14.4-.6 28.9-.6 43.3 0 7.4.3 9.8-1.5 9.7-9.4-.5-35.7 0-71.4-.4-107-.1-7.5 2.3-9 9.3-8.9 20.2.4 40.4.4 60.6 0 6.8-.2 9 1.6 8.9 8.6-.4 35.9-.2 71.9-.2 107.8 0 11.6 0 11.6 11.8 12.8 27.7 2.7 55 7.9 81.3 17.1 28.196 9.9 53.596 24.2 72.096 48.4 22 28.9 27.5 62.3 25.1 97.5-3 43.9-23.7 76.9-62.6 98.1-.8.4-1.5 1.2-3.3 2.7zm-219.596 232.3c22.6.5 45.1-.5 67.4-3.6 24.5-3.4 48.5-8.5 70.4-20.8 23.7-13.4 37.6-33.2 37.8-60.9.2-28-12.2-49.2-36.4-63.5-19.3-11.3-40.6-16.7-62.5-19.9-38.3-5.7-76.8-5.1-115.3-3.7-4.6.2-5.6 1.9-5.6 6.1.1 53.5.2 106.9 0 160.4 0 5.2 2.1 6 6.5 6 12.5-.2 25.1-.1 37.7-.1zm-44.1-329.6c0 24.1.1 48.2-.1 72.3 0 5.1 1.4 6.8 6.6 6.7 24.1-.1 48.2.7 72.3-1.7 21.4-2.2 42.5-5.9 62.4-14.8 43.5-19.5 56.6-71.6 26.5-106.5-15.8-18.2-37.5-25.1-60.1-29.7-34-6.9-68.3-4.8-102.6-4.7-5.4 0-4.9 3.3-4.9 6.7-.1 24-.1 47.8-.1 71.7z" fill="#f19240"/><g fill="#5c5666"><path d="m114.613 796.201c2.8-163.7 61.4-318.8 178.9-451.2 3.6-4 5.6-4.7 9.6-.5 11.4 12 23.1 23.7 35 35.1 4.1 3.9 3.5 6 0 9.9-71.7 80.5-121.4 172.999-143.8 278.399-44.7 209.6 3.8 396.3 143.1 559.1 4.6 5.3 4.3 7.9-.4 12.4-11.4 11.2-22.5 22.8-33.4 34.5-3.8 4-5.8 5-10.2.1-84.1-94.2-139.2-203-164.7-326.7-9.3-45.5-13.6-91.599-14.1-151.099z"/><path d="m792.314 1502.5c-160.4-2.7-315.4-61.4-447.9-178.9-4.2-3.8-4.3-5.8-.3-9.6 11.9-11.4 23.6-23.2 35.1-35 3.4-3.5 5.4-4 9.3-.4 56.1 50.5 119.4 89.5 189.7 117.1 57.2 22.5 116.4 36.3 177.7 41.4 111.7 9.2 218.3-10.1 319.796-57.2 55.5-25.8 106.1-59.3 151.7-100.3 5-4.5 7.5-3.9 11.8.4 11.2 11.5 22.6 22.7 34.4 33.5 4.9 4.5 3.9 6.8-.5 10.8-77.2 69-165.3 118.7-264.5 148.7-65.196 19.7-131.896 29.2-216.296 29.5z"/><path d="m1277.91 298.2c-1.3 1.5-2.3 3-3.6 4.3-11.8 11.9-23.9 23.6-35.5 35.7-3.9 4-6.2 3.6-10.1.1-37.5-33.9-78.8-62.6-123.4-86.4-66.1-35.2-136.196-58.2-210.496-68-147.9-19.5-285.7 9.7-413.5 86.3-32.7 19.6-63.1 42.4-91.4 68-4.4 4-6.6 3.7-10.6-.3-11.4-11.6-23-23-34.9-34-4.6-4.3-4.4-6.6.3-10.7 77-68.9 164.8-118.6 263.7-148.5 81.1-24.6 164.1-34.5 248.7-28 158.196 12.1 296.896 71 415.596 176.5 1.6 1.4 3.3 3.1 5.2 5z"/><path d="m1503.01 828.6c-2.5 156.1-61.3 311.4-179.1 444-3.4 3.8-5.3 4.3-9.1.4-11.4-11.9-23.2-23.6-35-35.1-3.7-3.6-4.3-5.7-.4-10 57.3-63.9 99.7-136.6 127.3-217.8 18-52.9 28.6-107.2 32-163.1 6.5-107.1-13.2-209.2-58.4-306.4-25.7-55.3-59-105.7-99.8-151-4.8-5.4-4.1-8 .6-12.4 11.6-11 22.9-22.4 33.9-33.9 3.7-3.8 5.7-4.3 9.6 0 58.3 64.9 103 138.1 133.8 219.7 29.7 78.8 44.4 160.4 44.6 265.6z"/></g><path d="m804.313 1024.7c-12.6 0-25.2-.1-37.7.1-4.4.1-6.5-.8-6.5-6 .2-53.5.1-106.9 0-160.4 0-4.2 1-5.9 5.6-6.1 38.5-1.4 77-2 115.3 3.7 21.9 3.2 43.1 8.6 62.5 19.9 24.3 14.2 36.6 35.4 36.4 63.5-.2 27.8-14 47.6-37.8 60.9-21.9 12.3-45.9 17.4-70.4 20.8-22.4 3.1-44.9 4.1-67.4 3.6z" fill="#fefefe"/><path d="m760.214 695.1c0-23.9 0-47.7 0-71.6 0-3.4-.6-6.7 4.9-6.7 34.3 0 68.7-2.2 102.6 4.7 22.6 4.6 44.4 11.5 60.1 29.7 30.1 34.8 17 87-26.5 106.5-19.9 8.9-41 12.6-62.4 14.8-24 2.4-48.2 1.5-72.3 1.7-5.2 0-6.7-1.6-6.6-6.7.3-24.2.2-48.3.2-72.4z" fill="#fefefe"/></svg></svg>