<svg width="182" height="182" viewBox="0 0 182 182" fill="none" xmlns="http://www.w3.org/2000/svg">
<mask id="mask0_10411_27974" style="mask-type:luminance" maskUnits="userSpaceOnUse" x="0" y="0" width="182" height="182">
<path d="M181.5 0H0V181.5H181.5V0Z" fill="white"/>
</mask>
<g mask="url(#mask0_10411_27974)">
<path d="M90.753 181.507C140.875 181.507 181.507 140.875 181.507 90.753C181.507 40.6317 140.875 0 90.753 0C40.6317 0 0 40.6317 0 90.753C0 140.875 40.6317 181.507 90.753 181.507Z" fill="#161E53"/>
<path d="M121.825 59.782L128.186 42.8564H117.736L113.538 53.9846C111.24 52.7777 108.825 51.8074 106.33 51.089L109.436 42.8496H98.9859L96.4502 49.5765C96.1175 49.5765 95.7855 49.556 95.4467 49.556H83.3081C81.6943 49.3526 80.1069 48.9934 78.5679 48.4716C78.0318 48.2946 77.5099 48.098 76.9949 47.8878L73.5495 57.0293L46.8516 127.873H66.958L62.8962 138.648H73.346L77.4147 127.873H85.7153L81.6534 138.648H92.1033L96.1651 127.866C117.777 127.5 134.995 109.679 134.628 88.0666C134.445 77.2779 129.807 67.0451 121.825 59.782ZM60.9776 118.094L83.1251 59.3487C84.1218 59.4433 85.1186 59.4841 86.1153 59.4841C87.112 59.4841 88.1564 59.4364 89.1532 59.3419H92.7885L70.6402 118.094H60.9776ZM81.084 118.094L102.892 60.2842C105.408 60.9489 107.822 61.9389 110.08 63.2343L89.3838 118.087L81.084 118.094ZM116.238 109.482C111.837 113.91 106.133 116.812 99.963 117.749L118.008 69.8931C127.766 81.5568 126.993 98.7335 116.238 109.482Z" fill="#FFBB51"/>
</g>
</svg>
