<?xml version="1.0" encoding="UTF-8"?><svg id="Calque_2" xmlns="http://www.w3.org/2000/svg" viewBox="0 0 964 964"><defs><style>.cls-1{fill:#f2f2f2;}</style></defs><g id="Calque_1-2"><path class="cls-1" d="M482,949c-63.05,0-124.21-12.35-181.77-36.69-55.61-23.52-105.55-57.19-148.45-100.09-42.89-42.89-76.57-92.84-100.09-148.45-24.35-57.56-36.69-118.72-36.69-181.77s12.35-124.21,36.69-181.77c23.52-55.61,57.19-105.55,100.09-148.45s92.84-76.57,148.45-100.09c57.56-24.35,118.72-36.69,181.77-36.69s124.21,12.35,181.77,36.69c55.61,23.52,105.55,57.19,148.45,100.09,42.89,42.89,76.57,92.84,100.09,148.45,24.35,57.56,36.69,118.72,36.69,181.77s-12.35,124.21-36.69,181.77c-23.52,55.61-57.19,105.55-100.09,148.45s-92.84,76.57-148.45,100.09c-57.56,24.35-118.72,36.69-181.77,36.69h0Z"/><path d="M482,30c61.03,0,120.22,11.95,175.93,35.51,53.82,22.76,102.16,55.36,143.68,96.88,41.52,41.52,74.12,89.86,96.88,143.68,23.56,55.71,35.51,114.9,35.51,175.93s-11.95,120.22-35.51,175.93c-22.76,53.82-55.36,102.16-96.88,143.68-41.52,41.52-89.86,74.12-143.68,96.88-55.71,23.56-114.9,35.51-175.93,35.51s-120.22-11.95-175.93-35.51c-53.82-22.76-102.16-55.36-143.68-96.88-41.52-41.52-74.12-89.86-96.88-143.68-23.56-55.71-35.51-114.9-35.51-175.93s11.95-120.22,35.51-175.93c22.76-53.82,55.36-102.16,96.88-143.68,41.52-41.52,89.86-74.12,143.68-96.88,55.71-23.56,114.9-35.51,175.93-35.51M482,0C215.8,0,0,215.8,0,482s215.8,482,482,482,482-215.8,482-482S748.2,0,482,0h0Z"/></g><path d="M216.86,200.4h530.28v117.84h-206.22v117.84h-117.84v-117.84h-206.22v-117.84Z"/><path d="M423.08,436.08v235.68h-117.84v-235.68h117.84Z"/><path d="M540.94,671.76h117.82v-235.68h-117.84v235.68h-117.82v117.84h117.84v-117.84Z"/></svg>