<svg width="1056" height="1056" viewBox="0 0 1056 1056" fill="none" xmlns="http://www.w3.org/2000/svg">
<path d="M148.72 895.329C-54.1497 685.859 -48.7993 351.591 160.671 148.72C370.141 -54.1497 704.409 -48.7993 907.279 160.671C1110.15 370.141 1104.8 704.409 895.329 907.279C685.859 1110.15 351.591 1104.8 148.72 895.329Z" fill="url(#paint0_linear_5053_218)"/>
<path d="M187.466 857.808C5.3192 669.735 10.1231 369.613 198.196 187.466C386.269 5.3192 686.391 10.1231 868.538 198.196C1050.68 386.269 1045.88 686.391 857.808 868.538C669.735 1050.68 369.613 1045.88 187.466 857.808Z" fill="#141414"/>
<path d="M449.197 703.177L515.078 789.122L528.58 781.328L528.602 781.34V654.564L449.197 703.177ZM348.083 571.244L427.475 674.834V674.82L528.602 612.904V460.717L348.083 571.244ZM348.083 377.409L246.969 439.325L326.36 542.914V542.901L528.602 419.069V266.881L348.083 377.409Z" fill="url(#paint1_linear_5053_218)"/>
<path d="M528.535 781.419L528.693 781.328L542.102 789.067L607.939 703.177L528.535 654.564V781.419ZM528.535 612.904L629.662 674.82V674.834L709.054 571.244L528.535 460.717V612.904ZM528.535 419.069L730.776 542.901V542.914L810.168 439.325L709.054 377.409L528.535 266.881V419.069Z" fill="url(#paint2_linear_5053_218)"/>
<defs>
<linearGradient id="paint0_linear_5053_218" x1="339.729" y1="31.5538" x2="474.359" y2="1056" gradientUnits="userSpaceOnUse">
<stop stop-color="#C4AE9C"/>
<stop offset="0.586538" stop-color="#A99482"/>
<stop offset="1" stop-color="#7D6B5B"/>
</linearGradient>
<linearGradient id="paint1_linear_5053_218" x1="508.491" y1="787.465" x2="386.653" y2="364.352" gradientUnits="userSpaceOnUse">
<stop stop-color="#EBCAAE"/>
<stop offset="1" stop-color="#FFF1E5"/>
</linearGradient>
<linearGradient id="paint2_linear_5053_218" x1="528.449" y1="787.458" x2="694.588" y2="357.703" gradientUnits="userSpaceOnUse">
<stop offset="0.0673077" stop-color="#473321"/>
<stop offset="1" stop-color="#A99482"/>
</linearGradient>
</defs>
</svg>
