<svg width="24" height="24" viewBox="0 0 24 24" fill="none" xmlns="http://www.w3.org/2000/svg">
<g clip-path="url(#clip0_875_638)">
<g clip-path="url(#clip1_875_638)">
<path d="M12 0.666664C18.2598 0.666664 23.3334 5.74121 23.3334 12C23.3334 18.2598 18.2598 23.3333 12 23.3333C5.74124 23.3333 0.666687 18.2593 0.666687 12C0.666687 5.74121 5.74124 0.666664 12 0.666664Z" fill="#F5AC37"/>
<path d="M12.4178 12.8003H16.7243C16.8161 12.8003 16.8594 12.8003 16.866 12.6799C16.9012 12.2418 16.9012 11.8012 16.866 11.3626C16.866 11.2774 16.8237 11.2422 16.7314 11.2422H8.16077C8.05469 11.2422 8.02613 11.2774 8.02613 11.3769V12.6376C8.02613 12.8003 8.02613 12.8003 8.19596 12.8003H12.4178ZM16.3851 9.76882C16.3974 9.73669 16.3974 9.7015 16.3851 9.66988C16.3132 9.51331 16.228 9.36387 16.1291 9.22362C15.9802 8.98392 15.8047 8.76309 15.6048 8.5647C15.5105 8.44485 15.4013 8.33723 15.2789 8.24594C14.6659 7.72421 13.9371 7.35496 13.1537 7.16932C12.7585 7.08058 12.3545 7.03825 11.9496 7.04182H8.14598C8.0399 7.04182 8.02562 7.08415 8.02562 7.17646V9.69079C8.02562 9.79687 8.02562 9.82543 8.16026 9.82543H16.3341C16.3341 9.82543 16.405 9.81115 16.4193 9.76882H16.3846H16.3851ZM16.3851 14.2737C16.2648 14.2604 16.1434 14.2604 16.023 14.2737H8.16791C8.06183 14.2737 8.02613 14.2737 8.02613 14.4155V16.8737C8.02613 16.9869 8.02613 17.0155 8.16791 17.0155H11.7946C11.968 17.0287 12.1414 17.0165 12.3112 16.9803C12.8375 16.9425 13.3552 16.8283 13.8489 16.6401C14.0284 16.5779 14.2018 16.4968 14.3655 16.3994H14.415C15.2651 15.9572 15.9557 15.2626 16.3912 14.4099C16.3912 14.4099 16.4407 14.3028 16.3851 14.2747V14.2737ZM6.60271 18.29V18.2477V16.5973V16.0378V14.3731C6.60271 14.2808 6.60271 14.2671 6.48949 14.2671H4.95233C4.86716 14.2671 4.83197 14.2671 4.83197 14.1538V12.8079H6.47521C6.56701 12.8079 6.60271 12.8079 6.60271 12.6876V11.356C6.60271 11.2708 6.60271 11.2499 6.48949 11.2499H4.95233C4.86716 11.2499 4.83197 11.2499 4.83197 11.1367V9.8902C4.83197 9.81217 4.83197 9.79126 4.94519 9.79126H6.46807C6.57415 9.79126 6.60271 9.79126 6.60271 9.65662V5.83872C6.60271 5.7255 6.60271 5.69694 6.74449 5.69694H12.0567C12.4423 5.71224 12.8253 5.75457 13.2042 5.82444C13.985 5.96877 14.7352 6.24774 15.4212 6.64606C15.8761 6.91381 16.2948 7.23715 16.6677 7.60946C16.9482 7.90067 17.2011 8.21585 17.4255 8.55144C17.6484 8.89161 17.8335 9.25524 17.9789 9.6352C17.9967 9.73414 18.0916 9.80095 18.1905 9.78412H19.4584C19.6211 9.78412 19.6211 9.78412 19.6282 9.94018V11.102C19.6282 11.2152 19.5859 11.2438 19.4722 11.2438H18.4945C18.3956 11.2438 18.367 11.2438 18.3741 11.3713C18.4129 11.8027 18.4129 12.2357 18.3741 12.6672C18.3741 12.7875 18.3741 12.8018 18.5093 12.8018H19.6277C19.6772 12.8656 19.6277 12.9293 19.6277 12.9936C19.6349 13.0757 19.6349 13.1588 19.6277 13.2409V14.0983C19.6277 14.2186 19.5925 14.2543 19.4859 14.2543H18.1472C18.0539 14.2365 17.9631 14.2961 17.9416 14.389C17.6229 15.2177 17.1129 15.9608 16.454 16.5565C16.2132 16.7732 15.9603 16.9772 15.6961 17.1654C15.4125 17.3286 15.1366 17.4985 14.8459 17.6331C14.3109 17.8738 13.7499 18.0513 13.1741 18.164C12.6274 18.2619 12.073 18.3063 11.5166 18.2987H6.60067V18.2915L6.60271 18.29Z" fill="#FEFEFD"/>
</g>
</g>
<defs>
<clipPath id="clip0_875_638">
<rect width="24" height="24" fill="white"/>
</clipPath>
<clipPath id="clip1_875_638">
<rect width="22.6667" height="22.6667" fill="white" transform="translate(0.666687 0.666664)"/>
</clipPath>
</defs>
</svg>
