<svg width="120" height="120" viewBox="0 0 120 120" fill="none" xmlns="http://www.w3.org/2000/svg">
<path fill-rule="evenodd" clip-rule="evenodd" d="M59.9999 120C26.8635 120 0 93.1362 0 59.9999C-8.19581e-07 41.25 11.0109 25.3498 11.0109 25.3498L22.8769 33.8476C22.8769 33.8476 14.5944 45.9511 14.5941 59.9999C14.5938 82.5924 31.095 101.329 52.7024 104.819V89.9399C39.2074 86.6624 29.1884 74.5024 29.188 59.9999C35.9848 59.9999 37.1098 59.9999 43.7824 59.9999C43.7824 68.9561 51.0437 76.2174 59.9999 76.2174C68.9562 76.2174 76.2175 68.9561 76.2175 59.9999C76.2175 58.2436 75.9375 56.5511 75.4212 54.9674C73.3729 48.6895 67.6002 44.0963 60.7143 43.7978C60.4775 43.7875 60.2393 43.7823 59.9999 43.7823C52.7262 43.7823 46.2812 40.2348 42.3012 34.7767C39.6649 31.1618 38.1087 26.7084 38.1087 21.8912L38.1749 20.1738C39.0499 8.88552 48.4874 2.54573e-08 59.9999 2.54573e-08C60.2384 -6.84605e-06 63.3336 0.00137737 63.5714 0.00414501C76.3102 0.152416 85.2364 4.27122 94.8875 11.1803C110.091 22.0653 120 39.8761 120 59.9999C120 93.1362 93.1362 120 59.9999 120ZM67.2974 104.819C88.905 101.327 105.406 82.5924 105.406 59.9999C105.406 49.1449 101.596 39.1798 95.2425 31.3674C87.7126 22.111 75.7009 14.7869 63.5714 14.5998C63.3338 14.5961 60.2385 14.5943 59.9999 14.5943C55.9699 14.5943 52.7024 17.8609 52.7024 21.8912C52.7024 25.9214 55.9699 29.1881 59.9999 29.1881C60.2387 29.1881 60.4768 29.1908 60.7143 29.1962C67.0285 29.3398 72.8727 31.3827 77.6987 34.7767C81.7812 37.6461 85.135 41.4811 87.4287 45.9511C89.5912 50.1636 90.8112 54.9386 90.8112 59.9999C90.8112 74.5024 80.7912 86.6624 67.2974 89.9399V104.819Z" fill="#6438E5"/>
</svg>
