<svg version="1.1" xmlns="http://www.w3.org/2000/svg" width="32" height="32" viewBox="0 0 32 32">
    <path fill="#000" d="M32 16c0 8.837-7.163 16-16 16s-16-7.163-16-16c0-8.837 7.163-16 16-16s16 7.163 16 16z" />
    <circle cx="16" cy="16" r="15" stroke-width="0.6" fill="#000" stroke="#00ffb2" />
    <polygon points="0,16 -2.6,0.2 2.6,0.2" fill="#000" transform="translate(16, 0) rotate(30.3, 0, 16)" />
    <polygon points="0,16 -2.6,0.2 2.6,0.2" fill="#000" transform="translate(16, 0) rotate(120.3, 0, 16)" />
    <polygon points="0,16 -2.6,0.2 2.6,0.2" fill="#000" transform="translate(16, 0) rotate(210.3, 0, 16)" />
    <polygon points="0,16 -2.6,0.2 2.6,0.2" fill="#000" transform="translate(16, 0) rotate(300.3, 0, 16)" />
    <path fill="#00ffb2"
          d="M19.011 24.016h-1.183l-0.036-0.062-5.082-8.728v8.145c0 0.356-0.289 0.646-0.646 0.646h-2.21c-0.356 0-0.646-0.289-0.646-0.646v-14.544c0-0.356 0.289-0.646 0.646-0.646h2.21c0.17 0 0.336 0.067 0.454 0.186l0.088 0.108 6.125 10.598 1.456-2.474c0.093-0.16 0.134-0.315 0.134-0.491s-0.041-0.331-0.134-0.491l-2.551-4.411h-3.409l0.95-2.489c0.186-0.325 0.532-0.527 0.924-0.537h2.908c0.434 0 0.831 0.232 1.069 0.615l3.863 6.693c0.227 0.372 0.227 0.847 0 1.219l-3.863 6.688c-0.222 0.393-0.615 0.62-1.069 0.62z" />
</svg>