<svg width="65" height="65" viewBox="0 0 65 65" fill="none" xmlns="http://www.w3.org/2000/svg">
<g clip-path="url(#clip0_770_420)">
<path d="M32.5 0C50.4509 0 65 14.552 65 32.5C65 50.4509 50.4509 65 32.5 65C14.552 65 0 50.4494 0 32.5C0 14.552 14.552 0 32.5 0Z" fill="#79BF1F"/>
<path d="M33.6988 34.7947H46.0482C46.3115 34.7947 46.4358 34.7947 46.4548 34.4496C46.5557 33.1933 46.5557 31.9296 46.4548 30.6719C46.4548 30.4276 46.3334 30.3267 46.0687 30.3267H21.4911C21.1869 30.3267 21.105 30.4276 21.105 30.7128V34.3282C21.105 34.7947 21.105 34.7947 21.5921 34.7947H33.6988ZM45.0757 26.1015C45.1108 26.0094 45.1108 25.9085 45.0757 25.8178C44.8694 25.3688 44.6252 24.9403 44.3415 24.5381C43.9144 23.8507 43.4113 23.2174 42.838 22.6485C42.5674 22.3048 42.2545 21.9962 41.9035 21.7345C40.1455 20.2383 38.0556 19.1794 35.8092 18.6471C34.6757 18.3926 33.5174 18.2712 32.3562 18.2815H21.4487C21.1445 18.2815 21.1036 18.4028 21.1036 18.6676V25.8778C21.1036 26.182 21.1036 26.2639 21.4897 26.2639H44.9294C44.9294 26.2639 45.1327 26.2229 45.1736 26.1015H45.0742H45.0757ZM45.0757 39.0199C44.7305 38.9819 44.3824 38.9819 44.0373 39.0199H21.5116C21.2074 39.0199 21.105 39.0199 21.105 39.4265V46.4758C21.105 46.8005 21.105 46.8824 21.5116 46.8824H31.9116C32.4088 46.9204 32.9061 46.8853 33.3931 46.7815C34.9024 46.6732 36.3869 46.3456 37.8026 45.806C38.3174 45.6276 38.8146 45.395 39.2841 45.1157H39.426C41.864 43.8477 43.8442 41.8557 45.0932 39.4104C45.0932 39.4104 45.2351 39.1033 45.0757 39.0228V39.0199ZM17.0232 50.5372V50.4158V45.6831V44.0788V39.3051C17.0232 39.0404 17.0232 39.0009 16.6985 39.0009H12.2905C12.0462 39.0009 11.9453 39.0009 11.9453 38.6762V34.8166H16.6575C16.9208 34.8166 17.0232 34.8166 17.0232 34.4715V30.6529C17.0232 30.4086 17.0232 30.3487 16.6985 30.3487H12.2905C12.0462 30.3487 11.9453 30.3487 11.9453 30.024V26.4496C11.9453 26.2258 11.9453 26.1659 12.27 26.1659H16.6371C16.9413 26.1659 17.0232 26.1659 17.0232 25.7798V14.8314C17.0232 14.5067 17.0232 14.4248 17.4297 14.4248H32.6633C33.769 14.4687 34.8673 14.5901 35.954 14.7904C38.1931 15.2043 40.3444 16.0043 42.3115 17.1465C43.6161 17.9144 44.8168 18.8416 45.8859 19.9092C46.6903 20.7443 47.4157 21.6482 48.0592 22.6105C48.6983 23.586 49.2292 24.6288 49.646 25.7183C49.6972 26.0021 49.9692 26.1937 50.253 26.1454H53.8888C54.3553 26.1454 54.3553 26.1454 54.3758 26.5929V29.9245C54.3758 30.2492 54.2544 30.3311 53.9283 30.3311H51.1246C50.8409 30.3311 50.759 30.3311 50.7795 30.6967C50.8906 31.934 50.8906 33.1757 50.7795 34.413C50.7795 34.7581 50.7795 34.7991 51.167 34.7991H54.3743C54.5162 34.9819 54.3743 35.1647 54.3743 35.349C54.3948 35.5845 54.3948 35.8229 54.3743 36.0583V38.5168C54.3743 38.862 54.2734 38.9643 53.9677 38.9643H50.1286C49.861 38.9131 49.6007 39.0843 49.5392 39.3504C48.6252 41.727 47.1627 43.8579 45.2731 45.5661C44.5828 46.1877 43.8574 46.7727 43.0998 47.3124C42.2866 47.7804 41.4954 48.2674 40.6618 48.6535C39.1276 49.3438 37.5188 49.8528 35.8677 50.176C34.2998 50.4568 32.7101 50.584 31.1145 50.5621H17.0173V50.5416L17.0232 50.5372Z" fill="#FEFEFD"/>
</g>
<defs>
<clipPath id="clip0_770_420">
<rect width="65" height="65" fill="white"/>
</clipPath>
</defs>
</svg>
