<svg width="512" height="512" viewBox="0 0 512 512" fill="none" xmlns="http://www.w3.org/2000/svg">
<circle cx="256" cy="256" r="256" fill="#232423"/>
<path d="M107.462 352.815L64 309.353L117.352 256.001C134.987 238.366 157.723 228.887 180.856 227.523C174.582 222.47 166.625 219.427 157.963 219.427H82.509V157.961H157.963C182.902 157.961 205.682 167.336 223.003 182.728C222.14 174.72 218.665 166.939 212.54 160.812L159.188 107.46L202.648 64L256 117.352C273.635 134.987 283.114 157.725 284.478 180.856C289.532 174.583 292.574 166.626 292.574 157.961V82.5091H354.039V157.963C354.039 182.902 344.663 205.684 329.271 223.004C337.279 222.141 345.057 218.666 351.186 212.539L404.538 159.187L448 202.649L394.648 256.001C377.013 273.636 354.275 283.113 331.144 284.477C337.418 289.532 345.377 292.573 354.039 292.573H429.491V354.039H354.039C329.1 354.039 306.318 344.662 288.997 329.27C289.859 337.28 293.335 345.059 299.46 351.186L352.814 404.538L309.352 448L255.996 394.648C238.363 377.013 228.884 354.275 227.522 331.144C222.468 337.417 219.426 345.374 219.426 354.039V429.493H157.961V354.039C157.961 329.1 167.335 306.32 182.725 289C174.717 289.863 166.939 293.336 160.812 299.463L107.46 352.815H107.462Z" fill="#FAF7F7"/>
</svg>
