<svg width="200" height="200" viewBox="0 0 200 200" fill="none" xmlns="http://www.w3.org/2000/svg">
<g clip-path="url(#clip0_10409_27946)">
<path d="M200 0H0V200H200V0Z" fill="#2474DA"/>
<path d="M84.6992 143.001C79.8992 144.701 74.7992 145.701 69.3992 145.701C44.1992 145.701 23.6992 125.201 23.6992 100.001C23.6992 74.8008 44.1992 54.3008 69.3992 54.3008C74.7992 54.3008 79.8992 55.3008 84.6992 57.0008C66.9992 63.3008 54.2992 80.1008 54.2992 100.001C54.2992 119.901 66.9992 136.701 84.6992 143.001ZM130.599 54.3008C125.199 54.3008 120.099 55.3008 115.299 57.0008C132.999 63.3008 145.699 80.1008 145.699 100.001C145.699 119.901 132.999 136.701 115.299 143.001C120.099 144.701 125.199 145.701 130.599 145.701C155.799 145.701 176.299 125.201 176.299 100.001C176.299 74.8008 155.899 54.3008 130.599 54.3008Z" fill="#F2F2F2"/>
</g>
<defs>
<clipPath id="clip0_10409_27946">
<rect width="200" height="200" rx="100" fill="white"/>
</clipPath>
</defs>
</svg>
