<svg width="512" height="512" viewBox="0 0 512 512" fill="none" xmlns="http://www.w3.org/2000/svg">
<g clip-path="url(#clip0_487_1700)">
<path d="M256 512C397.385 512 512 397.385 512 256C512 114.615 397.385 0 256 0C114.615 0 0 114.615 0 256C0 397.385 114.615 512 256 512Z" fill="#E8FD8F"/>
<path d="M434.164 254.976C434.489 284.274 428.358 312.268 416.314 339.016C399.116 377.102 357.882 408.245 320.229 375.095C289.521 348.076 283.824 293.225 237.817 285.196C176.944 277.817 175.479 348.401 135.71 356.377C91.3844 365.384 76.6815 290.838 77.3326 256.983C77.9836 223.129 86.9899 175.548 125.51 175.548C169.836 175.548 172.82 242.66 229.082 239.025C284.802 235.227 285.778 165.402 322.182 135.508C353.595 109.683 390.543 128.618 409.043 159.706C426.188 188.46 433.73 222.206 434.109 254.976H434.164Z" fill="#1C1B17"/>
</g>
<defs>
<clipPath id="clip0_487_1700">
<rect width="512" height="512" fill="white"/>
</clipPath>
</defs>
</svg>
