<svg width="24" height="24" viewBox="0 0 24 24" fill="none" xmlns="http://www.w3.org/2000/svg">
<mask id="mask0_875_566" style="mask-type:luminance" maskUnits="userSpaceOnUse" x="0" y="0" width="24" height="24">
<path d="M24 0H0V23.5862H24V0Z" fill="white"/>
</mask>
<g mask="url(#mask0_875_566)">
<path d="M23.5862 11.7931C23.5862 18.3063 18.3989 23.5863 12 23.5863C5.60113 23.5863 0.413818 18.3063 0.413818 11.7931C0.413818 5.27996 5.60113 0 12 0C18.3989 0 23.5862 5.27996 23.5862 11.7931Z" fill="#121825"/>
<path d="M11.9994 3.0782C12.2853 4.18649 12.7172 5.23632 13.2777 6.195C13.4902 6.0255 13.6981 5.86527 13.8991 5.71567C12.9377 4.03334 12.3853 2.0798 12.3853 0H11.6134C11.6134 2.0798 11.061 4.03334 10.0996 5.71567C10.3006 5.86527 10.5085 6.0266 10.721 6.195C11.2815 5.23632 11.7134 4.18649 11.9994 3.0782Z" fill="#E5D540"/>
<path d="M17.9708 9.8588C17.7434 9.7291 17.5229 9.5876 17.3104 9.438C17.0784 9.2801 16.859 9.1118 16.6419 8.9352C16.4375 8.774 16.2399 8.6056 16.0469 8.4244C15.792 8.1848 15.5451 7.9334 15.3096 7.6738C15.1086 7.8188 14.9007 7.9802 14.6917 8.1497C14.9696 8.4676 15.2671 8.7704 15.5795 9.0499C15.769 9.2264 15.9654 9.3994 16.1698 9.5607C16.3858 9.7372 16.6097 9.9032 16.8384 10.0634C17.0543 10.2131 17.2748 10.3545 17.4988 10.4913C18.4452 11.0618 19.472 11.5014 20.5609 11.7925C19.472 12.0836 18.444 12.5232 17.4988 13.0937C17.2748 13.2316 17.0543 13.3732 16.8384 13.5216C16.6109 13.6829 16.387 13.8477 16.1698 14.0243C15.9654 14.1856 15.7679 14.3587 15.5795 14.5352C15.2671 14.8146 14.9696 15.1174 14.6917 15.4354C14.9007 15.6049 15.1086 15.7651 15.3096 15.9112C15.5451 15.6517 15.792 15.4003 16.0469 15.1606C16.2399 14.9795 16.4375 14.8111 16.6419 14.6498C16.8579 14.4732 17.0784 14.3037 17.3104 14.1471C17.5229 13.9974 17.7434 13.8559 17.9708 13.7262C19.6236 12.7477 21.5395 12.1854 23.5862 12.1854V11.3997C21.5395 11.3997 19.6236 10.8374 17.9708 9.8588Z" fill="#E5D540"/>
<path d="M6.6896 14.1471C6.9216 14.3049 7.141 14.4732 7.3581 14.6498C7.5625 14.8111 7.7601 14.9795 7.953 15.1606C8.208 15.4003 8.4549 15.6517 8.6904 15.9112C8.8914 15.7662 9.0993 15.6049 9.3083 15.4354C9.0304 15.1174 8.7329 14.8146 8.4205 14.5352C8.2309 14.3587 8.0346 14.1856 7.8301 14.0243C7.6142 13.8477 7.3902 13.6818 7.1617 13.5216C6.9457 13.372 6.7252 13.2305 6.5013 13.0937C5.55483 12.5232 4.528 12.0836 3.43915 11.7925C4.528 11.5014 5.55598 11.0618 6.5013 10.4913C6.7252 10.3534 6.9457 10.2119 7.1617 10.0634C7.3891 9.9021 7.6131 9.7372 7.8301 9.5607C8.0346 9.3994 8.2321 9.2264 8.4205 9.0499C8.7329 8.7704 9.0304 8.4676 9.3083 8.1497C9.0993 7.9802 8.8914 7.82 8.6904 7.6738C8.4549 7.9334 8.208 8.1848 7.953 8.4244C7.7601 8.6056 7.5625 8.774 7.3581 8.9352C7.1421 9.1118 6.9216 9.2813 6.6896 9.438C6.4771 9.5876 6.2566 9.7291 6.0292 9.8588C4.37639 10.8374 2.46057 11.3997 0.413818 11.3997V12.1854C2.46057 12.1854 4.37639 12.7477 6.0292 13.7262C6.2566 13.8559 6.4771 13.9974 6.6896 14.1471Z" fill="#E5D540"/>
<path d="M11.9994 20.5082C11.7134 19.3998 11.2815 18.35 10.721 17.3914C10.5085 17.5608 10.3006 17.721 10.0996 17.8707C11.061 19.553 11.6134 21.5065 11.6134 23.5863H12.3853C12.3853 21.5065 12.9377 19.553 13.8991 17.8707C13.6981 17.721 13.4902 17.5597 13.2777 17.3914C12.7172 18.35 12.2853 19.3998 11.9994 20.5082Z" fill="#E5D540"/>
<path d="M17.7538 14.7924C17.5263 14.9491 17.3023 15.1186 17.0852 15.2998C18.0432 16.7659 18.4831 17.9291 18.676 18.5896C18.0271 18.3932 16.8843 17.9455 15.444 16.9704C15.2395 16.8289 15.027 16.6793 14.8065 16.518C14.6055 16.3684 14.4045 16.2117 14.192 16.0387C13.999 15.8809 13.7981 15.7125 13.5936 15.536C13.4512 15.4097 13.3042 15.2764 13.1537 15.1385H13.1503C12.9653 14.9654 12.7793 14.7889 12.5898 14.5995L14.509 12.646L14.756 12.3947C14.9409 12.5876 15.1189 12.7805 15.2854 12.9652H15.2889C15.4198 13.1183 15.5519 13.268 15.6748 13.4176C15.8907 13.2411 16.1147 13.0715 16.3433 12.9149C16.1963 12.7384 16.0423 12.5571 15.8724 12.3724C15.7058 12.1877 15.5324 11.9866 15.3474 11.7949C15.5324 11.602 15.707 11.4021 15.8724 11.2174C16.0423 11.0326 16.1963 10.8515 16.3433 10.675C16.1159 10.5171 15.8919 10.3487 15.6748 10.1722C15.5508 10.3219 15.4198 10.4715 15.2889 10.6247H15.2854C15.1189 10.8094 14.942 11.0023 14.756 11.1952L14.509 10.9438L12.5898 8.9903C12.7793 8.802 12.9642 8.6243 13.1503 8.4514H13.1537C13.3042 8.3134 13.4512 8.1801 13.5936 8.0538C13.7981 7.8773 13.999 7.7078 14.192 7.5512C14.4045 7.3781 14.6055 7.2215 14.8065 7.0718C15.027 6.9105 15.2395 6.7608 15.444 6.6194C16.8843 5.64434 18.0271 5.19658 18.676 5.00018C18.4831 5.66072 18.0432 6.8239 17.0852 8.29C17.3012 8.4712 17.5251 8.6395 17.7538 8.7974C19.418 6.278 19.6305 4.57934 19.6419 4.48461L19.704 3.95386L19.1826 4.01699C19.0895 4.02868 17.4218 4.24496 14.9455 5.93896C14.7411 6.0769 14.5285 6.2254 14.3126 6.3914C14.1116 6.541 13.9071 6.6977 13.6981 6.8707C13.5017 7.0274 13.3007 7.1969 13.0952 7.3781C12.9217 7.5231 12.7437 7.6844 12.5657 7.854H12.5622C12.3773 8.0234 12.1912 8.2035 12.0017 8.3929L11.9982 8.3894L11.9948 8.3929C11.8052 8.2046 11.6204 8.0234 11.4343 7.854H11.4309C11.2528 7.6844 11.076 7.5243 10.9014 7.3781C10.6969 7.1969 10.4959 7.0286 10.2984 6.8707C10.0893 6.6977 9.8848 6.541 9.6839 6.3914C9.4679 6.2265 9.2555 6.0769 9.051 5.93896C6.5758 4.24496 4.90698 4.02868 4.81392 4.01699L4.29248 3.95386L4.3545 4.48461C4.36599 4.57934 4.57847 6.2768 6.2427 8.7974C6.4702 8.6407 6.6942 8.4712 6.9112 8.29C5.9533 6.8239 5.51339 5.66072 5.32044 5.00018C5.96939 5.19658 7.1122 5.64434 8.5525 6.6194C8.757 6.7608 8.9694 6.9105 9.1899 7.0718C9.391 7.2215 9.592 7.3781 9.8045 7.5512C9.9974 7.709 10.1985 7.8773 10.4029 8.0538C10.5453 8.1801 10.6923 8.3134 10.8428 8.4514H10.8462C11.0312 8.6243 11.2172 8.8009 11.4068 8.9903L9.4874 10.9438L9.2405 11.1952C9.0556 11.0023 8.8776 10.8094 8.711 10.6247H8.7076C8.5767 10.4715 8.4446 10.3219 8.3216 10.1722C8.1057 10.3487 7.8818 10.5182 7.6532 10.675C7.8002 10.8515 7.9542 11.0326 8.1241 11.2174C8.2906 11.4021 8.4641 11.6031 8.649 11.7949C8.4641 11.9878 8.2895 12.1877 8.1241 12.3724C7.9542 12.5571 7.8002 12.7384 7.6532 12.9149C7.8807 13.0727 8.1046 13.2411 8.3216 13.4176C8.4457 13.268 8.5767 13.1183 8.7076 12.9652H8.711C8.8776 12.7805 9.0545 12.5876 9.2405 12.3947L9.4874 12.646L11.4068 14.5995C11.2172 14.7877 11.0323 14.9654 10.8462 15.1385H10.8428C10.6923 15.2764 10.5453 15.4097 10.4029 15.536C10.1985 15.7125 9.9974 15.882 9.8045 16.0387C9.592 16.2117 9.391 16.3684 9.1899 16.518C8.9694 16.6793 8.757 16.8289 8.5525 16.9704C7.1122 17.9455 5.96939 18.3932 5.32044 18.5896C5.51339 17.9291 5.9533 16.7659 6.9112 15.2998C6.6953 15.1186 6.4713 14.9503 6.2427 14.7924C4.57847 17.3118 4.36599 19.0105 4.3545 19.1052L4.29248 19.636L4.81392 19.5728C4.90698 19.5611 6.5747 19.3448 9.051 17.6509C9.2555 17.5129 9.4679 17.3644 9.6839 17.1984C9.8848 17.0488 10.0893 16.8921 10.2984 16.7191C10.4948 16.5625 10.6957 16.3929 10.9014 16.2117C11.0748 16.0668 11.2528 15.9054 11.4309 15.7359H11.4343C11.6192 15.5664 11.8052 15.3863 11.9948 15.1969L11.9982 15.2004L12.0017 15.1969C12.1912 15.3852 12.3761 15.5664 12.5622 15.7359H12.5657C12.7437 15.9054 12.9206 16.0656 13.0952 16.2117C13.2996 16.3929 13.5006 16.5613 13.6981 16.7191C13.9071 16.8921 14.1116 17.0488 14.3126 17.1984C14.5285 17.3633 14.7411 17.5129 14.9455 17.6509C17.4207 19.3448 19.0895 19.5611 19.1826 19.5728L19.704 19.636L19.6419 19.1052C19.6305 19.0105 19.418 17.313 17.7538 14.7924ZM12.2509 13.7508L11.9994 14.0068L11.7478 13.7508L10.0755 12.0486L9.824 11.7926L10.0755 11.5365L11.7478 9.8343L11.9994 9.5783L12.2509 9.8343L13.9233 11.5365L14.1748 11.7926L13.9233 12.0486L12.2509 13.7508Z" fill="#E5D540"/>
</g>
</svg>
