<svg width="45" height="45" viewBox="0 0 45 45" fill="none" xmlns="http://www.w3.org/2000/svg">
<path d="M22.5735 44.4261C34.6832 44.3855 44.4671 34.5357 44.4265 22.4261C44.3859 10.3164 34.5362 0.532429 22.4265 0.573009C10.3168 0.613588 0.532896 10.4633 0.573476 22.573C0.614055 34.6827 10.4638 44.4666 22.5735 44.4261Z" fill="url(#paint0_linear_228_2162)"/>
<path d="M22.5568 41.8494C18.4502 41.8494 14.36 40.5119 11.0418 38.0833L12.0618 36.6942C15.0866 38.9079 18.8142 40.1273 22.5568 40.1273C24.2997 40.1273 26.0287 39.8683 27.696 39.3579L28.2023 41.0047C26.3712 41.5653 24.4722 41.8494 22.5581 41.8494H22.5568ZM30.202 40.2706L29.5195 38.6892C29.6202 38.6465 29.7197 38.6025 29.8192 38.5572C34.8249 36.2945 38.4303 31.9225 39.711 26.5636L41.3884 26.9634C39.9843 32.8439 36.0263 37.6408 30.5295 40.126C30.4199 40.175 30.3103 40.2241 30.202 40.2706ZM9.39334 36.732C7.47291 34.9708 5.94915 32.8678 4.86615 30.4806C3.72019 27.9552 3.13965 25.2777 3.13965 22.5222C3.13965 21.8421 3.17617 21.1533 3.24921 20.4757L4.96438 20.658C4.89889 21.2752 4.86489 21.9025 4.86489 22.5222C4.86489 25.0313 5.3938 27.47 6.43776 29.7704C7.42505 31.9451 8.81154 33.8608 10.5607 35.4636L9.39334 36.732ZM41.7687 24.8691L40.0573 24.6554C40.148 23.9314 40.1946 23.196 40.1946 22.4669C40.1946 19.9578 39.6657 17.5191 38.6217 15.2187C37.681 13.1471 36.3751 11.3067 34.738 9.74799L35.9281 8.50225C37.7264 10.2131 39.1607 12.2345 40.1933 14.5085C41.3393 17.0339 41.9198 19.7114 41.9198 22.4669C41.9198 23.2664 41.8695 24.0747 41.77 24.8691H41.7687ZM5.27542 18.7447L3.59048 18.3764C4.22391 15.4915 5.52728 12.7473 7.36209 10.4406C9.2863 8.0208 11.6966 6.14527 14.5288 4.86433C14.7466 4.76502 14.9683 4.67074 15.1874 4.58149L15.841 6.17418C15.6407 6.25589 15.4392 6.34263 15.2403 6.43314C12.6612 7.59968 10.465 9.30802 8.71332 11.5116C7.04222 13.6134 5.85344 16.115 5.27542 18.746V18.7447ZM33.2584 8.48968C30.1832 6.1503 26.3624 4.86182 22.5014 4.86182C20.8694 4.86182 19.2449 5.08934 17.6758 5.53811L17.201 3.88257C18.925 3.3898 20.7082 3.13965 22.5014 3.13965C26.7377 3.13965 30.9287 4.55384 34.3036 7.11949L33.2584 8.48842V8.48968Z" fill="white"/>
<path opacity="0.2" d="M36.2052 36.1176C43.7233 28.5494 43.6856 16.3122 36.1174 8.79418C28.5492 1.27615 16.312 1.31381 8.79395 8.88203L36.2052 36.1176Z" fill="white"/>
<path d="M21.6043 13.8399C21.8987 13.8098 22.1974 13.7944 22.4997 13.7944C27.3058 13.7944 31.2019 17.6905 31.2019 22.4966C31.2019 26.2444 28.8327 29.4388 25.5103 30.6639L22.5577 34.8164C29.3351 34.7852 34.8197 29.2814 34.8197 22.4966C34.8197 16.1256 29.9837 10.884 23.7823 10.2425L21.6043 13.8399Z" fill="white"/>
<path d="M22.2201 10.1797C15.5451 10.3283 10.1797 15.7859 10.1797 22.4966C10.1797 28.7748 14.8757 33.9561 20.9468 34.7197L23.49 31.1431C23.165 31.1799 22.8345 31.1988 22.4997 31.1988C17.6936 31.1988 13.7975 27.3027 13.7975 22.4966C13.7975 18.6452 16.2994 15.3782 19.7666 14.2322L22.2201 10.1797Z" fill="white"/>
<path d="M25.5103 30.6644C28.8327 29.4393 31.2019 26.2449 31.2019 22.4971H34.8196C34.8196 29.2819 29.3351 34.7857 22.5576 34.8169L25.5103 30.6644Z" fill="url(#paint1_linear_228_2162)"/>
<path d="M22.2201 10.1797C15.5451 10.3283 10.1797 15.7859 10.1797 22.4966C10.1797 22.4966 13.7975 22.5486 13.7975 22.4966C13.7975 18.6452 16.2994 15.3782 19.7666 14.2322L22.2201 10.1797Z" fill="url(#paint2_linear_228_2162)"/>
<path d="M22.4775 32.5677L28.6635 23.8564L22.4775 27.5071L16.2949 23.8564L22.4775 32.5677Z" fill="white"/>
<path opacity="0.1" d="M22.4775 32.5677L28.6635 23.8564L22.4775 27.5071V32.5677Z" fill="#4C52F9"/>
<path d="M22.4589 26.3512L28.6756 22.6939L22.4589 12.4258L16.2422 22.6939L22.4589 26.3512Z" fill="url(#paint3_linear_228_2162)"/>
<path d="M22.4589 26.3512L28.6756 22.6939L22.4589 12.4258L16.2422 22.6939L22.4589 26.3512Z" fill="white"/>
<path opacity="0.1" d="M22.459 26.3509L16.2423 22.6939L22.459 12.4258L22.459 26.3509Z" fill="#4C52F9"/>
<path opacity="0.1" d="M22.4589 26.3512V19.7793L16.2422 22.6938L22.4589 26.3512Z" fill="#4C52F9"/>
<path opacity="0.1" d="M22.4591 26.3512V19.7793L28.6758 22.6938L22.4591 26.3512Z" fill="#4C52F9"/>
<defs>
<linearGradient id="paint0_linear_228_2162" x1="0.573476" y1="22.573" x2="44.4265" y2="22.4261" gradientUnits="userSpaceOnUse">
<stop offset="0.25" stop-color="#1A82FF"/>
<stop offset="0.5" stop-color="#7A26F3"/>
<stop offset="0.74" stop-color="#D6453B"/>
</linearGradient>
<linearGradient id="paint1_linear_228_2162" x1="14.3882" y1="37.9337" x2="27.9565" y2="29.0458" gradientUnits="userSpaceOnUse">
<stop stop-color="#4C52F9" stop-opacity="0.5"/>
<stop offset="1" stop-color="white"/>
</linearGradient>
<linearGradient id="paint2_linear_228_2162" x1="29.1486" y1="4.50877" x2="16.1665" y2="13.8888" gradientUnits="userSpaceOnUse">
<stop stop-color="#4C52F9" stop-opacity="0.5"/>
<stop offset="1" stop-color="white"/>
</linearGradient>
<linearGradient id="paint3_linear_228_2162" x1="9.23298" y1="16.1441" x2="20.1242" y2="22.7905" gradientUnits="userSpaceOnUse">
<stop stop-color="#1C313F"/>
<stop offset="1" stop-color="white"/>
</linearGradient>
</defs>
</svg>
