<svg width="37" height="37" viewBox="0 0 37 37" fill="none" xmlns="http://www.w3.org/2000/svg">
<rect x="1.47297" y="1.47297" width="34.0541" height="34.0541" rx="17.027" fill="#F2F2F2"/>
<rect x="1.47297" y="1.47297" width="34.0541" height="34.0541" rx="17.027" stroke="#DEDEDE" stroke-width="0.945946"/>
<g clip-path="url(#clip0_4829_5442)">
<path d="M18.5 34.9709C27.5964 34.9709 34.9705 27.5968 34.9705 18.5003C34.9705 9.40391 27.5964 2.02979 18.5 2.02979C9.40354 2.02979 2.02942 9.40391 2.02942 18.5003C2.02942 27.5968 9.40354 34.9709 18.5 34.9709Z" stroke="#075A5A" stroke-width="2.05882"/>
<mask id="mask0_4829_5442" style="mask-type:alpha" maskUnits="userSpaceOnUse" x="13" y="9" width="12" height="19">
<path d="M19.4676 21.78C19.311 21.8762 19.1121 21.8837 18.9487 21.7996L13.6481 19.0704C13.3995 18.9423 13.3088 18.6454 13.4463 18.409L18.3315 10.0113C18.5179 9.69083 18.9945 9.67295 19.2041 9.97856L24.697 17.9851C24.8515 18.2104 24.7833 18.5131 24.545 18.6596L19.4676 21.78Z" fill="#D9D9D9"/>
<path d="M19.8191 27.0155C19.6262 27.2955 19.2015 27.3115 18.9883 27.0467L14.69 21.7101C14.3558 21.2952 14.8551 20.7376 15.3384 20.9861L18.9887 22.8626C19.1518 22.9464 19.3504 22.939 19.5068 22.843L23.0071 20.697C23.4705 20.4128 24.0099 20.9312 23.7076 21.3702L19.8191 27.0155Z" fill="#D9D9D9"/>
</mask>
<g mask="url(#mask0_4829_5442)">
<g filter="url(#filter0_di_4829_5442)">
<path d="M36.5066 45.7296C26.725 46.7201 13.3733 37.7512 12.2274 27.6373C11.0816 17.5233 14.9807 6.53697 24.7622 5.54641C34.5439 4.55584 49.7112 9.35243 50.857 19.4663C52.0028 29.5803 46.2881 44.739 36.5066 45.7296Z" fill="url(#paint0_linear_4829_5442)"/>
<mask id="mask1_4829_5442" style="mask-type:alpha" maskUnits="userSpaceOnUse" x="12" y="5" width="40" height="41">
<path d="M36.5066 45.7296C26.725 46.7201 13.3733 37.7512 12.2274 27.6373C11.0816 17.5233 14.9807 6.53697 24.7622 5.54641C34.5439 4.55584 49.7112 9.35243 50.857 19.4663C52.0028 29.5803 46.2881 44.739 36.5066 45.7296Z" fill="url(#paint1_linear_4829_5442)"/>
</mask>
<g mask="url(#mask1_4829_5442)">
<path d="M11.3826 44.6639L17.9488 40.9852C20.3455 39.6424 20.5492 36.2874 18.3336 34.642L11.6034 29.6434C10.2542 28.6413 10.3777 26.5985 11.837 25.7802L17.8867 22.3876C20.285 21.0427 20.4851 17.6839 18.2647 16.041L11.857 11.2998C11.2016 10.8148 10.814 10.0519 10.8115 9.24233L10.811 9.04786C10.8091 8.42119 10.1271 8.02678 9.5807 8.33519L2.98018 12.0607C0.582208 13.4142 0.39531 16.7804 2.62754 18.4141L9.35288 23.3362C10.7118 24.3307 10.5991 26.3795 9.14 27.2049L3.02357 30.6651C0.629343 32.0195 0.443128 35.3814 2.67196 37.015L9.09926 41.726C9.76021 42.2105 10.1518 42.9768 10.1541 43.7904L10.1547 43.9499C10.1565 44.5754 10.8362 44.97 11.3826 44.6639ZM25.7874 38.8342L32.3536 35.1556C34.7503 33.8128 34.954 30.4578 32.7385 28.8123L26.0082 23.8137C24.659 22.8116 24.7825 20.7689 26.2418 19.9505L32.2915 16.5579C34.6897 15.2131 34.8899 11.8543 32.6695 10.2114L26.2618 5.47013C25.6064 4.98518 25.2187 4.22221 25.2163 3.41269L25.2158 3.21822C25.2138 2.59155 24.5319 2.19715 23.9855 2.50555L17.385 6.23108C14.987 7.58457 14.8001 10.9507 17.0323 12.5844L23.7577 17.5066C25.1165 18.5011 25.0038 20.5499 23.5448 21.3753L17.4284 24.8354C15.0341 26.1899 14.8479 29.5517 17.0768 31.1854L23.504 35.8964C24.165 36.3808 24.5565 37.1471 24.5589 37.9608L24.5594 38.1203C24.5613 38.7457 25.241 39.1403 25.7874 38.8342Z" fill="#075A5A" stroke="url(#paint2_linear_4829_5442)" stroke-width="0.0741976"/>
<path fill-rule="evenodd" clip-rule="evenodd" d="M1.36464 24.9783C2.20101 25.3236 2.80076 26.0728 2.95044 26.9597C3.84927 26.2002 5.12022 26.0475 6.18163 26.5717C7.24349 27.0959 7.89192 28.1967 7.83101 29.3703C8.55634 28.6558 9.63068 28.4183 10.5975 28.7584C11.5643 29.0986 12.253 29.9565 12.3712 30.9675C13.4223 30.2078 14.8115 30.0848 15.988 30.6473C17.1646 31.2101 17.9386 32.3672 18.003 33.6608C18.5146 33.2461 19.1932 33.0943 19.8373 33.2503C20.4809 33.4064 21.0162 33.852 21.2833 34.4552C21.8794 33.5228 22.9954 33.0567 24.0869 33.2839C25.1784 33.511 26.0185 34.3842 26.1978 35.478C27.1274 34.4909 28.5359 34.1032 29.8505 34.4728C31.1652 34.8427 32.1662 35.9083 32.447 37.2362C33.5354 36.2964 35.0739 36.0654 36.4004 36.6427C37.727 37.22 38.6049 38.502 38.6566 39.9377C39.1681 38.6618 40.4951 37.9056 41.8657 38.109C43.2362 38.3125 44.2924 39.4229 44.4193 40.7933C44.7781 40.0188 45.5905 39.5562 46.447 39.6377C47.3031 39.7193 48.0176 40.3281 48.2302 41.1568C48.6238 40.6082 49.2697 40.295 49.9489 40.3234C50.6281 40.3517 51.249 40.7182 51.6001 41.2979C51.8377 40.8939 52.2825 40.6561 52.7539 40.6808C53.2253 40.7054 53.6451 40.9883 53.8436 41.4146C54.1992 40.805 54.8851 40.4634 55.5917 40.5438C56.2982 40.6241 56.8928 41.1115 57.1073 41.7857L39.5437 41.7422C15.4884 38.151 1.92225 33.1584 -1.15413 26.7644L-1.1582 25.2624C-0.425539 24.7399 0.529154 24.6321 1.36553 24.9773L1.36464 24.9783Z" fill="#2BB386"/>
<path fill-rule="evenodd" clip-rule="evenodd" d="M0.610323 26.6054C1.18962 26.8508 1.60602 27.3697 1.71768 27.9847C2.59911 27.5113 3.67424 27.5614 4.51255 28.1149C5.35086 28.6683 5.81574 29.6346 5.72162 30.6274C6.48896 29.9844 7.57409 29.8693 8.46671 30.3356C9.35933 30.8021 9.88194 31.7572 9.78866 32.7523C10.6834 31.6599 12.1723 31.2417 13.5172 31.7048C14.8621 32.1683 15.7777 33.4147 15.8097 34.8265C16.2904 34.419 16.9409 34.268 17.5559 34.4222C18.1708 34.5758 18.6747 35.0156 18.9082 35.6018C19.5398 34.8885 20.5364 34.6119 21.4535 34.8961C22.3706 35.1796 23.0373 35.9706 23.1566 36.9166C23.754 36.0998 24.761 35.6836 25.7691 35.8375C26.7769 35.9913 27.6173 36.6897 27.949 37.6488C28.9203 36.5877 30.4182 36.1737 31.8079 36.5823C33.1976 36.9907 34.2344 38.1503 34.4792 39.5685C34.8628 39.2104 35.3836 39.0352 35.9087 39.0875C36.4339 39.1398 36.9119 39.4142 37.2208 39.8408C37.9029 38.9555 39.039 38.542 40.1397 38.7787C41.2404 39.0154 42.109 39.8597 42.371 40.9478C42.8555 40.2526 43.6799 39.8713 44.5301 39.9493C45.3803 40.0272 46.1249 40.5521 46.4811 41.3242C46.94 40.9461 47.5396 40.7791 48.1316 40.8645C48.7237 40.9496 49.2532 41.2792 49.59 41.7718L37.8987 41.7428C17.6799 40.635 4.66576 36.5081 -1.14446 29.363L-1.15149 26.7691C-0.631065 26.4218 0.0319309 26.3602 0.611229 26.6054H0.610323Z" fill="#1F9970"/>
<path fill-rule="evenodd" clip-rule="evenodd" d="M11.2391 30.5196C11.1267 30.3319 10.9953 30.1401 10.8515 29.9343C10.3938 29.2778 10.0488 28.5775 10.9222 27.0081C11.4284 26.099 11.9384 25.2503 10.7927 24.1348C13.6088 26.275 10.1883 27.224 11.8168 29.5559C12.3481 30.3164 13.0674 31.1053 12.8273 32.5593C12.6515 33.625 11.9559 34.554 10.941 35.0799C10.2494 34.4942 9.90356 34.2012 9.90356 34.2012C11.4114 33.5605 12.0651 31.8985 11.2391 30.5196Z" fill="#0A4F38"/>
<path fill-rule="evenodd" clip-rule="evenodd" d="M19.75 21.3867C19.8931 21.3654 20.0007 21.4871 19.9903 21.6578C19.9798 21.8284 19.8557 21.9844 19.7125 22.0052C19.5695 22.0266 19.4618 21.9048 19.4723 21.7342C19.4828 21.5635 19.6068 21.4075 19.75 21.3867Z" fill="#2B9C76"/>
<path fill-rule="evenodd" clip-rule="evenodd" d="M20.1498 21.0712C20.2338 21.0587 20.2972 21.1303 20.2912 21.2305C20.285 21.3308 20.2121 21.4222 20.1281 21.4347C20.044 21.4471 19.9806 21.3756 19.9867 21.2754C19.9928 21.1751 20.0658 21.0837 20.1498 21.0712Z" fill="#2B9C76"/>
<path fill-rule="evenodd" clip-rule="evenodd" d="M19.4387 22.0766C19.5228 22.0642 19.5861 22.1357 19.5801 22.2359C19.574 22.3361 19.5011 22.4276 19.417 22.4401C19.3329 22.4525 19.2696 22.381 19.2757 22.2807C19.2817 22.1805 19.3547 22.089 19.4387 22.0766Z" fill="#2B9C76"/>
<path fill-rule="evenodd" clip-rule="evenodd" d="M19.8012 22.0834C19.8853 22.071 19.9486 22.1425 19.9425 22.2428C19.9365 22.343 19.8635 22.4345 19.7794 22.4469C19.6954 22.4593 19.6321 22.3878 19.6381 22.2876C19.6442 22.1874 19.7171 22.0959 19.8012 22.0834Z" fill="#2B9C76"/>
<path fill-rule="evenodd" clip-rule="evenodd" d="M20.1994 21.6862C20.2663 21.6764 20.3164 21.733 20.3116 21.8124C20.3068 21.8919 20.2488 21.9645 20.182 21.9746C20.1152 21.9844 20.0651 21.9279 20.0699 21.8484C20.0746 21.7689 20.1326 21.6964 20.1994 21.6862Z" fill="#2B9C76"/>
<path fill-rule="evenodd" clip-rule="evenodd" d="M19.1742 22.6597C19.2392 22.6422 19.2956 22.6925 19.2999 22.7724C19.3043 22.852 19.2554 22.9309 19.1905 22.9483C19.1255 22.9658 19.069 22.9155 19.0647 22.8355C19.0604 22.7561 19.1093 22.6771 19.1742 22.6597Z" fill="#2B9C76"/>
<path fill-rule="evenodd" clip-rule="evenodd" d="M16.027 25.9803C15.7086 25.7053 15.2489 25.7795 14.6478 26.203C14.8507 26.4152 14.9522 26.5213 14.9522 26.5213C14.7304 26.5237 14.6194 26.5244 14.6194 26.5244C14.6048 26.6249 14.6314 26.7271 14.6931 26.8082C14.7548 26.8892 14.8466 26.9429 14.948 26.9564C14.948 26.9564 14.9886 26.8914 15.0698 26.761C15.153 27.0733 15.2697 27.1649 15.421 27.0361C15.9501 26.6708 16.2112 26.3803 16.2042 26.1638C16.3176 26.0558 16.2582 25.995 16.027 25.9803Z" fill="#1C966D"/>
<path fill-rule="evenodd" clip-rule="evenodd" d="M13.6592 19.9304C13.449 19.6613 13.0698 19.649 12.5228 19.8924C12.651 20.0933 12.7154 20.1936 12.7154 20.1936C12.5381 20.1607 12.4489 20.1442 12.4489 20.1442C12.4214 20.2218 12.4262 20.3076 12.4627 20.3818C12.4993 20.4559 12.564 20.513 12.6427 20.5399C12.6427 20.5399 12.6853 20.4944 12.771 20.4034C12.7875 20.6653 12.8665 20.7562 13.0076 20.6771C13.4875 20.4688 13.742 20.278 13.771 20.1046C13.8786 20.0362 13.8416 19.9783 13.6592 19.9304Z" fill="#1C966D"/>
<path fill-rule="evenodd" clip-rule="evenodd" d="M16.4111 16.5474C16.351 16.3325 16.1239 16.2315 15.7305 16.2431C15.7579 16.3963 15.7717 16.4727 15.7717 16.4727C15.672 16.4088 15.6223 16.3767 15.6223 16.3767C15.586 16.417 15.5677 16.4699 15.5711 16.5239C15.5744 16.578 15.5994 16.6283 15.6407 16.6642C15.6407 16.6642 15.6782 16.6474 15.7525 16.6136C15.697 16.7761 15.7223 16.8509 15.8274 16.838C16.1713 16.8309 16.3735 16.7783 16.435 16.6806C16.5173 16.6657 16.5099 16.6217 16.4111 16.5474Z" fill="#1C966D"/>
<path d="M16.174 23.2125C16.1737 23.1236 16.2462 23.052 16.3353 23.0522C16.4244 23.0524 16.4973 23.1244 16.4975 23.2134C16.4978 23.3023 16.4253 23.374 16.3362 23.3737C16.2471 23.3735 16.1741 23.3011 16.174 23.2125Z" fill="white"/>
<path d="M16.4918 22.7915C16.6632 22.7919 16.8184 22.8614 16.9309 22.9732C17.0435 23.0851 17.1134 23.2392 17.114 23.4094C17.1144 23.5797 17.0453 23.7335 16.9333 23.8444C16.8214 23.9552 16.6665 24.0243 16.4952 24.0239C16.3238 24.0235 16.1686 23.954 16.056 23.8422C15.9435 23.7304 15.8735 23.5762 15.873 23.4064C15.8726 23.2366 15.9417 23.0823 16.0536 22.9711C16.1656 22.8598 16.3204 22.7911 16.4918 22.7915ZM16.1204 23.7782C16.2166 23.8737 16.349 23.9328 16.4949 23.9331C16.6409 23.9335 16.7729 23.8751 16.8686 23.7801C16.9643 23.6851 17.023 23.5537 17.0226 23.4088C17.0222 23.2638 16.9628 23.1322 16.8666 23.0368C16.7704 22.9412 16.638 22.8822 16.4921 22.8818C16.3462 22.8815 16.214 22.9398 16.1184 23.0348C16.0228 23.13 15.964 23.2612 15.9644 23.4062C15.9648 23.5511 16.0242 23.6827 16.1204 23.7782Z" fill="white"/>
<path d="M16.1825 23.374C16.228 23.3741 16.2649 23.4108 16.2651 23.4559C16.2651 23.5012 16.2284 23.5376 16.183 23.5375C16.1375 23.5374 16.1006 23.5007 16.1005 23.4556C16.1003 23.4104 16.137 23.3739 16.1825 23.374Z" fill="white"/>
<path d="M18.3105 22.5212C18.3105 22.4711 18.3512 22.4306 18.4017 22.4307C18.4521 22.4308 18.4932 22.4715 18.4933 22.5217C18.4934 22.5718 18.4526 22.6124 18.4022 22.6122C18.3517 22.6121 18.3107 22.5714 18.3105 22.5212Z" fill="white"/>
<path d="M18.3101 22.6079C18.3356 22.608 18.3566 22.6288 18.3567 22.6541C18.3568 22.6794 18.3358 22.7001 18.3104 22.7C18.2849 22.7 18.264 22.6791 18.2639 22.6538C18.2638 22.6286 18.2847 22.6078 18.3101 22.6079Z" fill="white"/>
<path d="M18.4861 22.2798C18.5824 22.28 18.6698 22.3191 18.7331 22.382C18.7965 22.445 18.8358 22.5318 18.8361 22.6275C18.8364 22.7232 18.7975 22.8099 18.7345 22.8724C18.6715 22.9351 18.5843 22.9737 18.4879 22.9735C18.3916 22.9732 18.3042 22.9342 18.2408 22.8712C18.1775 22.8083 18.1382 22.7215 18.1379 22.6258C18.1377 22.53 18.1765 22.4434 18.2395 22.3808C18.3025 22.3182 18.3897 22.2795 18.4861 22.2798ZM18.2766 22.8357C18.3309 22.8895 18.4055 22.9226 18.4878 22.9229C18.5701 22.9231 18.6446 22.8903 18.6985 22.8367C18.7525 22.7831 18.7854 22.7091 18.7852 22.6273C18.785 22.5456 18.7516 22.4715 18.6973 22.4176C18.6431 22.3637 18.5684 22.3306 18.4862 22.3304C18.4039 22.3302 18.3295 22.363 18.2755 22.4165C18.2216 22.4702 18.1886 22.5441 18.1888 22.6258C18.189 22.7077 18.2225 22.7818 18.2766 22.8357Z" fill="white"/>
<path d="M14.3253 24.551C14.3252 24.5009 14.366 24.4604 14.4165 24.4604C14.4669 24.4606 14.5079 24.5014 14.5081 24.5515C14.5082 24.6017 14.4674 24.6422 14.4169 24.642C14.3665 24.6419 14.3255 24.6011 14.3253 24.551Z" fill="white"/>
<path d="M14.5006 24.3096C14.597 24.3098 14.6844 24.3489 14.7477 24.4119C14.8111 24.4748 14.8504 24.5616 14.8506 24.6573C14.8509 24.753 14.812 24.8396 14.749 24.9023C14.686 24.9649 14.5988 25.0035 14.5025 25.0033C14.4061 25.003 14.3187 24.964 14.2554 24.9011C14.192 24.8381 14.1527 24.7513 14.1525 24.6555C14.1522 24.5598 14.1911 24.4732 14.2541 24.4106C14.3171 24.348 14.4042 24.3094 14.5006 24.3096ZM14.2912 24.8655C14.3454 24.9194 14.42 24.9524 14.5024 24.9527C14.5846 24.9529 14.6591 24.9201 14.713 24.8665C14.767 24.8129 14.8 24.7389 14.7997 24.6572C14.7995 24.5754 14.7661 24.5013 14.7119 24.4474C14.6576 24.3936 14.583 24.3604 14.5007 24.3601C14.4185 24.36 14.344 24.3928 14.2901 24.4463C14.2361 24.5 14.2031 24.5739 14.2034 24.6557C14.2036 24.7374 14.237 24.8116 14.2912 24.8655Z" fill="white"/>
<path d="M14.3249 24.6387C14.3502 24.6388 14.3712 24.6596 14.3713 24.6849C14.3714 24.7102 14.3505 24.7309 14.325 24.7308C14.2996 24.7307 14.2787 24.7099 14.2786 24.6846C14.2785 24.6593 14.2994 24.6386 14.3249 24.6387Z" fill="white"/>
<path d="M18.498 20.9336C18.5141 20.9336 18.5274 20.9468 18.5274 20.9628C18.5275 20.9788 18.5143 20.9919 18.4982 20.9919C18.4821 20.9918 18.4688 20.9787 18.4688 20.9626C18.4687 20.9466 18.4819 20.9335 18.498 20.9336Z" fill="white"/>
<path d="M18.5007 20.8742C18.5006 20.8424 18.5265 20.8168 18.5584 20.8169C18.5903 20.817 18.6163 20.8427 18.6164 20.8745C18.6165 20.9062 18.5907 20.9319 18.5587 20.9318C18.5268 20.9317 18.5008 20.9059 18.5007 20.8742Z" fill="white"/>
<path d="M18.614 20.7275C18.675 20.7277 18.7303 20.7525 18.7704 20.7923C18.8105 20.8321 18.8354 20.8871 18.8356 20.9477C18.8357 21.0082 18.8111 21.0631 18.7712 21.1027C18.7313 21.1423 18.6762 21.1668 18.6152 21.1666C18.5542 21.1664 18.4989 21.1418 18.4588 21.102C18.4187 21.0621 18.3938 21.0072 18.3937 20.9466C18.3935 20.8859 18.4181 20.8311 18.458 20.7915C18.4978 20.7519 18.553 20.7275 18.614 20.7275ZM18.4814 21.0794C18.5158 21.1135 18.563 21.1345 18.6151 21.1346C18.6672 21.1348 18.7143 21.114 18.7484 21.0801C18.7826 21.0461 18.8034 20.9993 18.8034 20.9476C18.8032 20.8958 18.7821 20.8489 18.7477 20.8148C18.7134 20.7807 18.6662 20.7597 18.6141 20.7596C18.562 20.7595 18.5149 20.7802 18.4807 20.8142C18.4466 20.8481 18.4257 20.8949 18.4259 20.9466C18.426 20.9984 18.4471 21.0453 18.4814 21.0794Z" fill="white"/>
<path d="M19.6733 19.771C19.7047 19.7711 19.7305 19.7967 19.7306 19.828C19.7307 19.8591 19.7049 19.8847 19.6735 19.8846C19.6422 19.8845 19.6163 19.8588 19.6162 19.8276C19.6161 19.7965 19.6418 19.7709 19.6733 19.771Z" fill="white"/>
<path d="M19.6626 19.6644C19.6624 19.6026 19.7127 19.5526 19.7749 19.5527C19.8372 19.5529 19.8878 19.6031 19.888 19.665C19.8882 19.7268 19.8379 19.7768 19.7756 19.7766C19.7133 19.7765 19.6628 19.7262 19.6626 19.6644Z" fill="white"/>
<path d="M19.888 19.374C20.0068 19.3743 20.1146 19.4225 20.1927 19.5001C20.2709 19.5777 20.3194 19.6847 20.3196 19.8028C20.32 19.9209 20.272 20.0277 20.1943 20.1049C20.1166 20.1822 20.0092 20.2298 19.8903 20.2295C19.7714 20.2292 19.6637 20.181 19.5856 20.1034C19.5074 20.0258 19.459 19.9187 19.4586 19.8007C19.4583 19.6826 19.5062 19.5758 19.5839 19.4985C19.6616 19.4214 19.7692 19.3737 19.888 19.374ZM19.6298 20.0595C19.6966 20.126 19.7887 20.1669 19.8902 20.1671C19.9916 20.1674 20.0835 20.1269 20.15 20.0608C20.2165 19.9947 20.2571 19.9035 20.2569 19.8027C20.2566 19.7019 20.2154 19.6104 20.1486 19.544C20.0816 19.4775 19.9896 19.4367 19.8882 19.4364C19.7867 19.4362 19.6949 19.4766 19.6284 19.5426C19.5618 19.6088 19.5211 19.7001 19.5214 19.8009C19.5217 19.9017 19.5628 19.9931 19.6298 20.0595Z" fill="white"/>
<path d="M20.1955 18.1445C20.2103 18.1445 20.2227 18.1568 20.2227 18.1716C20.2228 18.1864 20.2105 18.1985 20.1956 18.1985C20.1807 18.1984 20.1684 18.1863 20.1683 18.1715C20.1683 18.1566 20.1805 18.1444 20.1955 18.1445Z" fill="white"/>
<path d="M20.1909 18.0878C20.1908 18.0584 20.2147 18.0346 20.2444 18.0347C20.274 18.0348 20.298 18.0586 20.2981 18.088C20.2981 18.1174 20.2742 18.1412 20.2446 18.1412C20.2151 18.1411 20.191 18.1172 20.1909 18.0878Z" fill="white"/>
<path d="M20.2984 17.9521C20.3548 17.9523 20.4061 17.9752 20.4432 18.0121C20.4804 18.049 20.5034 18.0999 20.5036 18.156C20.5037 18.2121 20.4809 18.2629 20.444 18.2996C20.4071 18.3364 20.356 18.359 20.2994 18.3588C20.2429 18.3587 20.1917 18.3358 20.1546 18.2989C20.1174 18.262 20.0944 18.2111 20.0942 18.155C20.0941 18.0989 20.1168 18.048 20.1538 18.0114C20.1908 17.9746 20.2419 17.9521 20.2984 17.9521ZM20.1755 18.2781C20.2074 18.3097 20.2511 18.3291 20.2993 18.3292C20.3476 18.3293 20.3912 18.3101 20.4229 18.2787C20.4545 18.2472 20.4738 18.2039 20.4737 18.1559C20.4736 18.108 20.454 18.0646 20.4222 18.033C20.3904 18.0014 20.3467 17.9819 20.2984 17.9818C20.2502 17.9817 20.2065 18.0009 20.1749 18.0324C20.1432 18.0638 20.1239 18.1071 20.1241 18.1551C20.1242 18.203 20.1438 18.2465 20.1755 18.2781Z" fill="white"/>
<path d="M18.9919 16.9824C19.0221 16.9825 19.047 17.0072 19.0471 17.0372C19.0472 17.0672 19.0224 17.0918 18.9922 17.0917C18.962 17.0916 18.9371 17.0669 18.937 17.0369C18.9369 17.0069 18.9617 16.9823 18.9919 16.9824Z" fill="white"/>
<path d="M18.9875 16.8775C18.9874 16.818 19.0358 16.7699 19.0957 16.77C19.1555 16.7702 19.2042 16.8186 19.2044 16.8781C19.2046 16.9375 19.1562 16.9856 19.0962 16.9855C19.0364 16.9854 18.9877 16.937 18.9875 16.8775Z" fill="white"/>
<path d="M19.2 16.5986C19.3143 16.599 19.418 16.6453 19.4932 16.72C19.5683 16.7946 19.6151 16.8976 19.6153 17.0113C19.6157 17.1249 19.5696 17.2277 19.4947 17.302C19.42 17.3762 19.3166 17.4221 19.2022 17.4217C19.0879 17.4215 18.9842 17.3751 18.909 17.3005C18.8339 17.2258 18.7871 17.1228 18.7869 17.0092C18.7865 16.8956 18.8326 16.7928 18.9074 16.7185C18.9822 16.6442 19.0856 16.5984 19.2 16.5986ZM18.9515 17.2582C19.0159 17.3222 19.1044 17.3615 19.2021 17.3617C19.2997 17.362 19.388 17.3231 19.452 17.2595C19.516 17.1959 19.5552 17.1081 19.5549 17.0111C19.5547 16.9141 19.515 16.8261 19.4506 16.7622C19.3863 16.6983 19.2978 16.6589 19.2001 16.6587C19.1025 16.6585 19.0142 16.6973 18.9501 16.7609C18.8861 16.8246 18.847 16.9123 18.8472 17.0094C18.8475 17.1063 18.8871 17.1943 18.9515 17.2582Z" fill="white"/>
<path d="M18.0994 16.1758C18.1129 16.1758 18.1241 16.1869 18.1241 16.2004C18.1241 16.2138 18.113 16.225 18.0995 16.2249C18.0859 16.2249 18.0747 16.2138 18.0747 16.2003C18.0746 16.1868 18.0857 16.1757 18.0994 16.1758Z" fill="white"/>
<path d="M18.0952 16.1348C18.0951 16.108 18.1169 16.0864 18.1438 16.0864C18.1707 16.0865 18.1926 16.1083 18.1927 16.135C18.1928 16.1618 18.171 16.1834 18.144 16.1833C18.1172 16.1833 18.0953 16.1615 18.0952 16.1348Z" fill="white"/>
<path d="M18.1909 16.0044C18.2423 16.0046 18.2889 16.0254 18.3227 16.0589C18.3564 16.0925 18.3774 16.1388 18.3775 16.1899C18.3777 16.2409 18.357 16.2871 18.3234 16.3205C18.2898 16.354 18.2432 16.3745 18.1919 16.3744C18.1405 16.3743 18.0939 16.3534 18.0601 16.3199C18.0262 16.2863 18.0053 16.24 18.0051 16.1889C18.005 16.1379 18.0257 16.0917 18.0594 16.0583C18.093 16.0249 18.1394 16.0043 18.1909 16.0044ZM18.0792 16.3009C18.1081 16.3296 18.1479 16.3473 18.1918 16.3475C18.2357 16.3476 18.2754 16.3301 18.3042 16.3015C18.3329 16.2728 18.3505 16.2334 18.3504 16.1898C18.3503 16.1462 18.3325 16.1067 18.3036 16.0779C18.2746 16.0492 18.2348 16.0315 18.1909 16.0313C18.1471 16.0313 18.1073 16.0488 18.0785 16.0774C18.0498 16.106 18.0322 16.1454 18.0323 16.189C18.0324 16.2326 18.0502 16.2721 18.0792 16.3009Z" fill="white"/>
<path d="M17.0774 15.061C17.1041 15.0611 17.1261 15.0829 17.1261 15.1095C17.1262 15.136 17.1043 15.1578 17.0776 15.1577C17.0509 15.1576 17.0289 15.1358 17.0288 15.1092C17.0287 15.0827 17.0506 15.0609 17.0774 15.061Z" fill="white"/>
<path d="M17.0712 14.972C17.071 14.9194 17.1139 14.8769 17.1668 14.877C17.2197 14.8771 17.2629 14.9198 17.263 14.9725C17.2631 15.0251 17.2203 15.0677 17.1673 15.0675C17.1144 15.0674 17.0713 15.0247 17.0712 14.972Z" fill="white"/>
<path d="M17.2587 14.7188C17.3598 14.719 17.4515 14.7601 17.518 14.8261C17.5845 14.8922 17.6258 14.9833 17.6261 15.0838C17.6264 15.1843 17.5856 15.2752 17.5194 15.341C17.4533 15.4067 17.3618 15.4472 17.2606 15.4469C17.1595 15.4467 17.0678 15.4057 17.0013 15.3397C16.9348 15.2736 16.8935 15.1825 16.8932 15.082C16.8929 14.9814 16.9337 14.8905 16.9999 14.8248C17.066 14.7591 17.1575 14.7186 17.2587 14.7188ZM17.0389 15.3023C17.0958 15.3588 17.1742 15.3936 17.2605 15.3939C17.3469 15.3941 17.425 15.3597 17.4816 15.3034C17.5383 15.2471 17.5729 15.1695 17.5727 15.0836C17.5725 14.9979 17.5374 14.92 17.4805 14.8635C17.4235 14.8069 17.3452 14.7721 17.2589 14.7719C17.1725 14.7717 17.0943 14.8061 17.0377 14.8623C16.981 14.9186 16.9464 14.9963 16.9467 15.0821C16.9469 15.1679 16.9819 15.2458 17.0389 15.3023Z" fill="white"/>
<path d="M15.6405 14.2202C15.6529 14.2202 15.6631 14.2305 15.6632 14.2429C15.6632 14.2552 15.653 14.2654 15.6405 14.2654C15.6281 14.2653 15.6178 14.2551 15.6178 14.2427C15.6177 14.2304 15.6279 14.2202 15.6405 14.2202Z" fill="white"/>
<path d="M15.6351 14.1757C15.6351 14.1511 15.6551 14.1313 15.6798 14.1313C15.7045 14.1314 15.7246 14.1514 15.7247 14.1759C15.7247 14.2005 15.7048 14.2203 15.68 14.2202C15.6553 14.2202 15.6352 14.2003 15.6351 14.1757Z" fill="white"/>
<path d="M15.7246 14.0562C15.7718 14.0562 15.8147 14.0754 15.8456 14.1062C15.8767 14.1371 15.8959 14.1795 15.8961 14.2264C15.8962 14.2733 15.8772 14.3158 15.8463 14.3465C15.8154 14.3772 15.7727 14.3961 15.7255 14.3959C15.6783 14.3958 15.6355 14.3767 15.6045 14.3459C15.5734 14.3151 15.5542 14.2725 15.5541 14.2256C15.5539 14.1787 15.573 14.1363 15.6039 14.1056C15.6347 14.075 15.6774 14.0561 15.7246 14.0562ZM15.6221 14.3285C15.6486 14.3548 15.6852 14.3711 15.7255 14.3712C15.7657 14.3712 15.8022 14.3552 15.8287 14.329C15.8551 14.3027 15.8713 14.2664 15.8712 14.2264C15.871 14.1864 15.8546 14.15 15.8281 14.1236C15.8015 14.0973 15.765 14.081 15.7247 14.0809C15.6844 14.0808 15.6479 14.0968 15.6215 14.1232C15.595 14.1494 15.5789 14.1857 15.579 14.2257C15.5791 14.2657 15.5955 14.302 15.6221 14.3285Z" fill="white"/>
<path d="M14.9089 13.3389C14.9214 13.3389 14.9316 13.3491 14.9316 13.3614C14.9317 13.3739 14.9215 13.384 14.9091 13.384C14.8966 13.3839 14.8863 13.3738 14.8862 13.3614C14.8862 13.349 14.8965 13.3389 14.9089 13.3389Z" fill="white"/>
<path d="M14.9038 13.2939C14.9037 13.2693 14.9238 13.2494 14.9484 13.2495C14.9732 13.2495 14.9932 13.2695 14.9933 13.294C14.9934 13.3186 14.9735 13.3385 14.9487 13.3384C14.924 13.3384 14.9039 13.3184 14.9038 13.2939Z" fill="white"/>
<path d="M14.9931 13.1743C15.0403 13.1744 15.0831 13.1936 15.1141 13.2244C15.1452 13.2552 15.1645 13.2977 15.1645 13.3446C15.1647 13.3915 15.1456 13.4339 15.1148 13.4646C15.084 13.4953 15.0413 13.5143 14.994 13.5141C14.9468 13.514 14.904 13.4948 14.873 13.464C14.8419 13.4332 14.8227 13.3907 14.8225 13.3438C14.8224 13.2969 14.8415 13.2545 14.8723 13.2238C14.9032 13.1931 14.9459 13.1741 14.9931 13.1743ZM14.8905 13.4466C14.9171 13.473 14.9537 13.4892 14.9939 13.4893C15.0343 13.4894 15.0707 13.4734 15.0972 13.4471C15.1236 13.4208 15.1397 13.3846 15.1396 13.3446C15.1395 13.3045 15.1232 13.2682 15.0966 13.2418C15.07 13.2154 15.0335 13.1992 14.9931 13.1991C14.9529 13.199 14.9164 13.215 14.89 13.2413C14.8635 13.2676 14.8474 13.3038 14.8474 13.3438C14.8476 13.3839 14.864 13.4202 14.8905 13.4466Z" fill="white"/>
<path d="M13.4498 12.4976C13.4902 12.4976 13.5235 12.5307 13.5236 12.5708C13.5237 12.611 13.4906 12.6439 13.4502 12.6438C13.4098 12.6436 13.3766 12.6106 13.3765 12.5704C13.3764 12.5304 13.4095 12.4975 13.4498 12.4976Z" fill="white"/>
<path d="M13.4391 12.354C13.4388 12.2746 13.5036 12.2103 13.5836 12.2104C13.6636 12.2106 13.7287 12.2753 13.7289 12.3548C13.7292 12.4343 13.6644 12.4986 13.5843 12.4984C13.5044 12.4982 13.4393 12.4336 13.4391 12.354Z" fill="white"/>
<path d="M13.7217 11.9766C13.8746 11.9769 14.0132 12.0389 14.1137 12.1387C14.2142 12.2385 14.2766 12.3763 14.277 12.5281C14.2774 12.68 14.2158 12.8174 14.1158 12.9167C14.0158 13.016 13.8776 13.0773 13.7247 13.0769C13.5718 13.0765 13.4332 13.0146 13.3328 12.9147C13.2323 12.8149 13.1699 12.6773 13.1694 12.5254C13.1691 12.3735 13.2307 12.2361 13.3306 12.1368C13.4306 12.0375 13.5689 11.9762 13.7217 11.9766ZM13.3896 12.8583C13.4756 12.9438 13.594 12.9964 13.7245 12.9966C13.855 12.997 13.9731 12.945 14.0587 12.86C14.1443 12.7749 14.1966 12.6576 14.1962 12.5279C14.1959 12.3982 14.143 12.2806 14.0569 12.1951C13.9708 12.1097 13.8525 12.0572 13.722 12.0568C13.5914 12.0565 13.4733 12.1085 13.3877 12.1935C13.3022 12.2785 13.2498 12.3959 13.2502 12.5255C13.2505 12.6552 13.3036 12.7728 13.3896 12.8583Z" fill="white"/>
<g style="mix-blend-mode:hue">
<path d="M-153.048 686.963C-309.783 702.835 -523.724 559.121 -542.084 397.06C-560.445 235 -497.968 58.9605 -341.233 43.0883C-184.498 27.2159 58.5354 104.074 76.8955 266.134C95.256 428.195 3.68616 671.09 -153.048 686.963Z" fill="#075A5A"/>
</g>
<g style="mix-blend-mode:saturation">
<path d="M-153.048 686.963C-309.783 702.835 -523.724 559.121 -542.084 397.06C-560.445 235 -497.968 58.9605 -341.233 43.0883C-184.498 27.2159 58.5354 104.074 76.8955 266.134C95.256 428.195 3.68616 671.09 -153.048 686.963Z" fill="#075A5A"/>
</g>
</g>
</g>
</g>
</g>
<circle cx="18.5" cy="18.5" r="17.5" stroke="#1BE3C2" stroke-width="2"/>
<rect x="0.110962" y="22.5127" width="19.999" height="14" rx="7" fill="url(#paint3_radial_4829_5442)"/>
<path d="M4.75012 33.3129L5.84769 26.7017H7.24548L6.3416 32.1605H9.17591L8.98222 33.3129H4.75012Z" fill="white"/>
<path d="M9.9079 33.3129L11.0055 26.7017H13.6138C14.1131 26.7017 14.5231 26.7974 14.8437 26.989C15.1665 27.1784 15.3925 27.442 15.5216 27.7799C15.6529 28.1156 15.6831 28.503 15.612 28.942C15.5389 29.3832 15.3796 29.7716 15.1343 30.1074C14.8911 30.4409 14.5747 30.7013 14.1852 30.8886C13.7957 31.0758 13.3459 31.1694 12.8358 31.1694H11.1733L11.3573 30.0493H12.7939C13.065 30.0493 13.2964 30.003 13.4879 29.9104C13.6816 29.8157 13.8355 29.6855 13.9495 29.5198C14.0636 29.352 14.1378 29.1594 14.1723 28.942C14.2089 28.7203 14.197 28.5277 14.1368 28.3642C14.0765 28.2006 13.9657 28.0736 13.8043 27.9832C13.645 27.8907 13.4309 27.8444 13.1619 27.8444H12.2193L11.3057 33.3129H9.9079Z" fill="white"/>
<circle cx="28.7838" cy="28.7837" r="7.78377" fill="black" stroke="#363232" stroke-width="0.432432"/>
<path d="M30.4378 23.2752L28.729 24.242C28.1114 24.5914 28.0564 25.4603 28.6251 25.8848L30.3698 27.187C30.7251 27.4522 30.6909 27.9951 30.3051 28.2136L28.7308 29.1051C28.1127 29.4551 28.0587 30.325 28.6286 30.7488L30.2896 31.9839C30.462 32.112 30.5636 32.3142 30.5636 32.5289V32.5798C30.5636 32.7361 30.7324 32.8342 30.8682 32.7568L32.5859 31.7778C33.2039 31.4255 33.2545 30.5538 32.6815 30.1324L30.9381 28.8502C30.5802 28.587 30.6116 28.0425 30.9974 27.8222L32.5891 26.9128C33.2061 26.5604 33.2566 25.6898 32.6844 25.2684L31.0183 24.0412C30.8445 23.9132 30.7419 23.7102 30.7419 23.4943V23.4526C30.7419 23.2965 30.5736 23.1984 30.4378 23.2752Z" fill="#075A5A"/>
<path d="M26.6908 24.8104L24.9821 25.7771C24.3645 26.1266 24.3095 26.9955 24.8782 27.4199L26.6228 28.7221C26.9782 28.9873 26.944 29.5302 26.5581 29.7487L24.9838 30.6403C24.3658 30.9903 24.3117 31.8601 24.8817 32.2839L26.5427 33.519C26.715 33.6472 26.8166 33.8493 26.8166 34.0641V34.1149C26.8166 34.2713 26.9854 34.3694 27.1213 34.292L28.839 33.3129C29.4569 32.9607 29.5076 32.089 28.9346 31.6676L27.1912 30.3853C26.8333 30.1221 26.8646 29.5777 27.2504 29.3573L28.8421 28.448C29.4591 28.0955 29.5096 27.225 28.9375 26.8035L27.2713 25.5763C27.0975 25.4483 26.9949 25.2453 26.9949 25.0295V24.9878C26.9949 24.8317 26.8266 24.7336 26.6908 24.8104Z" fill="#075A5A"/>
<defs>
<filter id="filter0_di_4829_5442" x="-3.55016" y="-6.70164" width="70.136" height="71.553" filterUnits="userSpaceOnUse" color-interpolation-filters="sRGB">
<feFlood flood-opacity="0" result="BackgroundImageFix"/>
<feColorMatrix in="SourceAlpha" type="matrix" values="0 0 0 0 0 0 0 0 0 0 0 0 0 0 0 0 0 0 127 0" result="hardAlpha"/>
<feOffset dy="3.46302"/>
<feGaussianBlur stdDeviation="7.7918"/>
<feComposite in2="hardAlpha" operator="out"/>
<feColorMatrix type="matrix" values="0 0 0 0 0.566667 0 0 0 0 0.566667 0 0 0 0 0.566667 0 0 0 0.25 0"/>
<feBlend mode="normal" in2="BackgroundImageFix" result="effect1_dropShadow_4829_5442"/>
<feBlend mode="normal" in="SourceGraphic" in2="effect1_dropShadow_4829_5442" result="shape"/>
<feColorMatrix in="SourceAlpha" type="matrix" values="0 0 0 0 0 0 0 0 0 0 0 0 0 0 0 0 0 0 127 0" result="hardAlpha"/>
<feOffset dy="2.47359"/>
<feGaussianBlur stdDeviation="1.48416"/>
<feComposite in2="hardAlpha" operator="arithmetic" k2="-1" k3="1"/>
<feColorMatrix type="matrix" values="0 0 0 0 1 0 0 0 0 1 0 0 0 0 1 0 0 0 0.25 0"/>
<feBlend mode="normal" in2="shape" result="effect2_innerShadow_4829_5442"/>
</filter>
<linearGradient id="paint0_linear_4829_5442" x1="48.0034" y1="23.7101" x2="12.2415" y2="27.7616" gradientUnits="userSpaceOnUse">
<stop stop-color="#075A5A"/>
<stop offset="1" stop-color="#136969"/>
</linearGradient>
<linearGradient id="paint1_linear_4829_5442" x1="48.0034" y1="23.7101" x2="12.2415" y2="27.7616" gradientUnits="userSpaceOnUse">
<stop stop-color="#075A5A"/>
<stop offset="1" stop-color="#136969"/>
</linearGradient>
<linearGradient id="paint2_linear_4829_5442" x1="16.0551" y1="10.6845" x2="8.81674" y2="28.8491" gradientUnits="userSpaceOnUse">
<stop stop-color="white"/>
<stop offset="1" stop-color="white" stop-opacity="0"/>
</linearGradient>
<radialGradient id="paint3_radial_4829_5442" cx="0" cy="0" r="1" gradientUnits="userSpaceOnUse" gradientTransform="translate(10.1105 29.5127) rotate(-180) scale(13.1812 25.64)">
<stop stop-color="#090D18"/>
<stop offset="0.5" stop-color="#090D18" stop-opacity="0.505208"/>
<stop offset="1" stop-color="#090D18" stop-opacity="0"/>
</radialGradient>
<clipPath id="clip0_4829_5442">
<rect width="35" height="35" fill="white" transform="translate(1 1)"/>
</clipPath>
</defs>
</svg>
