<svg width="512" height="512" viewBox="0 0 512 512" fill="none" xmlns="http://www.w3.org/2000/svg">
<g clip-path="url(#clip0_885_682)">
<path d="M512 0H0V512H512V0Z" fill="#072320"/>
<path d="M465.886 256.075C465.886 304.531 421.971 343.907 368.047 343.907C324.295 343.907 273.707 289.654 256.043 268.927V243.224C273.707 222.497 324.295 168.244 368.047 168.244C421.971 168.244 465.886 207.675 465.886 256.075Z" fill="url(#paint0_linear_885_682)"/>
<path d="M256.043 243.224V268.927C238.378 289.654 187.791 343.907 144.094 343.907C90.1153 343.907 46.1997 304.531 46.1997 256.075C46.1997 207.621 90.1153 168.244 144.094 168.244C187.791 168.244 238.378 222.497 256.043 243.224Z" fill="url(#paint1_linear_885_682)"/>
<path d="M46.2002 255.912C42.3719 203.848 94.108 163.595 144.039 166.112C170.235 168.135 191.674 183.284 211.362 198.597C249.261 228.239 274.091 270.568 310.896 300.975C327.687 315.085 347.265 329.578 368.977 332.586C414.04 336.851 462.604 304.038 465.777 255.912C470.917 321.758 386.204 368.408 331.295 334.117C301.49 317.601 277.153 293.702 255.114 268.162C238.816 247.489 220.933 227.801 201.081 210.848C184.291 196.738 164.712 182.245 142.946 179.237C97.8816 174.971 49.3175 207.785 46.1455 255.912H46.2002Z" fill="#80FCE0"/>
</g>
<defs>
<linearGradient id="paint0_linear_885_682" x1="425.743" y1="187.112" x2="326.428" y2="305.406" gradientUnits="userSpaceOnUse">
<stop stop-color="#80FCE0"/>
<stop offset="1" stop-color="#072320"/>
</linearGradient>
<linearGradient id="paint1_linear_885_682" x1="105.373" y1="331.055" x2="179.532" y2="202.589" gradientUnits="userSpaceOnUse">
<stop stop-color="#80FCE0"/>
<stop offset="1" stop-color="#072320"/>
</linearGradient>
<clipPath id="clip0_885_682">
<rect width="512" height="512" fill="white"/>
</clipPath>
</defs>
</svg>
