<svg width="256" height="256" viewBox="0 0 256 256" fill="none" xmlns="http://www.w3.org/2000/svg">
<g clip-path="url(#clip0_234_308)">
<path d="M128 256C57.344 256 0 198.656 0 128C0 57.344 57.344 0 128 0C198.656 0 256 57.344 256 128C256 198.656 198.656 256 128 256Z" fill="white"/>
<path d="M135.936 172.288V188.672H120.064V171.52C102.656 168.96 89.8562 158.72 88.8322 144.64H106.496C108.288 152.832 118.016 157.952 130.304 157.952C141.824 157.952 150.016 153.088 150.016 146.432C150.016 126.208 89.8562 146.688 89.8562 107.776C89.8562 94.4642 102.4 85.5042 120.064 83.9682V67.0722H135.936V84.2242C153.088 86.7842 164.608 96.5122 165.888 109.568H148.224C146.688 102.912 137.728 97.5362 126.72 97.5362C114.688 97.5362 107.008 102.144 107.008 108.032C107.008 126.976 167.168 107.264 167.168 146.688C167.168 160 155.648 170.752 135.936 172.288ZM128 231.424C70.9122 231.424 24.5762 185.088 24.5762 128C24.5762 70.9122 70.9122 24.5762 128 24.5762C185.088 24.5762 231.424 70.9122 231.424 128C231.424 185.088 185.088 231.424 128 231.424ZM128 35.8402C77.0562 35.8402 35.8402 77.0562 35.8402 128C35.8402 178.944 77.3122 220.16 128 220.16C178.688 220.16 220.16 178.688 220.16 128C220.16 77.0562 178.944 35.8402 128 35.8402Z" fill="#15171A"/>
</g>
<defs>
<clipPath id="clip0_234_308">
<rect width="256" height="256" fill="white"/>
</clipPath>
</defs>
</svg>
