<svg width="20" height="20" viewBox="0 0 20 20" fill="none" xmlns="http://www.w3.org/2000/svg">
<g clip-path="url(#clip0_145_8711)">
<path d="M9.91167 19.7158C15.2145 19.7158 19.4806 15.4497 19.4806 10.1469C19.4806 4.84409 15.2145 0.577988 9.91167 0.577988C4.60887 0.577988 0.342773 4.84409 0.342773 10.1469C0.342773 15.4497 4.60887 19.7158 9.91167 19.7158Z" fill="#2775CA"/>
<path d="M12.5428 11.6619C12.5428 10.2665 11.7055 9.78805 10.031 9.58873C8.83485 9.42922 8.59563 9.11029 8.59563 8.55204C8.59563 7.99379 8.99436 7.63505 9.79174 7.63505C10.5094 7.63505 10.9081 7.87427 11.1075 8.47233C11.1474 8.59194 11.267 8.67165 11.3866 8.67165H12.0244C12.184 8.67165 12.3036 8.55204 12.3036 8.39262V8.35272C12.1441 7.47554 11.4264 6.79777 10.5094 6.71806V5.76117C10.5094 5.60166 10.3898 5.48205 10.1905 5.44215H9.59242C9.43291 5.44215 9.31329 5.56176 9.27339 5.76117V6.67816C8.07728 6.83767 7.31981 7.63505 7.31981 8.63184C7.31981 9.94756 8.11718 10.4658 9.79174 10.6652C10.9081 10.8646 11.267 11.1038 11.267 11.7417C11.267 12.3797 10.7087 12.8182 9.95125 12.8182C8.91456 12.8182 8.55573 12.3796 8.43611 11.7815C8.39631 11.6221 8.2767 11.5423 8.15708 11.5423H7.47922C7.31981 11.5423 7.2002 11.6619 7.2002 11.8214V11.8613C7.35961 12.858 7.99757 13.5757 9.31329 13.7751V14.732C9.31329 14.8914 9.43291 15.011 9.63223 15.0509H10.2303C10.3898 15.0509 10.5094 14.9313 10.5493 14.732V13.7751C11.7454 13.5757 12.5428 12.7384 12.5428 11.6619Z" fill="white"/>
<path d="M7.87857 15.8483C4.76868 14.732 3.17383 11.2633 4.33013 8.1932C4.92819 6.51865 6.24391 5.24283 7.87857 4.64477C8.03808 4.56506 8.11779 4.44545 8.11779 4.24603V3.68788C8.11779 3.52837 8.03808 3.40876 7.87857 3.36895C7.83867 3.36895 7.75896 3.36895 7.71905 3.40876C3.9314 4.60487 1.85811 8.63184 3.05422 12.4195C3.77189 14.6522 5.48634 16.3667 7.71905 17.0843C7.87857 17.164 8.03808 17.0843 8.07789 16.9248C8.11779 16.885 8.11779 16.8451 8.11779 16.7654V16.2072C8.11779 16.0875 7.99818 15.9281 7.87857 15.8483ZM12.1049 3.40876C11.9453 3.32905 11.7858 3.40876 11.746 3.56827C11.7061 3.60817 11.7061 3.64798 11.7061 3.72778V4.28594C11.7061 4.44545 11.8257 4.60487 11.9453 4.68467C15.0552 5.80098 16.6501 9.2697 15.4938 12.3398C14.8957 14.0143 13.58 15.2902 11.9453 15.8882C11.7858 15.9679 11.7061 16.0875 11.7061 16.287V16.8451C11.7061 17.0046 11.7858 17.1242 11.9453 17.164C11.9852 17.164 12.065 17.164 12.1049 17.1242C15.8925 15.9281 17.9658 11.9011 16.7697 8.11349C16.052 5.84088 14.2977 4.12642 12.1049 3.40876Z" fill="white"/>
</g>
<defs>
<clipPath id="clip0_145_8711">
<rect x="0.342773" y="0.577988" width="19.1378" height="19.1378" rx="9.56889" fill="white"/>
</clipPath>
</defs>
</svg>
