<svg width="23" height="23" viewBox="0 0 23 23" fill="none" xmlns="http://www.w3.org/2000/svg">
<path d="M23 11.5C23 17.8513 17.8513 23 11.5 23C5.14873 23 0 17.8513 0 11.5C0 5.14873 5.14873 0 11.5 0C17.8513 0 23 5.14873 23 11.5Z" fill="#50AF95"/>
<mask id="mask0_2362_365" style="mask-type:luminance" maskUnits="userSpaceOnUse" x="2" y="3" width="19" height="18">
<path d="M20.8333 3.5H2.16663V20.8333H20.8333V3.5Z" fill="white"/>
</mask>
<g mask="url(#mask0_2362_365)">
<path fill-rule="evenodd" clip-rule="evenodd" d="M5.5847 3.58513L2.18111 11.2166C2.16816 11.2449 2.16405 11.277 2.16939 11.3081C2.17474 11.3391 2.18925 11.3675 2.2108 11.3891L11.4031 20.7917C11.4292 20.8184 11.464 20.8333 11.5001 20.8333C11.5363 20.8333 11.5711 20.8184 11.5972 20.7917L20.7895 11.3897C20.811 11.3681 20.8255 11.3397 20.8309 11.3086C20.8362 11.2776 20.8321 11.2455 20.8192 11.2171L17.4156 3.58572C17.4046 3.56009 17.3869 3.53838 17.3647 3.52318C17.3425 3.50798 17.3166 3.49994 17.2902 3.50001H5.7112C5.6847 3.49966 5.6586 3.50751 5.6362 3.52261C5.6137 3.53772 5.5958 3.55943 5.5847 3.58513Z" fill="#50AF95"/>
<path fill-rule="evenodd" clip-rule="evenodd" d="M12.6809 11.998C12.6149 12.0033 12.274 12.025 11.5134 12.025C10.9085 12.025 10.479 12.0057 10.3283 11.998C7.99046 11.8883 6.24546 11.4539 6.24546 10.9338C6.24546 10.4136 7.99046 9.97977 10.3283 9.86827V11.5654C10.4812 11.5771 10.9189 11.6047 11.5238 11.6047C12.2498 11.6047 12.6133 11.5724 12.6787 11.566V9.86948C15.0116 9.98038 16.7527 10.4148 16.7527 10.9338C16.7527 11.4527 15.0121 11.8871 12.6787 11.9975L12.6809 11.998ZM12.6809 9.69388V8.17527H15.9366V5.85938H7.07256V8.17527H10.3277V9.69328C7.68186 9.82308 5.69226 10.3825 5.69226 11.0529C5.69226 11.7233 7.68186 12.2822 10.3277 12.4125V17.279H12.6804V12.4107C15.3201 12.281 17.3065 11.7221 17.3065 11.0523C17.3065 10.3825 15.3222 9.82428 12.6809 9.69388Z" fill="white"/>
</g>
</svg>
